<svg width="58" height="58" viewBox="0 0 58 58" fill="none" xmlns="http://www.w3.org/2000/svg">
<g clip-path="url(#clip0)">
<path d="M38.9752 7.73242H31.2251V12.2044H38.9752V7.73242Z" fill="#D5F5FB"/>
<path d="M31.022 7.73251H39.1784C40.68 7.73251 41.8972 6.51528 41.8972 5.01371C41.8972 3.51215 40.68 2.29492 39.1784 2.29492H31.022C29.5204 2.29492 28.3032 3.51215 28.3032 5.01371C28.3032 6.51528 29.5204 7.73251 31.022 7.73251Z" fill="#0E153A"/>
<path d="M35.1175 55.7053C47.1299 55.7053 56.8679 45.9673 56.8679 33.9549C56.8679 21.9425 47.1299 12.2046 35.1175 12.2046C23.1051 12.2046 13.3672 21.9425 13.3672 33.9549C13.3672 45.9673 23.1051 55.7053 35.1175 55.7053Z" fill="#5F70B5"/>
<path d="M35.1174 50.3955C44.1973 50.3955 51.5581 43.0347 51.5581 33.9548C51.5581 24.8749 44.1973 17.5142 35.1174 17.5142C26.0375 17.5142 18.6768 24.8749 18.6768 33.9548C18.6768 43.0347 26.0375 50.3955 35.1174 50.3955Z" fill="white"/>
<path d="M35.1173 36.342C36.4357 36.342 37.5046 35.2731 37.5046 33.9547C37.5046 32.6362 36.4357 31.5674 35.1173 31.5674C33.7988 31.5674 32.73 32.6362 32.73 33.9547C32.73 35.2731 33.7988 36.342 35.1173 36.342Z" fill="#0E153A"/>
<path d="M57.8882 31.6787C57.3674 26.4408 55.0273 21.5026 51.2987 17.7739C48.1123 14.5876 44.2122 12.54 40.1084 11.6296V8.75128C41.7846 8.33428 43.0304 6.81708 43.0304 5.01373C43.0304 2.8899 41.3026 1.16211 39.1788 1.16211H31.0224C28.8986 1.16211 27.1708 2.8899 27.1708 5.01373C27.1708 6.81697 28.4167 8.33417 30.0927 8.75128V11.6376C26.0015 12.5519 22.1143 14.5967 18.937 17.774C18.2416 18.4694 17.6004 19.1988 17.0135 19.9569C16.9851 19.9547 16.9567 19.9526 16.9277 19.9526H8.85499C8.22944 19.9526 7.72216 20.4598 7.72216 21.0854C7.72216 21.7111 8.22944 22.2183 8.85499 22.2183H15.4721C14.6415 23.6088 13.9718 25.0691 13.462 26.5724H1.13283C0.507281 26.5724 0 27.0796 0 27.7052C0 28.3309 0.507281 28.8381 1.13283 28.8381H12.8218C12.4953 30.2712 12.308 31.7297 12.2596 33.1923H7.25011C6.62456 33.1923 6.11728 33.6995 6.11728 34.3251C6.11728 34.9508 6.62456 35.458 7.25011 35.458H12.2957C12.3913 36.9243 12.6271 38.3829 13.0031 39.8122H5.66415C5.0386 39.8122 4.53132 40.3194 4.53132 40.9451C4.53132 41.5707 5.0386 42.0779 5.66415 42.0779H13.7261C14.8374 45.0177 16.5741 47.7731 18.937 50.1359C22.6692 53.8682 27.6124 56.2088 32.8558 56.7269C33.6042 56.8007 34.3531 56.8373 35.101 56.8373C39.5215 56.8373 43.8858 55.558 47.5891 53.1464C48.1133 52.805 48.2616 52.1032 47.9202 51.5789C47.5788 51.0547 46.877 50.9064 46.3527 51.2478C38.2465 56.5265 27.3902 55.3851 20.539 48.5339C12.5002 40.4951 12.5002 27.4151 20.539 19.3762C28.5777 11.3375 41.6577 11.3375 49.6966 19.3762C56.5388 26.2185 57.6863 37.0655 52.4251 45.1677C52.0844 45.6924 52.2336 46.3941 52.7582 46.7347C53.2831 47.0755 53.9846 46.9263 54.3252 46.4016C57.1362 42.0725 58.4016 36.8439 57.8882 31.6787ZM29.4365 5.01385C29.4365 4.1393 30.1479 3.42788 31.0224 3.42788H39.1788C40.0534 3.42788 40.7648 4.1393 40.7648 5.01385C40.7648 5.88839 40.0534 6.59981 39.1788 6.59981H38.9756H31.2256H31.0224C30.1479 6.59981 29.4365 5.88828 29.4365 5.01385ZM32.3584 11.2481V8.86547H37.8428V11.2441C36.0216 11.0275 34.1792 11.0288 32.3584 11.2481Z" fill="black"/>
<path d="M50.4985 48.2017C50.1995 48.2017 49.9083 48.3229 49.6977 48.5336C49.4859 48.7443 49.3657 49.0365 49.3657 49.3345C49.3657 49.6324 49.4859 49.9247 49.6977 50.1354C49.9083 50.3472 50.1996 50.4673 50.4985 50.4673C50.7965 50.4673 51.0876 50.3472 51.2994 50.1354C51.5101 49.9247 51.6313 49.6324 51.6313 49.3345C51.6313 49.0365 51.5103 48.7443 51.2994 48.5336C51.0876 48.3229 50.7964 48.2017 50.4985 48.2017Z" fill="black"/>
<path d="M35.1179 16.3813C25.4279 16.3813 17.5444 24.2647 17.5444 33.9548C17.5444 43.6449 25.4279 51.5283 35.1179 51.5283C44.8079 51.5283 52.6914 43.6449 52.6914 33.9548C52.6914 24.2647 44.8079 16.3813 35.1179 16.3813ZM35.1179 49.2627C26.6771 49.2627 19.8101 42.3956 19.8101 33.9548C19.8101 25.5141 26.6771 18.647 35.1179 18.647C43.5588 18.647 50.4257 25.5141 50.4257 33.9548C50.4257 42.3956 43.5588 49.2627 35.1179 49.2627Z" fill="black"/>
<path d="M42.284 25.1868L36.6731 30.7976C36.2039 30.5656 35.6761 30.4345 35.1182 30.4345C34.5601 30.4345 34.0325 30.5656 33.5632 30.7976L31.0521 28.2864C30.6096 27.844 29.8925 27.844 29.4499 28.2864C29.0076 28.7288 29.0076 29.4461 29.4499 29.8885L31.9611 32.3996C31.729 32.8688 31.598 33.3966 31.598 33.9545C31.598 35.8955 33.1771 37.4747 35.1182 37.4747C37.0593 37.4747 38.6383 35.8955 38.6383 33.9545C38.6383 33.3966 38.5073 32.8688 38.2752 32.3996L43.7214 26.9534L43.886 26.7888C44.3284 26.3464 44.3284 25.6291 43.886 25.1868C43.4437 24.7444 42.7266 24.7444 42.284 25.1868ZM35.1182 35.2091C34.4265 35.2091 33.8637 34.6463 33.8637 33.9546C33.8637 33.2629 34.4265 32.7001 35.1182 32.7001C35.8099 32.7001 36.3727 33.2629 36.3727 33.9546C36.3727 34.6463 35.8099 35.2091 35.1182 35.2091Z" fill="black"/>
<path d="M47.2302 32.8359H46.1807C45.5551 32.8359 45.0479 33.3431 45.0479 33.9688C45.0479 34.5944 45.5551 35.1016 46.1807 35.1016H47.2302C47.8558 35.1016 48.363 34.5944 48.363 33.9688C48.363 33.3431 47.8558 32.8359 47.2302 32.8359Z" fill="black"/>
<path d="M24.0553 32.8081H23.0059C22.3803 32.8081 21.873 33.3153 21.873 33.9409C21.873 34.5666 22.3803 35.0737 23.0059 35.0737H24.0553C24.6808 35.0737 25.1881 34.5666 25.1881 33.9409C25.1881 33.3153 24.6808 32.8081 24.0553 32.8081Z" fill="black"/>
<path d="M35.1313 24.025C35.7569 24.025 36.2642 23.5179 36.2642 22.8922V21.8428C36.2642 21.2171 35.7569 20.71 35.1313 20.71C34.5058 20.71 33.9985 21.2171 33.9985 21.8428V22.8922C33.9985 23.5179 34.5058 24.025 35.1313 24.025Z" fill="black"/>
<path d="M35.104 43.8848C34.4785 43.8848 33.9712 44.3919 33.9712 45.0176V46.067C33.9712 46.6927 34.4785 47.1998 35.104 47.1998C35.7295 47.1998 36.2368 46.6927 36.2368 46.067V45.0176C36.2368 44.3919 35.7295 43.8848 35.104 43.8848Z" fill="black"/>
<path d="M1.13281 39.8115C0.834883 39.8115 0.542617 39.9327 0.331914 40.1434C0.121211 40.3541 0 40.6464 0 40.9443C0 41.2434 0.121098 41.5345 0.331914 41.7452C0.54273 41.9559 0.834883 42.0771 1.13281 42.0771C1.43074 42.0771 1.72301 41.9559 1.9336 41.7452C2.1443 41.5345 2.26562 41.2423 2.26562 40.9443C2.26562 40.6464 2.14441 40.3541 1.9336 40.1434C1.72301 39.9327 1.43074 39.8115 1.13281 39.8115Z" fill="black"/>
</g>
<defs>
<clipPath id="clip0">
<rect width="58" height="58" fill="white"/>
</clipPath>
</defs>
</svg>
