<svg width="526" height="418" viewBox="0 0 526 418" fill="none" xmlns="http://www.w3.org/2000/svg">
<g clip-path="url(#clip0)">
<path d="M281.065 88.5503C300.134 88.5503 315.593 73.0749 315.593 53.9851C315.593 34.8953 300.134 19.4199 281.065 19.4199C261.995 19.4199 246.536 34.8953 246.536 53.9851C246.536 73.0749 261.995 88.5503 281.065 88.5503Z" fill="#FF6584"/>
<path d="M177.1 220.338C177.1 287.097 137.455 310.407 88.5499 310.407C39.6451 310.407 0 287.097 0 220.338C0 153.578 88.5499 68.6499 88.5499 68.6499C88.5499 68.6499 177.1 153.578 177.1 220.338Z" fill="#F2F2F2"/>
<path d="M85.3245 300.195L86.2308 244.324L123.973 175.202L86.3733 235.559L86.7806 210.437L112.793 160.428L86.8885 203.788L87.6222 158.605L115.476 118.792L87.7372 151.501L88.1952 68.6499L85.3164 178.328L85.5527 173.804L57.2335 130.41L85.099 182.49L82.4602 232.952L82.3815 231.612L49.7344 185.947L82.2827 236.344L81.9526 242.655L81.8938 242.75L81.9207 243.268L75.226 371.294H84.1705L85.2436 305.166L117.712 254.893L85.3245 300.195Z" fill="#3F3D56"/>
<path d="M439.507 185.314C439.507 266.872 391.073 295.349 331.328 295.349C271.582 295.349 223.148 266.872 223.148 185.314C223.148 103.755 331.328 0 331.328 0C331.328 0 439.507 103.755 439.507 185.314Z" fill="#F2F2F2"/>
<path d="M327.387 282.873L328.494 214.616L374.603 130.172L328.668 203.909L329.166 173.217L360.944 112.124L329.298 165.096L330.194 109.896L364.222 61.2576L330.334 101.216L330.894 0L327.377 133.992L327.666 128.464L293.069 75.4515L327.111 139.075L323.887 200.723L323.792 199.087L283.907 143.299L323.671 204.868L323.267 212.578L323.196 212.694L323.229 213.327L315.05 369.734H325.977L327.288 288.946L366.954 227.528L327.387 282.873Z" fill="#3F3D56"/>
<path d="M215.785 375.874C307.557 375.874 381.953 373.214 381.953 369.933C381.953 366.652 307.557 363.992 215.785 363.992C124.013 363.992 49.6172 366.652 49.6172 369.933C49.6172 373.214 124.013 375.874 215.785 375.874Z" fill="#3F3D56"/>
<path d="M449.39 418C491.7 418 526 414.736 526 410.709C526 406.682 491.7 403.418 449.39 403.418C407.08 403.418 372.78 406.682 372.78 410.709C372.78 414.736 407.08 418 449.39 418Z" fill="#3F3D56"/>
<path d="M225.495 187.385H206.073V369.933H225.495V187.385Z" fill="#2F2E41"/>
<path d="M304.803 228.972H185.572V195.487H304.803L339.331 212.229L304.803 228.972Z" fill="#3F3D56"/>
<path opacity="0.1" d="M304.803 226.271H185.572V228.972H304.803L339.331 212.229L336.547 210.879L304.803 226.271Z" fill="black"/>
<path d="M127.306 273.258H246.536V239.773H127.306L92.7773 256.516L127.306 273.258Z" fill="#3F3D56"/>
<path opacity="0.1" d="M95.5617 255.166L92.7773 256.516L127.306 273.258H246.536V270.558H127.306L95.5617 255.166Z" fill="black"/>
<path d="M295 200H240C237.239 200 235 202.239 235 205V218C235 220.761 237.239 223 240 223H295C297.761 223 300 220.761 300 218V205C300 202.239 297.761 200 295 200Z" fill="#0E153A"/>
<path d="M197 245H142C139.239 245 137 247.239 137 250V263C137 265.761 139.239 268 142 268H197C199.761 268 202 265.761 202 263V250C202 247.239 199.761 245 197 245Z" fill="#0E153A"/>
<path d="M215.784 217.09C219.062 217.09 221.719 214.43 221.719 211.149C221.719 207.868 219.062 205.208 215.784 205.208C212.507 205.208 209.85 207.868 209.85 211.149C209.85 214.43 212.507 217.09 215.784 217.09Z" fill="#2F2E41"/>
<path d="M215.784 261.376C219.062 261.376 221.719 258.717 221.719 255.436C221.719 252.154 219.062 249.495 215.784 249.495C212.507 249.495 209.85 252.154 209.85 255.436C209.85 258.717 212.507 261.376 215.784 261.376Z" fill="#2F2E41"/>
<path d="M175.861 349.591C175.861 361.726 168.655 365.963 159.765 365.963C159.56 365.963 159.354 365.961 159.149 365.956C158.737 365.947 158.329 365.928 157.926 365.9C149.903 365.332 143.67 360.877 143.67 349.591C143.67 337.912 158.579 323.174 159.699 322.084L159.701 322.082C159.744 322.04 159.765 322.019 159.765 322.019C159.765 322.019 175.861 337.456 175.861 349.591Z" fill="#0E153A"/>
<path d="M159.179 364.107L165.066 355.872L159.165 365.011L159.149 365.956C158.737 365.947 158.329 365.928 157.926 365.9L158.561 353.76L158.556 353.665L158.566 353.648L158.626 352.501L152.71 343.34L158.645 351.641L158.659 351.884L159.138 342.711L154.073 333.245L159.2 341.101L159.699 322.084L159.701 322.019V322.082L159.618 337.078L164.66 331.133L159.597 338.37L159.464 346.583L164.172 338.701L159.444 347.792L159.37 352.358L166.205 341.387L159.344 353.951L159.179 364.107Z" fill="#3F3D56"/>
<path d="M424.595 397.431C424.595 397.431 416.956 403.87 412.935 403.468C408.915 403.065 401.276 403.065 404.492 407.493C407.709 411.92 420.976 414.335 426.605 414.737C432.233 415.14 444.697 415.542 443.893 413.127C443.089 410.712 442.285 399.443 439.068 398.638C435.852 397.833 424.595 397.431 424.595 397.431Z" fill="#575A89"/>
<path d="M468.437 391.108C468.437 391.108 462.808 399.366 458.828 400.06C454.847 400.754 447.489 402.809 451.776 406.208C456.063 409.607 469.49 408.364 475.02 407.237C480.55 406.11 492.663 403.145 491.24 401.035C489.817 398.925 486.017 388.287 482.703 388.377C479.389 388.467 468.437 391.108 468.437 391.108Z" fill="#575A89"/>
<path d="M420.12 273.009C420.12 273.009 414.946 308.484 416.152 314.923C417.358 321.363 418.162 331.425 418.162 331.425C418.162 331.425 417.358 339.877 418.162 343.901C418.966 347.926 423.791 386.161 423.791 386.966C423.791 387.771 422.987 390.186 423.791 392.199C424.595 394.211 426.203 392.601 423.791 395.821C421.379 399.041 422.987 399.846 423.389 399.846C423.791 399.846 439.471 401.455 440.275 399.846C441.079 398.236 439.873 397.833 440.275 395.821C440.677 393.808 441.079 393.406 441.883 393.003C442.687 392.601 444.295 393.406 443.089 391.394C441.883 389.381 439.069 386.966 439.873 385.759C440.677 384.551 439.471 375.697 439.471 375.697C439.471 375.697 438.667 355.976 438.265 343.901C437.863 331.827 441.883 319.35 441.883 319.35C442.384 329.23 446.049 338.685 452.336 346.316C462.789 358.793 468.016 382.137 468.016 382.137C468.016 382.137 470.428 385.759 469.222 388.979C468.016 392.199 464.398 390.186 468.016 392.199C471.634 394.211 484.098 391.394 485.304 390.186C486.51 388.979 483.696 387.369 484.5 384.149C485.304 380.929 488.52 381.734 485.706 380.124C482.892 378.514 482.088 378.917 482.088 377.307C482.088 375.697 474.851 340.682 463.594 330.62L462.789 293.994C462.789 293.994 472.841 268.236 462.387 265.821C451.934 263.406 420.12 273.009 420.12 273.009Z" fill="#2F2E41"/>
<path d="M427.409 177.679C427.409 177.679 434.244 194.583 432.636 196.998C431.028 199.412 452.336 188.948 452.336 188.948C452.336 188.948 445.501 172.044 445.501 170.032C445.501 168.019 427.409 177.679 427.409 177.679Z" fill="#A0616A"/>
<path d="M432.434 181.905C440.65 181.905 447.31 175.238 447.31 167.013C447.31 158.789 440.65 152.122 432.434 152.122C424.219 152.122 417.559 158.789 417.559 167.013C417.559 175.238 424.219 181.905 432.434 181.905Z" fill="#A0616A"/>
<path d="M452.336 182.106C452.336 182.106 441.882 180.899 436.656 187.338C431.429 193.778 430.625 195.388 430.625 195.388C430.625 195.388 418.162 215.511 420.574 225.573C421.162 226.482 421.699 227.422 422.182 228.391C422.986 230.001 422.986 252.539 422.182 256.161C421.378 259.784 420.574 260.991 421.378 266.223C422.182 271.456 414.945 279.908 423.388 281.517C431.831 283.127 438.264 281.92 441.078 278.298C443.893 274.675 441.48 272.26 450.325 272.26C459.17 272.26 464.799 266.223 464.799 266.223C464.799 266.223 460.377 261.394 461.985 260.589C463.593 259.784 461.985 257.771 461.181 255.759C460.377 253.747 460.377 252.137 461.583 252.137C462.789 252.137 461.985 251.332 461.181 249.319C460.377 247.307 475.252 212.694 466.407 202.632C457.562 192.57 453.14 186.936 453.14 186.936C453.14 186.936 454.748 180.899 452.336 182.106Z" fill="#0E153A"/>
<path d="M429.42 220.341V238.05L416.554 280.713C416.554 280.713 408.111 302.849 416.554 302.849C424.997 302.849 424.545 281.721 424.545 281.721L442.687 249.722C442.687 249.722 449.924 224.366 449.12 222.354C448.316 220.341 429.42 220.341 429.42 220.341Z" fill="#A0616A"/>
<path d="M436.254 194.18C436.254 194.18 424.192 199.01 427.409 211.889C430.625 224.768 427.409 224.366 427.409 224.366C427.409 224.366 443.893 222.756 449.119 226.378L450.325 221.548C450.325 221.548 455.15 193.778 436.254 194.18Z" fill="#0E153A"/>
<path d="M427.355 155.833C426.427 156.163 425.431 156.256 424.458 156.105C423.484 155.953 422.564 155.561 421.78 154.965C420.264 153.715 419.621 151.409 420.513 149.657C421.283 148.145 422.929 147.315 424.508 146.696C427.991 145.332 431.66 144.503 435.39 144.236C437.169 144.11 439.037 144.13 440.624 144.943C441.409 145.346 442.091 145.926 442.869 146.343C444.299 147.11 445.964 147.28 447.509 147.774C449.09 148.29 450.542 149.14 451.767 150.267C452.991 151.394 453.959 152.771 454.606 154.305C455.027 155.346 455.32 156.435 455.481 157.547C455.943 160.591 455.62 163.702 454.542 166.586C452.829 171.154 449.234 175.148 449.031 180.023C446.831 178.425 446.015 175.541 444.252 173.47C442.941 171.939 441.149 170.899 439.171 170.519C438.623 170.486 438.097 170.294 437.656 169.966C437.349 169.599 437.157 169.15 437.103 168.675L435.597 161.559C435.291 160.111 434.904 158.533 433.715 157.653C432.975 157.179 432.135 156.883 431.262 156.787C429.186 156.424 427.084 156.232 424.976 156.214" fill="#2F2E41"/>
<path d="M154.05 259.619H158.568V261H152.32V251.047H154.05V259.619ZM162.991 261.137C161.938 261.137 161.084 260.806 160.428 260.146C159.776 259.48 159.45 258.596 159.45 257.493V257.288C159.45 256.55 159.591 255.891 159.874 255.312C160.161 254.729 160.562 254.276 161.077 253.952C161.592 253.629 162.166 253.467 162.8 253.467C163.807 253.467 164.584 253.788 165.131 254.431C165.682 255.073 165.958 255.982 165.958 257.158V257.828H161.125C161.175 258.439 161.378 258.922 161.733 259.277C162.093 259.633 162.545 259.811 163.087 259.811C163.848 259.811 164.468 259.503 164.946 258.888L165.842 259.742C165.546 260.184 165.149 260.528 164.652 260.774C164.16 261.016 163.606 261.137 162.991 261.137ZM162.793 254.8C162.337 254.8 161.968 254.959 161.686 255.278C161.408 255.597 161.23 256.042 161.152 256.611H164.317V256.488C164.281 255.932 164.133 255.513 163.873 255.23C163.613 254.943 163.253 254.8 162.793 254.8ZM171.673 261C171.6 260.859 171.536 260.629 171.481 260.31C170.953 260.861 170.306 261.137 169.54 261.137C168.797 261.137 168.191 260.925 167.722 260.501C167.252 260.077 167.018 259.553 167.018 258.929C167.018 258.14 167.309 257.536 167.893 257.117C168.48 256.693 169.319 256.481 170.408 256.481H171.427V255.996C171.427 255.613 171.32 255.308 171.105 255.08C170.891 254.848 170.565 254.731 170.128 254.731C169.75 254.731 169.44 254.827 169.198 255.019C168.957 255.205 168.836 255.445 168.836 255.736H167.175C167.175 255.331 167.309 254.952 167.578 254.602C167.847 254.246 168.212 253.968 168.672 253.768C169.137 253.567 169.654 253.467 170.224 253.467C171.09 253.467 171.78 253.686 172.295 254.123C172.81 254.556 173.074 255.167 173.088 255.955V259.291C173.088 259.956 173.181 260.487 173.368 260.884V261H171.673ZM169.848 259.804C170.176 259.804 170.483 259.724 170.771 259.564C171.062 259.405 171.281 259.191 171.427 258.922V257.527H170.531C169.916 257.527 169.453 257.634 169.144 257.849C168.834 258.063 168.679 258.366 168.679 258.758C168.679 259.077 168.784 259.332 168.993 259.523C169.207 259.71 169.492 259.804 169.848 259.804ZM178.7 255.121C178.481 255.085 178.256 255.066 178.023 255.066C177.262 255.066 176.75 255.358 176.485 255.941V261H174.824V253.604H176.41L176.451 254.431C176.852 253.788 177.408 253.467 178.119 253.467C178.356 253.467 178.552 253.499 178.707 253.562L178.7 255.121ZM181.291 253.604L181.339 254.458C181.886 253.797 182.604 253.467 183.492 253.467C185.033 253.467 185.816 254.349 185.844 256.112V261H184.183V256.208C184.183 255.739 184.08 255.392 183.875 255.169C183.674 254.941 183.344 254.827 182.884 254.827C182.214 254.827 181.715 255.13 181.387 255.736V261H179.726V253.604H181.291Z" fill="white"/>
<path d="M252.83 214.708C252.47 215.177 251.971 215.533 251.333 215.774C250.695 216.016 249.97 216.137 249.159 216.137C248.325 216.137 247.587 215.948 246.944 215.569C246.302 215.191 245.805 214.651 245.454 213.949C245.108 213.243 244.928 212.42 244.914 211.481V210.702C244.914 209.198 245.274 208.025 245.994 207.182C246.714 206.334 247.719 205.91 249.009 205.91C250.116 205.91 250.996 206.184 251.647 206.73C252.299 207.277 252.691 208.066 252.823 209.096H251.128C250.937 207.897 250.242 207.298 249.043 207.298C248.268 207.298 247.678 207.578 247.272 208.139C246.871 208.695 246.664 209.513 246.65 210.593V211.358C246.65 212.434 246.876 213.27 247.327 213.867C247.783 214.46 248.414 214.756 249.221 214.756C250.105 214.756 250.734 214.555 251.107 214.154V212.206H249.057V210.894H252.83V214.708ZM256.337 216H254.676V208.604H256.337V216ZM254.573 206.683C254.573 206.427 254.653 206.215 254.812 206.047C254.977 205.878 255.209 205.794 255.51 205.794C255.811 205.794 256.043 205.878 256.207 206.047C256.371 206.215 256.453 206.427 256.453 206.683C256.453 206.933 256.371 207.143 256.207 207.312C256.043 207.476 255.811 207.558 255.51 207.558C255.209 207.558 254.977 207.476 254.812 207.312C254.653 207.143 254.573 206.933 254.573 206.683ZM260.76 213.895L262.325 208.604H264.041L261.478 216H260.035L257.451 208.604H259.174L260.76 213.895ZM268.245 216.137C267.192 216.137 266.338 215.806 265.682 215.146C265.03 214.48 264.704 213.596 264.704 212.493V212.288C264.704 211.55 264.845 210.891 265.128 210.312C265.415 209.729 265.816 209.276 266.331 208.952C266.846 208.629 267.42 208.467 268.054 208.467C269.061 208.467 269.838 208.788 270.385 209.431C270.936 210.073 271.212 210.982 271.212 212.158V212.828H266.379C266.429 213.439 266.632 213.922 266.987 214.277C267.347 214.633 267.799 214.811 268.341 214.811C269.102 214.811 269.722 214.503 270.2 213.888L271.096 214.742C270.799 215.184 270.403 215.528 269.906 215.774C269.414 216.016 268.86 216.137 268.245 216.137ZM268.047 209.8C267.591 209.8 267.222 209.959 266.939 210.278C266.661 210.597 266.484 211.042 266.406 211.611H269.571V211.488C269.535 210.932 269.387 210.513 269.127 210.23C268.867 209.943 268.507 209.8 268.047 209.8ZM280.475 215.275C279.987 215.85 279.294 216.137 278.396 216.137C277.594 216.137 276.986 215.902 276.571 215.433C276.161 214.963 275.956 214.284 275.956 213.396V208.604H277.617V213.375C277.617 214.314 278.007 214.783 278.786 214.783C279.593 214.783 280.137 214.494 280.42 213.915V208.604H282.081V216H280.516L280.475 215.275ZM290.25 212.377C290.25 213.521 289.99 214.435 289.471 215.118C288.951 215.797 288.254 216.137 287.379 216.137C286.568 216.137 285.918 215.87 285.431 215.337V218.844H283.77V208.604H285.301L285.369 209.355C285.857 208.763 286.52 208.467 287.358 208.467C288.261 208.467 288.967 208.804 289.478 209.479C289.993 210.148 290.25 211.08 290.25 212.274V212.377ZM288.596 212.233C288.596 211.495 288.448 210.91 288.151 210.477C287.86 210.044 287.44 209.827 286.894 209.827C286.215 209.827 285.727 210.107 285.431 210.668V213.949C285.731 214.523 286.224 214.811 286.907 214.811C287.436 214.811 287.848 214.599 288.145 214.175C288.445 213.746 288.596 213.099 288.596 212.233Z" fill="white"/>
</g>
<defs>
<clipPath id="clip0">
<rect width="526" height="418" fill="white"/>
</clipPath>
</defs>
</svg>
