<svg width="26" height="26" viewBox="0 0 26 26" fill="none" xmlns="http://www.w3.org/2000/svg">
<path d="M10.2425 3.92756C9.50494 4.46279 8.49921 4.72294 7.16783 4.72294H6.90625C6.62584 4.72294 6.39844 4.95029 6.39844 5.23076V12.8479C6.39844 13.1284 6.62584 13.3558 6.90625 13.3558H7.16777C8.72102 13.3558 9.9218 13.0322 10.8389 12.3667C11.1251 12.1591 11.5168 12.108 11.8613 12.2333C12.0509 12.3023 12.387 12.4899 12.5074 12.9712C12.5074 12.9713 12.5075 12.9715 12.5075 12.9717C12.5638 13.1943 12.7649 13.3545 12.9971 13.3557C12.9982 13.3557 12.9993 13.3559 13.0004 13.3559C13.2305 13.3559 13.4362 13.1969 13.4926 12.9712C13.613 12.4899 13.9491 12.3024 14.1387 12.2334C14.4832 12.108 14.8749 12.1591 15.1611 12.3667C16.0782 13.0323 17.279 13.3558 18.8323 13.3558H19.0938C19.3742 13.3558 19.6016 13.1285 19.6016 12.848V5.23081C19.6016 4.95034 19.3742 4.723 19.0938 4.723H18.8323C17.5009 4.723 16.4952 4.46279 15.7576 3.92756C15.202 3.52446 14.4486 3.42269 13.7914 3.66182C13.4824 3.7742 13.2147 3.95437 13 4.18619C12.7854 3.95437 12.5176 3.7742 12.2086 3.66172C11.5514 3.42259 10.7979 3.52446 10.2425 3.92756ZM14.1387 4.61615C14.4832 4.49072 14.8749 4.54191 15.1611 4.7495C16.0291 5.37945 17.1514 5.70297 18.586 5.73578V12.337C17.376 12.3064 16.4489 12.0464 15.7576 11.5446C15.202 11.1415 14.4486 11.0398 13.7914 11.2789C13.6924 11.315 13.5981 11.3587 13.5078 11.408V5.30134C13.6389 4.8595 13.9563 4.68252 14.1387 4.61615ZM12.4922 5.2986V11.4069C12.4021 11.3577 12.3074 11.3149 12.2086 11.2789C11.5514 11.0398 10.7979 11.1416 10.2424 11.5447C9.5511 12.0464 8.62403 12.3064 7.41406 12.337V5.73578C8.84864 5.70297 9.97096 5.37939 10.8389 4.74955C11.1251 4.54196 11.5168 4.49082 11.8613 4.61615C12.0435 4.68242 12.3608 4.85818 12.4922 5.2986Z" fill="white"/>
<path d="M11.4766 15.3867C11.1961 15.3867 10.9688 15.6141 10.9688 15.8945C10.9688 16.175 11.1961 16.4023 11.4766 16.4023H14.5234C14.8039 16.4023 15.0313 16.175 15.0313 15.8945C15.0313 15.6141 14.8039 15.3867 14.5234 15.3867H11.4766Z" fill="white"/>
<path d="M13 1.01563C13.2805 1.01563 13.5078 0.78827 13.5078 0.507813C13.5078 0.227355 13.2805 0 13 0C12.7196 0 12.4922 0.227355 12.4922 0.507813C12.4922 0.78827 12.7196 1.01563 13 1.01563Z" fill="white"/>
<path d="M24.4766 0.000976562H15.2852C15.0047 0.000976562 14.7773 0.228324 14.7773 0.508788C14.7773 0.789252 15.0047 1.0166 15.2852 1.0166H24.4766C24.7566 1.0166 24.9844 1.2444 24.9844 1.52441V18.0791C24.9844 18.3591 24.7566 18.5869 24.4766 18.5869H1.52344C1.24343 18.5869 1.01562 18.3591 1.01562 18.0791V1.52441C1.01562 1.2444 1.24343 1.0166 1.52344 1.0166H10.7148C10.9953 1.0166 11.2227 0.789252 11.2227 0.508788C11.2227 0.228324 10.9953 0.000976562 10.7148 0.000976562H1.52344C0.683414 0.000976562 0 0.684389 0 1.52441V18.0791C0 18.9191 0.683414 19.6025 1.52344 19.6025H10.8336L9.552 24.9853H6.90625C6.62584 24.9853 6.39844 25.2127 6.39844 25.4931C6.39844 25.7736 6.62584 26.0009 6.90625 26.0009H19.0938C19.3742 26.0009 19.6016 25.7736 19.6016 25.4931C19.6016 25.2127 19.3742 24.9853 19.0938 24.9853H16.448L15.1664 19.6025H24.4766C25.3166 19.6025 26 18.9191 26 18.0791V1.52441C26 0.684389 25.3166 0.000976562 24.4766 0.000976562ZM15.4039 24.9853H10.5961L11.8777 19.6025H14.1223L15.4039 24.9853Z" fill="white"/>
</svg>
