<svg width="25" height="26" viewBox="0 0 25 26" fill="none" xmlns="http://www.w3.org/2000/svg">
<path d="M20.5266 13.8135C20.1248 13.8135 19.7993 14.2014 19.7993 14.6798V23.5814H15.7868V14.6798C15.7868 14.2014 15.4613 13.8135 15.0595 13.8135H9.59174C9.18995 13.8135 8.86438 14.2014 8.86438 14.6798V23.5814H4.85157V14.6798C4.85157 14.2014 4.52601 13.8135 4.12421 13.8135C3.72242 13.8135 3.39685 14.2014 3.39685 14.6798V24.4478C3.39685 24.9262 3.72242 25.3141 4.12421 25.3141H9.59174H15.0595H20.5266C20.9284 25.3141 21.254 24.9262 21.254 24.4478V14.6798C21.254 14.2014 20.9283 13.8135 20.5266 13.8135ZM10.3191 23.5814V15.5461H14.3321V23.5814H10.3191Z" fill="#FFFBFB"/>
<path d="M24.4379 14.067L12.8393 0.253703C12.5553 -0.0846253 12.0947 -0.0845098 11.8106 0.253703L0.213044 14.067C-0.0710148 14.4054 -0.0710148 14.9539 0.213044 15.2921C0.4972 15.6305 0.957669 15.6305 1.24173 15.2921L12.325 2.09146L23.4093 15.2923C23.5513 15.4614 23.7375 15.5459 23.9236 15.5459C24.1097 15.5459 24.2959 15.4614 24.438 15.2921C24.7219 14.9539 24.7219 14.4054 24.4379 14.067Z" fill="#FFFBFB"/>
</svg>
