<svg width="27" height="26" viewBox="0 0 27 26" fill="none" xmlns="http://www.w3.org/2000/svg">
<g clip-path="url(#clip0)">
<path d="M23.4458 6.7502L16.8861 0.223133C16.7426 0.0802852 16.5479 0 16.3449 0H5.27533C3.72289 0 2.45987 1.25673 2.45987 2.8014V23.1986C2.45987 24.7433 3.72289 26 5.27527 26H20.8547C22.4071 26 23.6701 24.7433 23.6701 23.1986V7.28879C23.6701 7.08678 23.5894 6.89305 23.4458 6.7502V6.7502ZM17.1104 2.60066L21.0564 6.52707H18.3948C17.6866 6.52707 17.1104 5.95375 17.1104 5.24905V2.60066ZM20.8547 24.4766H5.27527C4.56711 24.4766 3.99092 23.9032 3.99092 23.1986V2.8014C3.99092 2.09676 4.56711 1.52344 5.27527 1.52344H15.5793V5.24905C15.5793 6.79377 16.8423 8.0505 18.3947 8.0505H22.139V23.1986C22.139 23.9032 21.5629 24.4766 20.8547 24.4766V24.4766Z" fill="white"/>
<path d="M9.78512 11.4224H6.50524C6.08247 11.4224 5.73972 11.7634 5.73972 12.1841V15.4476C5.73972 15.8683 6.08247 16.2093 6.50524 16.2093H9.78512C10.2079 16.2093 10.5506 15.8683 10.5506 15.4476V12.184C10.5506 11.7634 10.2079 11.4224 9.78512 11.4224ZM9.01959 14.6859H7.27077V12.9457H9.01959V14.6859Z" fill="white"/>
<path d="M9.78512 17.9497H6.50524C6.08247 17.9497 5.73972 18.2908 5.73972 18.7114V21.975C5.73972 22.3957 6.08247 22.7367 6.50524 22.7367H9.78512C10.2079 22.7367 10.5506 22.3957 10.5506 21.975V18.7114C10.5506 18.2908 10.2079 17.9497 9.78512 17.9497ZM9.01959 21.2132H7.27077V19.4731H9.01959V21.2132Z" fill="white"/>
<path d="M12.2995 12.1841C12.2995 12.6048 12.6422 12.9458 13.065 12.9458H16.3449C16.7676 12.9458 17.1104 12.6048 17.1104 12.1841C17.1104 11.7634 16.7676 11.4224 16.3449 11.4224H13.065C12.6422 11.4224 12.2995 11.7634 12.2995 12.1841Z" fill="white"/>
<path d="M19.6247 14.686H13.065C12.6422 14.686 12.2995 15.0271 12.2995 15.4478C12.2995 15.8684 12.6422 16.2095 13.065 16.2095H19.6247C20.0475 16.2095 20.3902 15.8684 20.3902 15.4478C20.3902 15.0271 20.0475 14.686 19.6247 14.686Z" fill="white"/>
<path d="M13.065 19.4731H16.3449C16.7676 19.4731 17.1104 19.1321 17.1104 18.7114C17.1104 18.2908 16.7676 17.9497 16.3449 17.9497H13.065C12.6422 17.9497 12.2995 18.2908 12.2995 18.7114C12.2995 19.1321 12.6422 19.4731 13.065 19.4731Z" fill="white"/>
<path d="M19.6247 21.2129H13.065C12.6422 21.2129 12.2995 21.5539 12.2995 21.9746C12.2995 22.3953 12.6422 22.7363 13.065 22.7363H19.6247C20.0475 22.7363 20.3902 22.3953 20.3902 21.9746C20.3902 21.5539 20.0475 21.2129 19.6247 21.2129Z" fill="white"/>
<path d="M6.50533 5.60303H10.6051C11.0279 5.60303 11.3707 5.26198 11.3707 4.84131C11.3707 4.42064 11.0279 4.07959 10.6051 4.07959H6.50533C6.08256 4.07959 5.73981 4.42064 5.73981 4.84131C5.73981 5.26198 6.08256 5.60303 6.50533 5.60303V5.60303Z" fill="white"/>
<path d="M6.50533 8.86621H13.065C13.4878 8.86621 13.8306 8.52516 13.8306 8.10449C13.8306 7.68382 13.4878 7.34277 13.065 7.34277H6.50533C6.08256 7.34277 5.73981 7.68382 5.73981 8.10449C5.73981 8.52516 6.08256 8.86621 6.50533 8.86621V8.86621Z" fill="white"/>
</g>
<defs>
<clipPath id="clip0">
<rect width="26.13" height="26" fill="white"/>
</clipPath>
</defs>
</svg>
