<svg width="117" height="165" viewBox="0 0 117 165" fill="none" xmlns="http://www.w3.org/2000/svg">
<path d="M109.004 108.983V91.8061L101.756 94.6263L101.734 94.5785L101.562 94.2648C98.7838 89.9401 94.2916 86.9311 89.2332 86.014L71.7906 82.8402V81.4633C78.3136 77.6755 83.0903 71.2136 84.5788 63.5742C89.4113 62.5747 93.0555 58.2872 93.0555 53.1624V26.9081C93.0555 19.4893 88.1965 13.0195 81.1472 10.9142L79.8181 9.58517C73.6353 3.40239 65.4164 0 56.6739 0C38.6279 0 23.9445 14.6808 23.9445 32.7294V53.1624C23.9445 58.2872 27.5888 62.5747 32.4212 63.5742C33.9124 71.2136 38.6864 77.6782 45.2094 81.4633V82.8402L27.7695 86.0114C22.7164 86.9284 18.2269 89.9321 15.4465 94.2542L15.287 94.6423L7.99578 91.8061V108.983C3.59925 108.983 0.0214233 112.561 0.0214233 116.957V127.59C0.0214233 131.986 3.59925 135.564 7.99578 135.564V145.357L58.5 165L109.004 145.357V135.564C113.401 135.564 116.979 131.986 116.979 127.59V116.957C116.979 112.561 113.401 108.983 109.004 108.983ZM76.7719 89.1506L88.2816 91.2426C91.6707 91.8592 94.6717 93.8156 96.6732 96.6013L70.9559 106.601L76.7719 89.1506ZM50.7516 83.9008C53.205 84.6504 55.8047 85.0598 58.5 85.0598C61.1953 85.0598 63.795 84.6504 66.2484 83.9008L58.5 89.7115L50.7516 83.9008ZM54.4544 93.3212L49.0291 98.7438L45.5098 88.1884L47.203 87.8827L54.4544 93.3212ZM69.797 87.8853L71.4902 88.191L67.9709 98.7464L62.5457 93.3239L69.797 87.8853ZM85.0812 57.7396V48.5851C86.6628 49.5074 87.7393 51.2033 87.7393 53.1624C87.7393 55.1214 86.6628 56.8173 85.0812 57.7396ZM31.9188 57.7396C30.3373 56.8173 29.2607 55.1214 29.2607 53.1624C29.2607 51.2033 30.3373 49.5074 31.9188 48.5851V57.7396ZM31.9188 39.8718V42.9073C30.9725 43.1545 30.0847 43.5267 29.2607 44.0078V32.7294C29.2607 17.6153 41.5572 5.31624 56.6739 5.31624C63.9943 5.31624 70.8815 8.1684 76.0595 13.3464L78.404 15.6935L79.119 15.869C84.196 17.1369 87.7393 21.677 87.7393 26.9081V44.0078C86.9153 43.5267 86.0275 43.1519 85.0812 42.9073V39.8718H76.6523C69.4488 39.8718 62.5643 36.4322 58.2448 30.672L56.1316 27.8491L50.85 33.1334C46.5013 37.4795 40.7225 39.8718 34.577 39.8718H31.9188ZM37.2351 58.4786V45.0657C43.798 44.457 49.8877 41.6102 54.6085 36.892L55.6425 35.858C60.9721 41.7404 68.6487 45.188 76.6523 45.188H79.7649V58.4786C79.7649 70.2035 70.225 79.7435 58.5 79.7435C46.7751 79.7435 37.2351 70.2035 37.2351 58.4786ZM28.7185 91.2426L40.2281 89.1506L46.0441 106.601L20.3215 96.5987C22.323 93.8103 25.3294 91.8592 28.7185 91.2426ZM5.33766 127.59V116.957C5.33766 115.49 6.53115 114.299 7.99578 114.299C12.3923 114.299 15.9701 117.877 15.9701 122.273C15.9701 126.67 12.3923 130.248 7.99578 130.248C6.53115 130.248 5.33766 129.057 5.33766 127.59ZM55.8419 158.259L13.312 141.723V134.437C17.9983 132.38 21.2864 127.709 21.2864 122.273C21.2864 116.838 17.9983 112.167 13.312 110.11V99.5784L55.8419 116.117V158.259ZM47.9499 107.345L58.5 96.7927L69.0501 107.343L58.5 111.447L47.9499 107.345ZM103.688 141.72L61.1581 158.256V116.117L103.688 99.5784V110.11C99.0017 112.167 95.7137 116.838 95.7137 122.273C95.7137 127.709 99.0017 132.38 103.688 134.437V141.72ZM111.662 127.59C111.662 129.057 110.469 130.248 109.004 130.248C104.608 130.248 101.03 126.67 101.03 122.273C101.03 117.877 104.608 114.299 109.004 114.299C110.469 114.299 111.662 115.49 111.662 116.957V127.59Z" fill="#0E153A"/>
</svg>
