<svg width="96" height="149" viewBox="0 0 96 149" fill="none" xmlns="http://www.w3.org/2000/svg">
<path d="M36.8357 0.000950354C36.0025 0.0237547 35.2345 0.457037 34.7823 1.1589L27.4611 12.1739H2.52632C1.13128 12.1739 0 13.3086 0 14.7077V40.0459C0 41.4451 1.13128 42.5797 2.52632 42.5797H27.7895C29.1845 42.5797 30.3158 41.4451 30.3158 40.0459V20.0546L25.2632 27.656V37.5121H5.05263V17.2415H24.092L16.9864 27.9312L13.8811 21.7016C13.2723 20.4423 11.761 19.9162 10.5054 20.5269C9.24985 21.1375 8.72539 22.6533 9.33423 23.9126C9.34333 23.9308 9.35192 23.9491 9.36152 23.9673L14.4141 34.1026C15.0381 35.3543 16.5555 35.8621 17.804 35.2362C18.1971 35.0391 18.532 34.7426 18.7761 34.3757L38.9866 3.96992C39.7773 2.81653 39.4863 1.23897 38.3363 0.445889C37.8952 0.142337 37.3703 -0.0137458 36.8357 0.000950354ZM48 22.3102C46.605 22.3102 45.4737 23.4448 45.4737 24.844V29.9116C45.4737 31.3108 46.605 32.4455 48 32.4455H93.4737C94.8687 32.4455 96 31.3108 96 29.9116V24.844C96 23.4448 94.8687 22.3102 93.4737 22.3102H48ZM2.52632 47.6661C1.13128 47.6661 0 48.8007 0 50.1999V75.5381C0 76.9372 1.13128 78.0719 2.52632 78.0719H27.7895C29.1845 78.0719 30.3158 76.9372 30.3158 75.5381V50.1999C30.3158 48.8007 29.1845 47.6661 27.7895 47.6661H2.52632ZM5.05263 52.7337H25.2632V73.0043H5.05263V52.7337ZM48 57.7826C46.605 57.7826 45.4737 58.9173 45.4737 60.3164V65.3841C45.4737 66.7832 46.605 67.9179 48 67.9179H93.4737C94.8687 67.9179 96 66.7832 96 65.3841V60.3164C96 58.9173 94.8687 57.7826 93.4737 57.7826H48ZM2.52632 83.1208C1.13128 83.1208 0 84.2554 0 85.6546V110.993C0 112.392 1.13128 113.527 2.52632 113.527H27.7895C29.1845 113.527 30.3158 112.392 30.3158 110.993V85.6546C30.3158 84.2554 29.1845 83.1208 27.7895 83.1208H2.52632ZM5.05263 88.1884H25.2632V108.459H5.05263V88.1884ZM48 93.2738C46.605 93.2738 45.4737 94.4084 45.4737 95.8076V100.875C45.4737 102.274 46.605 103.409 48 103.409H93.4737C94.8687 103.409 96 102.274 96 100.875V95.8076C96 94.4084 94.8687 93.2738 93.4737 93.2738H48ZM2.52632 118.594C1.13128 118.594 0 119.729 0 121.128V146.466C0 147.865 1.13128 149 2.52632 149H27.7895C29.1845 149 30.3158 147.865 30.3158 146.466V121.128C30.3158 119.729 29.1845 118.594 27.7895 118.594H2.52632ZM5.05263 123.662H25.2632V143.932H5.05263V123.662ZM48 128.729C46.605 128.729 45.4737 129.864 45.4737 131.263V136.331C45.4737 137.73 46.605 138.865 48 138.865H93.4737C94.8687 138.865 96 137.73 96 136.331V131.263C96 129.864 94.8687 128.729 93.4737 128.729H48Z" fill="#0E153A"/>
</svg>
