<svg width="141" height="141" viewBox="0 0 141 141" fill="none" xmlns="http://www.w3.org/2000/svg">
<g clip-path="url(#clip0)">
<path d="M129.923 -0.275391H24.5204C23.3683 -0.275391 22.4346 0.658358 22.4346 1.81048V60.3752C22.4346 61.5273 23.3683 62.4611 24.5204 62.4611C25.6715 62.4611 26.6063 61.5273 26.6063 60.3752V3.89636H127.837V125.569C127.837 131.625 122.908 136.553 116.852 136.553C110.794 136.553 105.866 131.625 105.866 125.569C105.866 124.417 104.932 123.483 103.78 123.483H75.2279C74.0769 123.483 73.142 124.417 73.142 125.569C73.142 126.72 74.0769 127.653 75.2279 127.653H101.838C102.319 131.136 103.988 134.242 106.421 136.553H24.5204C19.175 136.553 14.7107 132.718 13.7339 127.653H65.5064C66.6574 127.653 67.5922 126.72 67.5922 125.569C67.5922 124.417 66.6574 123.483 65.5064 123.483H26.4385L26.6052 69.9999C26.6095 68.8478 25.6779 67.9108 24.5258 67.9076C24.5237 67.9076 24.5215 67.9076 24.5194 67.9076C23.3705 67.9076 22.4378 68.837 22.4346 69.9859L22.2667 123.482H11.449C10.2969 123.482 9.36316 124.415 9.36316 125.568C9.36316 133.925 16.163 140.725 24.5194 140.725H116.851C125.209 140.725 132.008 133.925 132.008 125.568V1.81048C132.008 0.658358 131.074 -0.275391 129.923 -0.275391V-0.275391Z" fill="#0E153A"/>
<path d="M106.005 17.2451C101.788 17.2451 98.3575 20.6757 98.3575 24.8926V32.6799C98.3575 33.8321 99.2913 34.7658 100.443 34.7658C101.596 34.7658 102.529 33.8321 102.529 32.6799V29.2042H109.482V32.6799C109.482 33.8321 110.416 34.7658 111.568 34.7658C112.72 34.7658 113.654 33.8321 113.654 32.6799V24.8937C113.654 20.6757 110.223 17.2451 106.005 17.2451ZM102.529 25.0324V24.8926C102.529 22.9756 104.088 21.4169 106.005 21.4169C107.922 21.4169 109.482 22.9767 109.482 24.8926V25.0324H102.529Z" fill="#0E153A"/>
<path d="M106.005 8.3457C96.2674 8.3457 88.3456 16.2686 88.3456 26.0062C88.3456 35.7428 96.2674 43.6657 106.005 43.6657C115.743 43.6657 123.664 35.7428 123.664 26.0062C123.664 16.2686 115.743 8.3457 106.005 8.3457ZM106.005 39.494C98.5673 39.494 92.5173 33.4429 92.5173 26.0062C92.5173 18.5685 98.5673 12.5174 106.005 12.5174C113.443 12.5174 119.494 18.5685 119.494 26.0062C119.494 33.4429 113.443 39.494 106.005 39.494Z" fill="#0E153A"/>
<path d="M33.1415 16.6893H48.7151C49.8672 16.6893 50.8009 15.7556 50.8009 14.6035C50.8009 13.4513 49.8672 12.5176 48.7151 12.5176H33.1415C31.9894 12.5176 31.0556 13.4513 31.0556 14.6035C31.0556 15.7556 31.9894 16.6893 33.1415 16.6893Z" fill="#0E153A"/>
<path d="M33.1415 25.5887H59.8394C60.9915 25.5887 61.9252 24.655 61.9252 23.5029C61.9252 22.3507 60.9915 21.417 59.8394 21.417H33.1415C31.9894 21.417 31.0556 22.3507 31.0556 23.5029C31.0556 24.655 31.9894 25.5887 33.1415 25.5887Z" fill="#0E153A"/>
<path d="M33.1415 34.2098H59.8394C60.9915 34.2098 61.9252 33.2761 61.9252 32.124C61.9252 30.9718 60.9915 30.0381 59.8394 30.0381H33.1415C31.9894 30.0381 31.0556 30.9718 31.0556 32.124C31.0556 33.2761 31.9894 34.2098 33.1415 34.2098Z" fill="#0E153A"/>
<path d="M33.1415 66.4706H90.4314C91.5836 66.4706 92.5173 65.5368 92.5173 64.3847C92.5173 63.2326 91.5836 62.2988 90.4314 62.2988H33.1415C31.9894 62.2988 31.0556 63.2326 31.0556 64.3847C31.0556 65.5368 31.9894 66.4706 33.1415 66.4706Z" fill="#0E153A"/>
<path d="M33.1415 75.9261H70.9637C72.1158 75.9261 73.0495 74.9924 73.0495 73.8403C73.0495 72.6881 72.1158 71.7544 70.9637 71.7544H33.1415C31.9894 71.7544 31.0556 72.6881 31.0556 73.8403C31.0556 74.9924 31.9894 75.9261 33.1415 75.9261Z" fill="#0E153A"/>
<path d="M122.754 62.8882C121.928 62.0857 120.607 62.105 119.805 62.9323L112.15 70.8186L109.474 67.9635C108.686 67.1234 107.366 67.0814 106.526 67.8689C105.686 68.6563 105.642 69.9763 106.43 70.8175L110.602 75.2668C110.992 75.6831 111.535 75.9208 112.106 75.9262H112.124C112.688 75.9262 113.228 75.6971 113.62 75.2926L122.798 65.8368C123.6 65.0106 123.581 63.6896 122.754 62.8882Z" fill="#0E153A"/>
<path d="M33.1415 86.7719H90.4314C91.5836 86.7719 92.5173 85.8381 92.5173 84.686C92.5173 83.5338 91.5836 82.6001 90.4314 82.6001H33.1415C31.9894 82.6001 31.0556 83.5338 31.0556 84.686C31.0556 85.8381 31.9894 86.7719 33.1415 86.7719Z" fill="#0E153A"/>
<path d="M33.1415 96.2279H70.9637C72.1158 96.2279 73.0495 95.2941 73.0495 94.142C73.0495 92.9899 72.1158 92.0562 70.9637 92.0562H33.1415C31.9894 92.0562 31.0556 92.9899 31.0556 94.142C31.0556 95.2941 31.9894 96.2279 33.1415 96.2279Z" fill="#0E153A"/>
<path d="M122.754 83.1894C121.928 82.3869 120.607 82.4063 119.805 83.2335L112.15 91.1198L109.474 88.2659C108.686 87.4257 107.366 87.3827 106.526 88.1701C105.686 88.9587 105.642 90.2786 106.43 91.1188L110.602 95.568C110.992 95.9844 111.535 96.2232 112.106 96.2275H112.124C112.688 96.2275 113.228 95.9994 113.62 95.5939L122.798 86.1391C123.6 85.3119 123.581 83.9919 122.754 83.1894Z" fill="#0E153A"/>
<path d="M33.1415 107.075H90.4314C91.5836 107.075 92.5173 106.14 92.5173 104.989C92.5173 103.837 91.5836 102.903 90.4314 102.903H33.1415C31.9894 102.903 31.0556 103.837 31.0556 104.989C31.0556 106.14 31.9894 107.075 33.1415 107.075Z" fill="#0E153A"/>
<path d="M33.1415 116.529H70.9637C72.1158 116.529 73.0495 115.595 73.0495 114.443C73.0495 113.292 72.1158 112.357 70.9637 112.357H33.1415C31.9894 112.357 31.0556 113.292 31.0556 114.443C31.0556 115.595 31.9894 116.529 33.1415 116.529Z" fill="#0E153A"/>
<path d="M119.805 103.535L112.15 111.423L109.474 108.568C108.686 107.728 107.366 107.685 106.526 108.473C105.686 109.261 105.642 110.58 106.43 111.421L110.602 115.871C110.992 116.287 111.535 116.525 112.106 116.529H112.124C112.688 116.529 113.228 116.301 113.62 115.897L122.798 106.441C123.6 105.615 123.581 104.294 122.754 103.491C121.928 102.69 120.607 102.708 119.805 103.535Z" fill="#0E153A"/>
</g>
<defs>
<clipPath id="clip0">
<rect width="141" height="141" fill="white"/>
</clipPath>
</defs>
</svg>
