<svg width="137" height="137" viewBox="0 0 137 137" fill="none" xmlns="http://www.w3.org/2000/svg">
<path d="M92.582 85.3574C91.1045 85.3574 89.9062 86.5554 89.9062 88.0332V106.496C89.9062 113.873 83.9045 119.875 76.5273 119.875H47.6375C46.1602 119.875 44.9628 121.072 44.9617 122.549L44.9579 127.869L38.5714 121.483C38.158 120.534 37.2118 119.875 36.1174 119.875H18.7305C11.3533 119.875 5.35156 113.873 5.35156 106.496V65.2891C5.35156 57.9119 11.3533 51.9102 18.7305 51.9102H45.7559C47.2334 51.9102 48.4316 50.7122 48.4316 49.2344C48.4316 47.7565 47.2334 46.5586 45.7559 46.5586H18.7305C8.40249 46.5586 0 54.9611 0 65.2891V106.496C0 116.824 8.40249 125.227 18.7305 125.227H34.7472L45.7369 136.216C46.2487 136.728 46.9329 137 47.6294 137C47.9738 137 48.3214 136.933 48.6519 136.797C49.6518 136.383 50.3039 135.408 50.3047 134.326L50.3111 125.227H76.5273C86.8553 125.227 95.2578 116.824 95.2578 106.496V88.0332C95.2578 86.5554 94.0596 85.3574 92.582 85.3574Z" fill="#0E153A"/>
<path d="M98.1089 0H91.3367C69.8919 0 52.4453 17.4466 52.4453 38.8914C52.4453 60.3362 69.8919 77.7826 91.3365 77.7826H98.1086C101.456 77.7826 104.769 77.3574 107.98 76.5172L117.983 86.5155C118.495 87.0268 119.179 87.2987 119.876 87.2987C120.22 87.2987 120.568 87.2321 120.899 87.0948C121.899 86.6806 122.551 85.705 122.551 84.6229V69.1419C126.786 65.7118 130.305 61.3789 132.774 56.5385C135.578 51.0408 137 45.1035 137 38.8914C137 17.4466 119.553 0 98.1089 0ZM118.265 65.6998C117.594 66.2053 117.199 66.9967 117.199 67.8372V78.1657L110.651 71.6213C110.142 71.1124 109.458 70.8381 108.76 70.8381C108.497 70.8381 108.232 70.8769 107.974 70.9564C104.789 71.9352 101.47 72.4313 98.1089 72.4313H91.3367C72.8425 72.4313 57.7969 57.3853 57.7969 38.8914C57.7969 20.3975 72.8428 5.35156 91.3367 5.35156H98.1089C116.603 5.35156 131.648 20.3975 131.648 38.8914C131.648 49.5226 126.77 59.294 118.265 65.6998Z" fill="#0E153A"/>
<path d="M106.772 29.2789C106.386 23.6771 101.871 19.1615 96.2687 18.7753C93.0931 18.5573 90.0625 19.6284 87.7429 21.7939C85.4551 23.9294 84.1432 26.9483 84.1432 30.0765C84.1432 31.5543 85.3414 32.7523 86.8189 32.7523C88.2965 32.7523 89.4947 31.5543 89.4947 30.0765C89.4947 28.4017 90.1695 26.8495 91.3945 25.7062C92.6184 24.5639 94.218 23.9985 95.9011 24.1146C98.8519 24.318 101.23 26.6965 101.434 29.647C101.639 32.6271 99.6841 35.2606 96.7851 35.9092C94.4363 36.4347 92.7961 38.4758 92.7961 40.8725V47.301C92.7961 48.7789 93.9943 49.9768 95.4719 49.9768C96.9497 49.9768 98.1477 48.7789 98.1474 47.301V41.0863C103.539 39.7837 107.156 34.8501 106.772 29.2789Z" fill="#0E153A"/>
<path d="M97.3636 55.9935C96.866 55.4958 96.1756 55.2095 95.4719 55.2095C94.7681 55.2095 94.0778 55.4958 93.5801 55.9935C93.0824 56.4912 92.7961 57.1815 92.7961 57.8853C92.7961 58.5917 93.0827 59.282 93.5801 59.7797C94.0778 60.2774 94.7681 60.561 95.4719 60.561C96.1756 60.561 96.866 60.2774 97.3636 59.7797C97.8613 59.2793 98.1477 58.5917 98.1477 57.8853C98.1477 57.1815 97.8611 56.4912 97.3636 55.9935Z" fill="#0E153A"/>
<path d="M73.584 82.9492H17.125C15.6474 82.9492 14.4492 84.1472 14.4492 85.625C14.4492 87.1028 15.6474 88.3008 17.125 88.3008H73.584C75.0618 88.3008 76.2598 87.1028 76.2598 85.625C76.2598 84.1472 75.0616 82.9492 73.584 82.9492Z" fill="#0E153A"/>
<path d="M75.4755 98.7176C74.9781 98.2199 74.2877 97.9336 73.584 97.9336C72.8803 97.9336 72.1899 98.2199 71.6922 98.7176C71.1942 99.2153 70.9082 99.9056 70.9082 100.609C70.9082 101.313 71.1945 102.003 71.6922 102.501C72.1899 102.999 72.8803 103.285 73.584 103.285C74.2877 103.285 74.9781 102.999 75.4755 102.501C75.9735 102.003 76.2598 101.316 76.2598 100.609C76.2598 99.9056 75.9732 99.2153 75.4755 98.7176Z" fill="#0E153A"/>
<path d="M63.0593 97.9336H17.125C15.6474 97.9336 14.4492 99.1315 14.4492 100.609C14.4492 102.087 15.6474 103.285 17.125 103.285H63.0593C64.5372 103.285 65.7351 102.087 65.7351 100.609C65.7351 99.1315 64.5369 97.9336 63.0593 97.9336Z" fill="#0E153A"/>
<path d="M56.1914 67.9648H17.125C15.6474 67.9648 14.4492 69.1628 14.4492 70.6406C14.4492 72.1185 15.6474 73.3164 17.125 73.3164H56.1914C57.6692 73.3164 58.8672 72.1185 58.8672 70.6406C58.8672 69.1628 57.669 67.9648 56.1914 67.9648Z" fill="#0E153A"/>
</svg>
