<svg width="26" height="20" viewBox="0 0 26 20" fill="none" xmlns="http://www.w3.org/2000/svg">
<path d="M18.3328 15.0866V16.5652C18.3328 18.1959 16.5104 19.5225 14.2702 19.5225H4.06268C1.82245 19.5225 0 18.1959 0 16.5652V3.55342C0 1.92276 1.82245 0.596191 4.06268 0.596191H14.2702C16.5104 0.596191 18.3328 1.92276 18.3328 3.55342V5.03204C18.3328 5.44039 17.8782 5.77134 17.3172 5.77134C16.7562 5.77134 16.3015 5.44039 16.3015 5.03204V3.55342C16.3015 2.73816 15.3902 2.07481 14.2702 2.07481H4.06268C2.94266 2.07481 2.03134 2.73816 2.03134 3.55342V16.5652C2.03134 17.3805 2.94266 18.0438 4.06268 18.0438H14.2702C15.3902 18.0438 16.3015 17.3805 16.3015 16.5652V15.0866C16.3015 14.6783 16.7562 14.3473 17.3172 14.3473C17.8782 14.3473 18.3328 14.6783 18.3328 15.0866ZM25.2574 8.78936L22.9831 7.13386C22.5863 6.84507 21.9432 6.84507 21.5467 7.13386C21.1499 7.42251 21.1499 7.89064 21.5467 8.17929L23.1644 9.35698H10.9692C10.4082 9.35698 9.95356 9.68794 9.95356 10.0963C9.95356 10.5046 10.4082 10.8356 10.9692 10.8356H23.1644L21.5467 12.0133C21.1499 12.3019 21.1499 12.7701 21.5467 13.0587C21.745 13.2031 22.0049 13.2753 22.2648 13.2753C22.5249 13.2753 22.7847 13.2031 22.9831 13.0587L25.2574 11.4032C26.2475 10.6825 26.2475 9.51004 25.2574 8.78936V8.78936Z" fill="#FFFEFE"/>
</svg>
