<svg width="26" height="26" viewBox="0 0 26 26" fill="none" xmlns="http://www.w3.org/2000/svg">
<path d="M20.6727 3.90957H25.5633C25.8044 3.90957 26 3.73899 26 3.52852C26 3.3181 25.8045 3.14746 25.5633 3.14746H20.6727C20.4316 3.14746 20.236 3.31804 20.236 3.52852C20.2361 3.73899 20.4316 3.90957 20.6727 3.90957Z" fill="white"/>
<path d="M25.5633 4.70117H20.6728C20.4316 4.70117 20.2361 4.87176 20.2361 5.08223C20.2361 5.2927 20.4316 5.46328 20.6728 5.46328H25.5633C25.8045 5.46328 26 5.2927 26 5.08223C26 4.87176 25.8045 4.70117 25.5633 4.70117Z" fill="white"/>
<path d="M25.5633 8.98926H20.6728C20.4316 8.98926 20.2361 9.15984 20.2361 9.37031C20.2361 9.58074 20.4316 9.75137 20.6728 9.75137H25.5633C25.8045 9.75137 26 9.58079 26 9.37031C26 9.15984 25.8045 8.98926 25.5633 8.98926Z" fill="white"/>
<path d="M25.5633 10.543H20.6728C20.4316 10.543 20.2361 10.7136 20.2361 10.924C20.2361 11.1344 20.4316 11.3051 20.6728 11.3051H25.5633C25.8045 11.3051 26 11.1345 26 10.924C26 10.7136 25.8045 10.543 25.5633 10.543Z" fill="white"/>
<path d="M25.5633 14.8306H20.6728C20.4316 14.8306 20.2361 15.0011 20.2361 15.2116C20.2361 15.4221 20.4316 15.5927 20.6728 15.5927H25.5633C25.8045 15.5927 26 15.4221 26 15.2116C26 15.0011 25.8045 14.8306 25.5633 14.8306Z" fill="white"/>
<path d="M25.5633 16.3843H20.6728C20.4316 16.3843 20.2361 16.5549 20.2361 16.7653C20.2361 16.9758 20.4316 17.1464 20.6728 17.1464H25.5633C25.8045 17.1464 26 16.9758 26 16.7653C26 16.5549 25.8045 16.3843 25.5633 16.3843Z" fill="white"/>
<path d="M18.7287 2.09946L18.1011 2.66548C17.9567 2.34596 17.6002 2.11892 17.1833 2.11892H14.1463C13.6021 2.11892 13.1594 2.50526 13.1594 2.98017V5.63034C13.1594 6.10525 13.6021 6.49159 14.1463 6.49159H14.2809C14.522 6.49159 14.7176 6.32101 14.7176 6.11054C14.7176 5.90006 14.5221 5.72948 14.2809 5.72948H14.1463C14.0837 5.72948 14.0327 5.68502 14.0327 5.63029V2.98017C14.0327 2.92545 14.0836 2.88098 14.1463 2.88098H17.1833C17.246 2.88098 17.297 2.92545 17.297 2.98017V3.3906L16.2466 4.33783L15.4927 3.6743C15.3228 3.5248 15.0463 3.52383 14.8751 3.67196C14.7039 3.82013 14.7027 4.0614 14.8725 4.21084L15.6955 4.93525C15.8426 5.06478 16.0384 5.13597 16.2472 5.13597H16.2521C16.4627 5.13485 16.6594 5.06148 16.8058 4.92941L17.2969 4.48661V5.63044C17.2969 5.68512 17.246 5.72963 17.1832 5.72963H16.2798C16.0387 5.72963 15.8431 5.90022 15.8431 6.11069C15.8431 6.32116 16.0386 6.49175 16.2798 6.49175H17.1832C17.7275 6.49175 18.1702 6.1054 18.1702 5.63049V3.69899L19.3563 2.6294C19.524 2.47818 19.5195 2.23696 19.3462 2.09062C19.1729 1.94427 18.8964 1.94824 18.7287 2.09946Z" fill="white"/>
<path d="M18.7287 7.94127L18.1011 8.50729C17.9567 8.18777 17.6002 7.96073 17.1833 7.96073H14.1463C13.6021 7.96073 13.1594 8.34707 13.1594 8.82198V11.4722C13.1594 11.9471 13.6021 12.3334 14.1463 12.3334H17.1833C17.7275 12.3334 18.1703 11.9471 18.1703 11.4722V9.5408L19.3563 8.47126C19.524 8.32004 19.5195 8.07882 19.3462 7.93248C19.1728 7.78603 18.8964 7.79005 18.7287 7.94127ZM17.2969 9.23241L16.2465 10.1796L15.4927 9.51605C15.3229 9.36656 15.0464 9.36559 14.8751 9.51372C14.7039 9.66189 14.7027 9.90316 14.8725 10.0526L15.6955 10.777C15.8426 10.9065 16.0384 10.9777 16.2472 10.9777H16.2521C16.4627 10.9766 16.6594 10.9032 16.8058 10.7712L17.2969 10.3284V11.4722C17.2969 11.5269 17.246 11.5714 17.1832 11.5714H14.1463C14.0836 11.5714 14.0326 11.5269 14.0326 11.4722V8.82203C14.0326 8.76731 14.0835 8.72284 14.1463 8.72284H17.1832C17.2459 8.72284 17.2969 8.76731 17.2969 8.82203V9.23241Z" fill="white"/>
<path d="M18.7287 13.7826L18.101 14.3486C17.9566 14.029 17.6001 13.802 17.1832 13.802H14.1463C13.602 13.802 13.1593 14.1883 13.1593 14.6632V17.3134C13.1593 17.7883 13.602 18.1747 14.1463 18.1747H17.1832C17.7275 18.1747 18.1702 17.7883 18.1702 17.3134V15.3821L19.3562 14.3125C19.5239 14.1613 19.5194 13.9201 19.3461 13.7737C19.1728 13.6273 18.8964 13.6314 18.7287 13.7826ZM17.2969 15.0737L16.2465 16.021L15.4926 15.3574C15.3228 15.2079 15.0463 15.2069 14.8751 15.355C14.7038 15.5032 14.7027 15.7445 14.8724 15.8939L15.6954 16.6184C15.8426 16.7479 16.0384 16.8191 16.2471 16.8191H16.252C16.4626 16.818 16.6593 16.7446 16.8057 16.6125L17.2968 16.1697V17.3136C17.2968 17.3683 17.2458 17.4128 17.1831 17.4128H14.1461C14.0835 17.4128 14.0325 17.3683 14.0325 17.3136V14.6634C14.0325 14.6087 14.0834 14.5642 14.1461 14.5642H17.1831C17.2458 14.5642 17.2968 14.6087 17.2968 14.6634V15.0737H17.2969Z" fill="white"/>
<path d="M18.7287 19.6244L18.101 20.1904C17.9566 19.8709 17.6001 19.6438 17.1832 19.6438H14.1463C13.602 19.6438 13.1593 20.0302 13.1593 20.5051V23.1552C13.1593 23.6301 13.602 24.0165 14.1463 24.0165H17.1832C17.7275 24.0165 18.1702 23.6301 18.1702 23.1552V21.2239L19.3562 20.1543C19.5239 20.0031 19.5194 19.7619 19.3461 19.6156C19.1728 19.4692 18.8964 19.4731 18.7287 19.6244ZM17.2969 20.9155L16.2465 21.8628L15.4926 21.1992C15.3228 21.0497 15.0463 21.0487 14.8751 21.1969C14.7038 21.345 14.7027 21.5863 14.8724 21.7357L15.6955 22.4601C15.8427 22.5897 16.0385 22.6608 16.2472 22.6608H16.2521C16.4627 22.6597 16.6594 22.5863 16.8058 22.4543L17.2969 22.0115V23.1553C17.2969 23.21 17.2459 23.2545 17.1832 23.2545H14.1463C14.0836 23.2545 14.0326 23.21 14.0326 23.1553V20.5051C14.0326 20.4504 14.0835 20.4059 14.1463 20.4059H17.1832C17.2459 20.4059 17.2969 20.4504 17.2969 20.5051V20.9155Z" fill="white"/>
<path d="M25.5633 20.6719H20.6728C20.4316 20.6719 20.2361 20.8425 20.2361 21.0529C20.2361 21.2634 20.4316 21.434 20.6728 21.434H25.5633C25.8045 21.434 26 21.2634 26 21.0529C26 20.8425 25.8045 20.6719 25.5633 20.6719Z" fill="white"/>
<path d="M25.5633 22.2256H20.6728C20.4316 22.2256 20.2361 22.3962 20.2361 22.6066C20.2361 22.8171 20.4316 22.9877 20.6728 22.9877H25.5633C25.8045 22.9877 26 22.8171 26 22.6066C26 22.3962 25.8045 22.2256 25.5633 22.2256Z" fill="white"/>
<path d="M7.64858 7.54064C7.58743 7.52463 7.54481 7.47301 7.54481 7.41508V7.10003C9.0453 6.52837 10.0971 5.22168 10.0971 3.70401C10.0971 1.66163 8.19292 0 5.85239 0C3.51185 0 1.60776 1.66163 1.60776 3.70401C1.60776 5.27945 2.74122 6.62751 4.33355 7.16192V7.41503C4.33355 7.47295 4.29086 7.52458 4.22978 7.54059C3.03197 7.85421 1.9551 8.5088 1.19752 9.38383C0.414138 10.2887 0 11.3679 0 12.5049V13.6604C0 13.8708 0.195481 14.0415 0.436674 14.0415C0.677867 14.0415 0.873348 13.8709 0.873348 13.6604V12.5049C0.873348 11.5351 1.2264 10.6147 1.89431 9.84324C2.54085 9.09652 3.45933 8.53797 4.48075 8.27054C4.90829 8.15859 5.20684 7.8068 5.20684 7.41503V7.36528C5.41734 7.39343 5.63297 7.40801 5.85239 7.40801C6.13259 7.40801 6.40628 7.38357 6.67146 7.33814V7.41503C6.67146 7.80675 6.97007 8.15854 7.3976 8.27054C8.41897 8.53797 9.33751 9.09652 9.98405 9.84324C10.652 10.6147 11.005 11.5351 11.005 12.5049V16.3416C11.005 16.723 10.6494 17.0334 10.2123 17.0334C9.76708 17.0334 9.40488 16.723 9.40488 16.3416L9.40051 12.0049C9.40051 11.7945 9.20503 11.6239 8.96384 11.6239C8.72265 11.6239 8.52717 11.7945 8.52717 12.0049V24.2997C8.52717 24.8169 8.0449 25.2378 7.45205 25.2378C6.85926 25.2378 6.37693 24.8169 6.37693 24.2997V17.1448C6.37693 16.9344 6.18145 16.7638 5.94031 16.7638C5.69918 16.7638 5.5037 16.9343 5.50364 17.1447L5.50154 24.2997C5.50154 24.817 5.01927 25.2379 4.42643 25.2379C3.83363 25.2379 3.35131 24.817 3.35131 24.2997V11.9375C3.35131 11.7271 3.15583 11.5564 2.91463 11.5564C2.67344 11.5564 2.47796 11.727 2.47796 11.9375L2.47656 16.3416C2.47656 16.7166 2.10546 17.0334 1.66616 17.0334C1.22902 17.0334 0.873406 16.723 0.873406 16.3416V15.3878C0.873406 15.1774 0.677925 15.0068 0.436732 15.0068C0.19554 15.0068 5.8199e-05 15.1774 5.8199e-05 15.3878V16.3416C5.8199e-05 17.1432 0.747452 17.7955 1.6661 17.7955C1.96029 17.7955 2.237 17.7298 2.4779 17.6148V24.2997C2.4779 25.2373 3.35201 26 4.42637 26C5.03628 26 5.58167 25.7542 5.93921 25.3702C6.29675 25.7542 6.84214 26 7.45205 26C8.52647 26 9.40051 25.2373 9.40051 24.2997V17.6141C9.64136 17.7295 9.91801 17.7955 10.2123 17.7955C11.131 17.7955 11.8784 17.1433 11.8784 16.3416V12.5049C11.8784 11.3679 11.4643 10.2887 10.6808 9.38383C9.92319 8.50885 8.84633 7.85426 7.64858 7.54064ZM5.85239 6.64595C3.99342 6.64595 2.48105 5.3262 2.48105 3.70401C2.48105 2.08181 3.99342 0.762062 5.85239 0.762062C7.71135 0.762062 9.22372 2.08181 9.22372 3.70401C9.22372 5.3262 7.71135 6.64595 5.85239 6.64595Z" fill="white"/>
<path d="M6.97462 4.62344C6.78269 4.49605 6.50872 4.52852 6.36267 4.696C6.25757 4.81658 6.09796 4.88569 5.92478 4.88569C5.75078 4.88569 5.59071 4.81602 5.48566 4.69453C5.34043 4.52654 5.06669 4.4931 4.87406 4.61988C4.68155 4.74666 4.64323 4.98559 4.78852 5.15358C5.06011 5.46767 5.47424 5.6478 5.92478 5.6478C6.3731 5.6478 6.78607 5.46909 7.05772 5.15745C7.20382 4.98991 7.16655 4.75083 6.97462 4.62344Z" fill="white"/>
</svg>
