<svg width="367" height="282" viewBox="0 0 367 282" fill="none" xmlns="http://www.w3.org/2000/svg">
<path opacity="0.1" d="M359.9 64.2092C356.15 56.9202 351.231 50.2945 345.341 44.5949L143.374 42.9122L309.66 23.1647C298.78 19.5234 287.395 17.6139 275.922 17.5059C259.914 6.57478 239.339 0.0161133 216.897 0.0161133C196.761 0.0161133 178.141 5.30788 162.961 14.2867C150.061 8.6668 135.355 5.48005 119.73 5.48005C74.855 5.48005 37.4633 31.7602 29.0742 66.6131L359.9 64.2092Z" fill="#0E153A"/>
<path opacity="0.1" d="M367 93.4391C366.986 83.8892 364.835 74.4634 360.706 65.853L10.6722 96.9214C7.11934 102.339 4.35792 108.236 2.47157 114.434L110.866 128.097L0 138.057C3.33548 177.513 43.3352 208.666 92.1982 208.666C116.794 208.666 139.142 200.772 155.702 187.898C172.315 201.016 194.877 209.081 219.739 209.081C256.624 209.081 288.462 191.322 303.288 165.646C333.031 157.661 356.136 137.618 364.045 112.543L226.965 94.5663H367C367 94.1895 367 93.8159 367 93.4391Z" fill="#0E153A"/>
<path opacity="0.1" d="M162.383 281.997C214.397 281.997 256.562 280.115 256.562 277.793C256.562 275.472 214.397 273.59 162.383 273.59C110.369 273.59 68.2036 275.472 68.2036 277.793C68.2036 280.115 110.369 281.997 162.383 281.997Z" fill="#0E153A"/>
<path d="M218.281 270.4V272.94H143.176V270.877C147.756 269.18 151.73 266.161 154.594 262.204C157.459 258.246 159.085 253.528 159.267 248.646C159.448 243.763 158.178 238.937 155.616 234.777C153.054 230.618 149.316 227.312 144.874 225.278H217.771C213.429 227.267 209.757 230.472 207.2 234.506C204.643 238.54 203.311 243.229 203.365 248.005C203.419 252.781 204.857 257.438 207.504 261.413C210.152 265.388 213.895 268.51 218.281 270.4Z" fill="#C8CAD7"/>
<path opacity="0.1" d="M217.771 225.278C214.421 226.817 211.457 229.085 209.097 231.917C206.737 234.75 205.04 238.074 204.13 241.647H158.518C157.608 238.074 155.911 234.75 153.551 231.918C151.191 229.086 148.227 226.817 144.877 225.278H217.771Z" fill="black"/>
<path d="M57.1611 212.336V226.597C57.1611 234.472 62.9227 240.855 70.0321 240.855H291.018C298.127 240.855 303.889 234.472 303.889 226.597V212.336H57.1611Z" fill="#C8CAD7"/>
<path opacity="0.1" d="M218.281 270.4V272.94H143.176V270.878C145.235 270.111 147.182 269.073 148.967 267.792H213.675C215.113 268.823 216.657 269.697 218.281 270.4Z" fill="black"/>
<path d="M240.015 268.584H121.441C119.737 268.584 118.356 269.966 118.356 271.67V273.025C118.356 274.729 119.737 276.111 121.441 276.111H240.015C241.719 276.111 243.1 274.729 243.1 273.025V271.67C243.1 269.966 241.719 268.584 240.015 268.584Z" fill="#C8CAD7"/>
<path d="M303.889 56.0749C303.885 52.6637 302.527 49.3937 300.113 46.9835C297.7 44.5732 294.429 43.2198 291.018 43.2207H70.0419C66.6297 43.2173 63.3558 44.5695 60.9403 46.98C58.5248 49.3906 57.1654 52.662 57.1611 56.0749V215.11H303.889V56.0749Z" fill="#474157"/>
<path d="M297.173 61.8183V198.472C297.173 199.304 297.01 200.129 296.691 200.898C296.373 201.667 295.906 202.366 295.318 202.954C294.729 203.543 294.031 204.01 293.262 204.328C292.493 204.646 291.669 204.81 290.836 204.81H70.2402C69.408 204.81 68.5839 204.646 67.8149 204.328C67.0459 204.01 66.3472 203.543 65.7588 202.954C65.1703 202.366 64.7036 201.667 64.3853 200.898C64.067 200.129 63.9034 199.304 63.9038 198.472V61.8183C63.9038 60.1374 64.5714 58.5253 65.7597 57.3368C66.948 56.1482 68.5597 55.4805 70.2402 55.4805H290.82C291.654 55.4784 292.479 55.6407 293.25 55.9583C294.021 56.2758 294.721 56.7423 295.311 57.331C295.901 57.9198 296.37 58.6191 296.689 59.3891C297.008 60.1591 297.173 60.9846 297.173 61.8183Z" fill="#4C4C78"/>
<path d="M180.528 52.3134C182.17 52.3134 183.5 50.9826 183.5 49.341C183.5 47.6994 182.17 46.3687 180.528 46.3687C178.887 46.3687 177.557 47.6994 177.557 49.341C177.557 50.9826 178.887 52.3134 180.528 52.3134Z" fill="white"/>
<path d="M180.528 234.52C184.575 234.52 187.855 231.239 187.855 227.192C187.855 223.144 184.575 219.863 180.528 219.863C176.482 219.863 173.201 223.144 173.201 227.192C173.201 231.239 176.482 234.52 180.528 234.52Z" fill="white"/>
<path d="M113.195 58.6514V204.81H70.2402C69.408 204.81 68.5839 204.647 67.8149 204.328C67.0459 204.01 66.3472 203.543 65.7588 202.955C65.1703 202.366 64.7036 201.667 64.3853 200.898C64.067 200.129 63.9034 199.305 63.9038 198.472V61.8186L64.1344 60.9578L64.7515 58.6514H113.195Z" fill="white"/>
<path d="M118.707 60.9575V74.1138H63.9038V61.8184L64.1344 60.9575H118.707Z" fill="#4C4C78"/>
<path d="M297.173 61.8184H63.9038C63.9038 60.9863 64.0677 60.1623 64.3862 59.3936C64.7047 58.6248 65.1715 57.9264 65.7599 57.3381C66.3483 56.7499 67.0469 56.2833 67.8156 55.9652C68.5844 55.647 69.4083 55.4835 70.2402 55.4839H290.82C291.654 55.4814 292.479 55.6433 293.25 55.9605C294.02 56.2777 294.721 56.7439 295.311 57.3323C295.901 57.9208 296.369 58.62 296.689 59.3898C297.008 60.1596 297.173 60.9849 297.173 61.8184Z" fill="#C8CAD7"/>
<path d="M70.2397 60.2364C71.115 60.2364 71.8246 59.5267 71.8246 58.6512C71.8246 57.7757 71.115 57.0659 70.2397 57.0659C69.3644 57.0659 68.6548 57.7757 68.6548 58.6512C68.6548 59.5267 69.3644 60.2364 70.2397 60.2364Z" fill="#EDEDF4"/>
<path d="M74.9912 60.2364C75.8665 60.2364 76.5761 59.5267 76.5761 58.6512C76.5761 57.7757 75.8665 57.0659 74.9912 57.0659C74.1158 57.0659 73.4062 57.7757 73.4062 58.6512C73.4062 59.5267 74.1158 60.2364 74.9912 60.2364Z" fill="#EDEDF4"/>
<path d="M79.7431 60.2364C80.6185 60.2364 81.328 59.5267 81.328 58.6512C81.328 57.7757 80.6185 57.0659 79.7431 57.0659C78.8678 57.0659 78.1582 57.7757 78.1582 58.6512C78.1582 59.5267 78.8678 60.2364 79.7431 60.2364Z" fill="#EDEDF4"/>
<path d="M105.004 66.7495H72.0942V69.7803H105.004V66.7495Z" fill="#0E153A"/>
<path opacity="0.5" d="M105.004 81.5303H72.0942V84.5611H105.004V81.5303Z" fill="#0E153A"/>
<path opacity="0.5" d="M105.004 91.9805H72.0942V95.0113H105.004V91.9805Z" fill="#0E153A"/>
<path opacity="0.5" d="M105.004 102.431H72.0942V105.462H105.004V102.431Z" fill="#0E153A"/>
<path opacity="0.5" d="M105.004 112.878H72.0942V115.909H105.004V112.878Z" fill="#0E153A"/>
<path opacity="0.5" d="M105.004 123.328H72.0942V126.359H105.004V123.328Z" fill="#0E153A"/>
<path opacity="0.5" d="M105.004 133.779H72.0942V136.81H105.004V133.779Z" fill="#0E153A"/>
<path opacity="0.5" d="M105.004 144.226H72.0942V147.256H105.004V144.226Z" fill="#0E153A"/>
<path opacity="0.5" d="M285.968 77.895H140.139V78.3823H285.968V77.895Z" fill="#DCE0ED"/>
<path opacity="0.5" d="M285.968 89.2095H140.139V89.6967H285.968V89.2095Z" fill="#DCE0ED"/>
<path opacity="0.5" d="M285.968 100.527H140.139V101.015H285.968V100.527Z" fill="#DCE0ED"/>
<path opacity="0.5" d="M285.968 111.842H140.139V112.329H285.968V111.842Z" fill="#DCE0ED"/>
<path opacity="0.5" d="M285.968 123.156H140.139V123.644H285.968V123.156Z" fill="#DCE0ED"/>
<path opacity="0.5" d="M285.971 123.64H139.96V101.388L153.351 107.989L167.209 109.866L179.369 106.199L194.039 94.8196L201.418 90.5575L206.812 89.518L211.973 89.7942L220.463 93.9879L231.999 101.339L241.054 102.505L248.235 100.03L263.451 87.5625L271.219 84.7915L279.348 86.0487L285.971 89.8721V123.64Z" fill="#0E153A"/>
<path d="M165.41 109.873C152.263 109.873 140.109 101.83 139.96 101.726L140.32 101.187C140.509 101.314 159.21 113.69 175.101 107.489C180.902 105.231 185.02 101.713 189.021 98.3153C193.188 94.7647 197.124 91.409 202.486 89.9537C208.657 88.2872 215.364 89.7978 220.473 93.9948C224.838 97.5844 233.535 103.35 242.723 101.625C247.406 100.748 251.356 97.3245 255.536 93.7024C263.538 86.7507 271.84 79.5748 286.159 89.879L285.779 90.4052C271.862 80.4032 263.772 87.4134 255.951 94.193C251.703 97.8767 247.689 101.34 242.834 102.265C233.383 104.036 224.503 98.1593 220.05 94.4983C215.104 90.4312 208.599 88.9759 202.649 90.5839C197.423 92.0002 193.555 95.3072 189.434 98.809C185.403 102.243 181.233 105.797 175.338 108.096C172.168 109.302 168.801 109.904 165.41 109.873Z" fill="#0E153A"/>
<path d="M210.311 93.0685C212.307 93.0685 213.925 91.4498 213.925 89.4529C213.925 87.4561 212.307 85.8374 210.311 85.8374C208.314 85.8374 206.696 87.4561 206.696 89.4529C206.696 91.4498 208.314 93.0685 210.311 93.0685Z" fill="#0E153A"/>
<path d="M119.72 168.024C114.78 165.178 112.9 164.473 112.9 164.47L112.799 164.399C112.26 163.985 111.831 163.443 111.552 162.823C111.552 162.71 111.552 162.596 111.552 162.498V162.531C111.633 161.024 112.702 159.656 113.718 158.461C114.584 157.441 115.45 156.422 116.317 155.404C116.615 155.094 116.843 154.724 116.986 154.319C117.038 154.106 117.063 153.888 117.057 153.669C117.057 153.578 117.057 153.49 117.057 153.403C117.057 152.643 117.021 151.882 116.995 151.129C116.969 150.463 116.8 149.628 116.135 149.504C115.79 149.433 115.336 149.556 115.16 149.261C115.097 149.14 115.08 149 115.115 148.868C115.115 148.868 115.115 148.887 115.115 148.897C115.114 148.885 115.114 148.873 115.115 148.861C115.243 148.349 115.325 147.826 115.362 147.299C115.373 147.031 115.337 146.764 115.254 146.509C114.868 145.408 113.546 144.957 112.377 144.749C111.208 144.541 109.896 144.362 109.162 143.449C108.96 143.145 108.744 142.851 108.512 142.569C108.172 142.269 107.758 142.065 107.314 141.978C105.863 141.618 104.334 141.752 102.968 142.358C102.403 142.611 101.835 142.949 101.214 142.913C100.594 142.878 100.019 142.426 99.3825 142.319C98.3562 142.143 97.3722 142.9 96.8655 143.794C96.5651 144.324 96.4052 144.922 96.4011 145.532C96.4011 145.564 96.4011 145.6 96.4011 145.632C96.3883 146.288 96.6278 146.923 97.0701 147.406C97.5118 147.867 98.1711 148.182 98.3692 148.787C98.4439 149.033 98.4277 149.3 98.4927 149.547C98.4927 149.579 98.5121 149.608 98.5219 149.641L98.4861 149.683C97.4312 151.041 96.8597 152.713 96.8623 154.432C96.8725 156.102 97.4127 157.726 98.405 159.069C99.3974 160.411 100.791 161.404 102.383 161.904C102.383 161.979 102.383 162.057 102.383 162.138C102.406 162.625 102.321 163.112 102.136 163.564C101.951 164.015 101.67 164.421 101.312 164.753L94.303 167.566C94.303 167.566 90.0809 167.066 88.5609 173.235C88.3173 174.258 88.2297 175.313 88.3011 176.363C88.3563 177.295 88.2264 178.932 87.1449 181.05C85.4138 184.442 85.8068 192.222 89.3469 192.992C92.6889 193.719 93.9977 193.417 94.1341 193.382V193.518C94.0789 194.98 93.5495 207.571 91.6236 209.111C91.0877 209.53 91.1884 209.816 91.6236 210.007C91.6236 210.007 91.6236 210.089 91.6236 210.235C91.5651 211.157 91.2663 214.662 89.977 216.66C88.496 218.963 88.6648 232.282 88.6648 232.282L87.645 240.14C87.645 240.14 88.2719 244.993 87.645 245.841C87.0832 246.598 86.3459 264.556 86.177 268.447H86.1121C85.8037 268.466 85.5046 268.56 85.2408 268.721C84.977 268.881 84.7565 269.104 84.5986 269.37C83.7607 270.715 80.8702 273.193 80.8702 273.193C80.2433 274.087 77.9179 274.941 76.6903 275.344C76.526 275.397 76.3672 275.465 76.2161 275.549C75.7564 275.799 75.3871 276.188 75.1605 276.66C75.0807 276.798 75.0298 276.952 75.0108 277.111C74.9918 277.27 75.0052 277.432 75.0501 277.585C75.3749 278.355 81.8932 278.885 83.5431 278.125C84.8422 277.52 89.9867 276.721 92.1237 276.409C92.5115 276.361 92.872 276.184 93.1484 275.908C93.4248 275.631 93.6013 275.27 93.6502 274.883C93.6707 274.749 93.664 274.612 93.6305 274.481C93.597 274.35 93.5374 274.227 93.4553 274.119C93.0461 273.612 92.835 272.229 92.7408 271.326C92.9143 271.254 93.0762 271.158 93.2215 271.04C93.0462 268.24 93.4474 265.434 94.4004 262.795C95.9724 258.637 96.4465 250.932 96.0536 245.922C96.0536 245.922 100.851 225.272 104.628 223.346C104.686 223.417 106.518 225.769 106.752 233.052C106.986 240.449 109.659 245.302 109.659 245.302C109.659 245.302 108.48 257.861 109.659 262.561L108.109 269.964C108.045 269.911 107.983 269.855 107.924 269.795C107.924 269.795 107.97 270.003 108.035 270.331L108.002 270.487L108.067 270.504C108.243 271.429 108.502 273.044 108.392 273.993C108.33 274.535 108.181 275.272 108.067 276C107.905 277.14 107.859 278.248 108.46 278.488C109.434 278.885 115.225 279.427 116.209 278.164C116.43 277.905 116.574 277.589 116.624 277.253C116.675 276.916 116.63 276.572 116.495 276.26C116.424 276.086 116.327 275.923 116.209 275.776C116.209 275.776 114.673 273.265 115.108 271.494C115.148 271.322 115.152 271.143 115.12 270.969C115.089 270.794 115.022 270.628 114.923 270.481C115.148 267.678 115.599 264.898 116.271 262.168C117.245 258.462 119.33 250.334 117.804 244.987C117.746 244.779 117.681 244.571 117.609 244.37C116.727 241.452 116.433 238.388 116.742 235.355C116.174 232.767 116.174 230.086 116.742 227.497C117.677 223.186 118.337 218.963 118.337 218.963C118.337 218.963 118.856 213.262 118.402 209.767L118.372 209.543L118.619 209.488C118.619 209.488 117.284 203.556 116.81 199.781C116.7 198.888 116.554 197.761 116.394 196.555C116.83 196.481 117.259 196.372 117.677 196.231C121.925 194.765 123.26 181.512 123.26 181.512V177.308C123.26 177.308 124.676 170.886 119.72 168.024ZM88.077 270.351L87.8691 270.241L88.077 270.351Z" fill="url(#paint0_linear)"/>
<path d="M117.158 244.496C118.999 249.794 116.833 258.393 115.858 262.233C115.202 265.009 114.768 267.834 114.559 270.679C112.318 271.057 110.025 271.004 107.804 270.523L109.428 262.616C108.278 257.932 109.428 245.416 109.428 245.416C109.428 245.416 106.83 240.575 106.589 233.205C106.362 225.951 104.576 223.605 104.517 223.531C100.805 225.46 96.1346 246.033 96.1346 246.033C96.5179 251.022 96.0567 258.702 94.5107 262.85C93.5789 265.483 93.1868 268.277 93.3578 271.065C92.8219 271.517 92.0749 271.595 91.2694 271.465C89.0772 271.111 86.4497 269.22 86.4497 269.22C86.4497 269.22 87.2941 246.806 87.908 245.955C88.5218 245.104 87.908 240.273 87.908 240.273L88.905 232.441C88.905 232.441 88.7524 219.158 90.2041 216.848C91.4643 214.857 91.7533 211.362 91.8118 210.446C91.8118 210.3 91.8118 210.218 91.8118 210.218L94.0333 207.558C94.0333 207.558 115.53 205.934 117.141 207.558C117.538 207.954 117.791 208.857 117.927 209.988C118.369 213.47 117.862 219.152 117.862 219.152C117.862 219.152 117.213 223.375 116.297 227.672C115.743 230.254 115.743 232.923 116.297 235.504C115.997 238.529 116.289 241.583 117.158 244.496Z" fill="#65617D"/>
<path d="M115.813 278.167C114.855 279.433 109.214 278.897 108.252 278.491C107.664 278.248 107.71 277.147 107.869 276.01C107.97 275.285 108.116 274.548 108.174 274.012C108.33 272.628 107.716 269.824 107.716 269.824C107.716 269.824 108.983 271.169 109.288 269.824C109.359 269.568 109.498 269.336 109.691 269.152C109.884 268.969 110.123 268.842 110.383 268.785C111.041 268.586 111.748 268.63 112.377 268.908C113.374 269.34 115.037 270.263 114.738 271.507C114.316 273.271 115.813 275.772 115.813 275.772C115.929 275.919 116.023 276.082 116.092 276.256C116.227 276.57 116.272 276.914 116.223 277.251C116.174 277.588 116.032 277.905 115.813 278.167Z" fill="#A27772"/>
<path opacity="0.1" d="M115.813 278.167C114.855 279.434 109.213 278.898 108.252 278.492C107.664 278.248 107.71 277.147 107.869 276.01C108.473 276.292 109.493 276.53 111.221 276.37C111.622 276.331 112.026 276.318 112.429 276.331C113.65 276.389 114.874 276.365 116.092 276.26C116.226 276.573 116.271 276.916 116.222 277.253C116.172 277.589 116.031 277.906 115.813 278.167Z" fill="black"/>
<path opacity="0.1" d="M96.1342 246.033C96.5175 251.023 96.0563 258.702 94.5103 262.85C93.5786 265.484 93.1864 268.278 93.3574 271.066C92.8215 271.517 92.0745 271.595 91.269 271.465C91.7335 268.217 93.7049 254.271 94.9715 243.249C96.4103 230.694 103.146 222.056 103.146 222.056L104.491 223.534C100.805 225.461 96.1342 246.033 96.1342 246.033Z" fill="black"/>
<path d="M113.511 165.331L112.572 169.938L107.983 177.656L102.322 175.236C102.322 175.236 94.6246 167.173 99.4606 166.023C100.04 165.899 100.588 165.656 101.068 165.309C102.017 164.591 102.315 163.551 102.322 162.531C102.284 161.388 102.016 160.265 101.536 159.227L111.438 156.119C111.029 157.42 110.79 158.768 110.727 160.131C110.652 162.827 111.653 164.159 112.474 164.792C112.78 165.039 113.133 165.223 113.511 165.331Z" fill="#FBBEBE"/>
<path opacity="0.1" d="M111.438 156.119C111.029 157.42 110.789 158.768 110.727 160.13C109.724 161.321 108.388 162.186 106.891 162.614C105.393 163.041 103.802 163.013 102.322 162.531C102.283 161.388 102.016 160.265 101.536 159.227L111.438 156.119Z" fill="black"/>
<path d="M112.571 154.852C112.571 156.401 112.112 157.915 111.252 159.203C110.391 160.491 109.168 161.495 107.738 162.088C106.307 162.68 104.732 162.835 103.213 162.533C101.694 162.231 100.299 161.485 99.2041 160.39C98.109 159.294 97.3632 157.899 97.0611 156.38C96.759 154.86 96.914 153.286 97.5067 151.854C98.0994 150.423 99.103 149.2 100.391 148.339C101.678 147.479 103.192 147.02 104.741 147.02C105.77 147.017 106.789 147.218 107.741 147.611C108.692 148.003 109.556 148.58 110.284 149.308C111.011 150.036 111.588 150.9 111.981 151.851C112.373 152.803 112.574 153.822 112.571 154.852Z" fill="#FBBEBE"/>
<path opacity="0.1" d="M113.511 165.331L112.572 169.938L107.983 177.656L102.322 175.236C102.322 175.236 94.6246 167.173 99.4606 166.023C100.04 165.899 100.588 165.656 101.068 165.309C100.195 167.709 103.8 172.702 103.8 172.702C104.219 173.319 105.183 172.933 105.183 172.933C107.502 172.582 111.779 165.903 112.474 164.792C112.78 165.039 113.133 165.223 113.511 165.331Z" fill="black"/>
<path opacity="0.1" d="M117.944 209.994C116.58 210.319 109.038 211.973 106.18 211.557C103.033 211.095 96.9109 210.79 96.9109 210.79C96.9109 210.79 93.0135 210.998 91.8184 210.465C91.8184 210.319 91.8184 210.238 91.8184 210.238L94.0398 207.577C94.0398 207.577 115.537 205.953 117.148 207.577C117.57 207.961 117.797 208.86 117.944 209.994Z" fill="black"/>
<path d="M103.799 172.932C103.799 172.932 99.7491 167.322 101.276 165.136L94.4324 167.943C94.4324 167.943 90.3142 167.443 88.83 173.589C88.5921 174.611 88.5057 175.663 88.5734 176.71C88.6286 177.636 88.502 179.267 87.4464 181.378C85.7576 184.757 86.1473 192.514 89.5965 193.281C93.0456 194.048 94.2798 193.664 94.2798 193.664C94.2798 193.664 93.8186 207.717 91.8245 209.328C89.8303 210.94 96.9137 210.556 96.9137 210.556C96.9137 210.556 103.033 210.881 106.18 211.326C109.327 211.771 118.154 209.702 118.154 209.702C118.154 209.702 116.855 203.79 116.387 200.028C115.92 196.266 114.855 188.255 114.855 188.255L122.685 177.646C122.685 177.646 124.065 171.234 119.229 168.394C114.393 165.555 112.571 164.854 112.571 164.854C112.571 164.854 107.7 172.77 105.179 173.153C105.179 173.16 104.218 173.55 103.799 172.932Z" fill="#FF748E"/>
<path opacity="0.1" d="M94.816 175.161C94.816 175.161 94.7413 177.695 95.2025 178.692C95.6637 179.69 97.3493 185.218 97.3493 185.218H93.5137C93.5137 185.218 95.5858 182.993 95.4331 181.918C95.2805 180.843 94.816 175.161 94.816 175.161Z" fill="black"/>
<path d="M106.18 194.275C106.18 194.275 97.7035 192.202 96.9143 190.438C96.1251 188.675 93.9458 184.718 93.9458 184.718L94.8389 183.513L98.9636 186.761C98.9636 186.761 103.878 190.659 106.18 191.062C108.483 191.465 106.18 194.275 106.18 194.275Z" fill="#FBBEBE"/>
<path opacity="0.05" d="M106.18 194.275C106.18 194.275 97.7035 192.202 96.9143 190.438C96.1251 188.675 93.9458 184.718 93.9458 184.718L94.8389 183.513L98.9636 186.761C98.9636 186.761 103.878 190.659 106.18 191.062C108.483 191.465 106.18 194.275 106.18 194.275Z" fill="black"/>
<path d="M113.51 184.299V188.899H112.77C109.117 188.899 105.525 189.829 102.332 191.602L100.948 192.368L100.574 192.576L98.1938 187.216L100.422 185.218H100.535C101.081 185.27 103.436 185.465 104.433 185.131C105.43 184.796 106.56 183.786 109.35 184.501C110.727 184.851 111.9 186.394 113.247 185.914L113.51 184.299Z" fill="#FBBEBE"/>
<path opacity="0.1" d="M120.918 175.928L122.455 177.656V181.84C122.455 181.84 121.156 195.048 117.005 196.507C112.854 197.965 105.459 195.662 105.459 195.662C105.459 195.662 103.546 190.594 104.439 190.286C105.332 189.977 112.344 188.129 112.344 188.129C112.344 188.129 112.244 180.381 113.78 178.078C113.78 178.078 112.783 170.86 116.235 170.707C119.688 170.555 120.918 175.928 120.918 175.928Z" fill="black"/>
<path d="M121.143 175.928L122.679 177.656V181.84C122.679 181.84 121.38 195.048 117.226 196.507C113.072 197.965 105.683 195.662 105.683 195.662C105.683 195.662 103.77 190.594 104.663 190.286C105.556 189.977 112.565 188.129 112.565 188.129C112.565 188.129 112.468 180.381 114.004 178.078C114.004 178.078 113.004 170.86 116.459 170.707C119.915 170.555 121.143 175.928 121.143 175.928Z" fill="#FF748E"/>
<path opacity="0.1" d="M110.425 158.178C110.493 157.673 110.433 157.159 110.25 156.684C110.153 156.449 109.982 156.252 109.762 156.125C109.542 155.998 109.286 155.948 109.035 155.982C108.385 156.135 108.093 156.989 107.45 157.194C106.908 157.366 106.313 156.983 106.053 156.476C105.836 155.948 105.745 155.376 105.787 154.806C105.787 154.156 105.787 153.523 105.787 152.88C105.787 152.181 105.764 151.428 105.332 150.879C104.796 150.196 103.54 149.904 102.702 149.927C102.142 149.933 101.606 150.148 101.198 150.531C100.993 150.737 100.745 150.895 100.471 150.993C100.197 151.091 99.9053 151.126 99.6163 151.096C99.3614 151.057 99.1227 150.947 98.9279 150.778C98.7331 150.609 98.5901 150.388 98.5153 150.141C98.5138 150.133 98.5138 150.124 98.5153 150.115C99.1678 149.252 99.992 148.534 100.936 148.006C101.88 147.477 102.923 147.15 104 147.045C105.076 146.94 106.163 147.059 107.191 147.395C108.219 147.731 109.167 148.276 109.974 148.996C110.781 149.717 111.43 150.596 111.88 151.58C112.331 152.564 112.572 153.63 112.59 154.712C112.607 155.794 112.401 156.868 111.983 157.866C111.565 158.864 110.945 159.764 110.162 160.51C110.292 159.738 110.379 158.96 110.425 158.178Z" fill="black"/>
<path d="M99.6128 150.866C99.3578 150.826 99.119 150.715 98.9237 150.547C98.7285 150.378 98.5846 150.157 98.5086 149.911C98.4468 149.664 98.4631 149.397 98.3884 149.154C98.2098 148.55 97.5667 148.234 97.1347 147.776C96.2708 146.86 96.326 145.35 96.9366 144.245C97.4335 143.355 98.3916 142.605 99.3952 142.777C100.016 142.887 100.551 143.329 101.181 143.368C101.812 143.407 102.341 143.069 102.893 142.816C104.223 142.213 105.719 142.08 107.135 142.439C107.57 142.526 107.975 142.729 108.304 143.027C108.527 143.308 108.736 143.601 108.927 143.904C109.642 144.817 110.925 144.996 112.065 145.204C113.205 145.412 114.497 145.853 114.871 146.961C115.121 147.689 114.871 148.478 114.738 149.235C114.688 149.39 114.699 149.558 114.767 149.706C114.946 150.002 115.391 149.878 115.741 149.946C116.391 150.083 116.553 150.921 116.576 151.571C116.606 152.324 116.627 153.082 116.638 153.845C116.657 154.127 116.635 154.41 116.573 154.686C116.433 155.079 116.211 155.439 115.923 155.742L113.387 158.789C112.263 160.14 111.071 161.712 111.295 163.457C110.762 163.694 110.132 163.236 109.957 162.677C109.782 162.118 109.921 161.521 110.041 160.949C110.246 159.96 110.379 158.958 110.441 157.951C110.509 157.445 110.449 156.93 110.266 156.453C110.169 156.218 109.997 156.021 109.776 155.894C109.556 155.767 109.3 155.717 109.048 155.751C108.398 155.904 108.109 156.758 107.466 156.963C106.924 157.139 106.329 156.752 106.069 156.245C105.853 155.716 105.762 155.145 105.803 154.575V152.649C105.803 151.951 105.78 151.197 105.348 150.648C104.816 149.966 103.556 149.674 102.718 149.696C102.158 149.702 101.622 149.918 101.214 150.3C101.007 150.509 100.755 150.669 100.478 150.767C100.201 150.865 99.905 150.898 99.6128 150.866Z" fill="#7C5C5C"/>
<path opacity="0.1" d="M101.38 174.969L103.786 184.845C103.786 184.845 105.68 184.835 101.38 174.969Z" fill="black"/>
<path opacity="0.1" d="M109.596 173.316C109.596 173.316 106.446 178.474 107.677 183.805L108.262 183.847C108.262 183.847 107.216 181.379 109.596 173.316Z" fill="black"/>
<path opacity="0.1" d="M111.591 202.497C111.591 202.497 115.456 201.217 115.738 204.186C115.738 204.186 115.007 202.149 111.591 202.497Z" fill="black"/>
<path opacity="0.1" d="M100.422 185.449C100.422 185.449 99.6551 190.825 101.035 192.975C98.8696 193.739 96.5709 194.051 94.28 193.895L93.8188 185.449H100.422Z" fill="black"/>
<path opacity="0.1" d="M100.948 192.368L100.574 192.576L98.1938 187.216L100.422 185.218H100.535C100.5 185.478 99.8795 190.094 100.948 192.368Z" fill="black"/>
<path d="M100.422 185.218C100.422 185.218 99.6552 190.594 101.036 192.745C98.8698 193.508 96.571 193.821 94.2802 193.664L91.5942 185.218H100.422Z" fill="#FF748E"/>
<path d="M93.7802 274.899C93.736 275.282 93.5654 275.639 93.2955 275.915C93.0255 276.19 92.6715 276.368 92.2894 276.419C90.2076 276.744 85.1833 277.524 83.9166 278.128C82.2927 278.898 75.9336 278.359 75.625 277.592C75.5817 277.438 75.5692 277.277 75.5882 277.118C75.6071 276.959 75.6572 276.806 75.7354 276.666C75.884 276.36 76.0925 276.088 76.3486 275.865C76.6048 275.641 76.9032 275.472 77.2262 275.367C78.4279 274.964 80.6948 274.116 81.3054 273.226C81.3054 273.226 84.131 270.751 84.9364 269.416C85.0877 269.152 85.3018 268.93 85.5596 268.77C85.8175 268.609 86.1111 268.515 86.4142 268.496C87.0865 268.464 87.8335 268.805 88.142 270.276C88.142 270.276 91.825 272.378 92.8221 270.536C92.8221 270.536 92.9747 273.366 93.5853 274.142C93.6661 274.249 93.7249 274.371 93.7583 274.501C93.7918 274.631 93.7992 274.766 93.7802 274.899Z" fill="#A27772"/>
<path opacity="0.1" d="M93.7801 274.899C93.7359 275.282 93.5654 275.64 93.2954 275.915C93.0255 276.19 92.6715 276.368 92.2894 276.419C90.2076 276.744 85.1832 277.524 83.9166 278.128C82.2927 278.898 75.9336 278.359 75.625 277.592C75.5817 277.438 75.5692 277.277 75.5882 277.118C75.6071 276.959 75.6572 276.806 75.7354 276.666C75.9543 276.199 76.3145 275.813 76.765 275.562C77.8043 276.25 80.1102 276.926 85.1832 276.133C90.0224 275.376 92.4161 274.636 93.5853 274.132C93.6673 274.241 93.7268 274.364 93.7603 274.496C93.7938 274.628 93.8005 274.765 93.7801 274.899Z" fill="black"/>
<g opacity="0.1">
<path opacity="0.1" d="M114.728 149.339C114.729 149.326 114.729 149.313 114.728 149.3C114.88 148.732 114.959 148.147 114.965 147.559C114.916 148.029 114.837 148.496 114.728 148.956C114.699 149.082 114.699 149.213 114.728 149.339Z" fill="black"/>
<path opacity="0.1" d="M110.249 156.525C110.37 156.802 110.434 157.1 110.438 157.402C110.473 156.985 110.408 156.567 110.249 156.18C110.152 155.945 109.981 155.748 109.76 155.62C109.54 155.493 109.284 155.442 109.031 155.475C108.382 155.628 108.093 156.486 107.45 156.69C106.907 156.863 106.313 156.476 106.053 155.969C105.834 155.441 105.743 154.869 105.787 154.299C105.787 153.65 105.787 153.016 105.787 152.376C105.787 151.678 105.764 150.924 105.332 150.375C104.796 149.69 103.539 149.401 102.698 149.42C102.139 149.426 101.603 149.643 101.198 150.028C100.993 150.233 100.744 150.391 100.47 150.488C100.197 150.585 99.9048 150.62 99.616 150.59C99.3602 150.552 99.1206 150.442 98.925 150.273C98.7294 150.104 98.5861 149.882 98.5117 149.635C98.4468 149.388 98.4663 149.125 98.3916 148.878C98.213 148.274 97.5699 147.962 97.1379 147.504C96.735 147.057 96.5047 146.481 96.4884 145.879C96.4575 146.234 96.4992 146.592 96.6109 146.93C96.7226 147.269 96.9019 147.581 97.1379 147.848C97.5699 148.306 98.213 148.621 98.3916 149.225C98.4663 149.469 98.4468 149.735 98.5117 149.982C98.5875 150.229 98.7312 150.45 98.9266 150.619C99.1219 150.788 99.3608 150.898 99.616 150.937C99.9051 150.967 100.197 150.932 100.471 150.834C100.745 150.736 100.993 150.578 101.198 150.372C101.605 149.994 102.139 149.779 102.695 149.771C103.536 149.745 104.793 150.044 105.329 150.726C105.761 151.275 105.78 152.026 105.784 152.727C105.784 153.377 105.784 154.01 105.784 154.65C105.739 155.221 105.831 155.794 106.05 156.323C106.31 156.83 106.904 157.213 107.446 157.041C108.096 156.837 108.372 155.982 109.028 155.826C109.28 155.793 109.536 155.843 109.757 155.969C109.977 156.095 110.15 156.29 110.249 156.525Z" fill="black"/>
<path opacity="0.1" d="M116.56 154.41C116.419 154.804 116.198 155.165 115.91 155.469C115.062 156.483 114.216 157.497 113.374 158.513C112.309 159.796 111.178 161.281 111.26 162.918C111.337 161.417 112.383 160.053 113.374 158.861L115.91 155.813C116.198 155.51 116.419 155.151 116.56 154.758C116.622 154.481 116.644 154.196 116.625 153.913C116.623 154.081 116.601 154.248 116.56 154.41Z" fill="black"/>
<path opacity="0.1" d="M109.941 162.404C109.899 162.27 109.873 162.132 109.863 161.992C109.841 162.247 109.868 162.503 109.941 162.749C110.113 163.307 110.746 163.765 111.279 163.528C111.279 163.415 111.256 163.301 111.253 163.203C110.727 163.415 110.1 162.95 109.941 162.404Z" fill="black"/>
</g>
<path opacity="0.1" d="M84.4424 270.101C84.4424 270.101 85.2446 271.511 88.1546 270.267L84.4424 270.101Z" fill="black"/>
<path opacity="0.1" d="M109.012 270.439C109.012 270.439 111.523 273.392 114.683 271.414L109.012 270.439Z" fill="black"/>
<path opacity="0.1" d="M116.313 235.511C116.313 235.511 114.54 236.619 114.481 237.252C114.423 237.886 115.397 236.791 115.397 236.791L116.313 235.511Z" fill="black"/>
<path opacity="0.1" d="M117.011 244.002C116.396 244.516 115.63 244.815 114.829 244.854C113.504 244.912 113.614 246.64 114.481 246.12C115.348 245.601 117.011 244.002 117.011 244.002Z" fill="black"/>
<path opacity="0.1" d="M117.349 245.11C117.349 245.11 116.498 249.288 115.807 248.482L117.349 245.11Z" fill="black"/>
<g opacity="0.5">
<path opacity="0.5" d="M174.461 148.991H153.026V153.539H174.461V148.991Z" fill="#DCE0ED"/>
<path opacity="0.5" d="M223.681 148.991H202.246V153.539H223.681V148.991Z" fill="#DCE0ED"/>
<path opacity="0.5" d="M272.902 148.991H251.466V153.539H272.902V148.991Z" fill="#DCE0ED"/>
</g>
<path opacity="0.1" d="M309.426 261.775C314.257 261.775 318.173 261.113 318.173 260.297C318.173 259.481 314.257 258.819 309.426 258.819C304.596 258.819 300.68 259.481 300.68 260.297C300.68 261.113 304.596 261.775 309.426 261.775Z" fill="#0E153A"/>
<path opacity="0.1" d="M37.4211 280.438C42.2515 280.438 46.1674 279.776 46.1674 278.96C46.1674 278.143 42.2515 277.481 37.4211 277.481C32.5907 277.481 28.6748 278.143 28.6748 278.96C28.6748 279.776 32.5907 280.438 37.4211 280.438Z" fill="#0E153A"/>
<path d="M290.284 278.346C297.496 278.346 303.343 277.357 303.343 276.137C303.343 274.917 297.496 273.928 290.284 273.928C283.071 273.928 277.225 274.917 277.225 276.137C277.225 277.357 283.071 278.346 290.284 278.346Z" fill="#0E153A"/>
<path d="M295.682 272.528C296.278 272.042 296.712 271.386 296.926 270.647C297.088 269.899 296.77 269.006 296.059 268.733C295.26 268.428 294.406 268.98 293.756 269.542C293.106 270.104 292.369 270.738 291.522 270.621C291.957 270.225 292.282 269.724 292.467 269.166C292.651 268.607 292.688 268.011 292.574 267.434C292.538 267.195 292.436 266.97 292.282 266.784C291.837 266.31 291.034 266.511 290.502 266.885C288.813 268.074 288.342 270.367 288.332 272.433C288.163 271.689 288.306 270.913 288.303 270.159C288.3 269.406 288.089 268.535 287.446 268.136C287.046 267.922 286.599 267.817 286.146 267.83C285.386 267.801 284.539 267.876 284.022 268.431C283.373 269.123 283.545 270.28 284.104 271.03C284.662 271.78 285.52 272.264 286.302 272.791C286.931 273.166 287.468 273.678 287.874 274.288C287.92 274.374 287.959 274.465 287.988 274.558H292.749C293.813 274.015 294.8 273.332 295.682 272.528Z" fill="#0E153A"/>
<path d="M37.8205 257.032C37.8205 257.032 39.6068 259.368 36.9988 262.879C34.3908 266.391 32.2408 269.376 33.1014 271.576C33.1014 271.576 37.0378 265.03 40.2466 264.939C43.4554 264.848 41.3443 260.969 37.8205 257.032Z" fill="#0E153A"/>
<path opacity="0.1" d="M37.8204 257.032C37.9766 257.258 38.1002 257.506 38.1874 257.766C41.3118 261.437 42.9746 264.864 39.9704 264.949C37.1741 265.03 33.8191 270.033 33.0137 271.296C33.0402 271.394 33.0716 271.491 33.1079 271.585C33.1079 271.585 37.0442 265.04 40.253 264.949C43.4618 264.858 41.3442 260.969 37.8204 257.032Z" fill="black"/>
<path d="M41.1368 260.008C41.1368 260.83 41.0458 261.495 40.9322 261.495C40.8185 261.495 40.7275 260.846 40.7275 260.008C40.7275 259.17 40.8412 259.572 40.9549 259.572C41.0686 259.572 41.1368 259.186 41.1368 260.008Z" fill="#FFD037"/>
<path d="M42.2766 260.989C41.5556 261.382 40.9256 261.619 40.8736 261.518C40.8216 261.417 41.3575 261.018 42.0785 260.625C42.7995 260.232 42.517 260.518 42.5689 260.625C42.6209 260.732 42.9976 260.596 42.2766 260.989Z" fill="#FFD037"/>
<path d="M28.3987 257.032C28.3987 257.032 26.6124 259.368 29.2204 262.879C31.8283 266.391 33.9784 269.376 33.1177 271.576C33.1177 271.576 29.1846 265.03 25.9726 264.939C22.7605 264.848 24.8748 260.969 28.3987 257.032Z" fill="#0E153A"/>
<path opacity="0.1" d="M28.3989 257.032C28.2427 257.258 28.1191 257.506 28.0319 257.766C24.9075 261.437 23.2447 264.864 26.2489 264.949C29.0452 265.03 32.4002 270.033 33.2056 271.296C33.1795 271.395 33.147 271.491 33.1082 271.585C33.1082 271.585 29.1751 265.04 25.9631 264.949C22.751 264.858 24.875 260.969 28.3989 257.032Z" fill="black"/>
<path d="M25.0791 260.008C25.0791 260.83 25.1733 261.495 25.287 261.495C25.4006 261.495 25.4916 260.846 25.4916 260.008C25.4916 259.17 25.3779 259.572 25.2642 259.572C25.1506 259.572 25.0791 259.186 25.0791 260.008Z" fill="#FFD037"/>
<path d="M23.9429 260.989C24.6639 261.382 25.2908 261.619 25.346 261.518C25.4012 261.417 24.8621 261.018 24.141 260.625C23.42 260.232 23.7026 260.518 23.6474 260.625C23.5922 260.732 23.2219 260.596 23.9429 260.989Z" fill="#FFD037"/>
<path d="M25.6577 271.28C25.6577 271.28 30.6463 271.124 32.1533 270.055C33.6603 268.986 39.8278 267.703 40.2013 269.422C40.5748 271.14 47.6972 277.962 42.0655 278.007C36.4339 278.053 28.9802 277.13 27.4797 276.218C25.9792 275.305 25.6577 271.28 25.6577 271.28Z" fill="#A8A8A8"/>
<path opacity="0.2" d="M42.1527 277.41C36.5211 277.455 29.0641 276.533 27.5637 275.62C26.4237 274.921 25.9657 272.423 25.8163 271.273H25.6475C25.6475 271.273 25.9722 275.295 27.4662 276.211C28.9602 277.127 36.4204 278.047 42.052 278.001C43.6759 278.001 44.2378 277.41 44.2086 276.552C43.9812 277.078 43.3609 277.4 42.1527 277.41Z" fill="black"/>
<path d="M151.509 180.752C151.509 174.112 156.91 169.012 163.552 169.012H163.646V165.991H163.552C155.244 165.991 148.489 172.445 148.489 180.752C148.489 182.901 148.949 185.025 149.839 186.98C150.73 188.936 152.029 190.678 153.65 192.089L155.79 189.948C154.449 188.82 153.371 187.412 152.632 185.824C151.893 184.235 151.509 182.504 151.509 180.752Z" fill="#0E153A"/>
<path opacity="0.5" d="M163.948 165.994V169.015C165.883 169.028 167.785 169.506 169.495 170.411C171.205 171.315 172.672 172.618 173.772 174.209C174.872 175.8 175.572 177.633 175.813 179.553C176.055 181.472 175.831 183.421 175.159 185.236C174.488 187.05 173.39 188.676 171.957 189.976C170.525 191.275 168.8 192.211 166.93 192.703C165.059 193.195 163.097 193.229 161.211 192.802C159.325 192.375 157.569 191.499 156.092 190.25L153.945 192.391C155.775 193.99 157.964 195.124 160.326 195.693C162.688 196.263 165.153 196.253 167.51 195.663C169.867 195.073 172.047 193.922 173.862 192.306C175.678 190.691 177.076 188.661 177.937 186.388C178.797 184.115 179.095 181.668 178.805 179.255C178.515 176.842 177.645 174.535 176.27 172.531C174.895 170.527 173.056 168.886 170.909 167.748C168.762 166.609 166.372 166.008 163.942 165.994H163.948Z" fill="#0E153A"/>
<path opacity="0.5" d="M262.681 168.859C269.319 168.859 274.418 174.261 274.418 180.904C274.418 180.934 274.418 180.966 274.418 180.998H277.439C277.439 180.966 277.439 180.934 277.439 180.904C277.439 172.598 270.986 165.838 262.681 165.838C260.532 165.837 258.409 166.298 256.453 167.188C254.498 168.079 252.756 169.378 251.346 171L253.486 173.14C254.614 171.8 256.022 170.722 257.61 169.982C259.198 169.242 260.929 168.859 262.681 168.859Z" fill="#0E153A"/>
<path d="M277.436 181.301H274.415C274.402 183.235 273.924 185.138 273.02 186.848C272.116 188.559 270.813 190.026 269.222 191.126C267.631 192.226 265.798 192.926 263.879 193.168C261.96 193.41 260.011 193.185 258.197 192.514C256.384 191.842 254.758 190.744 253.459 189.311C252.159 187.878 251.224 186.153 250.732 184.282C250.24 182.411 250.206 180.449 250.633 178.562C251.06 176.676 251.935 174.919 253.184 173.442L251.054 171.302C249.454 173.131 248.321 175.321 247.752 177.684C247.182 180.046 247.192 182.512 247.782 184.869C248.372 187.227 249.523 189.407 251.138 191.223C252.753 193.039 254.783 194.437 257.055 195.298C259.328 196.159 261.774 196.457 264.187 196.167C266.599 195.876 268.906 195.007 270.909 193.631C272.912 192.256 274.553 190.416 275.692 188.269C276.83 186.122 277.431 183.731 277.445 181.301H277.436Z" fill="#0E153A"/>
<path opacity="0.5" d="M218.901 166.877L218.3 169.886C222.72 171.669 225.546 176.002 225.546 181.054C225.547 183.224 224.961 185.355 223.85 187.22C222.739 189.085 221.145 190.615 219.237 191.648C217.328 192.681 215.175 193.179 213.007 193.089C210.839 192.999 208.735 192.324 206.918 191.137C205.102 189.949 203.64 188.292 202.688 186.341C201.735 184.391 201.328 182.219 201.509 180.056C201.689 177.893 202.451 175.818 203.713 174.053C204.976 172.287 206.692 170.895 208.68 170.025L207.342 167.313C204.874 168.424 202.751 170.18 201.196 172.397C199.642 174.614 198.713 177.208 198.509 179.908C198.304 182.608 198.831 185.313 200.034 187.738C201.237 190.163 203.072 192.22 205.345 193.69C207.617 195.161 210.244 195.991 212.949 196.094C215.654 196.197 218.337 195.569 220.715 194.276C223.093 192.983 225.079 191.072 226.463 188.745C227.847 186.418 228.578 183.761 228.579 181.054C228.579 174.534 224.721 168.973 218.901 166.877Z" fill="#0E153A"/>
<path d="M213.896 168.836C215.338 168.835 216.766 169.132 218.089 169.707L218.69 166.702C217.16 166.113 215.535 165.812 213.896 165.815C211.768 165.815 209.664 166.268 207.725 167.144L209.076 169.85C210.595 169.18 212.236 168.834 213.896 168.836Z" fill="#0E153A"/>
<defs>
<linearGradient id="paint0_linear" x1="99.2202" y1="278.959" x2="99.2202" y2="141.77" gradientUnits="userSpaceOnUse">
<stop stop-color="#808080" stop-opacity="0.25"/>
<stop offset="0.54" stop-color="#808080" stop-opacity="0.12"/>
<stop offset="1" stop-color="#808080" stop-opacity="0.1"/>
</linearGradient>
</defs>
</svg>
