<svg width="895" height="754" viewBox="0 0 895 754" fill="none" xmlns="http://www.w3.org/2000/svg">
<g clip-path="url(#clip0)">
<path d="M-68.6169 668.067C-68.6169 668.067 -132.225 459.158 -38.5598 469.149C55.105 479.14 -68.6169 668.067 -68.6169 668.067Z" fill="#E6E6E6"/>
<path d="M836.386 674.579C836.386 674.579 729.245 625.276 766.884 591.087C804.522 556.898 836.386 674.579 836.386 674.579Z" fill="#E6E6E6"/>
<path d="M834.522 686.084C834.522 686.084 785.276 524.343 857.792 532.078C930.309 539.814 834.522 686.084 834.522 686.084Z" fill="#E6E6E6"/>
<path d="M798.616 671.739L800.683 698.795L800.715 699.262C800.714 703.487 800.927 707.71 801.355 711.913C804.16 739.51 816.217 752.087 830.309 752.087C844.4 752.087 855.932 739.51 858.737 711.913C859.165 707.71 859.379 703.487 859.377 699.262L859.393 698.885L859.401 698.795L861.477 671.739H798.616Z" fill="#E6E6E6"/>
<path d="M859.401 698.795L859.393 698.885L859.377 699.262C859.379 703.487 859.165 707.71 858.737 711.913H801.355C800.927 707.71 800.713 703.487 800.715 699.262L800.683 698.795H859.401Z" fill="white"/>
<path d="M167.694 224.898V177.369H160.301V224.898C158.18 225.755 156.423 227.324 155.333 229.333C154.242 231.343 153.884 233.67 154.321 235.915C154.758 238.159 155.962 240.182 157.728 241.637C159.493 243.091 161.71 243.886 163.997 243.886C166.285 243.886 168.501 243.091 170.267 241.637C172.032 240.182 173.237 238.159 173.674 235.915C174.111 233.67 173.753 231.343 172.662 229.333C171.571 227.324 169.815 225.755 167.694 224.898Z" fill="#E6E6E6"/>
<path d="M184.945 704.548H134.424V91.1475H114.708V704.548H64.1865C58.1992 704.548 52.2705 705.727 46.739 708.017C41.2074 710.308 36.1813 713.665 31.9477 717.897C27.714 722.128 24.3557 727.152 22.0645 732.682C19.7733 738.211 18.594 744.137 18.594 750.122V750.122H230.538V750.122C230.538 744.137 229.358 738.211 227.067 732.682C224.776 727.152 221.418 722.128 217.184 717.897C212.95 713.665 207.924 710.308 202.393 708.017C196.861 705.727 190.932 704.548 184.945 704.548Z" fill="#E6E6E6"/>
<path d="M18.6963 182.296H230.436L217.487 20.5202C217.014 14.9419 214.47 9.74251 210.354 5.94498C206.239 2.14746 200.851 0.0267207 195.251 0H53.8811C48.2805 0.0267193 42.8926 2.14746 38.7774 5.94497C34.6622 9.74248 32.1177 14.9418 31.6443 20.5202L18.6963 182.296Z" fill="#0E153A"/>
<path d="M313.515 466.234C311.523 465.903 309.485 465.97 307.52 466.433C305.555 466.896 303.701 467.744 302.066 468.929C300.432 470.114 299.049 471.611 297.998 473.335C296.948 475.058 296.25 476.973 295.946 478.969L289.984 518.074L310.267 523.452L325.129 487.016C325.992 484.899 326.368 482.615 326.228 480.333C326.089 478.051 325.437 475.829 324.321 473.833C323.206 471.837 321.656 470.118 319.785 468.802C317.914 467.487 315.771 466.609 313.515 466.234Z" fill="#A0616A"/>
<path d="M313.136 518.001C324.392 562.715 319.547 603.613 277.632 635.725C227.358 621.872 193.921 588.449 173.52 539.874C172.251 536.854 171.608 533.608 171.629 530.333C171.651 527.057 172.336 523.82 173.643 520.817C174.95 517.813 176.853 515.105 179.236 512.857C181.619 510.609 184.434 508.867 187.509 507.736C192.13 506.037 197.158 505.786 201.926 507.014C206.693 508.242 210.973 510.892 214.197 514.612L263.525 571.522L286.666 514.137L313.136 518.001Z" fill="#0E153A"/>
<path d="M570.722 752.595C524.818 750.157 496.301 734.402 489.395 702.094L496.788 688.545L581.436 727.091C583.573 728.064 585.372 729.65 586.605 731.648C587.838 733.646 588.448 735.965 588.359 738.311C588.27 740.657 587.485 742.923 586.104 744.821C584.723 746.72 582.808 748.165 580.604 748.973L570.722 752.595Z" fill="#E6E6E6"/>
<path d="M535.252 752.918C511.401 752.196 488.464 752.42 466.729 753.89C462.917 754.151 459.156 752.898 456.261 750.404C453.367 747.91 451.573 744.376 451.268 740.568L449.963 724.264L431.48 694.703L447.499 678.69C474.42 705.491 503.943 728.003 539.008 741.385C540.135 742.157 540.982 743.272 541.421 744.565C541.861 745.858 541.87 747.258 541.447 748.556C541.024 749.854 540.192 750.981 539.075 751.767C537.959 752.553 536.617 752.957 535.252 752.918Z" fill="#E6E6E6"/>
<path d="M405.603 636.812C375.147 691.287 345.193 728.01 305.792 747.668C257.317 763.66 221.889 742.472 194.275 699.014L274.37 646.05L286.077 657.752L392.169 577.051C394.761 574.598 398.216 573.267 401.784 573.346C405.352 573.425 408.744 574.909 411.224 577.474L501.717 688.545L490.627 707.021L405.603 636.812Z" fill="#2F2E41"/>
<path d="M432.712 700.862L390.816 636.812L400.674 618.336L456.125 676.227L432.712 700.862Z" fill="#2F2E41"/>
<path d="M191.195 496.395C214.333 496.395 233.091 477.645 233.091 454.516C233.091 431.387 214.333 412.638 191.195 412.638C168.056 412.638 149.299 431.387 149.299 454.516C149.299 477.645 168.056 496.395 191.195 496.395Z" fill="#A0616A"/>
<path d="M202.285 532.115L155.46 516.102C162.389 505.096 165.426 492.085 164.086 479.15H202.285C200.113 497.944 199.787 515.769 202.285 532.115Z" fill="#A0616A"/>
<path d="M302.096 644.202C295.076 647.083 294.563 656.424 287.925 659.599C255.838 674.945 221.891 687.396 198.588 709.484C144.132 672.52 93.6579 557.713 159.157 507.48C181.514 520.558 201.485 529.916 201.053 507.48L302.096 644.202Z" fill="#0E153A"/>
<path opacity="0.2" d="M273.754 594.933L250.958 586.927L205.982 622.031L185.82 549.479C184.422 544.446 182.156 546.997 178.902 550.493C175.511 547.355 171.293 545.252 166.745 544.432C162.198 543.612 157.51 544.108 153.236 545.863C148.961 547.619 145.278 550.559 142.62 554.338C139.963 558.116 138.441 562.576 138.236 567.19C135.837 619.818 151.714 664.341 191.195 698.398C242.834 687.346 264.749 652.472 273.754 607.25L271.313 605.624C272.213 602.129 273.026 598.566 273.754 594.933Z" fill="black"/>
<path d="M196.833 399.426C210.652 402.582 226.381 407.054 227.263 411.21C241.479 414.791 252.209 423.368 254.4 436.444C254.583 437.574 254.516 438.731 254.204 439.832C253.891 440.934 253.341 441.953 252.592 442.819C251.842 443.685 250.912 444.376 249.867 444.844C248.821 445.311 247.686 445.544 246.541 445.526C238.81 445.426 227.204 444.686 219.54 441.487C197.278 455.825 193.541 493.119 203.263 518.504L187.964 517.102L172.136 470.786L168.093 515.281L133.181 510.667L137.678 453.928C139.06 440.555 143.613 427.704 150.959 416.442C151.721 415.312 152.556 414.231 153.457 413.206C158.769 407.209 165.606 402.76 173.243 400.334C180.88 397.907 189.031 397.594 196.833 399.426Z" fill="#2F2E41"/>
<path d="M275.599 540.025L313.942 585.085L371.458 517.234L332.596 470.101L275.599 540.025Z" fill="#3F3D56"/>
<path d="M361.613 518.788L316.015 481.496C318.606 475.28 331.042 477.352 331.042 477.352L366.735 513.523C367.978 514.783 369.044 516.205 369.903 517.752L361.613 518.788Z" fill="#F2F2F2"/>
<path d="M363.685 516.198L311.87 475.798L254.354 562.813L308.501 599.328C313.683 601.4 318.865 597.774 318.865 597.774L371.717 516.975L363.685 516.198Z" fill="#3F3D56"/>
<path d="M318.331 488.407L317.841 489.089L351.006 512.911L351.496 512.229L318.331 488.407Z" fill="#0E153A"/>
<path d="M351.936 521.146L308.41 586.925L309.111 587.388L352.636 521.609L351.936 521.146Z" fill="#0E153A"/>
<path d="M268.597 562.988L268.1 563.664L303.326 589.572L303.824 588.896L268.597 562.988Z" fill="#0E153A"/>
<path d="M312.043 489.543L266.963 554.286L267.652 554.766L312.732 490.022L312.043 489.543Z" fill="#0E153A"/>
<path d="M325.968 476.838L325.617 477.22L366.619 514.835L366.969 514.453L325.968 476.838Z" fill="#B3B3B3"/>
<path d="M322.552 477.161L322.209 477.55L365.061 515.365L365.404 514.976L322.552 477.161Z" fill="#B3B3B3"/>
<path d="M319.872 477.914L319.54 478.312L364.024 515.377L364.356 514.979L319.872 477.914Z" fill="#B3B3B3"/>
<path d="M296.296 553.252C294.639 552.1 292.769 551.288 290.795 550.864C288.821 550.439 286.782 550.412 284.797 550.782C282.812 551.152 280.921 551.912 279.232 553.019C277.544 554.126 276.092 555.557 274.962 557.23L252.807 590.006L268.826 603.555L297.877 577.005C299.565 575.462 300.884 573.559 301.737 571.438C302.589 569.316 302.953 567.03 302.801 564.749C302.649 562.467 301.985 560.249 300.86 558.259C299.734 556.269 298.174 554.558 296.296 553.252Z" fill="#A0616A"/>
<path d="M273.754 599.861C264.749 645.082 242.834 679.956 191.195 691.008C151.714 656.951 135.837 612.428 138.236 559.801C138.385 556.528 139.196 553.32 140.619 550.37C142.043 547.42 144.05 544.789 146.519 542.635C148.989 540.482 151.869 538.851 154.986 537.841C158.103 536.831 161.393 536.462 164.656 536.758C169.559 537.204 174.21 539.131 177.991 542.283C181.771 545.436 184.502 549.664 185.82 554.406L205.982 626.959L251.497 585.028L273.754 599.861Z" fill="#0E153A"/>
<path d="M894.513 754H-193V751.312H895L894.513 754Z" fill="#3F3D56"/>
<path d="M375.414 112.712C374.76 112.713 374.134 112.972 373.672 113.434C373.21 113.896 372.95 114.522 372.949 115.175V307.325C372.95 307.978 373.21 308.604 373.672 309.066C374.134 309.528 374.76 309.788 375.414 309.788H535.604C536.257 309.788 536.884 309.528 537.346 309.066C537.808 308.604 538.067 307.978 538.068 307.325V115.175C538.067 114.522 537.808 113.896 537.346 113.434C536.884 112.972 536.257 112.713 535.604 112.712H375.414Z" fill="#E6E6E6"/>
<path d="M392.049 290.697H518.968V131.804H392.049V290.697Z" fill="white"/>
<path d="M642.109 163.213C641.719 163.213 641.345 163.368 641.069 163.644C640.793 163.92 640.638 164.294 640.637 164.684V260.28C640.638 260.67 640.793 261.044 641.069 261.32C641.345 261.596 641.719 261.751 642.109 261.751H756.872C757.262 261.751 757.636 261.596 757.912 261.32C758.188 261.044 758.343 260.67 758.343 260.28V164.684C758.343 164.294 758.188 163.92 757.912 163.644C757.636 163.369 757.262 163.213 756.872 163.213L642.109 163.213Z" fill="#E6E6E6"/>
<path d="M652.04 174.61V250.352H746.94V174.61H652.04Z" fill="white"/>
<path d="M477.919 126.26H433.099C432.015 126.265 430.95 125.983 430.011 125.443C429.072 124.904 428.292 124.126 427.751 123.188C427.209 122.25 426.925 121.186 426.927 120.104C426.929 119.021 427.218 117.958 427.763 117.022L450.173 78.223C450.191 78.1911 450.21 78.1592 450.229 78.1273C450.719 77.3021 451.397 76.6043 452.208 76.0909C453.018 75.5775 453.939 75.263 454.895 75.1731L454.927 75.1701C455.119 75.1527 455.313 75.1437 455.509 75.1437C456.591 75.1372 457.656 75.4191 458.594 75.9603C459.532 76.5014 460.309 77.2824 460.844 78.223L483.254 117.022C483.795 117.959 484.08 119.021 484.08 120.102C484.08 121.183 483.795 122.245 483.254 123.181C482.713 124.117 481.936 124.895 480.999 125.435C480.063 125.976 479 126.26 477.919 126.26ZM431.862 120.096C431.863 120.314 431.922 120.528 432.031 120.718C432.138 120.906 432.293 121.063 432.481 121.171C432.668 121.28 432.882 121.336 433.099 121.333H477.919C478.135 121.336 478.349 121.28 478.537 121.171C478.724 121.063 478.879 120.906 478.986 120.718C479.095 120.529 479.154 120.315 479.156 120.096C479.154 119.882 479.095 119.671 478.986 119.486L456.576 80.6864C456.468 80.4992 456.312 80.3437 456.125 80.2356C455.937 80.1275 455.725 80.0706 455.509 80.0706C455.292 80.0706 455.08 80.1275 454.892 80.2356C454.705 80.3437 454.549 80.4992 454.441 80.6864L432.031 119.486C431.921 119.67 431.863 119.881 431.862 120.096Z" fill="#E6E6E6"/>
<path d="M455.509 86.8454C457.55 86.8454 459.205 85.1911 459.205 83.1503C459.205 81.1095 457.55 79.4551 455.509 79.4551C453.467 79.4551 451.812 81.1095 451.812 83.1503C451.812 85.1911 453.467 86.8454 455.509 86.8454Z" fill="#E6E6E6"/>
<path d="M711.64 166.292H687.34C686.753 166.294 686.175 166.142 685.666 165.849C685.157 165.557 684.734 165.135 684.441 164.626C684.147 164.118 683.993 163.541 683.994 162.954C683.995 162.367 684.152 161.791 684.447 161.284L696.597 140.248L696.628 140.196C696.893 139.748 697.261 139.37 697.7 139.092C698.14 138.813 698.639 138.643 699.157 138.594L699.175 138.593C699.279 138.583 699.384 138.578 699.49 138.578C700.077 138.575 700.655 138.728 701.163 139.021C701.671 139.314 702.092 139.738 702.383 140.248L714.533 161.284C714.826 161.791 714.98 162.367 714.98 162.953C714.98 163.539 714.826 164.115 714.533 164.622C714.24 165.13 713.818 165.552 713.31 165.845C712.802 166.138 712.226 166.292 711.64 166.292ZM686.669 162.95C686.67 163.068 686.702 163.184 686.761 163.287C686.819 163.389 686.903 163.474 687.005 163.533C687.107 163.592 687.223 163.622 687.34 163.621H711.64C711.758 163.622 711.873 163.592 711.975 163.533C712.077 163.474 712.161 163.389 712.219 163.287C712.278 163.184 712.31 163.068 712.311 162.95C712.31 162.834 712.278 162.72 712.219 162.619L700.069 141.583C700.01 141.482 699.926 141.397 699.824 141.339C699.723 141.28 699.607 141.249 699.49 141.249C699.373 141.249 699.258 141.28 699.156 141.339C699.055 141.397 698.97 141.482 698.911 141.583L686.761 162.619C686.702 162.719 686.67 162.833 686.669 162.95Z" fill="#E6E6E6"/>
<path d="M699.49 144.922C700.597 144.922 701.494 144.025 701.494 142.918C701.494 141.812 700.597 140.915 699.49 140.915C698.383 140.915 697.486 141.812 697.486 142.918C697.486 144.025 698.383 144.922 699.49 144.922Z" fill="#E6E6E6"/>
<path d="M393.5 230.195C395.271 226.131 397.852 222.47 401.086 219.436C404.319 216.401 408.137 214.058 412.307 212.548C416.643 210.874 421.289 210.158 425.928 210.446C430.567 210.735 435.089 212.022 439.184 214.219C448.8 219.321 456.488 227.341 466.253 232.223C475.749 236.926 486.198 239.386 496.795 239.415C508.794 239.509 520.605 236.444 531.043 230.529C531.449 230.273 531.739 229.87 531.853 229.404C531.966 228.938 531.895 228.446 531.653 228.033C531.411 227.619 531.017 227.315 530.555 227.185C530.094 227.056 529.599 227.111 529.177 227.338C519.717 232.638 509.092 235.515 498.25 235.714C487.407 235.913 476.684 233.427 467.036 228.478C457.238 223.343 449.475 215.052 439.494 210.24C435.257 208.185 430.654 206.991 425.952 206.727C421.25 206.463 416.542 207.135 412.101 208.703C407.165 210.359 402.636 213.043 398.815 216.578C394.994 220.114 391.967 224.42 389.936 229.213C389.039 231.414 392.613 232.372 393.5 230.195V230.195Z" fill="#E6E6E6"/>
<path d="M390.58 264.736C411.094 260.158 432.375 260.232 452.857 264.952C471.053 269.17 489.836 276.758 508.596 271.099C516.977 268.57 524.658 263.513 528.964 255.73C530.116 253.648 526.925 251.782 525.772 253.865C517.665 268.519 498.672 270.992 483.671 268.587C473.648 266.981 463.988 263.759 454.122 261.454C432.912 256.483 410.85 256.387 389.597 261.173C387.276 261.691 388.258 265.254 390.58 264.736Z" fill="#E6E6E6"/>
<path d="M389.248 182.138C408.918 178.793 429.064 179.51 448.447 184.243C466.554 188.678 484.254 198.809 503.4 197.059C512.265 196.249 521.041 192.991 527.062 186.212C528.637 184.439 526.032 181.816 524.449 183.599C519.254 189.447 511.772 192.477 504.094 193.296C495.244 194.24 486.549 192.407 478.126 189.803C468.803 186.921 459.745 183.269 450.266 180.887C429.987 175.797 408.867 175.009 388.265 178.574C385.925 178.974 386.917 182.535 389.248 182.138Z" fill="#E6E6E6"/>
<path d="M668.566 173.363C677.065 182.062 682.927 192.989 685.475 204.879C687.434 214.337 687.213 224.118 684.829 233.478C682.445 242.839 677.96 251.534 671.714 258.904C670.182 260.706 672.785 263.333 674.328 261.517C682.837 251.496 688.27 239.232 689.975 226.199C691.218 216.139 690.173 205.928 686.919 196.327C683.665 186.726 678.285 177.983 671.18 170.75C669.512 169.049 666.899 171.663 668.566 173.363Z" fill="#E6E6E6"/>
<path d="M724.03 165.477C712.701 173.783 706.358 187.189 705.466 201.056C704.537 215.484 710.042 229.417 718.906 240.619C724.078 247.069 730.256 252.644 737.203 257.129C739.199 258.435 741.054 255.237 739.069 253.938C727.751 246.536 718.067 236.021 712.924 223.403C710.417 217.409 709.117 210.98 709.099 204.483C709.081 197.986 710.344 191.55 712.817 185.542C715.586 178.848 720.103 173.021 725.896 168.668C727.794 167.276 725.952 164.068 724.03 165.477Z" fill="#E6E6E6"/>
<path d="M464.134 202.628C473.662 202.628 481.385 194.908 481.385 185.384C481.385 175.86 473.662 168.14 464.134 168.14C454.607 168.14 446.883 175.86 446.883 185.384C446.883 194.908 454.607 202.628 464.134 202.628Z" fill="#E6E6E6"/>
</g>
<defs>
<clipPath id="clip0">
<rect x="-193" width="1088" height="754" fill="white"/>
</clipPath>
</defs>
</svg>
