<svg width="956" height="760" viewBox="0 0 956 760" fill="none" xmlns="http://www.w3.org/2000/svg">
<g clip-path="url(#clip0)">
<path opacity="0.1" d="M560.661 128.436C500.17 126.334 442.549 106.809 387.535 85.4437C332.521 64.0782 278.031 40.4041 218.989 29.0858C181.014 21.8051 137.581 20.777 106.99 41.1331C77.5389 60.7603 68.0241 94.547 62.9116 125.932C59.0608 149.54 56.7989 174.383 67.3512 196.487C74.6695 211.833 87.6705 224.731 96.6525 239.479C127.935 290.622 105.831 353.691 71.931 403.628C56.0419 427.059 37.5825 449.424 25.3198 474.341C13.0572 499.258 7.37452 527.849 18.1043 553.289C28.75 578.524 54.1072 597.441 81.5672 610.759C137.357 637.817 203.072 645.555 267.199 649.939C409.107 659.65 551.763 655.444 694.045 651.238C746.703 649.677 799.586 648.098 851.384 639.957C880.153 635.433 909.847 628.265 930.736 610.937C957.243 588.945 963.814 551.7 946.055 524.129C916.249 477.874 833.897 466.388 813.036 416.74C801.577 389.421 813.353 358.99 830.009 333.643C865.75 279.285 925.652 231.591 928.811 169.457C930.979 126.773 902.173 84.0418 857.647 63.8445C810.979 42.6005 746.245 45.2922 711.831 80.3313C676.371 116.436 614.067 130.287 560.661 128.436Z" fill="#0E153A"/>
<path d="M406.994 645.359L87.0815 643.798L55.2939 569.243L167.695 561.084L148.105 479.341L370.421 450.527L157.536 376.523L176.341 372.056L518.657 427.9L499.805 555.467L472.859 625.573L406.994 645.359Z" fill="#0E153A"/>
<path d="M91.9885 612.573C91.9885 612.573 111.616 609.432 123.393 623.302C123.393 623.302 114.757 630.106 96.1758 620.685L91.9885 612.573Z" fill="#0E153A"/>
<path d="M89.9323 612.264C89.9323 612.264 77.408 627.676 83.5767 644.835C83.5767 644.835 93.7831 640.751 94.8953 619.946L89.9323 612.264Z" fill="#0E153A"/>
<path d="M78.679 586.926C78.679 586.926 86.53 572.523 117.934 592.683C117.934 592.683 113.747 602.366 99.8769 601.581C86.0066 600.796 82.3428 594.515 78.679 586.926Z" fill="#0E153A"/>
<path d="M76.6508 585.889C76.6508 585.889 60.3598 584.019 58.7803 621.311C58.7803 621.311 69.1082 623.451 76.4452 611.656C83.7822 599.861 80.7726 593.244 76.6508 585.889Z" fill="#0E153A"/>
<path d="M67.1641 556.139C67.1641 556.139 76.3237 530.755 109.56 548.812C109.56 548.812 101.971 572.103 70.5662 564.775L67.1641 556.139Z" fill="#0E153A"/>
<path d="M56.9578 518.194C56.9578 518.194 74.2301 492.548 104.849 516.324C104.849 516.324 94.1196 540.4 59.5748 527.316L56.9578 518.194Z" fill="#0E153A"/>
<path d="M53.2939 482.079C53.2939 482.079 73.4451 458.517 103.765 482.079C103.765 482.079 84.6609 502.753 53.2939 488.098V482.079Z" fill="#0E153A"/>
<path d="M50.1536 447.003C50.1536 447.003 70.5664 422.404 99.6154 445.695C99.6154 445.695 76.5855 467.415 50.1536 452.76V447.003Z" fill="#0E153A"/>
<path d="M51.9854 415.862C51.9854 415.862 73.4824 384.197 100.662 405.656C100.662 405.656 77.6322 432.872 51.9854 421.881V415.862Z" fill="#0E153A"/>
<path d="M56.9578 379.486C56.9578 379.486 79.7259 348.082 106.158 372.158C106.158 372.158 79.2025 399.375 56.9578 385.243V379.486Z" fill="#0E153A"/>
<path d="M64.547 346.97C64.547 346.97 91.5024 317.455 115.018 329.212C115.018 329.212 86.932 360.56 63.3694 354.803L64.547 346.97Z" fill="#0E153A"/>
<path d="M73.9685 316.146C73.9685 316.146 105.074 279.995 123.169 292.07C123.169 292.07 100.251 320.109 71.7627 322.913L73.9685 316.146Z" fill="#0E153A"/>
<path d="M87.5676 280.397C87.5676 280.397 114.794 250.882 134.683 258.209C134.683 258.209 111.392 288.827 83.9131 289.612L87.5676 280.397Z" fill="#0E153A"/>
<path d="M99.8769 246.956C99.8769 246.956 129.973 218.693 143.058 223.665C143.058 223.665 121.336 255.068 98.5684 253.236L99.8769 246.956Z" fill="#0E153A"/>
<path d="M111.915 216.076C111.915 216.076 137.824 182.308 151.965 184.925C151.965 184.925 136.254 215.029 111.915 219.506V216.076Z" fill="#0E153A"/>
<path d="M124.982 174.438C124.982 174.438 147.881 148.558 160.256 148.614C160.256 148.614 142.179 183.195 124.038 182.878L124.982 174.438Z" fill="#0E153A"/>
<path d="M132.721 146.718L154.844 92.8086C154.844 92.8086 155.947 141.54 129.907 156.718L132.721 146.718Z" fill="#0E153A"/>
<path d="M141.703 87.2657C141.703 87.2657 145.367 42.2448 143.011 38.5811C143.011 38.5811 158.826 76.0128 141.553 107.155L141.703 87.2657Z" fill="#0E153A"/>
<path d="M66.3044 555.541C66.3044 555.541 43.368 541.325 28.5164 576.103C28.5164 576.103 48.9292 589.655 69.0055 564.411L66.3044 555.541Z" fill="#0E153A"/>
<path d="M56.2194 516.746C56.2194 516.746 28.0864 503.913 14.4404 540.223C14.4404 540.223 36.1711 555.177 58.7803 525.924L56.2194 516.746Z" fill="#0E153A"/>
<path d="M51.9854 484.239C51.9854 484.239 31.8343 460.677 1.51416 484.239C1.51416 484.239 20.6185 504.912 51.9854 490.258V484.239Z" fill="#0E153A"/>
<path d="M49.4618 447.003C49.4618 447.003 29.049 422.404 0 445.695C0 445.695 23.0298 467.415 49.4618 452.76V447.003Z" fill="#0E153A"/>
<path d="M51.9853 416.758C51.9853 416.758 37.6664 381.289 6.54248 396.543C6.54248 396.543 23.3662 427.993 50.7141 422.647L51.9853 416.758Z" fill="#0E153A"/>
<path d="M58.7616 379.309C58.7616 379.309 44.5268 343.223 12.9636 359.953C12.9636 359.953 32.2922 393.029 57.3596 384.879L58.7616 379.309Z" fill="#0E153A"/>
<path d="M67.5848 347.148C67.5848 347.148 61.9769 307.585 35.8066 304.043C35.8066 304.043 41.3585 345.765 64.0612 354.279L67.5848 347.148Z" fill="#0E153A"/>
<path d="M74.6319 316.221C74.6319 316.221 72.4448 268.555 50.8076 266.892C50.8076 266.892 51.5367 303.071 72.1925 322.969L74.6319 316.221Z" fill="#0E153A"/>
<path d="M89.8107 279.061C89.8107 279.061 83.3616 239.423 62.7058 234.582C62.7058 234.582 65.2668 272.967 87.7638 288.79L89.8107 279.061Z" fill="#0E153A"/>
<path d="M102.326 247.283C102.326 247.283 102.111 205.992 89.4931 199.926C89.4931 199.926 81.67 237.311 98.6713 252.555L102.326 247.283Z" fill="#0E153A"/>
<path d="M112.878 215.609C112.878 215.609 111.111 173.093 98.0449 167.102C98.0449 167.102 93.5773 200.748 110.924 218.394L112.878 215.609Z" fill="#0E153A"/>
<path d="M126.804 177.831C126.804 177.831 126.73 143.25 117.402 135.138C117.402 135.138 108.13 173.018 121.935 184.785L126.804 177.831Z" fill="#0E153A"/>
<path d="M131.627 145.016L122.552 87.4619C122.552 87.4619 110.224 134.623 132.057 155.409L131.627 145.016Z" fill="#0E153A"/>
<path d="M133.394 87.8082C133.394 87.8082 110.102 49.1147 110.579 44.8154C110.579 44.8154 113.056 85.3688 142.357 105.566L133.394 87.8082Z" fill="#0E153A"/>
<path d="M136.123 76.3775C136.123 76.3775 114.14 21.4215 104.195 16.9727C104.195 16.9727 135.599 32.9361 137.955 74.8073L136.123 76.3775Z" fill="#0E153A"/>
<path d="M123.926 183.205L122.421 182.747C140.974 122.249 145.6 83.6769 135.459 74.0035L136.534 72.8633C147.292 83.0694 142.927 121.221 123.926 183.205Z" fill="#444053"/>
<path d="M72.8375 324.857L70.613 324.062C72.5852 318.52 74.7068 312.894 76.9313 307.351C96.2973 259.087 112.785 214.188 123.355 179.719L125.29 178.784C114.701 213.319 98.5031 259.938 79.1184 308.267C76.9032 313.707 74.7909 319.305 72.8375 324.857Z" fill="#444053"/>
<path d="M119.645 657.845C119.346 657.518 89.278 623.657 68.3137 565.85C56.0299 532.007 49.1936 496.429 48.0598 460.443C46.6205 415.46 56.0604 365.233 72.2299 319.604L73.9871 321.661C37.6852 424.068 52.1069 511.82 71.2392 564.663C91.9791 621.947 121.71 655.434 122 655.771L119.645 657.845Z" fill="#444053"/>
<path d="M589.514 585.954C589.514 585.954 568.325 611.815 585.149 650.911L415.977 724.279L399.742 727.681L392.264 694.969L397.265 653.686V631.125L589.514 585.954Z" fill="#D5D6DB"/>
<path d="M55.2939 569.243L289.443 526.559L599.701 575.982L406.994 645.359L55.2939 569.243Z" fill="#0E153A"/>
<path d="M55.2939 569.243L289.443 526.559L599.701 575.982L406.994 645.359L55.2939 569.243Z" fill="#0E153A"/>
<path d="M55.294 569.233C55.294 569.233 33.3951 610.721 58.6307 649.041L405.854 724.278C405.854 724.278 384.301 691.23 406.966 645.359L55.294 569.233Z" fill="#0E153A"/>
<path opacity="0.1" d="M55.294 569.233C55.294 569.233 33.3951 610.721 58.6307 649.041L405.854 724.278C405.854 724.278 384.301 691.23 406.966 645.359L55.294 569.233Z" fill="black"/>
<path opacity="0.1" d="M65.6406 583.617C65.6406 583.617 53.1256 613.974 65.6406 633.62V583.617Z" fill="black"/>
<path d="M405.854 724.279L599.701 641.564C599.701 641.564 610.543 643.901 603.533 651.845C596.523 659.79 409.593 732.223 409.593 732.223L58.6309 649.041L405.854 724.279Z" fill="#0E153A"/>
<path opacity="0.1" d="M405.854 724.279L599.701 641.564C599.701 641.564 610.543 643.901 603.533 651.845C596.523 659.79 409.593 732.223 409.593 732.223L58.6309 649.041L405.854 724.279Z" fill="black"/>
<path opacity="0.1" d="M389.965 653.715C389.965 653.715 371.272 676.146 389.965 709.792V653.715Z" fill="black"/>
<path opacity="0.1" d="M480.465 653.335L396.618 681.308L396.914 682.194L480.761 654.222L480.465 653.335Z" fill="black"/>
<path opacity="0.1" d="M497.259 650.551L396.592 688.83L396.924 689.704L497.591 651.425L497.259 650.551Z" fill="black"/>
<path opacity="0.1" d="M512.682 650.418L397.153 697.704L397.507 698.569L513.036 651.283L512.682 650.418Z" fill="black"/>
<path opacity="0.1" d="M529.454 646.368L398.502 705.521L398.886 706.373L529.839 647.22L529.454 646.368Z" fill="black"/>
<path opacity="0.1" d="M543.545 646.387L399.538 709.33L399.913 710.186L543.919 647.244L543.545 646.387Z" fill="black"/>
<path opacity="0.1" d="M574.365 641.153L401.71 715.723L402.081 716.581L574.735 642.011L574.365 641.153Z" fill="black"/>
<path opacity="0.3" d="M142.282 573.804L306.781 539.223L406.995 558.382L272.199 601.843L142.282 573.804Z" fill="white"/>
<path d="M599.701 575.981C599.701 575.981 608.206 579.412 603.215 584.711C598.224 590.01 406.966 645.359 406.966 645.359L599.701 575.981Z" fill="#0E153A"/>
<path d="M682.315 496.062C682.315 496.062 661.136 521.913 677.959 561.018L508.787 634.386L492.552 637.807L485.075 605.095L490.15 563.822V541.232L682.315 496.062Z" fill="#D5D6DB"/>
<path d="M148.105 479.341L382.245 436.666L692.512 486.089L499.805 555.466L148.105 479.341Z" fill="#3A3768"/>
<path d="M148.068 479.342C148.068 479.342 126.159 520.83 151.395 559.149L498.618 634.387C498.618 634.387 477.075 601.31 499.768 555.458L148.068 479.342Z" fill="#3A3768"/>
<path opacity="0.1" d="M148.068 479.342C148.068 479.342 126.159 520.83 151.395 559.149L498.618 634.387C498.618 634.387 477.075 601.31 499.768 555.458L389.965 531.69L148.068 479.342Z" fill="black"/>
<path opacity="0.1" d="M158.442 493.726C158.442 493.726 145.937 524.073 158.442 543.728V493.726Z" fill="black"/>
<path d="M498.656 634.386L692.512 551.672C692.512 551.672 703.345 554.008 696.335 561.953C689.325 569.897 502.394 642.331 502.394 642.331L151.432 559.149L498.656 634.386Z" fill="#3A3768"/>
<path opacity="0.1" d="M498.656 634.386L692.512 551.672C692.512 551.672 703.345 554.008 696.335 561.953C689.325 569.897 502.394 642.331 502.394 642.331L151.432 559.149L498.656 634.386Z" fill="black"/>
<path opacity="0.1" d="M482.767 563.822C482.767 563.822 464.074 586.253 482.767 619.9V563.822Z" fill="black"/>
<path opacity="0.1" d="M573.274 563.453L489.427 591.426L489.723 592.312L573.57 564.34L573.274 563.453Z" fill="black"/>
<path opacity="0.1" d="M590.08 560.664L489.412 598.943L489.744 599.817L590.412 561.538L590.08 560.664Z" fill="black"/>
<path opacity="0.1" d="M605.489 560.517L489.96 607.804L490.314 608.669L605.843 561.382L605.489 560.517Z" fill="black"/>
<path opacity="0.1" d="M622.272 556.47L491.32 615.623L491.704 616.475L622.657 557.322L622.272 556.47Z" fill="black"/>
<path opacity="0.1" d="M636.349 556.478L492.343 619.421L492.717 620.277L636.723 557.334L636.349 556.478Z" fill="black"/>
<path opacity="0.1" d="M667.176 551.243L494.521 625.812L494.892 626.671L667.547 552.101L667.176 551.243Z" fill="black"/>
<path opacity="0.45" d="M235.093 483.911L399.592 449.33L499.806 468.49L365.01 511.95L235.093 483.911Z" fill="white"/>
<path d="M692.512 486.09C692.512 486.09 701.008 489.52 696.026 494.81C691.045 500.1 499.805 555.458 499.805 555.458L692.512 486.09Z" fill="#3A3768"/>
<path d="M691.101 393.225C691.101 393.225 669.912 439.647 686.736 478.743L517.564 531.549L501.366 534.979L493.889 502.267L498.89 460.985V438.395L691.101 393.225Z" fill="#D5D6DB"/>
<path d="M156.919 376.513L391.068 333.829L701.335 383.252L508.619 452.629L156.919 376.513Z" fill="#0E153A"/>
<path d="M156.919 376.505C156.919 376.505 134.983 417.993 160.218 456.313L507.442 531.55C507.442 531.55 485.889 498.474 508.582 452.63L156.919 376.505Z" fill="#0E153A"/>
<path opacity="0.1" d="M156.919 376.505C156.919 376.505 134.983 417.993 160.218 456.313L507.442 531.55C507.442 531.55 485.889 498.474 508.582 452.63L156.919 376.505Z" fill="black"/>
<path opacity="0.1" d="M167.265 390.889C167.265 390.889 154.75 421.245 167.265 440.891V390.889Z" fill="black"/>
<path d="M507.479 531.55L701.326 469.397C701.326 469.397 712.168 471.734 705.158 479.678C698.148 487.622 511.218 539.494 511.218 539.494L160.256 456.312L507.479 531.55Z" fill="#0E153A"/>
<path opacity="0.1" d="M507.479 531.55L701.326 469.397C701.326 469.397 712.168 471.734 705.158 479.678C698.148 487.622 511.218 539.494 511.218 539.494L160.256 456.312L507.479 531.55Z" fill="black"/>
<path opacity="0.1" d="M491.59 460.985C491.59 460.985 472.897 483.416 491.59 517.063V460.985Z" fill="black"/>
<path opacity="0.1" d="M582.1 460.614L498.253 488.587L498.548 489.473L582.395 461.501L582.1 460.614Z" fill="black"/>
<path opacity="0.1" d="M598.899 457.83L498.231 496.109L498.564 496.983L599.231 458.704L598.899 457.83Z" fill="black"/>
<path opacity="0.1" d="M614.3 457.688L498.771 504.975L499.125 505.84L614.654 458.553L614.3 457.688Z" fill="black"/>
<path opacity="0.1" d="M631.096 453.632L500.143 512.785L500.528 513.637L631.481 454.484L631.096 453.632Z" fill="black"/>
<path opacity="0.1" d="M645.178 453.649L501.171 516.592L501.546 517.448L645.552 454.505L645.178 453.649Z" fill="black"/>
<path opacity="0.1" d="M676.002 448.421L503.347 522.99L503.718 523.848L676.372 449.279L676.002 448.421Z" fill="black"/>
<path opacity="0.3" d="M243.907 381.075L408.406 346.494L508.619 365.654L373.824 409.114L243.907 381.075Z" fill="white"/>
<path d="M701.326 383.253C701.326 383.253 709.831 386.683 704.84 391.982C699.849 397.282 508.619 452.63 508.619 452.63L701.326 383.253Z" fill="#0E153A"/>
<path d="M290.135 99.5372C290.135 99.5372 254.618 97.3969 258.768 122.314C258.768 122.314 257.936 126.716 261.927 128.716C261.927 128.716 261.992 126.847 265.572 127.492C266.85 127.711 268.149 127.774 269.442 127.679C271.184 127.559 272.841 126.877 274.162 125.735C274.162 125.735 284.153 121.604 288.041 105.266C288.041 105.266 290.92 101.706 290.845 100.79L284.826 103.35C284.826 103.35 286.873 107.678 285.265 111.276C285.265 111.276 285.069 103.509 283.91 103.687C283.676 103.687 280.798 105.192 280.798 105.192C280.798 105.192 284.321 112.734 281.658 118.211C281.658 118.211 282.667 108.921 279.695 105.734L275.47 108.201C275.47 108.201 279.592 115.987 276.797 122.342C276.797 122.342 277.517 112.594 274.582 108.799L270.75 111.79C270.75 111.79 274.629 119.463 272.264 124.735C272.264 124.735 271.956 113.388 269.928 112.529C269.928 112.529 266.572 115.482 266.068 116.697C266.068 116.697 268.722 122.305 267.068 125.211C267.068 125.211 266.068 117.65 265.198 117.613C265.198 117.613 261.862 122.622 261.516 126.024C261.677 122.853 262.667 119.779 264.385 117.108C262.462 117.472 260.688 118.392 259.282 119.753C259.282 119.753 259.796 116.211 265.217 115.902C265.217 115.902 267.974 112.099 268.713 111.874C268.713 111.874 263.32 111.416 260.058 112.865C260.058 112.865 262.936 109.528 269.694 110.996L273.433 107.911C273.433 107.911 266.348 106.977 263.338 108.014C263.338 108.014 266.806 105.061 274.451 107.21L278.573 104.752C278.573 104.752 272.526 103.453 268.928 103.921C268.928 103.921 272.722 101.874 279.779 104.089L282.714 102.771C282.714 102.771 278.293 101.902 276.994 101.762C275.694 101.621 275.629 101.266 275.629 101.266C278.435 100.805 281.314 101.129 283.947 102.201C283.947 102.201 290.256 99.9298 290.135 99.5372Z" fill="#0E153A"/>
<path opacity="0.1" d="M789.8 201.954C789.8 201.954 754.283 199.814 758.433 224.731C758.433 224.731 757.601 229.133 761.592 231.133C761.592 231.133 761.658 229.264 765.237 229.909C766.515 230.123 767.814 230.186 769.107 230.096C770.833 229.969 772.473 229.287 773.78 228.152C773.78 228.152 783.781 224.021 787.66 207.683C787.66 207.683 790.538 204.123 790.464 203.207L784.463 205.767C784.463 205.767 786.51 210.095 784.902 213.693C784.902 213.693 784.706 205.926 783.556 206.104C783.323 206.104 780.435 207.609 780.435 207.609C780.435 207.609 783.958 215.151 781.304 220.628C781.304 220.628 782.313 211.338 779.332 208.151L775.107 210.618C775.107 210.618 779.229 218.404 776.434 224.759C776.434 224.759 777.154 215.011 774.219 211.216L770.397 214.207C770.397 214.207 774.266 221.88 771.901 227.152C771.901 227.152 771.593 215.805 769.565 214.945C769.565 214.945 766.219 217.899 765.705 219.114C765.705 219.114 768.359 224.722 766.714 227.628C766.714 227.628 765.705 220.067 764.845 220.03C764.845 220.03 761.508 225.039 761.162 228.441C761.324 225.269 762.317 222.194 764.041 219.525C762.115 219.89 760.338 220.809 758.928 222.17C758.928 222.17 759.452 218.628 764.863 218.32C764.863 218.32 767.621 214.516 768.359 214.282C768.359 214.282 762.975 213.833 759.704 215.282C759.704 215.282 762.583 211.945 769.34 213.413L773.079 210.328C773.079 210.328 765.985 209.394 762.985 210.431C762.985 210.431 766.443 207.478 774.098 209.627L778.21 207.169C778.21 207.169 772.163 205.87 768.565 206.338C768.565 206.338 772.359 204.291 779.416 206.506L782.36 205.188C782.36 205.188 777.93 204.319 776.631 204.179C775.332 204.038 775.266 203.683 775.266 203.683C778.072 203.217 780.952 203.54 783.585 204.618C783.585 204.618 789.912 202.347 789.8 201.954Z" fill="#0E153A"/>
<path opacity="0.1" d="M349.953 253.47C349.953 253.47 334.475 221.384 314.772 237.198C314.772 237.198 310.52 238.619 310.725 243.077C310.725 243.077 312.361 242.226 313.529 245.666C313.966 246.882 314.543 248.042 315.249 249.124C316.205 250.59 317.613 251.706 319.259 252.302C319.259 252.302 327.736 259.012 343.896 254.433C343.896 254.433 348.41 255.208 349.149 254.666L343.99 250.675C343.99 250.675 341.186 254.573 337.279 254.919C337.279 254.919 343.971 250.965 343.251 250.049C343.102 249.862 340.447 248.058 340.447 248.058C340.447 248.058 335.578 254.816 329.502 255.162C329.502 255.162 338.101 251.517 339.428 247.358L335.222 244.871C335.222 244.871 330.428 252.274 323.521 252.928C323.521 252.928 332.381 248.806 334.26 244.395L329.792 242.526C329.792 242.526 324.979 249.647 319.221 250.161C319.221 250.161 328.979 244.357 328.736 242.161C328.736 242.161 324.521 240.684 323.212 240.824C323.212 240.824 319.642 245.862 316.277 245.862C316.277 245.862 322.38 241.292 322.007 240.553C322.007 240.553 316.006 240.086 312.847 241.488C315.694 240.073 318.861 239.429 322.035 239.619C320.776 238.118 319.106 237.017 317.23 236.45C317.23 236.45 320.576 235.179 323.483 239.75C323.483 239.75 328.156 240.301 328.708 240.834C328.708 240.834 326.474 235.918 323.623 233.777C323.623 233.777 327.942 234.647 329.914 241.254L334.447 243.049C334.447 243.049 331.839 236.394 329.437 234.291C329.437 234.291 333.699 235.871 335.559 243.638L339.709 246.03C339.709 246.03 337.905 240.114 335.737 237.207C335.737 237.207 339.372 239.525 340.877 246.759L343.466 248.685C343.466 248.685 342.064 244.395 341.597 243.198C341.129 242.002 341.363 241.759 341.363 241.759C343.141 243.978 344.267 246.648 344.616 249.47C344.616 249.47 349.616 253.75 349.953 253.47Z" fill="#0E153A"/>
<path opacity="0.1" d="M708.653 156.624C708.653 156.624 693.185 124.539 673.473 140.352C673.473 140.352 669.23 141.773 669.426 146.231C669.426 146.231 671.071 145.39 672.23 148.82C672.666 150.041 673.246 151.205 673.959 152.288C674.912 153.751 676.317 154.864 677.959 155.456C677.959 155.456 686.446 162.167 702.597 157.596C702.597 157.596 707.111 158.363 707.859 157.821L702.728 153.82C702.728 153.82 699.924 157.727 696.026 158.073C696.026 158.073 702.709 154.11 701.989 153.194C701.84 153.007 699.185 151.203 699.185 151.203C699.185 151.203 694.325 157.961 688.241 158.307C688.241 158.307 696.849 154.662 698.176 150.512L693.905 148.044C693.905 148.044 689.119 155.437 682.203 156.101C682.203 156.101 691.063 151.97 692.951 147.558L688.474 145.689C688.474 145.689 683.661 152.82 677.913 153.325C677.913 153.325 687.661 147.521 687.418 145.334C687.418 145.334 683.212 143.848 681.904 143.997C681.904 143.997 678.333 149.026 674.959 149.026C674.959 149.026 681.072 144.455 680.698 143.717C680.698 143.717 674.697 143.25 671.529 144.652C674.376 143.236 677.543 142.592 680.717 142.782C679.462 141.28 677.795 140.179 675.922 139.614C675.922 139.614 679.268 138.343 682.175 142.913C682.175 142.913 686.848 143.474 687.399 144.007C687.399 144.007 685.166 139.081 682.306 136.941C682.306 136.941 686.624 137.82 688.596 144.465L693.138 146.259C693.138 146.259 690.531 139.595 688.128 137.492C688.128 137.492 692.39 139.072 694.241 146.839L698.4 149.231C698.4 149.231 696.587 143.325 694.419 140.409C694.419 140.409 698.064 142.726 699.559 149.96L702.148 151.886C702.148 151.886 700.756 147.596 700.279 146.399C699.802 145.203 700.045 144.969 700.045 144.969C701.818 147.191 702.941 149.86 703.288 152.68C703.288 152.68 708.364 156.923 708.653 156.624Z" fill="#0E153A"/>
<path opacity="0.1" d="M758.087 315.333C758.087 315.333 742.619 283.238 722.879 299.052C722.879 299.052 718.636 300.472 718.832 304.93C718.832 304.93 720.477 304.089 721.636 307.519C722.068 308.74 722.646 309.904 723.356 310.987C724.308 312.45 725.713 313.563 727.356 314.155C727.356 314.155 735.842 320.875 752.003 316.295C752.003 316.295 756.508 317.071 757.255 316.52L752.096 312.529C752.096 312.529 749.292 316.436 745.385 316.781C745.385 316.781 752.068 312.819 751.348 311.903C751.199 311.716 748.544 309.912 748.544 309.912C748.544 309.912 743.684 316.669 737.6 317.024C737.6 317.024 746.208 313.37 747.535 309.22L743.32 306.734C743.32 306.734 738.534 314.137 731.618 314.791C731.618 314.791 740.478 310.66 742.366 306.248L737.889 304.379C737.889 304.379 733.076 311.501 727.328 312.015C727.328 312.015 737.086 306.211 736.843 304.015C736.843 304.015 732.627 302.528 731.319 302.678C731.319 302.678 727.748 307.706 724.374 307.706C724.374 307.706 730.487 303.136 730.113 302.398C730.113 302.398 724.113 301.93 720.944 303.332C723.794 301.918 726.965 301.273 730.141 301.463C728.885 299.959 727.214 298.857 725.337 298.295C725.337 298.295 728.683 297.014 731.59 301.594C731.59 301.594 736.263 302.145 736.815 302.678C736.815 302.678 734.581 297.762 731.73 295.612C731.73 295.612 736.048 296.491 738.02 303.136L742.553 304.93C742.553 304.93 739.946 298.267 737.544 296.173C737.544 296.173 741.806 297.743 743.656 305.519L747.815 307.903C747.815 307.903 746.002 301.996 743.834 299.08C743.834 299.08 747.479 301.398 748.984 308.641L751.573 310.51C751.573 310.51 750.171 306.22 749.703 305.024C749.236 303.828 749.47 303.594 749.47 303.594C751.247 305.812 752.37 308.483 752.713 311.305C752.713 311.305 757.797 315.613 758.087 315.333Z" fill="#0E153A"/>
<path opacity="0.1" d="M188.753 732.896C200.62 732.896 210.241 731.82 210.241 730.494C210.241 729.167 200.62 728.092 188.753 728.092C176.886 728.092 167.265 729.167 167.265 730.494C167.265 731.82 176.886 732.896 188.753 732.896Z" fill="#0E153A"/>
<path opacity="0.1" d="M47.8917 692.072C59.759 692.072 69.3794 690.996 69.3794 689.67C69.3794 688.343 59.759 687.268 47.8917 687.268C36.0244 687.268 26.4041 688.343 26.4041 689.67C26.4041 690.996 36.0244 692.072 47.8917 692.072Z" fill="#0E153A"/>
<path opacity="0.1" d="M296.126 760.009C307.993 760.009 317.614 758.934 317.614 757.607C317.614 756.28 307.993 755.205 296.126 755.205C284.259 755.205 274.638 756.28 274.638 757.607C274.638 758.934 284.259 760.009 296.126 760.009Z" fill="#0E153A"/>
<path opacity="0.1" d="M846.356 700.95C858.223 700.95 867.844 699.875 867.844 698.548C867.844 697.222 858.223 696.146 846.356 696.146C834.489 696.146 824.868 697.222 824.868 698.548C824.868 699.875 834.489 700.95 846.356 700.95Z" fill="#0E153A"/>
<path opacity="0.1" d="M667.547 689.295C679.415 689.295 689.035 688.22 689.035 686.893C689.035 685.567 679.415 684.491 667.547 684.491C655.68 684.491 646.06 685.567 646.06 686.893C646.06 688.22 655.68 689.295 667.547 689.295Z" fill="#0E153A"/>
<path opacity="0.1" d="M551.875 746.14C565.91 746.14 577.288 744.185 577.288 741.775C577.288 739.364 565.91 737.41 551.875 737.41C537.84 737.41 526.462 739.364 526.462 741.775C526.462 744.185 537.84 746.14 551.875 746.14Z" fill="#0E153A"/>
<path d="M563.212 697.903C563.212 697.903 527.826 716.185 546.108 737.718C546.108 737.718 547.828 742.392 552.8 742.064C552.8 742.064 551.81 740.251 555.604 738.803C556.955 738.281 558.238 737.6 559.427 736.774C561.034 735.663 562.235 734.059 562.848 732.204C562.848 732.204 570.082 722.521 564.474 704.605C564.474 704.605 565.203 699.539 564.568 698.716L560.268 704.614C560.268 704.614 564.708 707.595 565.222 711.979C565.222 711.979 560.549 704.623 559.614 705.436C559.408 705.605 557.483 708.661 557.483 708.661C557.483 708.661 565.184 713.885 565.755 720.671C565.755 720.671 561.418 711.166 556.735 709.81L554.053 714.596C554.053 714.596 562.465 719.717 563.399 727.419C563.399 727.419 558.511 717.652 553.52 715.68L551.548 720.736C551.548 720.736 559.661 725.895 560.408 732.307C560.408 732.307 553.623 721.587 551.183 721.923C551.183 721.923 549.65 726.671 549.856 728.138C549.856 728.138 555.586 731.97 555.688 735.737C555.688 735.737 550.398 729.054 549.585 729.494C549.585 729.494 549.249 736.214 550.875 739.709C550.875 739.709 548.071 734.718 548.529 729.494C546.89 730.943 545.71 732.841 545.136 734.952C545.136 734.952 543.613 731.26 548.632 727.858C548.632 727.858 549.108 722.633 549.688 721.989C549.688 721.989 544.258 724.643 541.949 727.895C541.949 727.895 542.799 723.045 550.165 720.633L552.034 715.512C552.034 715.512 544.669 718.633 542.398 721.381C542.398 721.381 544.033 716.568 552.613 714.259L555.156 709.586C555.156 709.586 548.613 711.792 545.417 714.259C545.417 714.259 547.893 710.119 555.941 708.212L558.006 705.268C558.006 705.268 553.258 706.96 551.931 707.567C550.604 708.175 550.342 707.876 550.342 707.876C552.768 705.824 555.716 704.484 558.857 704.006C558.857 704.006 563.539 698.221 563.212 697.903Z" fill="#0E153A"/>
<path d="M668.239 352.625C662.127 336.016 628.479 334.456 613.88 338.689C603.505 341.708 581.634 345.11 569.951 346.821L569.194 346.101C570.708 345.652 570.746 344.549 570.559 342.914C570.45 340.758 570.481 338.598 570.652 336.446C577.812 338.671 584.186 333.409 584.186 333.409C592.598 329.67 590.336 313.669 591.943 309.295C593.149 306.024 594.448 286.752 595.028 277.144H595.149L595.215 273.92C595.299 272.527 595.336 271.714 595.336 271.714C595.336 271.714 596.159 248.218 597.766 243.46C599.262 239.086 600.477 217.048 600.664 213.552C600.664 213.253 600.664 213.094 600.664 213.094L600.542 211.057C600.626 209.571 600.664 207.917 600.654 206.178C600.654 198.187 599.823 188.121 599.72 186.495C599.72 186.261 599.72 185.981 599.72 185.644C599.785 182.233 599.355 165.148 584.821 158.69C579.466 156.297 573.026 153.447 566.792 150.671C565.184 136.792 561.511 122.987 561.829 109.005C561.829 106.902 562.016 104.799 562.222 102.706C562.222 103.313 562.156 103.93 562.147 104.575C562.147 105.93 562.147 107.295 562.147 108.65C562.698 91.1632 569.306 73.5829 568.689 56.4699C568.633 58.1428 568.512 59.8252 568.353 61.5075C568.676 55.7192 568.07 49.9165 566.558 44.3197C565.998 42.3477 565.24 40.3102 563.623 38.9924C562.095 37.931 560.342 37.237 558.502 36.9642C554.079 35.8322 549.586 34.9954 545.052 34.4594C544.363 32.3507 543.341 30.3659 542.024 28.5806C532.546 15.5707 518.508 3.34575 501.908 0.541875C493.581 -0.860063 484 0.308218 478.336 6.26178C477.745 6.78479 477.189 7.34682 476.673 7.94411C473.626 11.5798 472.317 16.3557 469.196 19.9821C468.99 20.2251 468.756 20.4494 468.532 20.6831C462.419 26.1506 452.895 27.2909 446.1 32.1976C444.903 33.0785 443.781 34.057 442.745 35.123C440.007 37.8362 437.552 40.8205 435.417 44.03C432.361 48.3293 429.22 52.8061 428.248 57.9372C426.295 68.2181 433.296 77.9663 434.595 88.3126C437.492 111.463 411.873 132.006 416.724 154.849C418.019 160.46 420.877 165.59 424.968 169.644C414.976 178.691 406.471 187.467 406.471 187.467V187.99H404.891L405.05 189.86H404.891L405.761 200L404.891 214.767C404.891 214.767 404.891 214.926 404.891 215.225V215.3V215.702C404.891 215.702 404.891 215.861 404.891 216.16H404.948C405.237 221.571 406.387 241.03 407.752 245.133C409.359 249.891 410.172 273.387 410.172 273.387C410.172 273.387 411.948 306.594 413.574 310.987C415.201 315.38 412.892 331.334 421.332 335.1C423.801 336.994 426.724 338.206 429.809 338.615C429.379 342.11 429.65 344.643 431.043 345.437C431.639 345.788 432.315 345.981 433.006 345.998C432.433 346.847 431.924 347.738 431.482 348.662C428.132 348.312 424.841 347.536 421.687 346.353C412.621 342.615 382.535 334.203 373.796 340.119C365.057 346.036 344.027 351.4 353.738 375.215C363.449 399.029 367.973 399.627 367.973 399.627C370.962 401.797 373.584 404.432 375.74 407.431C378.656 411.814 405.826 421.843 412.621 421.843C415.509 421.798 418.397 421.942 421.267 422.273C421.267 422.273 413.892 428.741 414.874 432.498C415.855 436.255 412.63 466.331 412.63 466.331C412.63 466.331 420.108 473.864 423.304 463.985L423.416 464.135C424.014 464.948 427.248 468.621 433.333 463.985C435.823 462.096 438.468 460.42 441.24 458.976L470.7 454.807C473.772 454.615 476.852 454.593 479.925 454.742C484.599 455.125 489.188 452.359 492.076 450.218C498.179 452.536 505.039 455.069 508.301 455.994C514.919 457.863 545.332 466.023 552.445 463.471C553.924 462.883 555.238 461.947 556.277 460.742L563.063 460.957L559.885 461.593C559.885 461.593 566.072 461.695 574.484 461.808L574.129 462.013L584.681 461.92C600.122 462.06 617.469 462.107 619.749 461.593C623.32 460.798 641.873 461.359 647.34 461.593H648.864C648.864 461.593 669.249 457.527 660.837 436.844C654.369 420.955 634.489 416.338 625.666 415.067C628.152 414.572 630.292 414.188 631.713 413.964C637.872 413.029 649.836 407.422 650.808 405.506C651.78 403.59 661.809 398.029 664.398 394.86C666.987 391.692 674.38 369.233 668.239 352.625ZM499.394 399.104L498.394 399.431L497.721 399.655L496.431 400.926C495.403 400.234 494.3 399.505 493.151 398.758C495.179 398.879 497.263 399.001 499.394 399.104Z" fill="url(#paint0_linear)"/>
<path d="M558.988 300.556C558.988 300.556 573.288 337.941 581.419 334.203C589.551 330.464 587.345 314.576 588.897 310.22C590.448 305.865 592.168 272.835 592.168 272.835C592.168 272.835 592.953 249.47 594.505 244.741C595.944 240.395 597.112 218.478 597.308 215.029C597.308 214.73 597.308 214.571 597.308 214.571L595.766 187.467L587.037 185.289L566.792 192.766L563.988 208.776L562.895 215.029L562.427 217.693L558.988 300.556Z" fill="#BE6F72"/>
<path opacity="0.1" d="M563.698 294.295C563.698 294.295 577.344 305.464 581.457 306.445C585.569 307.426 588.093 316.137 588.093 316.137" fill="black"/>
<path d="M447.156 302.192C447.156 302.192 432.856 339.577 424.725 335.839C416.593 332.1 418.799 316.212 417.248 311.856C415.696 307.501 413.976 274.471 413.976 274.471C413.976 274.471 413.191 251.106 411.64 246.376C410.2 242.03 409.032 220.113 408.836 216.665C408.836 216.365 408.836 216.207 408.836 216.207L410.387 189.102L419.117 186.925L439.361 194.402L442.165 210.412L443.259 216.665L443.726 219.328L447.156 302.192Z" fill="#BE6F72"/>
<path d="M540.276 102.127H508.357V151.877H540.276V102.127Z" fill="#3E373A"/>
<path opacity="0.1" d="M540.276 102.127H508.357V151.877H540.276V102.127Z" fill="black"/>
<path d="M441.549 339.428C441.549 339.428 430.641 351.42 434.688 353.597C438.735 355.775 464.915 396.59 464.915 396.59C464.915 396.59 550.903 407.179 567.119 391.291C583.335 375.402 583.008 347.017 583.008 347.017C583.008 347.017 569.979 349.821 568.559 348.298C567.138 346.774 559.334 339.428 559.334 339.428C559.334 339.428 449.026 332.736 441.549 339.428Z" fill="#4B4B5B"/>
<path opacity="0.02" d="M441.549 339.428C441.549 339.428 430.641 351.42 434.688 353.597C438.735 355.775 464.915 396.59 464.915 396.59C464.915 396.59 550.903 407.179 567.119 391.291C583.335 375.402 583.008 347.017 583.008 347.017C583.008 347.017 569.979 349.821 568.559 348.298C567.138 346.774 559.334 339.428 559.334 339.428C559.334 339.428 449.026 332.736 441.549 339.428Z" fill="black"/>
<path d="M596.346 187.859L568.306 210.29L559.829 210.907L556.716 211.131L504.441 214.963L450.231 211.001L442.165 210.412L431.884 209.664L410.387 189.102C410.387 189.102 425.603 172.802 438.932 161.802C444.184 157.456 449.147 153.942 452.764 152.558L453.381 152.343C455.656 151.456 457.688 150.04 459.307 148.212C469.831 137.361 479.561 110.584 479.561 110.584C479.561 110.584 525.985 86.6019 520.377 118.061C514.769 149.521 541.248 141.745 541.248 141.745L549.978 145.726L553.426 147.306L562.222 151.334L582.064 160.437C597.636 167.606 596.346 187.859 596.346 187.859Z" fill="#BE6F72"/>
<path opacity="0.1" d="M502.264 136.203C525.322 136.203 544.015 117.511 544.015 94.4528C544.015 71.3951 525.322 52.7031 502.264 52.7031C479.205 52.7031 460.513 71.3951 460.513 94.4528C460.513 117.511 479.205 136.203 502.264 136.203Z" fill="black"/>
<path opacity="0.1" d="M596.411 217.6H408.836C408.836 217.301 408.836 217.142 408.836 217.142L410.387 190.038C410.387 190.038 425.603 173.738 438.932 162.737L556.698 158.064L562.175 152.288L582.017 161.391C597.598 168.551 596.346 188.804 596.346 188.804C596.346 188.804 598.477 212.272 596.411 217.6Z" fill="black"/>
<path d="M596.411 216.665H408.836C408.836 216.366 408.836 216.207 408.836 216.207L410.387 189.103C410.387 189.103 425.603 172.803 438.932 161.803L556.698 157.129L562.175 151.354L582.017 160.457C597.598 167.616 596.346 187.869 596.346 187.869C596.346 187.869 598.477 211.338 596.411 216.665Z" fill="#E7C7CA"/>
<path opacity="0.1" d="M472.196 140.661C472.196 140.661 501.787 178.364 541.201 139.885C580.616 101.407 545.566 225.712 545.566 225.712L460.513 235.806L472.196 140.661Z" fill="black"/>
<path d="M472.196 142.53C472.196 142.53 501.787 180.233 541.201 141.755C580.616 103.276 545.566 227.581 545.566 227.581L460.513 237.675L472.196 142.53Z" fill="#E7C7CA"/>
<path opacity="0.1" d="M553.38 149.148L556.511 196.898L559.866 212.786L562.427 224.936C562.427 224.936 568.97 318.399 567.1 323.072C565.231 327.745 568.035 331.484 568.428 333.97C568.82 336.456 568.035 342.699 568.343 345.503C568.652 348.307 568.343 349.55 561.184 348.55C554.025 347.55 544.042 345.812 544.042 345.812C544.042 345.812 518.807 347.681 510.087 344.568C501.366 341.456 484.851 341.447 484.851 341.447C484.851 341.447 459.924 342.073 451.83 341.138C443.736 340.204 439.361 351.111 434.071 347.989C428.781 344.868 440.296 314.66 444.035 305.931C447.773 297.202 439.053 275.088 439.053 275.088L450.269 212.87L452.764 198.767V154.428L453.381 154.213C455.656 153.326 457.688 151.91 459.307 150.082L462.111 194.701L549.968 197.823V147.605" fill="black"/>
<path d="M553.38 147.278L556.511 195.028L559.866 210.917L562.427 223.067C562.427 223.067 568.97 316.53 567.1 321.203C565.231 325.876 568.035 329.615 568.428 332.101C568.82 334.587 568.035 340.83 568.343 343.634C568.652 346.438 568.343 347.681 561.184 346.681C554.025 345.681 544.042 343.942 544.042 343.942C544.042 343.942 518.807 345.812 510.087 342.699C501.366 339.587 484.851 339.578 484.851 339.578C484.851 339.578 459.924 340.204 451.83 339.269C443.736 338.335 439.361 349.242 434.071 346.12C428.781 342.998 440.296 312.791 444.035 304.062C447.773 295.332 439.053 273.219 439.053 273.219L450.269 211.001L452.764 196.898V152.559L453.381 152.344C455.656 151.457 457.688 150.041 459.307 148.213L462.111 192.832L549.968 195.954V145.736" fill="#E7C7CA"/>
<path opacity="0.1" d="M563.483 47.6289C562.951 45.6756 562.212 43.6474 560.679 42.339C559.216 41.288 557.525 40.5964 555.744 40.3202C551.481 39.1992 547.147 38.3686 542.771 37.8341C542.146 35.7587 541.2 33.7941 539.968 32.0114C530.808 19.0761 517.256 6.87928 501.31 4.12213C492.964 2.67347 483.29 3.97259 477.944 10.5524C475.009 14.1694 473.747 18.964 470.785 22.5156C465.074 29.4131 454.765 30.2636 447.568 35.6003C443.726 38.4042 440.941 42.4698 438.221 46.4139C435.277 50.6852 432.249 55.134 431.314 60.237C429.445 70.4338 436.184 80.1539 437.427 90.4441C440.231 113.464 415.556 133.886 420.22 156.597C422.94 169.841 435.174 179.168 447.829 183.897C452.288 185.57 457.382 187.234 459.466 191.515C460.401 193.384 460.559 195.543 461.438 197.431C464.392 203.73 474.103 203.973 479.318 199.384C484.533 194.795 486.178 187.374 486.795 180.449C489.3 150.204 477.187 120.324 478.598 90.0049C479.019 80.8362 481.599 70.4338 489.814 66.2841C500.871 60.6763 514.171 70.0226 526.34 68.2374C532.099 82.2488 533.321 97.7125 529.836 112.455C527.901 120.52 524.555 128.343 524.312 136.661C523.948 149.326 530.78 160.896 536.687 172.093C537.954 174.187 538.802 176.507 539.182 178.925C539.275 181.378 538.819 183.821 537.846 186.075C534.509 195.057 528.752 203.394 528.097 212.955C527.906 214.071 528.157 215.218 528.798 216.151C529.457 216.774 530.307 217.156 531.21 217.235C541.304 218.964 550.034 210.02 554.959 201.038C560.451 191.118 563.651 180.094 564.325 168.775C565.343 149.746 558.52 131.026 558.941 111.978C559.427 90.3226 569.213 68.5178 563.483 47.6289Z" fill="black"/>
<path d="M564.418 46.6934C563.885 44.74 563.147 42.7119 561.614 41.4034C560.15 40.3524 558.46 39.6608 556.679 39.3846C552.416 38.2636 548.082 37.433 543.706 36.8985C543.081 34.8232 542.135 32.8585 540.902 31.0758C531.743 18.1406 518.19 5.94373 502.245 3.18659C493.898 1.73792 484.225 3.03705 478.879 9.61681C475.944 13.2338 474.682 18.0284 471.719 21.58C466.008 28.4776 455.699 29.3281 448.502 34.6648C444.661 37.4687 441.876 41.5343 439.156 45.4784C436.212 49.7496 433.183 54.1984 432.249 59.3015C430.379 69.4983 437.118 79.2184 438.361 89.5086C441.165 112.528 416.491 132.95 421.154 155.661C423.874 168.905 436.109 178.233 448.764 182.962C453.222 184.635 458.316 186.298 460.4 190.579C461.335 192.448 461.494 194.607 462.373 196.495C465.326 202.795 475.037 203.038 480.252 198.449C485.468 193.86 487.113 186.439 487.73 179.513C490.235 149.269 478.122 119.389 479.533 89.0693C479.953 79.9006 482.533 69.4983 490.749 65.3485C501.806 59.7408 515.106 69.087 527.275 67.3019C533.033 81.3132 534.256 96.7769 530.77 111.519C528.836 119.585 525.49 127.408 525.247 135.726C524.882 148.39 531.714 159.961 537.621 171.157C538.889 173.251 539.737 175.572 540.117 177.99C540.21 180.443 539.753 182.886 538.78 185.139C535.444 194.121 529.686 202.458 529.032 212.019C528.84 213.135 529.092 214.282 529.733 215.216C530.392 215.839 531.241 216.221 532.144 216.3C542.239 218.029 550.968 209.085 555.894 200.103C561.386 190.183 564.586 179.158 565.259 167.84C566.278 148.811 559.455 130.09 559.876 111.042C560.362 89.3871 570.147 67.5823 564.418 46.6934Z" fill="#3E373A"/>
<path d="M543.771 460.518L580.849 461.705L575.531 434.208L547.127 436.909L543.771 460.518Z" fill="#C3C7D9"/>
<path d="M658.659 395.347C656.163 398.459 646.508 404.067 645.574 405.936C644.639 407.805 633.115 413.413 627.189 414.348C621.264 415.282 602.58 419.338 599.15 421.516C596.692 423.086 576.961 428.058 563.997 430.816C560.486 431.646 556.932 432.286 553.352 432.732C547.744 433.04 486.375 412.17 486.375 412.17L498.207 400.02L498.861 399.795C502.208 398.665 517.667 393.44 526.247 390.954C535.911 388.15 547.127 376.626 547.127 376.626C547.127 376.626 563.633 371.018 565.82 370.392C568.007 369.766 560.212 348.587 560.212 348.587C560.212 348.587 596.037 343.615 610.057 339.4C624.077 335.185 656.481 336.746 662.398 353.26C668.314 369.775 661.192 392.234 658.659 395.347Z" fill="#4B4B5B"/>
<path d="M495.403 447.994C495.403 447.994 488.244 455.471 481.075 454.854C473.906 454.237 448.839 456.723 448.839 456.723C444.296 458.535 440.042 461.001 436.212 464.041C430.351 468.659 427.239 464.976 426.66 464.191L426.557 464.041C423.435 473.864 416.276 466.378 416.276 466.378C416.276 466.378 419.388 436.47 418.435 432.732C417.481 428.993 424.594 422.572 424.594 422.572L433.006 420.432L454.316 414.974L484.851 425.563L495.403 447.994Z" fill="#E7C7CA"/>
<path opacity="0.1" d="M432.969 420.432L426.66 464.191L426.557 464.041C423.435 473.864 416.276 466.378 416.276 466.378C416.276 466.378 419.388 436.47 418.435 432.731C417.481 428.993 424.594 422.572 424.594 422.572L432.969 420.432Z" fill="black"/>
<path opacity="0.1" d="M477.065 295.958C477.065 295.958 493.571 301.566 507.909 295.958H477.065Z" fill="black"/>
<path opacity="0.1" d="M533.416 306.557C533.416 306.557 540.267 309.977 545.566 306.557H533.416Z" fill="black"/>
<path opacity="0.1" d="M533.416 314.67C533.416 314.67 544.94 316.212 547.127 313.1L533.416 314.67Z" fill="black"/>
<path opacity="0.1" d="M529.677 332.1C529.677 332.1 551.323 329.296 556.698 325.558L529.677 332.1Z" fill="black"/>
<path opacity="0.1" d="M463.625 325.558C463.625 325.558 475.775 332.408 484.814 332.1L463.625 325.558Z" fill="black"/>
<path opacity="0.1" d="M563.988 430.815C560.477 431.646 556.923 432.285 553.342 432.731C547.735 433.04 486.365 412.169 486.365 412.169L498.198 400.019L498.852 399.795C500.721 401.113 502.254 402.244 503.348 403.104C508.498 407.16 513.47 401.86 515.339 401.86C517.209 401.86 533.406 415.254 533.406 415.254C533.406 415.254 548.361 418.684 550.856 421.796C553.352 424.908 562.072 424.291 563.624 426.469C564.091 427.142 564.147 428.796 563.988 430.815Z" fill="black"/>
<path d="M448.839 349.859C448.839 349.859 433.716 350.728 424.996 347.055C416.275 343.382 387.301 334.905 378.889 340.858C370.478 346.812 350.224 352.074 359.57 375.757C368.917 399.44 373.281 400.057 373.281 400.057C376.173 402.226 378.698 404.845 380.759 407.815C383.563 412.179 409.733 422.143 416.276 422.143C422.818 422.143 434.342 422.143 450.54 433.358C466.737 444.574 481.383 445.826 481.383 445.826C481.383 445.826 501.946 454.238 508.348 456.107C514.751 457.976 544.005 466.07 550.866 463.584C557.726 461.098 562.081 445.508 562.081 445.508C562.081 445.508 565.194 431.489 563.633 429.311C562.072 427.133 553.352 427.75 550.866 424.638C548.379 421.526 533.416 418.096 533.416 418.096C533.416 418.096 517.255 404.693 515.386 404.693C513.517 404.693 508.544 409.983 503.394 405.936C493.136 398.338 482.358 391.467 471.14 385.374C459.307 379.14 448.839 349.859 448.839 349.859Z" fill="#4B4B5B"/>
<path opacity="0.1" d="M418.435 358.896C421.127 358.346 423.91 358.425 426.568 359.127C429.225 359.829 431.684 361.135 433.753 362.943C441.231 369.177 466.392 381.692 466.392 381.692" fill="black"/>
<path opacity="0.1" d="M605.384 358.504C605.384 358.504 572.045 363.551 565.82 370.402L605.384 358.504Z" fill="black"/>
<path d="M643.705 461.705H642.237C636.966 461.518 619.104 460.957 615.665 461.705C611.618 462.64 558.025 461.705 558.025 461.705L568.502 459.527C568.502 459.527 564.614 445.9 567.082 444.769C567.082 444.769 553.062 435.535 563.633 429.301C574.204 423.067 585.597 425.694 585.597 425.694L612.132 416.703L617.226 414.974C617.226 414.974 647.135 416.534 655.229 437.096C663.323 457.658 643.705 461.705 643.705 461.705Z" fill="#E7C7CA"/>
<path opacity="0.1" d="M643.704 461.705H642.237C650.939 454.527 670.622 432.676 612.132 416.75L617.226 415.021C617.226 415.021 647.135 416.581 655.229 437.143C663.323 457.705 643.704 461.705 643.704 461.705Z" fill="black"/>
<path d="M588.719 437.479C589.622 437.479 590.354 436.747 590.354 435.844C590.354 434.94 589.622 434.208 588.719 434.208C587.816 434.208 587.083 434.94 587.083 435.844C587.083 436.747 587.816 437.479 588.719 437.479Z" fill="#4B4B5B"/>
<path d="M579.214 440.18C580.117 440.18 580.849 439.448 580.849 438.545C580.849 437.641 580.117 436.909 579.214 436.909C578.31 436.909 577.578 437.641 577.578 438.545C577.578 439.448 578.31 440.18 579.214 440.18Z" fill="#4B4B5B"/>
<g opacity="0.1">
<path opacity="0.1" d="M532.901 92.9106C533.264 82.6305 531.435 72.3909 527.537 62.8717C515.386 64.6849 502.077 55.3106 491.01 60.9184C482.823 65.0681 480.252 75.4705 479.795 84.6392C479.682 87.0598 479.664 89.4805 479.71 91.9012C479.71 91.0414 479.71 90.1721 479.795 89.3123C480.224 80.1436 482.795 69.7412 491.01 65.5915C502.077 59.9837 515.367 69.33 527.537 67.5449C530.838 75.6079 532.656 84.2012 532.901 92.9106Z" fill="black"/>
<path opacity="0.1" d="M438.745 91.2008C438.905 89.1643 438.864 87.1169 438.623 85.0884C437.632 76.8637 433.137 69.0035 432.324 60.9844C431.277 70.6577 437.436 79.9479 438.623 89.7615C438.745 90.2662 438.745 90.7148 438.745 91.2008Z" fill="black"/>
<path opacity="0.1" d="M487.992 175.074C487.412 182.009 485.776 189.421 480.514 194.019C475.252 198.617 465.56 198.365 462.634 192.066C461.7 190.196 461.56 188.019 460.653 186.15C458.578 181.869 453.475 180.205 449.016 178.532C436.352 173.794 424.136 164.513 421.416 151.232C421.173 150.029 421.008 148.811 420.921 147.587C420.691 150.369 420.858 153.17 421.416 155.905C424.136 169.149 436.371 178.467 449.016 183.205C453.475 184.878 458.578 186.542 460.653 190.823C461.588 192.692 461.746 194.851 462.634 196.739C465.579 203.038 475.29 203.281 480.514 198.692C485.739 194.103 487.365 186.682 487.992 179.747C488.276 176.097 488.373 172.435 488.281 168.775C488.281 170.896 488.16 172.99 487.992 175.074Z" fill="black"/>
<path opacity="0.1" d="M560.184 106.612C560.184 107.968 560.184 109.314 560.184 110.659C560.707 93.2754 567.082 75.7978 566.456 58.7783C565.97 74.5174 560.539 90.6117 560.184 106.612Z" fill="black"/>
<path opacity="0.1" d="M540.126 176.933C540.356 175.824 540.429 174.689 540.341 173.559C539.965 171.141 539.117 168.819 537.846 166.727C532.444 156.446 526.284 145.923 525.555 134.511C525.555 134.997 525.49 135.445 525.48 135.969C525.106 148.624 531.939 160.204 537.846 171.4C538.85 173.135 539.617 174.995 540.126 176.933Z" fill="black"/>
<path opacity="0.1" d="M565.558 163.409C564.861 174.732 561.638 185.756 556.128 195.673C551.193 204.654 542.472 213.599 532.369 211.87C531.464 211.792 530.612 211.406 529.957 210.776C529.768 210.562 529.619 210.315 529.518 210.047C529.406 210.776 529.312 211.514 529.256 212.262C529.063 213.375 529.315 214.52 529.957 215.449C530.612 216.079 531.464 216.465 532.369 216.543C542.472 218.272 551.193 209.327 556.128 200.346C561.638 190.429 564.861 179.406 565.558 168.082C565.67 165.895 565.68 163.718 565.614 161.54C565.596 162.166 565.596 162.783 565.558 163.409Z" fill="black"/>
</g>
<path opacity="0.1" d="M567.082 444.769C567.082 444.769 590.738 454.695 606.337 432.731" stroke="black" stroke-miterlimit="10"/>
<path opacity="0.1" d="M571.736 462.116C571.736 462.116 591.056 449.555 615.665 461.705" stroke="black" stroke-miterlimit="10"/>
<path opacity="0.1" d="M442.418 459.266C442.418 459.266 450.53 440.966 472.196 454.92" stroke="black" stroke-miterlimit="10"/>
<path opacity="0.1" d="M416.117 188.635L432.66 173.681C432.66 173.681 496.805 169.476 499.46 191.28C499.46 191.28 522.2 165.429 570.026 171.186L590.261 187.299L534.332 211.842L479.982 230.694L439.95 212.777L416.117 188.635Z" fill="black"/>
<path d="M416.117 189.57L432.66 174.616C432.66 174.616 496.805 170.41 499.46 192.215C499.46 192.215 522.2 166.363 570.026 172.121L590.261 188.234L534.332 212.777L479.982 231.628L439.95 213.711L416.117 189.57Z" fill="#D5D6DB"/>
<path opacity="0.1" d="M408.798 191.439L416.117 278.986L493.693 282.883L490.328 195.711L490.263 194.243L408.798 191.439Z" fill="black"/>
<path d="M408.798 189.57L416.117 277.117L493.693 281.014L490.328 193.842L490.263 192.374L408.798 189.57Z" fill="#0E153A"/>
<path opacity="0.1" d="M593.813 189.57L513.788 201.571V289.51L591.99 278.21L593.813 189.57Z" fill="black"/>
<path d="M593.813 187.701L513.788 199.702V287.641L591.99 276.341L593.813 187.701Z" fill="#0E153A"/>
<path opacity="0.3" d="M574.942 209.16L531.714 213.964L532.658 228.694L574.914 224.077L574.942 209.16Z" fill="white"/>
<path d="M420.323 323.997L424.725 335.839C424.725 335.839 431.267 341.447 438.427 338.643C445.586 335.839 451.83 334.446 454.942 331.717C458.054 328.988 462.419 315.277 462.419 315.277C462.419 315.277 466.784 300.323 471.14 296.585C475.495 292.846 487.029 241.339 471.14 246.377C455.25 251.414 443.1 298.146 443.1 298.146C443.1 298.146 440.296 301.566 436.249 301.884C432.202 302.202 424.099 301.258 422.538 304.688C420.977 308.118 415.649 317.147 420.323 323.997Z" fill="#BE6F72"/>
<path opacity="0.1" d="M513.788 201.562C509.691 202.485 505.434 202.437 501.359 201.421C497.284 200.405 493.503 198.449 490.319 195.711L493.693 282.874C493.693 282.874 501.637 291.473 513.788 289.51V201.562Z" fill="black"/>
<path d="M513.788 199.693C509.691 200.616 505.434 200.568 501.359 199.552C497.284 198.536 493.503 196.58 490.319 193.842L493.693 281.005C493.693 281.005 501.637 289.603 513.788 287.641V199.693Z" fill="#0E153A"/>
<path opacity="0.1" d="M513.788 199.693C509.691 200.616 505.434 200.568 501.359 199.552C497.284 198.536 493.503 196.58 490.319 193.842L493.693 281.005C493.693 281.005 501.637 289.603 513.788 287.641V199.693Z" fill="black"/>
<path opacity="0.1" d="M515.657 189.869C515.657 189.869 548.211 179.915 556.698 181.317L515.657 189.869Z" fill="black"/>
<path opacity="0.1" d="M479.243 185.523C479.243 185.523 447.689 178.046 442.418 180.168L479.243 185.523Z" fill="black"/>
<path opacity="0.1" d="M536.182 191.113C536.182 191.113 557.95 183.131 565.82 186.926L536.182 191.113Z" fill="black"/>
<path opacity="0.1" d="M525.219 391.337C528.592 388.803 532.182 386.573 535.949 384.673C541.556 381.972 551.838 374.962 551.838 374.962" fill="black"/>
<path opacity="0.1" d="M442.418 295.958C442.418 295.958 428.763 307.127 424.659 308.108C420.556 309.089 418.023 317.8 418.023 317.8" fill="black"/>
<path d="M585.784 322.334L581.429 334.203C581.429 334.203 574.886 339.811 567.717 337.007C560.549 334.203 554.324 332.811 551.202 330.082C548.08 327.352 543.725 313.642 543.725 313.642C543.725 313.642 539.369 298.688 535.004 294.949C530.64 291.211 519.115 239.703 535.004 244.741C550.894 249.779 563.044 296.51 563.044 296.51C563.044 296.51 565.848 299.931 569.895 300.248C573.942 300.566 582.046 299.622 583.606 303.052C585.167 306.482 590.457 315.511 585.784 322.334Z" fill="#BE6F72"/>
<path opacity="0.1" d="M578.148 300.501C578.148 300.501 587.074 306.24 587.036 313.1L578.148 300.501Z" fill="black"/>
<path d="M502.413 134.156C525.471 134.156 544.164 115.464 544.164 92.406C544.164 69.3482 525.471 50.6562 502.413 50.6562C479.355 50.6562 460.662 69.3482 460.662 92.406C460.662 115.464 479.355 134.156 502.413 134.156Z" fill="#BE6F72"/>
<path d="M476.196 81.2006C481.262 80.4062 485.701 77.4621 490.543 75.7704C501.376 71.9665 513.358 74.5741 524.321 78.0042C528.527 79.322 532.799 80.8081 537.21 80.8081C541.622 80.8081 546.304 79.0042 548.557 75.2003C550.632 71.7048 550.23 67.1625 548.482 63.4895C546.734 59.8164 543.809 56.863 540.855 54.0778C531.135 44.8998 519.078 36.3199 505.74 37.2545C500.375 37.6377 495.244 39.5537 490.309 41.6753C484.095 44.353 478.047 47.3991 472.196 50.7972C467.7 53.4049 459.372 56.891 456.783 61.6576C450.895 72.3964 467.036 82.6399 476.196 81.2006Z" fill="#3E373A"/>
<path opacity="0.1" d="M548.557 71.2743C546.304 75.0782 541.622 76.8821 537.21 76.8821C532.799 76.8821 528.527 75.4521 524.312 74.1343C513.349 70.7042 501.376 68.0872 490.534 71.9005C485.702 73.5922 481.253 76.5736 476.187 77.3213C468.803 78.4803 456.914 72.05 455.624 63.8721C454.176 73.3211 467.962 81.415 476.187 80.1252C481.253 79.3308 485.702 76.3867 490.534 74.7044C501.376 70.8911 513.349 73.5081 524.312 76.9381C528.527 78.256 532.789 79.742 537.21 79.6859C541.631 79.6299 546.304 77.8915 548.557 74.0782C549.725 72.0037 550.184 69.6051 549.866 67.2461C549.72 68.6664 549.274 70.0394 548.557 71.2743Z" fill="black"/>
<path d="M887.378 577.795C887.378 577.795 892.92 585.038 884.817 595.983C876.713 606.927 870.04 616.161 872.732 622.984C872.732 622.984 884.957 602.665 894.902 602.376C904.847 602.086 898.304 590.01 887.378 577.795Z" fill="#0E153A"/>
<path opacity="0.1" d="M887.378 577.795C887.86 578.495 888.241 579.259 888.509 580.066C898.21 591.468 903.388 602.114 894.051 602.376C885.359 602.628 874.937 618.171 872.442 622.087C872.522 622.403 872.618 622.715 872.732 623.021C872.732 623.021 884.957 602.703 894.902 602.413C904.846 602.123 898.304 590.01 887.378 577.795Z" fill="black"/>
<path d="M897.659 587.029C897.659 589.581 897.369 591.646 897.023 591.646C896.677 591.646 896.378 589.581 896.378 587.029C896.378 584.477 896.734 585.683 897.089 585.683C897.444 585.683 897.659 584.477 897.659 587.029Z" fill="#FFD037"/>
<path d="M901.201 590.075C898.967 591.29 897.014 592.029 896.846 591.72C896.677 591.412 898.35 590.169 900.584 588.917C902.818 587.664 901.94 588.58 902.108 588.917C902.276 589.253 903.444 588.851 901.201 590.075Z" fill="#FFD037"/>
<path d="M858.086 577.795C858.086 577.795 852.543 585.038 860.647 595.983C868.75 606.927 875.424 616.161 872.722 622.984C872.722 622.984 860.506 602.665 850.552 602.376C840.598 602.086 847.188 590.01 858.086 577.795Z" fill="#0E153A"/>
<path opacity="0.1" d="M858.086 577.795C857.603 578.495 857.222 579.259 856.955 580.066C847.253 591.468 842.075 602.114 851.412 602.376C860.095 602.628 870.526 618.171 873.021 622.087C872.943 622.405 872.843 622.717 872.722 623.021C872.722 623.021 860.506 602.703 850.552 602.413C840.598 602.123 847.188 590.01 858.086 577.795Z" fill="black"/>
<path d="M847.786 587.029C847.786 589.581 848.067 591.646 848.422 591.646C848.777 591.646 849.067 589.581 849.067 587.029C849.067 584.477 848.702 585.683 848.356 585.683C848.01 585.683 847.786 584.477 847.786 587.029Z" fill="#FFD037"/>
<path d="M844.253 590.075C846.487 591.29 848.44 592.029 848.608 591.72C848.776 591.412 847.103 590.169 844.87 588.917C842.636 587.664 843.514 588.58 843.346 588.917C843.178 589.253 842.01 588.851 844.253 590.075Z" fill="#FFD037"/>
<path opacity="0.1" d="M872.732 678.426C904.736 678.426 930.68 674.447 930.68 669.538C930.68 664.629 904.736 660.649 872.732 660.649C840.728 660.649 814.783 664.629 814.783 669.538C814.783 674.447 840.728 678.426 872.732 678.426Z" fill="#0E153A"/>
<path d="M902.557 613.217L902.276 615.479L901.884 618.676L901.725 620.012L901.332 623.208L901.164 624.545L900.781 627.732L896.341 664.089C895.949 667.332 890.649 669.865 884.247 669.865H861.207C854.805 669.865 849.515 667.332 849.113 664.089L844.673 627.732L844.281 624.545L844.122 623.208L843.729 620.012L843.561 618.676L843.178 615.479L842.898 613.217C842.683 611.348 845.543 609.834 849.169 609.834H896.294C899.912 609.834 902.781 611.376 902.557 613.217Z" fill="#65617D"/>
<path d="M902.276 615.479L901.893 618.675H843.571L843.178 615.479H902.276Z" fill="#9D9CB5"/>
<path d="M901.725 620.012L901.341 623.208H844.122L843.729 620.012H901.725Z" fill="#9D9CB5"/>
<path d="M901.173 624.545L900.78 627.741H844.673L844.29 624.545H901.173Z" fill="#9D9CB5"/>
</g>
<defs>
<linearGradient id="paint0_linear" x1="510.918" y1="469.107" x2="510.918" y2="-0.000210227" gradientUnits="userSpaceOnUse">
<stop stop-color="#808080" stop-opacity="0.25"/>
<stop offset="0.54" stop-color="#808080" stop-opacity="0.12"/>
<stop offset="1" stop-color="#808080" stop-opacity="0.1"/>
</linearGradient>
<clipPath id="clip0">
<rect width="956" height="760" fill="white"/>
</clipPath>
</defs>
</svg>
