<svg width="1165" height="985" viewBox="0 0 1165 985" fill="none" xmlns="http://www.w3.org/2000/svg">
<g clip-path="url(#clip0)">
<path opacity="0.1" d="M93.2626 619.333C93.2595 620.651 92.7345 621.915 91.8023 622.847C90.8702 623.779 89.6068 624.304 88.2886 624.308H81.2332C82.5524 624.308 83.8175 624.832 84.7504 625.765C85.6832 626.698 86.2072 627.963 86.2072 629.282C86.2072 630.602 85.6832 631.867 84.7504 632.8C83.8175 633.733 82.5524 634.258 81.2332 634.258H91.1695C92.4887 634.258 93.7539 634.782 94.6867 635.715C95.6195 636.648 96.1436 637.913 96.1436 639.233C96.1436 640.552 95.6195 641.817 94.6867 642.75C93.7539 643.683 92.4887 644.207 91.1695 644.207H44.4746C76.3767 733.593 136.195 811.734 214.839 870.622C215.659 870.058 216.63 869.755 217.626 869.752H275.162C276.482 869.752 277.747 870.276 278.68 871.209C279.612 872.142 280.137 873.407 280.137 874.727C280.137 876.046 279.612 877.312 278.68 878.245C277.747 879.178 276.482 879.702 275.162 879.702H268.107C269.426 879.702 270.691 880.226 271.624 881.159C272.557 882.092 273.081 883.357 273.081 884.677C273.081 885.996 272.557 887.262 271.624 888.195C270.691 889.128 269.426 889.652 268.107 889.652H278.055C279.374 889.652 280.64 890.176 281.572 891.109C282.505 892.042 283.029 893.307 283.029 894.627C283.029 895.946 282.505 897.212 281.572 898.145C280.64 899.078 279.374 899.602 278.055 899.602H257.606C345.716 953.468 452.335 985 567.197 985C635.291 985.134 702.921 973.782 767.241 951.422C775.786 948.419 784.233 945.243 792.582 941.895C807.116 936.022 821.309 929.62 835.161 922.689C841.134 919.702 847.041 916.612 852.882 913.421L853.152 913.28L854.469 912.551L857.891 910.657C864.797 906.8 871.598 902.809 878.293 898.684L882.409 896.132C885.889 893.945 889.335 891.722 892.745 889.464C899.549 884.987 906.236 880.36 912.805 875.585L915.157 873.845L917.05 872.445C925.893 865.906 934.493 859.128 942.85 852.11L943.202 851.816C947.295 848.374 951.328 844.873 955.302 841.313L955.655 840.996C968.618 829.398 980.985 817.151 992.708 804.301C1010.28 785.063 1026.31 764.463 1040.64 742.696H1017.71C1016.39 742.696 1015.12 742.172 1014.19 741.239C1013.26 740.306 1012.73 739.04 1012.73 737.721C1012.73 736.401 1013.26 735.136 1014.19 734.203C1015.12 733.27 1016.39 732.746 1017.71 732.746H1007.77C1006.45 732.746 1005.19 732.222 1004.25 731.289C1003.32 730.356 1002.8 729.09 1002.8 727.771C1002.8 726.451 1003.32 725.186 1004.25 724.253C1005.19 723.32 1006.45 722.796 1007.77 722.796H1014.83C1014.15 722.829 1013.48 722.724 1012.85 722.489C1012.22 722.254 1011.64 721.894 1011.15 721.429C1010.67 720.964 1010.28 720.405 1010.01 719.786C1009.75 719.167 1009.61 718.5 1009.61 717.827C1009.61 717.153 1009.75 716.486 1010.01 715.867C1010.28 715.248 1010.67 714.689 1011.15 714.224C1011.64 713.76 1012.22 713.399 1012.85 713.164C1013.48 712.929 1014.15 712.825 1014.83 712.858H1058.68C1095.13 647.324 1115.62 573.487 1115.62 495.358C1115.64 446.074 1107.4 397.136 1091.24 350.577H993.649C990.923 350.486 988.339 349.339 986.443 347.378C984.547 345.418 983.488 342.797 983.488 340.069C983.488 337.341 984.547 334.72 986.443 332.759C988.339 330.799 990.923 329.651 993.649 329.56H972.647C969.862 329.56 967.191 328.454 965.222 326.484C963.253 324.514 962.146 321.843 962.146 319.058C962.146 316.272 963.253 313.601 965.222 311.631C967.191 309.661 969.862 308.555 972.647 308.555H987.651C984.926 308.464 982.342 307.316 980.446 305.356C978.55 303.395 977.49 300.774 977.49 298.046C977.49 295.318 978.55 292.697 980.446 290.737C982.342 288.776 984.926 287.629 987.651 287.538H1063.98C976.433 121.034 786.902 5.72754 567.197 5.72754C438.859 5.72754 320.834 45.0687 227.362 110.967H251.821C254.547 111.058 257.13 112.205 259.026 114.166C260.922 116.127 261.982 118.748 261.982 121.475C261.982 124.203 260.922 126.824 259.026 128.785C257.13 130.746 254.547 131.893 251.821 131.984H236.852C239.637 131.984 242.308 133.09 244.277 135.06C246.246 137.03 247.352 139.701 247.352 142.487C247.352 145.272 246.246 147.944 244.277 149.913C242.308 151.883 239.637 152.989 236.852 152.989H257.853C259.263 152.942 260.667 153.179 261.983 153.686C263.299 154.193 264.499 154.959 265.513 155.94C266.527 156.92 267.333 158.095 267.883 159.393C268.434 160.692 268.717 162.088 268.717 163.498C268.717 164.908 268.434 166.304 267.883 167.603C267.333 168.901 266.527 170.076 265.513 171.056C264.499 172.037 263.299 172.803 261.983 173.31C260.667 173.817 259.263 174.054 257.853 174.007H153.339C69.4624 260.005 18.6636 372.383 18.6636 495.358C18.6549 535.584 24.1503 575.622 34.9968 614.358H88.2886C89.6059 614.364 90.8674 614.89 91.7989 615.821C92.7304 616.753 93.2564 618.015 93.2626 619.333Z" fill="#0E153A"/>
<path opacity="0.1" d="M635.234 479.68C635.234 479.68 644.418 496.146 642.466 498.874C640.514 501.603 635.234 479.68 635.234 479.68Z" fill="black"/>
<path opacity="0.1" d="M665.431 474.858C665.431 474.858 671.217 484.985 670.041 486.996L665.431 474.858Z" fill="black"/>
<path opacity="0.1" d="M700.097 451.442C700.097 451.442 706.788 456.146 704.306 459.204L700.097 451.442Z" fill="black"/>
<path opacity="0.1" d="M706.834 448.866C706.834 448.866 715.336 459.263 712.514 462.098L706.834 448.866Z" fill="black"/>
<path opacity="0.1" d="M823.743 420.369C823.743 420.369 825.036 437.763 830.151 436.282C835.267 434.8 823.743 420.369 823.743 420.369Z" fill="black"/>
<path d="M781.939 850.299C781.939 850.299 789.077 826.059 780.599 808.217C776.987 800.752 775.901 792.314 777.506 784.177C778.29 780.325 779.428 776.554 780.904 772.91" stroke="#535461" stroke-width="2" stroke-miterlimit="10"/>
<path d="M775.625 761.655C775.625 764.619 781.011 773.24 781.011 773.24C781.011 773.24 786.384 764.619 786.384 761.655C786.32 760.271 785.725 758.966 784.723 758.01C783.721 757.054 782.389 756.52 781.005 756.52C779.62 756.52 778.288 757.054 777.286 758.01C776.285 758.966 775.69 760.271 775.625 761.655Z" fill="#0E153A"/>
<path d="M766.735 778.109C768.358 780.602 777.553 784.907 777.553 784.907C777.553 784.907 777.377 774.757 775.766 772.264C774.986 771.066 773.763 770.227 772.365 769.931C770.966 769.636 769.508 769.908 768.311 770.688C767.113 771.468 766.274 772.691 765.979 774.09C765.683 775.488 765.955 776.947 766.735 778.144V778.109Z" fill="#0E153A"/>
<path d="M767.123 806.23C769.78 807.571 779.893 806.641 779.893 806.641C779.893 806.641 774.625 797.962 771.968 796.621C770.703 796.056 769.27 795.999 767.965 796.463C766.66 796.927 765.584 797.876 764.961 799.113C764.337 800.35 764.214 801.779 764.616 803.105C765.019 804.43 765.917 805.549 767.123 806.23Z" fill="#0E153A"/>
<path d="M772.215 827.436C774.566 829.2 784.726 829.999 784.726 829.999C784.726 829.999 780.998 820.59 778.611 818.791C777.465 817.942 776.029 817.584 774.619 817.795C773.209 818.005 771.94 818.768 771.092 819.914C770.243 821.06 769.885 822.497 770.096 823.907C770.306 825.318 771.068 826.587 772.215 827.436Z" fill="#0E153A"/>
<path d="M788.818 785.483C786.69 787.553 776.765 789.693 776.765 789.693C776.765 789.693 779.187 779.837 781.328 777.768C782.351 776.774 783.726 776.228 785.152 776.249C786.578 776.27 787.936 776.856 788.93 777.879C789.923 778.902 790.469 780.278 790.448 781.704C790.428 783.13 789.841 784.489 788.818 785.483Z" fill="#0E153A"/>
<path d="M794.474 810.37C791.817 811.699 781.704 810.782 781.704 810.782C781.704 810.782 786.972 802.102 789.63 800.761C790.894 800.196 792.327 800.139 793.632 800.603C794.937 801.067 796.013 802.016 796.637 803.253C797.26 804.49 797.383 805.92 796.981 807.245C796.578 808.57 795.68 809.689 794.474 810.37Z" fill="#0E153A"/>
<path d="M796.626 835.304C794.275 837.068 784.115 837.868 784.115 837.868C784.115 837.868 787.842 828.459 790.229 826.647C790.795 826.192 791.447 825.856 792.145 825.659C792.844 825.462 793.575 825.408 794.295 825.501C795.015 825.594 795.709 825.832 796.335 826.2C796.961 826.567 797.506 827.058 797.937 827.642C798.369 828.226 798.678 828.891 798.846 829.597C799.014 830.304 799.037 831.037 798.915 831.752C798.792 832.468 798.526 833.152 798.133 833.762C797.74 834.372 797.227 834.897 796.626 835.304Z" fill="#0E153A"/>
<path d="M956.16 825.612C956.16 825.612 963.298 801.373 954.82 783.531C951.212 776.06 950.127 767.62 951.727 759.479C952.511 755.623 953.649 751.848 955.125 748.2" stroke="#535461" stroke-width="2" stroke-miterlimit="10"/>
<path d="M949.846 736.968C949.846 739.932 955.231 748.553 955.231 748.553C955.231 748.553 960.605 739.932 960.605 736.968C960.639 736.24 960.525 735.513 960.27 734.831C960.015 734.148 959.624 733.524 959.122 732.997C958.619 732.47 958.014 732.051 957.344 731.764C956.675 731.477 955.954 731.33 955.225 731.33C954.497 731.33 953.776 731.477 953.106 731.764C952.437 732.051 951.832 732.47 951.329 732.997C950.826 733.524 950.436 734.148 950.181 734.831C949.926 735.513 949.812 736.24 949.846 736.968Z" fill="#0E153A"/>
<path d="M940.956 753.422C942.579 755.915 951.774 760.22 951.774 760.22C951.774 760.22 951.61 750.07 949.987 747.577C949.601 746.984 949.102 746.472 948.518 746.072C947.935 745.672 947.278 745.391 946.586 745.244C945.894 745.098 945.179 745.09 944.484 745.219C943.788 745.349 943.125 745.615 942.532 746.001C941.939 746.387 941.428 746.886 941.028 747.47C940.628 748.053 940.346 748.71 940.2 749.403C940.054 750.095 940.045 750.809 940.175 751.505C940.305 752.201 940.57 752.864 940.956 753.457V753.422Z" fill="#0E153A"/>
<path d="M941.356 781.531C944.002 782.872 954.115 781.955 954.115 781.955C954.115 781.955 948.847 773.263 946.189 771.934C945.557 771.594 944.863 771.383 944.148 771.316C943.433 771.248 942.712 771.325 942.027 771.54C941.342 771.756 940.708 772.107 940.161 772.572C939.614 773.038 939.165 773.608 938.842 774.249C938.519 774.89 938.328 775.59 938.28 776.307C938.232 777.023 938.328 777.742 938.562 778.421C938.797 779.1 939.165 779.725 939.644 780.259C940.124 780.793 940.706 781.226 941.356 781.531Z" fill="#0E153A"/>
<path d="M946.389 802.748C948.74 804.513 958.9 805.312 958.9 805.312C958.9 805.312 955.173 795.903 952.786 794.092C951.635 793.313 950.227 793.008 948.857 793.243C947.487 793.477 946.261 794.232 945.435 795.35C944.608 796.468 944.246 797.863 944.424 799.241C944.602 800.62 945.306 801.877 946.389 802.748Z" fill="#0E153A"/>
<path d="M963.063 760.796C960.934 762.866 951.01 765.007 951.01 765.007C951.01 765.007 953.444 755.151 955.572 753.081C956.595 752.088 957.971 751.541 959.397 751.562C960.822 751.583 962.181 752.17 963.175 753.193C964.168 754.216 964.714 755.592 964.693 757.018C964.672 758.444 964.086 759.803 963.063 760.796Z" fill="#0E153A"/>
<path d="M968.731 785.671C966.073 787.012 955.96 786.083 955.96 786.083C955.96 786.083 961.24 777.403 963.886 776.074C965.158 775.431 966.634 775.321 967.988 775.766C969.342 776.212 970.464 777.177 971.106 778.45C971.748 779.722 971.859 781.198 971.414 782.552C970.968 783.907 970.003 785.029 968.731 785.671Z" fill="#0E153A"/>
<path d="M970.848 810.605C968.496 812.369 958.336 813.169 958.336 813.169C958.336 813.169 962.064 803.76 964.451 801.96C965.018 801.54 965.663 801.236 966.348 801.065C967.033 800.894 967.745 800.86 968.443 800.964C969.141 801.069 969.812 801.309 970.418 801.673C971.023 802.037 971.55 802.516 971.971 803.084C972.391 803.651 972.695 804.296 972.866 804.981C973.036 805.666 973.071 806.378 972.966 807.077C972.862 807.775 972.621 808.446 972.258 809.052C971.894 809.657 971.415 810.185 970.848 810.605Z" fill="#0E153A"/>
<path d="M812.606 734.616C812.606 737.58 817.992 746.201 817.992 746.201C817.992 746.201 823.366 737.58 823.366 734.616C823.301 733.232 822.706 731.927 821.704 730.971C820.703 730.014 819.371 729.481 817.986 729.481C816.601 729.481 815.27 730.014 814.268 730.971C813.266 731.927 812.671 733.232 812.606 734.616Z" fill="#0E153A"/>
<path d="M803.717 751.07C805.34 753.563 814.535 757.868 814.535 757.868C814.535 757.868 814.371 747.718 812.748 745.225C811.968 744.027 810.745 743.188 809.347 742.892C807.948 742.597 806.49 742.869 805.293 743.649C804.095 744.428 803.256 745.652 802.961 747.051C802.665 748.449 802.937 749.907 803.717 751.105V751.07Z" fill="#0E153A"/>
<path d="M804.105 779.191C806.751 780.532 816.864 779.602 816.864 779.602C816.864 779.602 811.596 770.923 808.938 769.582C808.307 769.265 807.62 769.075 806.916 769.023C806.212 768.971 805.504 769.058 804.834 769.28C804.163 769.502 803.543 769.853 803.008 770.315C802.474 770.776 802.035 771.339 801.718 771.969C801.401 772.6 801.211 773.288 801.159 773.992C801.107 774.696 801.195 775.404 801.416 776.075C801.638 776.745 801.989 777.366 802.451 777.9C802.912 778.435 803.474 778.873 804.105 779.191Z" fill="#0E153A"/>
<path d="M809.196 800.396C811.548 802.16 821.708 802.96 821.708 802.96C821.708 802.96 817.98 793.551 815.593 791.752C815.026 791.332 814.381 791.028 813.696 790.857C813.011 790.686 812.299 790.651 811.601 790.756C810.902 790.86 810.232 791.101 809.626 791.464C809.021 791.828 808.493 792.307 808.073 792.875C807.653 793.443 807.349 794.087 807.178 794.773C807.007 795.458 806.973 796.17 807.078 796.868C807.182 797.567 807.423 798.238 807.786 798.843C808.15 799.448 808.629 799.976 809.196 800.396Z" fill="#0E153A"/>
<path d="M825.824 758.444C823.696 760.514 813.771 762.655 813.771 762.655C813.771 762.655 816.205 752.799 818.333 750.729C819.356 749.735 820.732 749.189 822.158 749.21C823.583 749.231 824.942 749.818 825.936 750.841C826.929 751.864 827.475 753.24 827.454 754.666C827.433 756.092 826.847 757.451 825.824 758.444Z" fill="#0E153A"/>
<path d="M831.456 783.331C828.799 784.66 818.686 783.743 818.686 783.743C818.686 783.743 823.966 775.063 826.612 773.722C827.876 773.157 829.309 773.1 830.614 773.564C831.919 774.028 832.995 774.977 833.619 776.214C834.242 777.451 834.365 778.88 833.963 780.206C833.56 781.531 832.662 782.65 831.456 783.331Z" fill="#0E153A"/>
<path d="M833.608 808.265C831.256 810.029 821.097 810.828 821.097 810.828C821.097 810.828 824.824 801.42 827.211 799.608C827.777 799.153 828.429 798.817 829.127 798.62C829.826 798.423 830.557 798.369 831.277 798.462C831.997 798.555 832.691 798.793 833.317 799.16C833.943 799.528 834.488 800.019 834.919 800.603C835.351 801.187 835.66 801.852 835.828 802.558C835.996 803.264 836.019 803.998 835.897 804.713C835.774 805.429 835.508 806.112 835.115 806.723C834.722 807.333 834.209 807.857 833.608 808.265Z" fill="#0E153A"/>
<path opacity="0.1" d="M512.976 87.9152H527.98C525.255 87.824 522.671 86.6769 520.775 84.7161C518.879 82.7553 517.819 80.1343 517.819 77.4066C517.819 74.6788 518.879 72.0579 520.775 70.0971C522.671 68.1363 525.255 66.9892 527.98 66.8979H649.521C652.247 66.9892 654.831 68.1363 656.726 70.0971C658.622 72.0579 659.682 74.6788 659.682 77.4066C659.682 80.1343 658.622 82.7553 656.726 84.7161C654.831 86.6769 652.247 87.824 649.521 87.9152H634.517C637.302 87.9152 639.973 89.0217 641.942 90.9914C643.911 92.961 645.018 95.6324 645.018 98.4179C645.018 101.203 643.911 103.875 641.942 105.845C639.973 107.814 637.302 108.921 634.517 108.921H655.518C658.244 109.012 660.828 110.159 662.723 112.12C664.619 114.081 665.679 116.702 665.679 119.429C665.679 122.157 664.619 124.778 662.723 126.739C660.828 128.7 658.244 129.847 655.518 129.938H533.977C531.252 129.847 528.668 128.7 526.772 126.739C524.876 124.778 523.816 122.157 523.816 119.429C523.816 116.702 524.876 114.081 526.772 112.12C528.668 110.159 531.252 109.012 533.977 108.921H512.976C510.191 108.921 507.52 107.814 505.551 105.845C503.581 103.875 502.475 101.203 502.475 98.4179C502.475 95.6324 503.581 92.961 505.551 90.9914C507.52 89.0217 510.191 87.9152 512.976 87.9152Z" fill="#0E153A"/>
<path opacity="0.1" d="M686.221 248.89H701.225C698.44 248.89 695.77 247.784 693.8 245.814C691.831 243.844 690.725 241.173 690.725 238.388C690.725 235.602 691.831 232.931 693.8 230.961C695.77 228.991 698.44 227.885 701.225 227.885H822.766C825.551 227.885 828.222 228.991 830.191 230.961C832.161 232.931 833.267 235.602 833.267 238.388C833.267 241.173 832.161 243.844 830.191 245.814C828.222 247.784 825.551 248.89 822.766 248.89H807.762C810.547 248.89 813.218 249.997 815.187 251.966C817.156 253.936 818.263 256.608 818.263 259.393C818.263 262.179 817.156 264.85 815.187 266.82C813.218 268.789 810.547 269.896 807.762 269.896H828.799C831.524 269.987 834.108 271.134 836.004 273.095C837.9 275.056 838.96 277.677 838.96 280.404C838.96 283.132 837.9 285.753 836.004 287.714C834.108 289.675 831.524 290.822 828.799 290.913H707.223C704.497 290.822 701.913 289.675 700.017 287.714C698.121 285.753 697.062 283.132 697.062 280.404C697.062 277.677 698.121 275.056 700.017 273.095C701.913 271.134 704.497 269.987 707.223 269.896H686.221C683.436 269.896 680.765 268.789 678.796 266.82C676.827 264.85 675.72 262.179 675.72 259.393C675.72 256.608 676.827 253.936 678.796 251.966C680.765 249.997 683.436 248.89 686.221 248.89Z" fill="#0E153A"/>
<path opacity="0.1" d="M510.13 751.576H517.186C515.866 751.576 514.601 751.051 513.668 750.118C512.736 749.185 512.212 747.92 512.212 746.6C512.212 745.281 512.736 744.016 513.668 743.083C514.601 742.15 515.866 741.625 517.186 741.625H574.805C576.124 741.625 577.389 742.15 578.322 743.083C579.255 744.016 579.779 745.281 579.779 746.6C579.779 747.92 579.255 749.185 578.322 750.118C577.389 751.051 576.124 751.576 574.805 751.576H567.749C569.069 751.576 570.334 752.1 571.267 753.033C572.199 753.966 572.723 755.231 572.723 756.55C572.723 757.87 572.199 759.135 571.267 760.068C570.334 761.001 569.069 761.525 567.749 761.525H577.686C579.005 761.525 580.27 762.05 581.203 762.983C582.136 763.916 582.66 765.181 582.66 766.5C582.66 767.82 582.136 769.085 581.203 770.018C580.27 770.951 579.005 771.475 577.686 771.475H520.078C518.759 771.475 517.494 770.951 516.561 770.018C515.628 769.085 515.104 767.82 515.104 766.5C515.104 765.181 515.628 763.916 516.561 762.983C517.494 762.05 518.759 761.525 520.078 761.525H510.13C508.811 761.525 507.546 761.001 506.613 760.068C505.68 759.135 505.156 757.87 505.156 756.55C505.156 755.231 505.68 753.966 506.613 753.033C507.546 752.1 508.811 751.576 510.13 751.576Z" fill="#0E153A"/>
<path opacity="0.1" d="M351.725 836.127H357.393C356.378 836.071 355.422 835.629 354.723 834.891C354.024 834.152 353.634 833.174 353.634 832.157C353.634 831.14 354.024 830.162 354.723 829.424C355.422 828.686 356.378 828.243 357.393 828.188H403.323C404.339 828.243 405.294 828.686 405.993 829.424C406.692 830.162 407.082 831.14 407.082 832.157C407.082 833.174 406.692 834.152 405.993 834.891C405.294 835.629 404.339 836.071 403.323 836.127H397.656C398.671 836.182 399.626 836.624 400.325 837.363C401.024 838.101 401.414 839.079 401.414 840.096C401.414 841.113 401.024 842.091 400.325 842.83C399.626 843.568 398.671 844.01 397.656 844.065H405.593C406.608 844.121 407.564 844.563 408.263 845.301C408.962 846.04 409.351 847.018 409.351 848.035C409.351 849.052 408.962 850.03 408.263 850.768C407.564 851.507 406.608 851.949 405.593 852.004H359.615C359.076 852.034 358.536 851.953 358.029 851.767C357.522 851.58 357.058 851.293 356.666 850.921C356.274 850.55 355.962 850.102 355.748 849.606C355.535 849.11 355.425 848.575 355.425 848.035C355.425 847.495 355.535 846.96 355.748 846.464C355.962 845.968 356.274 845.52 356.666 845.149C357.058 844.777 357.522 844.489 358.029 844.303C358.536 844.117 359.076 844.036 359.615 844.065H351.678C351.139 844.095 350.599 844.014 350.092 843.828C349.585 843.642 349.121 843.354 348.729 842.982C348.337 842.611 348.024 842.163 347.811 841.667C347.597 841.171 347.487 840.636 347.487 840.096C347.487 839.556 347.597 839.021 347.811 838.525C348.024 838.029 348.337 837.581 348.729 837.21C349.121 836.838 349.585 836.551 350.092 836.364C350.599 836.178 351.139 836.097 351.678 836.127H351.725Z" fill="#0E153A"/>
<path opacity="0.1" d="M157.572 688.171H164.686C163.367 688.171 162.102 687.647 161.169 686.714C160.236 685.781 159.712 684.516 159.712 683.196C159.712 681.877 160.236 680.611 161.169 679.678C162.102 678.745 163.367 678.221 164.686 678.221H222.223C223.542 678.221 224.807 678.745 225.74 679.678C226.673 680.611 227.197 681.877 227.197 683.196C227.197 684.516 226.673 685.781 225.74 686.714C224.807 687.647 223.542 688.171 222.223 688.171H215.168C216.487 688.171 217.752 688.695 218.685 689.628C219.618 690.561 220.142 691.827 220.142 693.146C220.142 694.466 219.618 695.731 218.685 696.664C217.752 697.597 216.487 698.121 215.168 698.121H225.116C226.435 698.121 227.7 698.645 228.633 699.578C229.566 700.511 230.09 701.777 230.09 703.096C230.09 704.416 229.566 705.681 228.633 706.614C227.7 707.547 226.435 708.071 225.116 708.071H167.52C166.201 708.071 164.936 707.547 164.003 706.614C163.07 705.681 162.546 704.416 162.546 703.096C162.546 701.777 163.07 700.511 164.003 699.578C164.936 698.645 166.201 698.121 167.52 698.121H157.572C156.253 698.121 154.988 697.597 154.055 696.664C153.122 695.731 152.598 694.466 152.598 693.146C152.598 691.827 153.122 690.561 154.055 689.628C154.988 688.695 156.253 688.171 157.572 688.171Z" fill="#0E153A"/>
<path opacity="0.1" d="M659.47 843.689H666.525C665.206 843.689 663.941 843.165 663.008 842.232C662.075 841.299 661.551 840.034 661.551 838.714C661.551 837.395 662.075 836.129 663.008 835.196C663.941 834.263 665.206 833.739 666.525 833.739H724.144C725.463 833.739 726.728 834.263 727.661 835.196C728.594 836.129 729.118 837.395 729.118 838.714C729.118 840.034 728.594 841.299 727.661 842.232C726.728 843.165 725.463 843.689 724.144 843.689H717.089C718.408 843.689 719.673 844.213 720.606 845.146C721.539 846.079 722.063 847.345 722.063 848.664C722.063 849.984 721.539 851.249 720.606 852.182C719.673 853.115 718.408 853.639 717.089 853.639H727.037C728.313 853.701 729.516 854.252 730.397 855.177C731.278 856.102 731.769 857.331 731.769 858.608C731.769 859.886 731.278 861.115 730.397 862.04C729.516 862.965 728.313 863.515 727.037 863.577H669.394C668.721 863.61 668.049 863.506 667.418 863.271C666.787 863.036 666.21 862.675 665.722 862.211C665.234 861.746 664.846 861.187 664.581 860.568C664.315 859.949 664.178 859.282 664.178 858.608C664.178 857.935 664.315 857.268 664.581 856.649C664.846 856.03 665.234 855.471 665.722 855.006C666.21 854.541 666.787 854.181 667.418 853.946C668.049 853.711 668.721 853.606 669.394 853.639H659.47C658.15 853.639 656.885 853.115 655.952 852.182C655.02 851.249 654.496 849.984 654.496 848.664C654.496 847.345 655.02 846.079 655.952 845.146C656.885 844.213 658.15 843.689 659.47 843.689Z" fill="#0E153A"/>
<path opacity="0.3" d="M739.431 361.951C739.812 361.224 739.913 360.383 739.713 359.586C739.513 358.79 739.028 358.095 738.349 357.635C738.244 357.565 738.149 357.482 738.067 357.388C737.824 357.121 737.674 356.783 737.638 356.425C737.602 356.066 737.682 355.706 737.867 355.396C738.051 355.087 738.33 354.845 738.662 354.705C738.995 354.566 739.363 354.538 739.713 354.624C739.836 354.656 739.954 354.704 740.066 354.765C740.793 355.148 741.635 355.251 742.433 355.054C743.231 354.856 743.928 354.373 744.393 353.695C744.462 353.586 744.545 353.488 744.64 353.401C744.908 353.162 745.245 353.015 745.603 352.981C745.96 352.948 746.319 353.03 746.627 353.215C746.934 353.401 747.175 353.68 747.312 354.011C747.45 354.343 747.478 354.71 747.392 355.059C747.355 355.18 747.307 355.298 747.25 355.412C746.869 356.139 746.768 356.98 746.968 357.776C747.168 358.572 747.653 359.267 748.332 359.728C748.438 359.8 748.537 359.883 748.626 359.975C748.865 360.243 749.012 360.581 749.045 360.938C749.079 361.296 748.997 361.655 748.811 361.962C748.626 362.27 748.347 362.51 748.015 362.648C747.684 362.785 747.317 362.813 746.968 362.727C746.844 362.7 746.725 362.652 746.615 362.586C745.886 362.207 745.044 362.107 744.247 362.306C743.449 362.506 742.753 362.99 742.288 363.668C742.223 363.776 742.144 363.875 742.053 363.962C741.786 364.206 741.447 364.358 741.086 364.394C740.726 364.43 740.364 364.349 740.053 364.163C739.743 363.976 739.501 363.695 739.363 363.36C739.226 363.025 739.2 362.655 739.29 362.304C739.326 362.182 739.374 362.064 739.431 361.951Z" fill="#0E153A"/>
<path opacity="0.3" d="M1111.81 163.563C1112.2 162.837 1112.3 161.994 1112.1 161.197C1111.9 160.4 1111.41 159.706 1110.73 159.246C1110.63 159.174 1110.54 159.091 1110.45 159C1110.21 158.732 1110.05 158.393 1110.02 158.033C1109.98 157.673 1110.06 157.31 1110.25 157C1110.44 156.689 1110.72 156.447 1111.05 156.309C1111.39 156.172 1111.76 156.146 1112.11 156.236C1112.23 156.27 1112.34 156.318 1112.45 156.377C1113.18 156.762 1114.02 156.864 1114.82 156.664C1115.62 156.465 1116.32 155.977 1116.78 155.295C1116.85 155.192 1116.93 155.098 1117.02 155.012C1117.29 154.773 1117.63 154.627 1117.99 154.593C1118.34 154.56 1118.7 154.642 1119.01 154.827C1119.32 155.013 1119.56 155.292 1119.7 155.623C1119.83 155.955 1119.86 156.322 1119.78 156.671C1119.75 156.791 1119.7 156.906 1119.63 157.012C1119.25 157.741 1119.16 158.584 1119.35 159.381C1119.55 160.179 1120.04 160.875 1120.72 161.34C1120.82 161.412 1120.92 161.495 1121.01 161.587C1121.25 161.855 1121.4 162.193 1121.43 162.55C1121.46 162.908 1121.38 163.267 1121.2 163.574C1121.01 163.882 1120.73 164.122 1120.4 164.26C1120.07 164.397 1119.7 164.425 1119.35 164.339C1119.23 164.308 1119.11 164.26 1119 164.198C1118.27 163.819 1117.43 163.72 1116.64 163.919C1115.84 164.119 1115.15 164.603 1114.68 165.28C1114.61 165.383 1114.53 165.481 1114.44 165.574C1114.17 165.818 1113.83 165.97 1113.47 166.006C1113.11 166.042 1112.75 165.961 1112.44 165.775C1112.13 165.588 1111.88 165.307 1111.75 164.972C1111.61 164.637 1111.58 164.266 1111.67 163.916C1111.71 163.794 1111.76 163.676 1111.81 163.563Z" fill="#0E153A"/>
<path opacity="0.3" d="M1117.54 696.415C1117.92 695.689 1118.02 694.847 1117.82 694.051C1117.62 693.255 1117.14 692.56 1116.46 692.099C1116.35 692.03 1116.26 691.947 1116.18 691.852C1115.93 691.587 1115.78 691.25 1115.74 690.89C1115.7 690.531 1115.78 690.168 1115.97 689.858C1116.15 689.548 1116.43 689.306 1116.77 689.17C1117.1 689.033 1117.47 689.008 1117.82 689.1C1117.95 689.128 1118.07 689.175 1118.18 689.241C1118.9 689.621 1119.75 689.72 1120.54 689.521C1121.34 689.322 1122.04 688.837 1122.5 688.159C1122.57 688.051 1122.65 687.952 1122.74 687.865C1123.01 687.621 1123.34 687.469 1123.7 687.433C1124.06 687.397 1124.43 687.478 1124.74 687.664C1125.05 687.851 1125.29 688.132 1125.43 688.467C1125.57 688.802 1125.59 689.173 1125.5 689.523C1125.46 689.645 1125.42 689.763 1125.36 689.876C1124.98 690.603 1124.88 691.445 1125.08 692.241C1125.28 693.037 1125.76 693.732 1126.44 694.193C1126.55 694.262 1126.64 694.345 1126.72 694.44C1126.94 694.704 1127.08 695.03 1127.1 695.373C1127.13 695.716 1127.05 696.058 1126.88 696.354C1126.7 696.65 1126.44 696.885 1126.13 697.026C1125.81 697.168 1125.46 697.209 1125.13 697.145C1125 697.121 1124.88 697.077 1124.77 697.015C1124.05 696.632 1123.2 696.529 1122.41 696.726C1121.61 696.924 1120.91 697.407 1120.45 698.086C1120.38 698.194 1120.29 698.293 1120.2 698.38C1119.93 698.619 1119.59 698.766 1119.24 698.799C1118.88 698.832 1118.52 698.75 1118.21 698.565C1117.9 698.379 1117.66 698.1 1117.53 697.769C1117.39 697.437 1117.36 697.07 1117.45 696.721C1117.47 696.617 1117.5 696.515 1117.54 696.415Z" fill="#0E153A"/>
<path opacity="0.3" d="M356.087 268.39C356.469 267.664 356.569 266.822 356.37 266.026C356.17 265.23 355.685 264.535 355.005 264.074C354.901 264.005 354.806 263.922 354.723 263.827C354.481 263.56 354.331 263.223 354.295 262.864C354.259 262.506 354.339 262.145 354.524 261.836C354.708 261.526 354.987 261.284 355.319 261.145C355.652 261.006 356.02 260.977 356.37 261.063C356.492 261.096 356.611 261.143 356.722 261.204C357.449 261.588 358.292 261.691 359.09 261.493C359.888 261.296 360.585 260.812 361.05 260.134C361.115 260.026 361.194 259.927 361.285 259.84C361.552 259.596 361.891 259.444 362.251 259.408C362.612 259.372 362.974 259.453 363.284 259.64C363.595 259.826 363.837 260.107 363.974 260.442C364.112 260.777 364.138 261.148 364.048 261.498C364.013 261.617 363.966 261.731 363.907 261.84C363.525 262.568 363.424 263.412 363.624 264.21C363.823 265.008 364.309 265.705 364.989 266.168C365.093 266.237 365.188 266.32 365.271 266.415C365.517 266.68 365.67 267.017 365.708 267.377C365.746 267.736 365.666 268.098 365.48 268.408C365.295 268.719 365.014 268.96 364.679 269.097C364.344 269.234 363.975 269.258 363.625 269.167C363.5 269.139 363.381 269.091 363.272 269.026C362.543 268.646 361.701 268.546 360.903 268.746C360.106 268.945 359.409 269.43 358.945 270.108C358.875 270.216 358.792 270.315 358.698 270.402C358.43 270.641 358.092 270.788 357.735 270.821C357.377 270.854 357.018 270.772 356.711 270.587C356.403 270.401 356.163 270.123 356.026 269.791C355.888 269.459 355.86 269.092 355.946 268.743C355.983 268.622 356.03 268.504 356.087 268.39Z" fill="#0E153A"/>
<path opacity="0.3" d="M148.695 406.573C149.076 405.846 149.176 405.004 148.977 404.208C148.777 403.412 148.292 402.717 147.613 402.256C147.508 402.187 147.413 402.104 147.33 402.009C147.085 401.744 146.931 401.407 146.893 401.047C146.856 400.688 146.936 400.326 147.121 400.015C147.307 399.705 147.588 399.464 147.923 399.327C148.257 399.19 148.627 399.166 148.977 399.257C149.101 399.285 149.22 399.332 149.33 399.398C150.058 399.778 150.901 399.877 151.698 399.678C152.496 399.479 153.192 398.994 153.657 398.316C153.726 398.211 153.804 398.113 153.892 398.022C154.159 397.778 154.498 397.627 154.858 397.59C155.219 397.554 155.581 397.635 155.891 397.822C156.202 398.008 156.444 398.29 156.582 398.624C156.719 398.959 156.745 399.33 156.655 399.681C156.618 399.802 156.571 399.92 156.514 400.033C156.133 400.76 156.032 401.602 156.232 402.398C156.431 403.194 156.917 403.889 157.596 404.35C157.701 404.419 157.796 404.502 157.878 404.597C158.124 404.862 158.278 405.199 158.315 405.559C158.353 405.918 158.273 406.28 158.088 406.591C157.902 406.901 157.621 407.143 157.286 407.279C156.952 407.416 156.582 407.44 156.232 407.349C156.108 407.321 155.988 407.274 155.879 407.208C155.15 406.828 154.308 406.729 153.51 406.928C152.713 407.127 152.016 407.612 151.552 408.29C151.483 408.395 151.404 408.493 151.317 408.584C151.049 408.828 150.711 408.98 150.35 409.016C149.99 409.052 149.628 408.971 149.317 408.784C149.007 408.598 148.765 408.317 148.627 407.982C148.49 407.647 148.464 407.276 148.553 406.925C148.59 406.804 148.637 406.686 148.695 406.573Z" fill="#0E153A"/>
<path opacity="0.3" d="M473.242 225.862C473.537 225.096 473.54 224.248 473.249 223.48C472.958 222.712 472.395 222.078 471.666 221.699C471.552 221.642 471.445 221.571 471.349 221.487C471.072 221.253 470.879 220.935 470.798 220.581C470.718 220.227 470.755 219.857 470.904 219.526C471.053 219.195 471.305 218.922 471.623 218.747C471.941 218.573 472.307 218.506 472.666 218.558C472.791 218.572 472.914 218.603 473.031 218.652C473.799 218.946 474.648 218.947 475.417 218.657C476.186 218.366 476.822 217.804 477.205 217.076C477.265 216.964 477.335 216.857 477.417 216.759C477.655 216.489 477.973 216.303 478.325 216.228C478.677 216.152 479.044 216.192 479.372 216.341C479.7 216.49 479.971 216.74 480.146 217.054C480.321 217.369 480.391 217.731 480.345 218.088C480.32 218.212 480.285 218.334 480.239 218.453C479.947 219.221 479.948 220.069 480.241 220.836C480.533 221.604 481.098 222.237 481.826 222.616C481.935 222.676 482.038 222.747 482.132 222.828C482.4 223.065 482.586 223.383 482.661 223.733C482.736 224.084 482.698 224.449 482.55 224.776C482.403 225.103 482.156 225.375 481.844 225.551C481.531 225.727 481.171 225.799 480.815 225.756C480.691 225.737 480.568 225.706 480.451 225.662C479.684 225.367 478.836 225.365 478.068 225.655C477.3 225.946 476.667 226.51 476.288 227.238C476.225 227.349 476.155 227.455 476.076 227.556C475.838 227.826 475.519 228.012 475.167 228.087C474.815 228.162 474.449 228.123 474.121 227.974C473.793 227.825 473.522 227.575 473.347 227.261C473.172 226.946 473.102 226.584 473.148 226.227C473.163 226.101 473.194 225.979 473.242 225.862Z" fill="#0E153A"/>
<path opacity="0.3" d="M1002.28 589.213C1003.32 588.759 1004.17 587.937 1004.64 586.902C1005.12 585.867 1005.2 584.692 1004.87 583.602C1004.82 583.434 1004.79 583.26 1004.77 583.085C1004.76 582.595 1004.9 582.113 1005.18 581.708C1005.45 581.302 1005.85 580.993 1006.31 580.823C1006.77 580.653 1007.27 580.632 1007.74 580.761C1008.22 580.89 1008.64 581.164 1008.95 581.544C1009.05 581.686 1009.14 581.84 1009.21 582.003C1009.66 583.049 1010.48 583.891 1011.52 584.368C1012.55 584.845 1013.73 584.924 1014.81 584.59C1014.98 584.537 1015.16 584.502 1015.33 584.485C1015.82 584.47 1016.31 584.611 1016.72 584.887C1017.13 585.163 1017.44 585.561 1017.61 586.023C1017.78 586.486 1017.8 586.991 1017.67 587.466C1017.54 587.941 1017.26 588.363 1016.87 588.672C1016.73 588.776 1016.58 588.863 1016.41 588.93C1015.38 589.396 1014.55 590.22 1014.07 591.251C1013.6 592.282 1013.51 593.45 1013.83 594.54C1013.89 594.707 1013.92 594.881 1013.93 595.058C1013.95 595.551 1013.81 596.036 1013.53 596.445C1013.25 596.854 1012.86 597.165 1012.39 597.335C1011.93 597.506 1011.43 597.526 1010.95 597.394C1010.48 597.262 1010.05 596.984 1009.75 596.599C1009.64 596.459 1009.56 596.304 1009.5 596.14C1009.05 595.094 1008.22 594.252 1007.19 593.775C1006.15 593.298 1004.98 593.218 1003.89 593.552C1003.72 593.605 1003.55 593.64 1003.37 593.658C1002.88 593.673 1002.39 593.532 1001.99 593.256C1001.58 592.98 1001.27 592.582 1001.1 592.119C1000.93 591.656 1000.91 591.152 1001.04 590.676C1001.17 590.201 1001.45 589.78 1001.83 589.471C1001.97 589.37 1002.12 589.283 1002.28 589.213Z" fill="#0E153A"/>
<path opacity="0.3" d="M286.227 633.764C287.263 633.298 288.095 632.474 288.57 631.443C289.046 630.412 289.132 629.244 288.814 628.154C288.757 627.991 288.721 627.82 288.708 627.648C288.691 627.154 288.83 626.667 289.105 626.256C289.38 625.845 289.778 625.532 290.241 625.36C290.705 625.188 291.21 625.167 291.687 625.299C292.163 625.431 292.586 625.71 292.895 626.095C292.996 626.239 293.083 626.393 293.153 626.554C293.604 627.602 294.427 628.445 295.462 628.923C296.497 629.4 297.673 629.478 298.762 629.142C298.926 629.087 299.096 629.055 299.268 629.047C299.758 629.036 300.239 629.178 300.645 629.454C301.05 629.729 301.36 630.125 301.529 630.585C301.699 631.045 301.721 631.546 301.591 632.019C301.462 632.492 301.188 632.913 300.808 633.223C300.671 633.327 300.52 633.414 300.361 633.481C299.316 633.935 298.474 634.757 297.997 635.792C297.52 636.827 297.44 638.002 297.775 639.092C297.824 639.26 297.855 639.434 297.869 639.609C297.88 640.099 297.738 640.581 297.463 640.986C297.187 641.392 296.792 641.701 296.332 641.871C295.872 642.041 295.37 642.062 294.897 641.933C294.424 641.804 294.004 641.53 293.694 641.15C293.59 641.008 293.503 640.854 293.435 640.691C292.97 639.655 292.146 638.823 291.115 638.347C290.084 637.872 288.916 637.785 287.826 638.104C287.658 638.157 287.485 638.192 287.309 638.209C286.816 638.224 286.331 638.083 285.922 637.807C285.514 637.531 285.202 637.133 285.032 636.671C284.862 636.208 284.841 635.703 284.973 635.228C285.105 634.752 285.384 634.331 285.769 634.022C285.911 633.918 286.065 633.831 286.227 633.764Z" fill="#0E153A"/>
<path opacity="0.3" d="M510.048 645.184C511.094 644.73 511.935 643.908 512.413 642.873C512.89 641.838 512.969 640.663 512.635 639.574C512.583 639.405 512.547 639.232 512.529 639.056C512.515 638.563 512.655 638.078 512.931 637.669C513.207 637.26 513.605 636.949 514.068 636.779C514.531 636.608 515.035 636.588 515.51 636.72C515.986 636.852 516.407 637.13 516.715 637.515C516.82 637.657 516.907 637.811 516.974 637.974C517.429 639.018 518.253 639.857 519.287 640.332C520.322 640.807 521.495 640.885 522.583 640.55C522.752 640.5 522.925 640.469 523.101 640.456C523.591 640.444 524.072 640.586 524.478 640.862C524.883 641.137 525.192 641.533 525.362 641.993C525.532 642.453 525.553 642.954 525.424 643.427C525.295 643.9 525.021 644.321 524.641 644.631C524.499 644.735 524.345 644.822 524.182 644.89C523.137 645.343 522.295 646.166 521.818 647.201C521.341 648.236 521.261 649.41 521.595 650.5C521.648 650.668 521.683 650.842 521.701 651.017C521.716 651.51 521.575 651.995 521.299 652.404C521.023 652.813 520.625 653.124 520.163 653.295C519.7 653.465 519.195 653.486 518.72 653.353C518.245 653.221 517.823 652.943 517.515 652.558C517.411 652.416 517.324 652.262 517.256 652.099C516.791 651.064 515.967 650.231 514.936 649.756C513.905 649.28 512.737 649.193 511.647 649.512C511.48 649.571 511.306 649.606 511.13 649.618C510.64 649.629 510.158 649.487 509.753 649.211C509.347 648.936 509.038 648.54 508.869 648.08C508.699 647.62 508.677 647.119 508.806 646.646C508.936 646.173 509.209 645.752 509.589 645.442C509.731 645.338 509.885 645.251 510.048 645.184Z" fill="#0E153A"/>
<path opacity="0.1" d="M50.3066 140.887C61.0222 140.887 69.7089 132.199 69.7089 121.481C69.7089 110.764 61.0222 102.075 50.3066 102.075C39.591 102.075 30.9043 110.764 30.9043 121.481C30.9043 132.199 39.591 140.887 50.3066 140.887Z" fill="#0E153A"/>
<path opacity="0.1" d="M1017.81 160.293C1028.53 160.293 1037.22 151.605 1037.22 140.887C1037.22 130.17 1028.53 121.481 1017.81 121.481C1007.1 121.481 998.411 130.17 998.411 140.887C998.411 151.605 1007.1 160.293 1017.81 160.293Z" fill="#0E153A"/>
<path opacity="0.1" d="M142.027 35.719C147.872 35.719 152.61 30.9799 152.61 25.1339C152.61 19.2879 147.872 14.5488 142.027 14.5488C136.182 14.5488 131.444 19.2879 131.444 25.1339C131.444 30.9799 136.182 35.719 142.027 35.719Z" fill="#0E153A"/>
<path opacity="0.1" d="M1154.42 343.756C1160.26 343.756 1165 339.017 1165 333.171C1165 327.325 1160.26 322.586 1154.42 322.586C1148.57 322.586 1143.83 327.325 1143.83 333.171C1143.83 339.017 1148.57 343.756 1154.42 343.756Z" fill="#0E153A"/>
<path opacity="0.1" d="M69.7091 885.606C75.5539 885.606 80.2922 880.867 80.2922 875.021C80.2922 869.175 75.5539 864.436 69.7091 864.436C63.8642 864.436 59.126 869.175 59.126 875.021C59.126 880.867 63.8642 885.606 69.7091 885.606Z" fill="#0E153A"/>
<path opacity="0.1" d="M110.277 933.274C116.122 933.274 120.861 928.535 120.861 922.689C120.861 916.843 116.122 912.104 110.277 912.104C104.433 912.104 99.6943 916.843 99.6943 922.689C99.6943 928.535 104.433 933.274 110.277 933.274Z" fill="#0E153A"/>
<path opacity="0.1" d="M30.9044 962.007C36.7493 962.007 41.4875 957.268 41.4875 951.422C41.4875 945.576 36.7493 940.837 30.9044 940.837C25.0595 940.837 20.3213 945.576 20.3213 951.422C20.3213 957.268 25.0595 962.007 30.9044 962.007Z" fill="#0E153A"/>
</g>
<defs>
<clipPath id="clip0">
<rect x="-93" width="1258" height="985" fill="white"/>
</clipPath>
</defs>
</svg>
