<svg width="709" height="522" viewBox="0 0 709 522" fill="none" xmlns="http://www.w3.org/2000/svg">
<g clip-path="url(#clip0)">
<path d="M37.1855 254.221C45.135 239.254 49.7609 226.154 47.5178 224.96C45.2746 223.767 37.0119 234.933 29.0623 249.9C21.1128 264.867 16.4869 277.967 18.73 279.161C20.9732 280.354 29.2359 269.188 37.1855 254.221Z" fill="#E0E0E0"/>
<path d="M413.571 454.637C421.521 439.67 426.73 426.879 425.206 426.068C423.681 425.258 416.002 436.734 408.052 451.701C400.103 466.668 394.894 479.458 396.418 480.269C397.942 481.08 405.622 469.604 413.571 454.637Z" fill="#E0E0E0"/>
<path d="M210.606 372.164L196.752 360.047L156.392 406.266L170.246 418.383L210.606 372.164Z" fill="#FF6584"/>
<path opacity="0.05" d="M176.562 422.337L196.574 427.642L212.278 368.306L192.266 363.002L176.562 422.337Z" fill="black"/>
<path d="M178.788 422.927L196.574 427.642L212.278 368.306L194.492 363.592L178.788 422.927Z" fill="#FF6584"/>
<path d="M48.2374 223.605L18.0103 280.516L395.735 481.459L425.962 424.549L48.2374 223.605Z" fill="url(#paint0_linear)"/>
<path d="M396.454 480.105C389.058 476.296 13.3141 276.28 18.7295 279.161C40.7834 247.447 47.5173 224.961 47.5173 224.961L425.242 425.905C425.242 425.905 411.129 449.156 396.454 480.105Z" fill="#F5F5F5"/>
<path opacity="0.05" d="M243.826 329.393L212.688 312.828L183.9 367.029L215.038 383.594L243.826 329.393Z" fill="black"/>
<path d="M242.472 328.674L214.042 313.549L185.254 367.749L213.685 382.874L242.472 328.674Z" fill="#F55F44"/>
<path opacity="0.05" d="M237.057 325.792L218.103 315.709L189.315 369.909L208.269 379.993L237.057 325.792Z" fill="black"/>
<path d="M235.703 325.072L219.457 316.43L190.669 370.63L206.915 379.273L235.703 325.072Z" fill="#F55F44"/>
<path d="M228.52 502.283C229.931 502.323 231.108 501.21 231.147 499.797C231.187 498.385 230.075 497.208 228.663 497.168C227.252 497.129 226.076 498.242 226.036 499.654C225.997 501.067 227.109 502.244 228.52 502.283Z" fill="#DBDBDB"/>
<g opacity="0.5">
<path opacity="0.5" d="M30.6574 422.51L28.0371 422.437L27.6209 437.297L30.2413 437.371L30.6574 422.51Z" fill="#47E6B1"/>
<path opacity="0.5" d="M36.5267 431.423L36.6001 428.801L21.7517 428.385L21.6782 431.007L36.5267 431.423Z" fill="#47E6B1"/>
</g>
<g opacity="0.5">
<path opacity="0.5" d="M696.167 255.679L693.546 255.605L693.13 270.466L695.751 270.54L696.167 255.679Z" fill="#47E6B1"/>
<path opacity="0.5" d="M702.036 264.592L702.109 261.97L687.261 261.554L687.188 264.176L702.036 264.592Z" fill="#47E6B1"/>
</g>
<g opacity="0.5">
<path opacity="0.5" d="M56.7346 53.1788L54.1143 53.1055L53.6981 67.9663L56.3184 68.0396L56.7346 53.1788Z" fill="#47E6B1"/>
<path opacity="0.5" d="M62.6038 62.0922L62.6772 59.4697L47.8288 59.0539L47.7554 61.6764L62.6038 62.0922Z" fill="#47E6B1"/>
</g>
<g opacity="0.5">
<path opacity="0.5" d="M623.359 46.3009L620.739 46.2275L620.323 61.0883L622.943 61.1617L623.359 46.3009Z" fill="#47E6B1"/>
<path opacity="0.5" d="M629.228 55.2143L629.302 52.5918L614.453 52.176L614.38 54.7985L629.228 55.2143Z" fill="#47E6B1"/>
</g>
<path opacity="0.5" d="M18.692 222.234C17.9788 221.899 17.4134 221.313 17.1037 220.588C16.794 219.863 16.7615 219.049 17.0124 218.302C17.0528 218.187 17.0796 218.068 17.0922 217.947C17.1229 217.602 17.0417 217.257 16.8609 216.962C16.68 216.667 16.4089 216.438 16.0878 216.309C15.7668 216.18 15.4127 216.158 15.0782 216.246C14.7437 216.335 14.4465 216.528 14.2306 216.799C14.1563 216.895 14.0935 216.999 14.0436 217.11C13.7089 217.824 13.1236 218.39 12.3991 218.7C11.6746 219.01 10.8615 219.042 10.1146 218.791C10.0001 218.751 9.88131 218.724 9.76058 218.711C9.41602 218.681 9.07073 218.762 8.77587 218.943C8.48101 219.124 8.25225 219.395 8.12349 219.717C7.99472 220.038 7.97279 220.392 8.06094 220.727C8.14909 221.062 8.34263 221.359 8.61291 221.575C8.70887 221.65 8.81326 221.713 8.92392 221.763C9.63721 222.098 10.2025 222.683 10.5122 223.408C10.822 224.133 10.8545 224.947 10.6036 225.695C10.5631 225.809 10.5364 225.928 10.5238 226.049C10.4931 226.394 10.5742 226.74 10.7551 227.035C10.936 227.33 11.2071 227.559 11.5281 227.688C11.8492 227.816 12.2032 227.838 12.5377 227.75C12.8722 227.662 13.1695 227.468 13.3854 227.198C13.4597 227.102 13.5225 226.997 13.5723 226.886C13.9071 226.172 14.4924 225.607 15.2169 225.297C15.9414 224.987 16.7545 224.954 17.5014 225.205C17.6158 225.246 17.7347 225.272 17.8554 225.285C18.2 225.316 18.5452 225.234 18.8401 225.053C19.135 224.872 19.3637 224.601 19.4925 224.28C19.6213 223.958 19.6432 223.604 19.5551 223.269C19.4669 222.934 19.2733 222.637 19.0031 222.421C18.9071 222.347 18.8027 222.284 18.692 222.234Z" fill="#4D8AF0"/>
<path opacity="0.5" d="M173.746 54.2309C173.033 53.8959 172.468 53.3101 172.158 52.5851C171.848 51.86 171.816 51.0462 172.067 50.2987C172.107 50.1841 172.134 50.0652 172.146 49.9443C172.177 49.5995 172.096 49.2539 171.915 48.9588C171.734 48.6637 171.463 48.4348 171.142 48.3059C170.821 48.1771 170.467 48.1551 170.132 48.2434C169.798 48.3316 169.501 48.5253 169.285 48.7959C169.21 48.8919 169.148 48.9964 169.098 49.1071C168.763 49.821 168.178 50.3868 167.453 50.6968C166.729 51.0069 165.916 51.0394 165.169 50.7884C165.054 50.7479 164.936 50.7211 164.815 50.7085C164.47 50.6778 164.125 50.759 163.83 50.9401C163.535 51.1212 163.306 51.3925 163.178 51.7138C163.049 52.0351 163.027 52.3894 163.115 52.7242C163.203 53.059 163.397 53.3565 163.667 53.5725C163.763 53.6469 163.867 53.7097 163.978 53.7596C164.691 54.0946 165.257 54.6804 165.566 55.4055C165.876 56.1306 165.909 56.9443 165.658 57.6919C165.617 57.8064 165.591 57.9253 165.578 58.0462C165.547 58.391 165.628 58.7366 165.809 59.0317C165.99 59.3268 166.261 59.5557 166.582 59.6846C166.903 59.8135 167.257 59.8354 167.592 59.7471C167.926 59.6589 168.224 59.4652 168.44 59.1947C168.514 59.0986 168.577 58.9941 168.627 58.8834C168.961 58.1695 169.547 57.6037 170.271 57.2937C170.996 56.9837 171.809 56.9511 172.556 57.2022C172.67 57.2426 172.789 57.2694 172.91 57.282C173.254 57.3127 173.599 57.2315 173.894 57.0504C174.189 56.8694 174.418 56.5981 174.547 56.2767C174.676 55.9554 174.697 55.6011 174.609 55.2663C174.521 54.9315 174.328 54.6341 174.057 54.418C173.961 54.3436 173.857 54.2808 173.746 54.2309Z" fill="#4D8AF0"/>
<path opacity="0.5" d="M344.659 506.065C343.946 505.73 343.38 505.144 343.071 504.419C342.761 503.694 342.728 502.88 342.979 502.133C343.02 502.018 343.046 501.899 343.059 501.778C343.09 501.433 343.009 501.088 342.828 500.793C342.647 500.498 342.376 500.269 342.055 500.14C341.734 500.011 341.38 499.989 341.045 500.077C340.711 500.166 340.413 500.359 340.197 500.63C340.123 500.726 340.06 500.83 340.01 500.941C339.676 501.655 339.09 502.221 338.366 502.531C337.641 502.841 336.828 502.873 336.081 502.622C335.967 502.582 335.848 502.555 335.727 502.543C335.383 502.512 335.038 502.593 334.743 502.774C334.448 502.955 334.219 503.226 334.09 503.548C333.962 503.869 333.94 504.223 334.028 504.558C334.116 504.893 334.309 505.19 334.58 505.407C334.676 505.481 334.78 505.544 334.891 505.594C335.604 505.929 336.169 506.514 336.479 507.239C336.789 507.965 336.821 508.778 336.57 509.526C336.53 509.64 336.503 509.759 336.491 509.88C336.46 510.225 336.541 510.571 336.722 510.866C336.903 511.161 337.174 511.39 337.495 511.519C337.816 511.647 338.17 511.669 338.505 511.581C338.839 511.493 339.136 511.299 339.352 511.029C339.427 510.933 339.489 510.828 339.539 510.717C339.874 510.004 340.459 509.438 341.184 509.128C341.908 508.818 342.721 508.785 343.468 509.036C343.583 509.077 343.701 509.103 343.822 509.116C344.167 509.147 344.512 509.066 344.807 508.884C345.102 508.703 345.331 508.432 345.459 508.111C345.588 507.789 345.61 507.435 345.522 507.1C345.434 506.766 345.24 506.468 344.97 506.252C344.874 506.178 344.77 506.115 344.659 506.065Z" fill="#4D8AF0"/>
<path opacity="0.5" d="M666.43 412.319C669.325 412.4 671.737 410.118 671.818 407.221C671.899 404.324 669.618 401.91 666.724 401.829C663.83 401.748 661.418 404.031 661.337 406.928C661.255 409.824 663.536 412.238 666.43 412.319Z" fill="#F55F44"/>
<path opacity="0.5" d="M550.206 442.31C553.1 442.391 555.513 440.108 555.594 437.211C555.675 434.315 553.394 431.901 550.5 431.82C547.606 431.739 545.194 434.021 545.112 436.918C545.031 439.815 547.312 442.229 550.206 442.31Z" fill="#4D8AF0"/>
<path opacity="0.5" d="M91.0802 481.067C93.9745 481.148 96.3866 478.866 96.4677 475.969C96.5488 473.072 94.2682 470.658 91.3739 470.577C88.4796 470.496 86.0675 472.779 85.9864 475.676C85.9053 478.572 88.1858 480.986 91.0802 481.067Z" fill="#47E6B1"/>
<path opacity="0.5" d="M373.196 20.9238C376.091 21.0049 378.503 18.7223 378.584 15.8256C378.665 12.9289 376.384 10.5149 373.49 10.4339C370.596 10.3528 368.184 12.6354 368.103 15.5321C368.022 18.4288 370.302 20.8428 373.196 20.9238Z" fill="#F55F44"/>
<path d="M184.373 317.896L162.529 348.779C162.529 348.779 168.611 381.319 323.234 384.774C477.857 388.229 490.942 357.976 490.942 357.976L463.294 315.209L376.766 252.421L184.373 317.896Z" fill="#0E153A"/>
<path opacity="0.15" d="M184.373 317.896L162.529 348.779C162.529 348.779 168.611 381.319 323.234 384.774C477.857 388.229 490.942 357.976 490.942 357.976L463.294 315.209L376.766 252.421L184.373 317.896Z" fill="black"/>
<path d="M633.531 213.683L354.996 327.486L22.9982 196.585L334.365 65.3287L483.336 139.2L488.673 141.851L633.531 213.683Z" fill="#0E153A"/>
<path opacity="0.15" d="M633.531 213.683L354.996 327.486L22.9982 196.585L334.365 65.3287L483.336 139.2L488.673 141.851L633.531 213.683Z" fill="black"/>
<path d="M491.656 238.859L486.406 239.027L483.336 139.199L488.673 141.851L491.656 238.859Z" fill="#F5F5F5"/>
<path d="M191.148 200.856L162.53 348.779C162.53 348.779 339.682 296.875 490.942 357.976L472.639 199.991C472.639 199.991 268.091 168.892 191.148 200.856Z" fill="#0E153A"/>
<path d="M490.37 269.163C504.359 269.555 515.919 262.045 516.189 252.389C516.46 242.734 505.338 234.588 491.349 234.197C477.36 233.805 465.8 241.315 465.53 250.971C465.26 260.626 476.381 268.771 490.37 269.163Z" fill="#F5F5F5"/>
</g>
<defs>
<linearGradient id="paint0_linear" x1="206.873" y1="380.987" x2="237.137" y2="324.097" gradientUnits="userSpaceOnUse">
<stop stop-color="#808080" stop-opacity="0.25"/>
<stop offset="0.53514" stop-color="#808080" stop-opacity="0.12"/>
<stop offset="1" stop-color="#808080" stop-opacity="0.1"/>
</linearGradient>
<clipPath id="clip0">
<rect x="14.1626" y="0.371094" width="695" height="502" transform="rotate(1.60411 14.1626 0.371094)" fill="white"/>
</clipPath>
</defs>
</svg>
