<svg width="394" height="376" viewBox="0 0 394 376" fill="none" xmlns="http://www.w3.org/2000/svg">
<g clip-path="url(#clip0)">
<path d="M1.11042 269.288L224.433 346.384L318.703 359.871L179.624 314.19L1.11042 269.288Z" fill="#E6E6E6"/>
<path d="M121.072 89.8249C101.244 83.3123 90.4442 61.9743 96.9506 42.1652C103.457 22.3561 124.805 11.5772 144.633 18.0898C164.461 24.6023 175.261 45.9403 168.754 65.7494C162.248 85.5585 140.9 96.3375 121.072 89.8249Z" fill="#FF6584"/>
<path d="M254.575 340.886C254.575 340.886 257.661 329.72 246.476 327.462L254.575 340.886Z" fill="#3F3D56"/>
<path d="M261.053 331.424C258.078 330.447 256.457 327.244 257.433 324.271C258.41 321.298 261.614 319.681 264.589 320.658C267.565 321.635 269.186 324.838 268.209 327.811C267.233 330.784 264.029 332.401 261.053 331.424Z" fill="#0E153A"/>
<path d="M259.2 334.894L260.721 335.394L257.227 346.03L255.706 345.53L259.2 334.894Z" fill="#3F3D56"/>
<path d="M76.5166 284.483C76.5166 284.483 79.6023 273.317 68.417 271.059L76.5166 284.483Z" fill="#3F3D56"/>
<path d="M82.9947 275.021C80.0189 274.043 78.3981 270.841 79.3746 267.868C80.3511 264.895 83.555 263.277 86.5308 264.255C89.5066 265.232 91.1274 268.434 90.1509 271.407C89.1744 274.38 85.9705 275.998 82.9947 275.021Z" fill="#0E153A"/>
<path d="M81.1411 278.491L82.6621 278.99L79.1685 289.627L77.6476 289.127L81.1411 278.491Z" fill="#3F3D56"/>
<path d="M49.96 277.84C49.96 277.84 53.0457 266.675 41.8603 264.416L49.96 277.84Z" fill="#3F3D56"/>
<path d="M56.4381 268.378C53.4623 267.401 51.8415 264.198 52.818 261.225C53.7945 258.252 56.9984 256.635 59.9742 257.612C62.95 258.589 64.5707 261.792 63.5942 264.765C62.6178 267.738 59.4138 269.356 56.4381 268.378Z" fill="#0E153A"/>
<path d="M54.5851 271.848L56.106 272.348L52.6124 282.984L51.0915 282.485L54.5851 271.848Z" fill="#3F3D56"/>
<path d="M213.821 321.675C213.821 321.675 216.907 310.509 205.722 308.251L213.821 321.675Z" fill="#3F3D56"/>
<path d="M220.299 312.213C217.323 311.236 215.702 308.033 216.679 305.06C217.655 302.087 220.859 300.47 223.835 301.447C226.811 302.424 228.432 305.627 227.455 308.6C226.479 311.573 223.275 313.19 220.299 312.213Z" fill="#0E153A"/>
<path d="M218.446 315.683L219.967 316.183L216.473 326.819L214.952 326.319L218.446 315.683Z" fill="#3F3D56"/>
<path d="M293.279 349.854C293.279 349.854 296.365 338.688 285.179 336.43L293.279 349.854Z" fill="#3F3D56"/>
<path d="M299.757 340.391C296.781 339.413 295.16 336.211 296.137 333.238C297.113 330.265 300.317 328.647 303.293 329.625C306.269 330.602 307.89 333.805 306.913 336.777C305.937 339.75 302.733 341.368 299.757 340.391Z" fill="#0E153A"/>
<path d="M297.903 343.862L299.424 344.361L295.931 354.998L294.41 354.498L297.903 343.862Z" fill="#3F3D56"/>
<path d="M169.279 287.961C136.857 277.312 119.199 242.422 129.838 210.031C140.477 177.641 175.384 160.016 207.805 170.665C240.227 181.314 257.885 216.204 247.247 248.595C236.608 280.985 201.7 298.61 169.279 287.961Z" fill="#3F3D56"/>
<path d="M223.954 246.16C223.068 243.937 221.706 241.936 219.962 240.296C218.218 238.657 216.135 237.42 213.861 236.673C211.587 235.926 209.176 235.687 206.8 235.973C204.424 236.259 202.14 237.063 200.109 238.328C198.396 235.129 197.68 231.492 198.054 227.884C198.429 224.276 199.876 220.864 202.209 218.087C204.543 215.31 207.655 213.295 211.146 212.302C214.637 211.31 218.346 211.385 221.795 212.517C225.244 213.65 228.275 215.789 230.497 218.658C232.72 221.527 234.032 224.995 234.264 228.615C234.496 232.235 233.638 235.841 231.801 238.968C229.963 242.095 227.23 244.6 223.954 246.16Z" fill="white"/>
<path d="M177.335 230.848C176.45 228.626 175.088 226.624 173.344 224.985C171.6 223.346 169.517 222.109 167.243 221.362C164.968 220.615 162.558 220.376 160.182 220.662C157.806 220.948 155.522 221.752 153.491 223.016C151.778 219.818 151.062 216.18 151.436 212.573C151.811 208.965 153.258 205.553 155.591 202.775C157.925 199.998 161.037 197.983 164.528 196.991C168.019 195.998 171.728 196.073 175.177 197.206C178.626 198.339 181.657 200.478 183.879 203.347C186.102 206.216 187.414 209.684 187.646 213.304C187.878 216.924 187.02 220.53 185.182 223.657C183.345 226.784 180.612 229.288 177.335 230.848Z" fill="white"/>
<path d="M222 231.761C218.719 230.684 216.933 227.154 218.009 223.877C219.086 220.6 222.617 218.817 225.898 219.894C229.178 220.971 230.964 224.501 229.888 227.778C228.812 231.055 225.28 232.839 222 231.761Z" fill="#3F3D56"/>
<path d="M175.384 216.451C172.103 215.373 170.317 211.843 171.393 208.566C172.47 205.289 176.001 203.506 179.281 204.583C182.562 205.661 184.348 209.191 183.272 212.468C182.195 215.745 178.664 217.528 175.384 216.451Z" fill="#3F3D56"/>
<path d="M223.762 264.769C219.947 263.517 217.87 259.412 219.122 255.601C220.373 251.791 224.48 249.717 228.294 250.97C232.109 252.223 234.186 256.327 232.934 260.138C231.683 263.949 227.576 266.022 223.762 264.769Z" fill="#FF6584"/>
<path d="M144.338 238.683C140.524 237.43 138.446 233.325 139.698 229.514C140.949 225.704 145.056 223.63 148.87 224.883C152.685 226.136 154.762 230.24 153.511 234.051C152.259 237.862 148.152 239.935 144.338 238.683Z" fill="#FF6584"/>
<path d="M190.849 231.026L188.663 255.152L182.863 243.692L190.849 231.026Z" fill="#FF6584"/>
<path d="M135.905 308.532L143.405 305.532L141.649 310.418L143.475 311.018L145.334 305.852L151.561 313.674L154.885 314.766L146.097 303.728L151.606 288.421L155.762 276.859L153.957 276.211L149.779 287.821L144.276 303.114L133.065 307.599L135.905 308.532Z" fill="#3F3D56"/>
<path d="M163.533 317.606L171.033 314.607L169.276 319.493L171.098 320.091L172.957 314.925L179.184 322.747L182.508 323.839L173.725 312.803L179.233 297.495L183.39 285.934L181.58 285.284L177.402 296.894L171.903 312.189L160.693 316.674L163.533 317.606Z" fill="#3F3D56"/>
<path d="M208.358 166.069C209.969 166.598 210.98 168.315 211.299 170.547C213.085 167.935 215.503 166.505 217.558 167.179C217.693 167.239 217.824 167.308 217.95 167.385C219.752 164.562 222.297 163.003 224.437 163.706C227.298 164.646 228.349 169.269 226.784 174.032C225.22 178.795 221.632 181.895 218.772 180.955C218.637 180.896 218.506 180.827 218.38 180.75C216.578 183.573 214.032 185.132 211.892 184.429C210.281 183.9 209.271 182.183 208.952 179.951C207.166 182.563 204.747 183.993 202.693 183.318C199.832 182.379 198.781 177.756 200.346 172.992C201.91 168.229 205.498 165.129 208.358 166.069Z" fill="#3F3D56"/>
<path d="M236.344 269.637C238.611 270.381 241.003 270.673 243.382 270.494C245.762 270.315 248.083 269.67 250.212 268.595C252.341 267.519 254.238 266.036 255.793 264.228C257.348 262.42 258.531 260.324 259.275 258.058L262.108 249.434C263.611 244.859 263.233 239.874 261.057 235.575C258.882 231.277 255.087 228.017 250.508 226.513L236.344 269.637Z" fill="#0E153A"/>
<path d="M140.305 190.316C138.037 189.572 135.646 189.28 133.266 189.459C130.886 189.638 128.566 190.283 126.436 191.359C124.307 192.434 122.411 193.918 120.855 195.725C119.3 197.533 118.117 199.63 117.373 201.895L114.54 210.52C113.796 212.785 113.506 215.175 113.686 217.552C113.867 219.93 114.514 222.25 115.591 224.378C116.668 226.506 118.154 228.402 119.964 229.957C121.774 231.512 123.873 232.695 126.141 233.44L140.305 190.316L140.305 190.316Z" fill="#0E153A"/>
<path d="M125.146 205.95L127.886 206.85C139.286 172.14 176.826 153.186 211.569 164.597C246.311 176.008 265.301 213.53 253.901 248.24L256.641 249.14C268.537 212.921 248.721 173.768 212.468 161.86C176.214 149.953 137.042 169.731 125.146 205.95Z" fill="#0E153A"/>
<path d="M302.231 205.674L302.23 205.673L303.693 205.56L309.877 205.05L312.093 204.868L312.119 205.293L312.567 212.748L304.187 213.442L304.137 213.465L304.249 214.796C304.282 214.925 304.302 215.057 304.311 215.19C304.371 216.18 303.428 216.836 302.728 216.878C302.027 216.919 301.41 216.15 301.351 215.16C301.292 214.183 301.987 213.195 302.679 213.128L302.679 213.127L304.142 213.014L309.106 212.751L308.675 205.579L309.096 205.554L309.527 212.728L310.141 212.696L309.708 205.493L309.632 205.499L303.738 205.988L303.688 206.01L303.8 207.341C303.833 207.47 303.854 207.602 303.863 207.735C303.922 208.725 302.98 209.382 302.279 209.423C301.578 209.465 300.962 208.696 300.902 207.706C300.844 206.729 301.539 205.741 302.231 205.674Z" fill="#3F3D56"/>
<path d="M271.442 213.5C274.615 212.852 275.18 209.328 275.18 209.328C275.962 207.175 277.659 208.073 277.659 208.073L278.265 208.438C278.616 208.396 278.971 208.445 279.298 208.577L280.239 209.072C277.796 208.859 277.36 210.816 277.36 210.816L276.314 212.928L283.043 212.485L282.889 210.653C282.843 210.474 282.814 210.291 282.802 210.106C282.719 208.731 284.028 207.819 285.002 207.762C285.975 207.704 286.831 208.772 286.914 210.147C286.995 211.504 286.029 212.876 285.069 212.969L285.069 212.971L283.037 213.127L283.038 213.081L271.442 213.5ZM275.739 210.597L274.852 212.656C275.834 211.934 276.528 210.887 276.81 209.701C276.961 209.295 277.23 208.945 277.582 208.693C277.129 208.81 276.717 209.05 276.392 209.386C276.066 209.722 275.84 210.141 275.739 210.597L275.739 210.597Z" fill="#3F3D56"/>
<path d="M327.073 197.018L327.073 197.017L329.105 196.86L337.529 196.413L336.194 194.117C335.986 193.505 335.55 192.996 334.976 192.698C334.402 192.399 333.734 192.334 333.114 192.516L333.984 191.839C333.984 191.839 335.562 190.745 336.596 192.79C336.596 192.79 337.58 196.222 340.807 196.49L329.167 197.455L329.098 197.486L329.254 199.334C329.299 199.513 329.328 199.697 329.34 199.881C329.423 201.257 328.114 202.168 327.141 202.226C326.167 202.284 325.311 201.216 325.228 199.84C325.147 198.484 326.113 197.111 327.073 197.018Z" fill="#3F3D56"/>
<path d="M302.841 178.539L302.997 180.388C303.043 180.567 303.072 180.75 303.084 180.935C303.166 182.31 301.858 183.221 300.884 183.279C299.911 183.337 299.055 182.269 298.972 180.894C298.89 179.537 299.856 178.165 300.817 178.072L300.816 178.07L302.848 177.914L309.743 177.547L309.144 167.586L309.729 167.552L310.329 177.516L311.181 177.471L310.58 167.467L310.474 167.476L302.288 168.155L302.219 168.186L302.374 170.034C302.42 170.213 302.449 170.397 302.461 170.581C302.544 171.957 301.235 172.868 300.261 172.926C299.288 172.984 298.432 171.916 298.349 170.54C298.268 169.184 299.234 167.811 300.194 167.719L300.194 167.717L302.226 167.56L310.544 166.874L310.544 166.874L310.814 166.852L313.892 166.598L314.551 177.543L302.911 178.508L302.841 178.539Z" fill="#3F3D56"/>
<path d="M351.52 139.582L351.519 139.579L355.017 139.31L369.518 138.539L367.22 134.588C367.22 134.588 366.044 130.886 361.918 131.831L363.416 130.666C363.416 130.666 366.132 128.783 367.913 132.304C367.913 132.304 369.606 138.211 375.162 138.672L355.125 140.333L355.005 140.386L355.273 143.568C355.351 143.877 355.401 144.192 355.422 144.51C355.564 146.878 353.311 148.447 351.636 148.546C349.96 148.646 348.486 146.807 348.344 144.44C348.203 142.104 349.866 139.742 351.52 139.582Z" fill="#3F3D56"/>
<path d="M328.296 178.435C335.881 176.885 337.232 168.459 337.232 168.459C339.101 163.311 343.161 165.46 343.161 165.46L344.609 166.331C345.447 166.233 346.296 166.348 347.078 166.666L349.327 167.848C343.487 167.34 342.444 172.018 342.444 172.018L339.944 177.066L356.032 176.007L355.663 171.629C355.554 171.2 355.485 170.762 355.456 170.32C355.258 167.032 358.388 164.853 360.715 164.715C363.042 164.576 365.089 167.13 365.287 170.419C365.482 173.662 363.172 176.943 360.876 177.165L360.877 177.169L356.019 177.543L356.02 177.432L328.296 178.435ZM338.568 171.495L336.44 176.434C340.291 173.758 341.131 169.351 341.131 169.351C341.491 168.382 342.133 167.543 342.976 166.943C339.289 167.773 338.568 171.495 338.568 171.495L338.568 171.495Z" fill="#3F3D56"/>
</g>
<defs>
<clipPath id="clip0">
<rect width="330" height="287" transform="matrix(-0.950065 -0.312052 -0.312052 0.950065 403.08 102.978)" fill="white"/>
</clipPath>
</defs>
</svg>
