<svg width="475" height="374" viewBox="0 0 475 374" fill="none" xmlns="http://www.w3.org/2000/svg">
<path d="M246.021 35.737C249.157 56.4127 240.455 74.8844 240.455 74.8844C240.455 74.8844 226.645 59.837 223.51 39.1567C220.374 18.4763 229.076 0.00927734 229.076 0.00927734C229.076 0.00927734 242.885 15.0521 246.021 35.737Z" fill="#0E153A"/>
<path d="M304.329 68.6806C315.708 68.5553 324.999 74.6615 324.999 74.6615C324.999 74.6615 315.843 80.9673 304.464 81.0879C293.085 81.2085 283.794 75.107 283.794 75.107C283.794 75.107 292.951 68.8059 304.329 68.6806Z" fill="#0E153A"/>
<path d="M272.332 37.2496C261.741 48.8913 259.501 64.1058 259.501 64.1058C259.501 64.1058 274.428 60.4402 285.014 48.7939C295.599 37.1476 297.849 21.9424 297.849 21.9424C297.849 21.9424 282.922 25.608 272.332 37.2496Z" fill="#46455B"/>
<path opacity="0.1" d="M237.5 374C368.668 374 475 369.118 475 363.096C475 357.074 368.668 352.192 237.5 352.192C106.332 352.192 0 357.074 0 363.096C0 369.118 106.332 374 237.5 374Z" fill="#0E153A"/>
<path d="M96.6235 253.222H166.5V359.751H90.918V253.222H96.6235Z" fill="#EEEFF0"/>
<path d="M156.954 268.496H100.46V280.713H156.954V268.496Z" fill="#0E153A"/>
<path d="M151.995 295.798H105.423V296.563H151.995V295.798Z" fill="#373E46"/>
<path d="M151.995 299.997H105.423V300.763H151.995V299.997Z" fill="#373E46"/>
<path d="M151.995 304.196H105.423V304.962H151.995V304.196Z" fill="#373E46"/>
<path d="M151.995 308.396H105.423V309.161H151.995V308.396Z" fill="#373E46"/>
<path d="M151.995 312.595H105.423V313.36H151.995V312.595Z" fill="#373E46"/>
<path d="M151.995 316.798H105.423V317.564H151.995V316.798Z" fill="#373E46"/>
<path d="M151.995 320.998H105.423V321.763H151.995V320.998Z" fill="#373E46"/>
<path d="M151.995 325.197H105.423V325.962H151.995V325.197Z" fill="#373E46"/>
<path d="M151.995 329.396H105.423V330.162H151.995V329.396Z" fill="#373E46"/>
<path d="M151.995 333.595H105.423V334.361H151.995V333.595Z" fill="#373E46"/>
<path d="M151.995 337.799H105.423V338.564H151.995V337.799Z" fill="#373E46"/>
<path d="M205.415 253.222H275.292V359.751H199.709V253.222H205.415Z" fill="#EEEFF0"/>
<path d="M265.745 268.496H209.25V280.713H265.745V268.496Z" fill="#0E153A"/>
<path d="M260.786 295.798H214.214V296.563H260.786V295.798Z" fill="#373E46"/>
<path d="M260.786 299.997H214.214V300.763H260.786V299.997Z" fill="#373E46"/>
<path d="M260.786 304.196H214.214V304.962H260.786V304.196Z" fill="#373E46"/>
<path d="M260.786 308.396H214.214V309.161H260.786V308.396Z" fill="#373E46"/>
<path d="M260.786 312.595H214.214V313.36H260.786V312.595Z" fill="#373E46"/>
<path d="M260.786 316.798H214.214V317.564H260.786V316.798Z" fill="#373E46"/>
<path d="M260.786 320.998H214.214V321.763H260.786V320.998Z" fill="#373E46"/>
<path d="M260.786 325.197H214.214V325.962H260.786V325.197Z" fill="#373E46"/>
<path d="M260.786 329.396H214.214V330.162H260.786V329.396Z" fill="#373E46"/>
<path d="M260.786 333.595H214.214V334.361H260.786V333.595Z" fill="#373E46"/>
<path d="M260.786 337.799H214.214V338.564H260.786V337.799Z" fill="#373E46"/>
<path d="M314.205 253.222H384.082V359.751H308.5V253.222H314.205Z" fill="#EEEFF0"/>
<path d="M374.54 268.496H318.046V280.713H374.54V268.496Z" fill="#0E153A"/>
<path d="M369.577 295.798H323.005V296.563H369.577V295.798Z" fill="#373E46"/>
<path d="M369.577 299.997H323.005V300.763H369.577V299.997Z" fill="#373E46"/>
<path d="M369.577 304.196H323.005V304.962H369.577V304.196Z" fill="#373E46"/>
<path d="M369.577 308.396H323.005V309.161H369.577V308.396Z" fill="#373E46"/>
<path d="M369.577 312.595H323.005V313.36H369.577V312.595Z" fill="#373E46"/>
<path d="M369.577 316.798H323.005V317.564H369.577V316.798Z" fill="#373E46"/>
<path d="M369.577 320.998H323.005V321.763H369.577V320.998Z" fill="#373E46"/>
<path d="M369.577 325.197H323.005V325.962H369.577V325.197Z" fill="#373E46"/>
<path d="M369.577 329.396H323.005V330.162H369.577V329.396Z" fill="#373E46"/>
<path d="M369.577 333.595H323.005V334.361H369.577V333.595Z" fill="#373E46"/>
<path d="M369.577 337.799H323.005V338.564H369.577V337.799Z" fill="#373E46"/>
<path d="M237.5 253.222V179.91L128.709 253.222" stroke="#373E46" stroke-miterlimit="10"/>
<path d="M346.291 253.222L237.5 179.91" stroke="#373E46" stroke-miterlimit="10"/>
<g opacity="0.1">
<path opacity="0.1" d="M185.514 40.6182H176.27V213.225H298.73V40.6182H185.514Z" fill="black"/>
</g>
<path d="M187.611 44.0981H296.263V209.745H178.737V44.0981H187.611Z" fill="white"/>
<path d="M281.423 67.8457H193.576V86.8464H281.423V67.8457Z" fill="#0E153A"/>
<path d="M273.709 110.297H201.295V111.485H273.709V110.297Z" fill="#373E46"/>
<path d="M273.709 116.825H201.295V118.013H273.709V116.825Z" fill="#373E46"/>
<path d="M273.709 123.358H201.295V124.546H273.709V123.358Z" fill="#373E46"/>
<path d="M273.709 129.887H201.295V131.075H273.709V129.887Z" fill="#373E46"/>
<path d="M273.709 136.42H201.295V137.608H273.709V136.42Z" fill="#373E46"/>
<path d="M273.709 142.953H201.295V144.14H273.709V142.953Z" fill="#373E46"/>
<path d="M273.709 149.481H201.295V150.669H273.709V149.481Z" fill="#373E46"/>
<path d="M273.709 156.014H201.295V157.202H273.709V156.014Z" fill="#373E46"/>
<path d="M273.709 162.542H201.295V163.73H273.709V162.542Z" fill="#373E46"/>
<path d="M273.709 169.076H201.295V170.264H273.709V169.076Z" fill="#373E46"/>
<path d="M273.709 175.604H201.295V176.792H273.709V175.604Z" fill="#373E46"/>
<path d="M61.5271 325.684C61.606 327.54 60.4324 329.169 59.3145 330.639C58.8108 331.329 58.3566 332.053 57.9553 332.806C56.74 334.969 54.1284 335.999 52.7136 338.04C52.375 338.537 52.1106 339.08 51.8091 339.604C50.785 341.401 49.4982 343.036 47.9915 344.453L45.4588 346.847C44.6903 347.483 44.0455 348.255 43.5569 349.125C43.1326 350.196 42.9643 351.351 43.0652 352.498V352.879C43.0652 352.967 43.0652 353.051 43.0652 353.139C43.0675 354.543 43.223 355.944 43.5291 357.315C43.6959 357.734 43.722 358.197 43.6033 358.632C43.486 358.845 43.3249 359.03 43.1305 359.176C42.9362 359.322 42.7131 359.424 42.4761 359.477C41.9883 359.681 41.4465 359.717 40.936 359.579C40.4577 359.359 40.0568 359 39.7857 358.549C38.292 356.498 37.689 353.96 36.7983 351.589C36.7263 351.334 36.72 351.065 36.7801 350.807C36.8401 350.549 36.9645 350.31 37.1416 350.113C37.4958 349.724 37.8856 349.368 38.3059 349.051C40.0686 347.51 40.8897 345.186 41.553 342.945C42.2163 340.704 42.875 338.36 44.4151 336.602C45.4124 335.46 46.7344 334.639 47.8384 333.614C50.6216 331.043 52.0132 327.299 52.7183 323.587C53.571 323.425 54.4455 323.414 55.302 323.554L59.8572 324.157C60.3585 324.165 60.84 324.355 61.2117 324.691C61.4221 324.979 61.5328 325.327 61.5271 325.684Z" fill="#EFB7B9"/>
<path d="M80.9773 329.447C80.8818 330.135 80.6397 330.795 80.2675 331.382C79.7189 332.226 79.0981 333.021 78.4121 333.758C76.6726 335.757 76.3757 338.602 75.2671 341.01C74.9099 341.789 74.4599 342.527 74.0981 343.33C73.1426 345.376 72.79 347.626 72.5813 349.891C72.5581 350.178 72.5302 350.471 72.5117 350.763C72.4931 351.055 72.456 351.482 72.4282 351.84C72.3586 352.768 72.2983 353.784 72.6972 354.624C72.906 355.088 73.24 355.431 73.2539 355.918C72.5674 356.586 71.3984 356.507 70.6006 355.969C69.8407 355.375 69.2584 354.584 68.9167 353.682C68.1824 352.081 67.651 350.394 67.3349 348.661C67.2143 348.007 67.1587 347.232 67.6318 346.759C67.8952 346.551 68.1726 346.362 68.4621 346.193C69.042 345.729 69.209 344.94 69.3388 344.211C69.7842 341.709 70.231 339.208 70.6794 336.709C70.7778 336.096 70.9094 335.488 71.0737 334.89C71.4541 333.549 72.0339 332.055 73.1194 331.178C73.2594 331.048 73.3643 330.886 73.4243 330.705C73.4843 330.524 73.4975 330.33 73.4626 330.143C73.3846 329.769 73.24 329.412 73.0359 329.09C72.2287 327.642 71.2592 326.185 69.7888 325.378C71.3034 324.11 73.0311 323.122 74.8913 322.459C75.2177 322.304 75.5803 322.242 75.9397 322.278C76.1328 322.32 76.3177 322.394 76.487 322.496C77.4559 323.109 78.3035 323.896 78.9873 324.816C80.0681 326.171 81.1767 327.735 80.9773 329.447Z" fill="#EFB7B9"/>
<path d="M45.5237 359.036C45.0725 358.607 44.5497 358.26 43.979 358.011C43.8517 357.933 43.7093 357.884 43.5615 357.867C43.2043 357.867 42.9353 358.173 42.6338 358.331C42.3844 358.466 42.1055 358.536 41.822 358.536C41.5386 358.536 41.2596 358.466 41.0102 358.331C40.517 358.054 40.1021 357.656 39.8042 357.175C39.1548 356.215 39.0249 355.259 38.7559 354.206L41.5901 353.672C42.1052 353.551 42.6026 353.364 43.0698 353.115C43.0698 353.027 43.0698 352.944 43.0698 352.856V352.475C42.5456 352.628 41.437 353.143 41.1726 353.204C40.3196 353.397 39.455 353.535 38.5842 353.617C38.4497 353.347 38.2549 353.115 38.1203 352.851C37.8019 352.324 37.5995 351.736 37.5266 351.125C37.5207 350.882 37.4736 350.642 37.3874 350.415C37.3426 350.302 37.2621 350.207 37.1583 350.144C37.0545 350.082 36.9329 350.054 36.8122 350.067C36.7194 350.091 36.6326 350.133 36.5571 350.192C35.7627 350.743 35.1467 351.514 34.7851 352.41C34.2563 353.737 34.3213 355.222 34.1218 356.637C33.9595 357.7 33.6348 358.753 33.6904 359.825C33.6893 359.882 33.7054 359.939 33.7368 359.987C33.7847 360.034 33.8467 360.063 33.9131 360.071C34.5022 360.201 35.1841 360.317 35.6619 359.95C36.1396 359.584 36.2092 358.888 36.302 358.284C36.4251 357.48 36.6674 356.698 37.021 355.964C37.7523 356.861 38.1346 357.991 38.0972 359.147C38.0972 359.783 38.0229 360.512 38.459 360.976C38.673 361.181 38.9342 361.331 39.2197 361.412C39.8019 361.613 40.4062 361.744 41.0195 361.801C42.1342 361.867 43.2527 361.809 44.3547 361.63C44.7026 361.588 45.0552 361.542 45.3984 361.467C45.5754 361.436 45.7432 361.367 45.8901 361.263C46.0486 361.115 46.1503 360.917 46.1777 360.702C46.2016 360.393 46.1552 360.082 46.0419 359.794C45.9286 359.505 45.7515 359.246 45.5237 359.036Z" fill="#464353"/>
<path d="M74.7385 355.486C74.4626 355.239 74.1495 355.037 73.8107 354.888C73.5398 354.72 73.2331 354.618 72.9155 354.591C72.5582 354.626 72.2115 354.732 71.895 354.902C71.7358 354.985 71.5602 355.033 71.3806 355.041C71.201 355.049 71.0219 355.017 70.8559 354.948C70.6082 354.767 70.4272 354.509 70.341 354.215C69.9421 353.287 69.6452 352.275 69.2973 351.31C69.3782 351.181 69.4986 351.082 69.6406 351.027C69.7484 350.993 69.8616 350.979 69.9746 350.985C70.8151 351.011 71.6554 350.928 72.4748 350.74C72.4748 350.447 72.5212 350.155 72.5444 349.867C71.9573 349.812 71.365 349.863 70.7956 350.016C70.4016 350.168 69.9776 350.227 69.5571 350.187C69.2695 350.127 68.9958 349.951 68.7175 349.914C68.5876 349.668 68.4438 349.45 68.3046 349.19C67.9567 348.573 67.8408 347.854 67.5068 347.25C67.4546 347.147 67.3769 347.06 67.281 346.995C67.1852 346.931 67.0744 346.893 66.9594 346.884C66.8366 346.9 66.7183 346.941 66.6115 347.004C66.5048 347.067 66.4117 347.151 66.3378 347.25C65.7373 347.79 65.2405 348.434 64.872 349.153C64.7342 349.485 64.6286 349.83 64.5566 350.183C64.0927 352.159 63.8699 354.185 63.8933 356.215C64.4066 356.379 64.9491 356.431 65.4843 356.368C65.7596 355.001 66.0951 353.647 66.4909 352.308C66.4945 352.283 66.5028 352.259 66.5156 352.238C66.5283 352.216 66.5451 352.198 66.5651 352.183C66.6533 352.136 66.7414 352.229 66.7924 352.313C67.2769 353.034 67.6681 353.813 67.9567 354.633C68.0733 355.23 68.2748 355.809 68.5551 356.349C68.9174 356.845 69.4404 357.199 70.0349 357.352C70.6265 357.501 71.2338 357.579 71.8439 357.584L72.7717 357.63C73.2613 357.689 73.7577 357.651 74.2329 357.519C74.4709 357.45 74.6845 357.314 74.8488 357.129C75.013 356.943 75.1211 356.715 75.1606 356.47C75.165 356.285 75.1296 356.102 75.0568 355.932C74.9839 355.762 74.8754 355.61 74.7385 355.486Z" fill="#464353"/>
<path d="M78.9871 324.125C78.5787 324.47 78.0824 324.695 77.5537 324.775L75.9812 325.16C75.891 325.166 75.803 325.191 75.7231 325.233C75.6432 325.276 75.5731 325.334 75.5173 325.406C75.4292 325.573 75.4895 325.777 75.4477 325.958C75.4312 326.03 75.3978 326.096 75.3503 326.153C75.1272 326.35 74.8362 326.453 74.5386 326.44C74.28 326.431 74.0219 326.47 73.7778 326.556C73.6759 326.6 73.5877 326.671 73.5227 326.761C73.4438 326.877 73.4067 327.02 73.3232 327.127C73.1812 327.282 72.989 327.382 72.7805 327.41C72.5653 327.46 72.3467 327.494 72.1265 327.512C71.2528 327.59 70.3744 327.43 69.5845 327.048C69.3997 326.918 69.1726 326.864 68.949 326.895C68.8184 326.943 68.7075 327.033 68.6335 327.15C68.5522 327.276 68.464 327.397 68.3691 327.512C67.9656 327.948 67.2605 327.832 66.6807 327.712C66.3188 327.633 65.957 327.568 65.5952 327.508C63.417 327.206 61.2211 327.051 59.0222 327.044C56.1694 326.955 53.3213 326.877 50.5659 326.204C49.9629 326.06 49.2346 325.74 49.2671 325.095C49.2671 324.742 49.564 324.441 49.564 324.088C49.564 323.489 48.8264 323.16 48.2373 323.067C48.4507 319.782 50.4221 316.91 51.4473 313.787C51.7024 313.012 51.9111 312.219 52.1802 311.467C53.428 308.015 56.1741 305.361 58.4563 302.484C58.8076 302.082 59.0954 301.628 59.3098 301.139C59.5056 300.554 59.6074 299.941 59.6113 299.324L59.7366 297.158C63.08 296.927 66.4392 297.136 69.7283 297.779C69.9459 297.803 70.148 297.904 70.2988 298.062C70.3692 298.178 70.4121 298.308 70.4241 298.443C70.554 299.232 70.6421 300.03 70.6931 300.828C70.6967 301.003 70.7216 301.178 70.7673 301.347C70.8564 301.562 70.9785 301.76 71.1291 301.937C73.0635 304.391 74.2185 307.393 75.1462 310.423C76.074 313.453 76.8115 316.534 77.9805 319.476C78.3794 320.492 78.9082 321.633 79.0102 322.724C79.1925 322.913 79.2923 323.167 79.288 323.429C79.2836 323.692 79.1754 323.942 78.9871 324.125Z" fill="#464353"/>
<path opacity="0.1" d="M65.614 327.493C63.4358 327.192 61.2399 327.037 59.041 327.029L59.2219 320.928C59.2637 319.578 59.3054 318.223 59.4678 316.882C59.6951 314.975 60.1589 313.1 60.3955 311.198C60.5276 310.105 60.588 309.004 60.5764 307.904C60.5121 306.786 60.5431 305.665 60.6692 304.553C60.8223 303.625 61.2165 302.359 62.0608 301.862C62.6221 302.628 61.7593 304.776 61.6619 305.695C61.4531 307.611 61.968 309.518 62.4133 311.388C62.9468 313.634 63.3828 315.903 63.8049 318.172C64.4141 321.271 65.0172 324.379 65.614 327.493Z" fill="black"/>
<path opacity="0.1" d="M72.1455 327.512C71.2718 327.59 70.3934 327.43 69.6035 327.048C69.4187 326.919 69.1915 326.864 68.968 326.895C68.8374 326.943 68.7265 327.033 68.6525 327.15C67.9057 323.605 67.9475 319.912 67.3537 316.33C67.145 315.049 66.8527 313.746 67.0986 312.479C67.363 311.119 68.2211 309.941 68.5551 308.6C68.7329 307.713 68.7953 306.807 68.7407 305.904C68.6959 305.101 68.5008 304.314 68.1655 303.584C68.9494 303.714 69.5895 304.484 69.905 305.18C70.2447 306.051 70.4178 306.978 70.4152 307.913C70.5405 310.168 70.559 312.418 70.5266 314.673C70.4847 315.724 70.508 316.776 70.5961 317.824C70.7121 318.859 70.9672 319.87 71.06 320.905C71.1574 322.149 71.0136 323.42 71.3151 324.617C71.5471 325.582 72.0759 326.556 72.1455 327.512Z" fill="black"/>
<path opacity="0.1" d="M75.3691 326.153C75.146 326.35 74.855 326.453 74.5573 326.44C74.2987 326.431 74.0406 326.47 73.7966 326.556L72.4885 318.474C72.3083 317.482 72.1828 316.481 72.1128 315.476C72.0571 314.312 72.1452 313.156 72.0664 311.982C71.9195 310.559 71.651 309.151 71.2639 307.774C71.0598 306.953 70.1321 304.493 70.6516 303.797C71.4634 304.322 71.9597 305.445 72.2334 306.345C72.5176 307.385 72.6978 308.452 72.7715 309.528C72.9756 311.6 73.1828 313.677 73.393 315.759C73.7363 319.211 74.0935 322.719 75.2949 325.967C75.3227 326.023 75.3459 326.088 75.3691 326.153Z" fill="black"/>
<path d="M82.2068 287.896C82.7866 287.404 83.3711 286.908 83.9092 286.365C84.6624 285.564 85.3583 284.711 85.9919 283.813C86.7027 282.917 87.2937 281.933 87.75 280.885C88.2139 279.665 88.3716 278.277 89.1973 277.266C89.2924 277.135 89.4227 277.033 89.573 276.973C90.0369 276.825 90.394 277.437 90.5007 277.901C90.9414 280.291 89.8931 282.676 88.8679 284.861C88.5719 285.61 88.1376 286.296 87.5876 286.884C87.2662 287.161 86.9302 287.419 86.581 287.659C86.0656 288.078 85.5904 288.544 85.1616 289.051C84.4287 289.886 83.7236 290.754 83.0603 291.65C82.2848 292.795 81.4242 293.881 80.4858 294.898C79.5407 295.918 78.291 296.605 76.9233 296.856C77.313 296.8 77.1831 294.508 77.1414 294.22C77.0811 293.798 76.7935 293.292 76.7842 292.898C76.7842 292.397 76.979 292.322 77.3965 291.97L82.2068 287.896Z" fill="#EFB7B9"/>
<path opacity="0.1" d="M82.2068 287.896C82.7866 287.404 83.3711 286.908 83.9092 286.365C84.6624 285.564 85.3583 284.711 85.9919 283.813C86.7027 282.917 87.2937 281.933 87.75 280.885C88.2139 279.665 88.3716 278.277 89.1973 277.266C89.2924 277.135 89.4227 277.033 89.573 276.973C90.0369 276.825 90.394 277.437 90.5007 277.901C90.9414 280.291 89.8931 282.676 88.8679 284.861C88.5719 285.61 88.1376 286.296 87.5876 286.884C87.2662 287.161 86.9302 287.419 86.581 287.659C86.0656 288.078 85.5904 288.544 85.1616 289.051C84.4287 289.886 83.7236 290.754 83.0603 291.65C82.2848 292.795 81.4242 293.881 80.4858 294.898C79.5407 295.918 78.291 296.605 76.9233 296.856C77.313 296.8 77.1831 294.508 77.1414 294.22C77.0811 293.798 76.7935 293.292 76.7842 292.898C76.7842 292.397 76.979 292.322 77.3965 291.97L82.2068 287.896Z" fill="black"/>
<path d="M65.8135 273.438C65.8135 273.438 64.4775 280.069 62.9421 281.191C61.4067 282.314 71.3335 283.618 71.3335 283.618C71.3335 283.618 71.5561 278.319 74.2048 275.888C76.8535 273.457 65.8135 273.438 65.8135 273.438Z" fill="#EFB7B9"/>
<path d="M63.1743 280.519C62.5156 280.615 61.9133 280.944 61.4765 281.447C60.4374 282.57 60.2287 284.277 60.5859 285.767C61.0253 287.238 61.7313 288.615 62.6687 289.831C63.7472 291.516 65.0786 293.025 66.6162 294.304C67.4739 294.925 68.3643 295.5 69.2834 296.026C70.808 296.963 72.2735 297.994 73.6716 299.111C73.98 299.387 74.3308 299.611 74.7106 299.775C75.0377 299.876 75.3798 299.92 75.7219 299.905C76.882 299.894 78.0255 299.628 79.071 299.125C79.169 299.088 79.2554 299.026 79.3215 298.944C79.3584 298.858 79.3774 298.766 79.3774 298.673C79.3774 298.579 79.3584 298.487 79.3215 298.401C78.6953 295.886 79.8967 293.028 78.7045 290.727C77.4104 291.144 75.9863 291.599 74.6921 292.021C74.493 292.1 74.2797 292.136 74.0659 292.128C73.8083 292.074 73.5726 291.945 73.3886 291.757C71.997 290.541 71.0971 288.848 70.29 287.177C69.4829 285.507 68.6989 283.776 67.4372 282.417C66.1755 281.057 65.0205 280.324 63.1743 280.519Z" fill="#0E153A"/>
<path opacity="0.1" d="M63.1743 280.519C62.5156 280.615 61.9133 280.944 61.4765 281.447C60.4374 282.57 60.2287 284.277 60.5859 285.767C61.0253 287.238 61.7313 288.615 62.6687 289.831C63.7472 291.516 65.0786 293.025 66.6162 294.304C67.4739 294.925 68.3643 295.5 69.2834 296.026C70.808 296.963 72.2735 297.994 73.6716 299.111C73.98 299.387 74.3308 299.611 74.7106 299.775C75.0377 299.876 75.3798 299.92 75.7219 299.905C76.882 299.894 78.0255 299.628 79.071 299.125C79.169 299.088 79.2554 299.026 79.3215 298.944C79.3584 298.858 79.3774 298.766 79.3774 298.673C79.3774 298.579 79.3584 298.487 79.3215 298.401C78.6953 295.886 79.8967 293.028 78.7045 290.727C77.4104 291.144 75.9863 291.599 74.6921 292.021C74.493 292.1 74.2797 292.136 74.0659 292.128C73.8083 292.074 73.5726 291.945 73.3886 291.757C71.997 290.541 71.0971 288.848 70.29 287.177C69.4829 285.507 68.6989 283.776 67.4372 282.417C66.1755 281.057 65.0205 280.324 63.1743 280.519Z" fill="black"/>
<path d="M71.0039 278.408C74.6623 278.408 77.6279 275.441 77.6279 271.782C77.6279 268.122 74.6623 265.156 71.0039 265.156C67.3456 265.156 64.3799 268.122 64.3799 271.782C64.3799 275.441 67.3456 278.408 71.0039 278.408Z" fill="#EFB7B9"/>
<path d="M73.6481 290.856V290.884C73.2631 291.594 72.6925 292.193 72.2982 292.898C71.8902 293.721 71.6132 294.602 71.4772 295.51C71.3519 296.114 71.2406 296.717 71.1386 297.325C71.0365 297.932 70.9345 298.554 70.8417 299.181C68.8424 298.503 66.6251 299.645 64.5516 299.227C63.9442 299.042 63.3241 298.903 62.6962 298.809C62.2323 298.809 61.7684 298.893 61.3046 298.851C60.5392 298.777 59.7784 298.294 59.0455 298.54C58.7208 298.652 58.3173 298.884 58.0807 298.628C58.027 298.561 57.9861 298.484 57.9601 298.401C57.7197 297.896 57.6342 297.331 57.7142 296.777C57.8877 296.335 58.1202 295.918 58.4054 295.538C58.7599 294.791 58.9437 293.975 58.9435 293.149C59.078 291.019 59.0734 288.871 59.4074 286.764C59.7413 284.657 60.4928 282.56 61.9169 280.969C62.5743 280.141 63.5208 279.594 64.5656 279.437C68.3971 279.127 71.4911 281.238 73.1657 284.592C74.1537 286.532 74.6825 288.931 73.6481 290.856Z" fill="#0E153A"/>
<path d="M84.8552 288.783C85.4397 288.286 86.0242 287.794 86.5576 287.247C87.3121 286.449 88.0082 285.597 88.6404 284.699C89.3542 283.804 89.9469 282.818 90.4031 281.767C90.867 280.551 91.02 279.164 91.8503 278.152C91.9423 278.02 92.0715 277.919 92.2214 277.86C92.6853 277.712 93.0425 278.324 93.1492 278.788C93.613 281.178 92.5369 283.567 91.5117 285.748C91.2191 286.497 90.7862 287.184 90.2361 287.771C89.9253 288.059 89.5635 288.286 89.2295 288.541C88.7119 288.958 88.2364 289.424 87.8101 289.933C87.0741 290.775 86.3721 291.641 85.7041 292.532C84.9288 293.676 84.0698 294.762 83.1343 295.78C82.1863 296.799 80.9358 297.487 79.5671 297.742C79.9614 297.687 79.8316 295.39 79.7898 295.102C79.6467 294.67 79.5274 294.23 79.4326 293.784C79.4326 293.279 79.6274 293.204 80.0403 292.856L84.8552 288.783Z" fill="#EFB7B9"/>
<path opacity="0.1" d="M72.9852 291.079V291.107C72.6048 291.817 72.0296 292.411 71.6353 293.121C71.2263 293.943 70.9492 294.825 70.8143 295.733C70.6937 296.336 70.5777 296.939 70.4757 297.547C69.6749 297.092 68.9005 296.592 68.1563 296.049C66.616 294.771 65.2828 293.262 64.2042 291.576C63.2668 290.36 62.5608 288.982 62.1214 287.511C61.7642 286.022 61.973 284.314 63.0167 283.191C63.4544 282.696 64.0552 282.375 64.7098 282.286C66.5653 282.087 67.7249 282.802 68.9866 284.142C70.2484 285.483 71.0323 287.228 71.8394 288.903C72.2012 289.65 72.5677 290.383 72.9852 291.079Z" fill="black"/>
<path d="M65.8229 281.4C65.1659 281.497 64.5654 281.826 64.1298 282.328C63.0861 283.451 62.8774 285.158 63.2392 286.648C63.601 288.137 64.4452 289.432 65.3173 290.712C66.3983 292.397 67.7312 293.905 69.2694 295.185C70.1257 295.805 71.0145 296.378 71.932 296.902C73.4574 297.838 74.923 298.869 76.3202 299.988C76.6272 300.265 76.9784 300.489 77.3593 300.651C77.6877 300.754 78.0313 300.799 78.3752 300.786C79.5352 300.771 80.6781 300.503 81.7243 300.002C81.8228 299.965 81.9095 299.903 81.9748 299.821C82.0115 299.736 82.0305 299.644 82.0305 299.551C82.0305 299.459 82.0115 299.367 81.9748 299.282C81.3532 296.763 82.5546 293.905 81.3625 291.603L77.3454 292.898C77.1469 292.979 76.9332 293.015 76.7192 293.004C76.4634 292.948 76.2287 292.821 76.0419 292.638C74.6503 291.422 73.7504 289.729 72.9433 288.054C72.1361 286.379 71.3569 284.657 70.0905 283.298C68.8241 281.938 67.6691 281.191 65.8229 281.4Z" fill="#0E153A"/>
<path d="M75.2856 267.151C75.9304 266.422 75.7913 265.239 75.23 264.446C74.6055 263.688 73.8107 263.089 72.9106 262.697C71.5422 261.968 69.9697 261.267 68.4993 261.769C67.9356 261.996 67.3951 262.278 66.885 262.608C65.9109 263.151 64.8347 263.495 63.842 264C62.8102 264.454 61.9699 265.256 61.467 266.265C61.0496 267.272 61.1794 268.408 61.2908 269.513C61.5033 271.19 61.5142 272.886 61.3232 274.566C61.1264 276.254 60.4756 277.858 59.4399 279.206C58.6931 280.134 57.7051 280.885 57.2551 281.99C57.0354 282.62 56.9118 283.28 56.8887 283.948L56.6475 286.797C56.5547 287.933 56.4109 289.172 55.5898 289.966C56.4601 289.875 57.3031 289.61 58.0683 289.186C58.8336 288.762 59.5052 288.187 60.043 287.497C60.8826 286.569 61.7546 285.586 62.0051 284.361C62.1953 283.433 62.0376 282.407 62.5942 281.66C63.2483 280.779 64.6445 280.769 65.5723 281.354C66.5 281.938 67.0706 282.941 67.5669 283.92C68.0632 284.899 68.5596 285.924 69.4224 286.616C70.1248 287.151 70.9515 287.499 71.8252 287.627C72.1116 287.712 72.4129 287.735 72.7089 287.694C73.0049 287.654 73.2888 287.55 73.5415 287.39C74.177 286.88 74.1121 285.901 73.908 285.112C73.6343 284.068 73.2122 282.982 73.509 281.938C73.6064 281.595 73.7781 281.27 73.8848 280.927C74.0148 280.427 74.0756 279.912 74.0657 279.396C74.126 276.807 74.2466 274.018 73.407 271.508C73.1379 270.71 72.4143 269.949 72.7854 269.086C73.2539 267.991 74.5852 267.954 75.2856 267.151Z" fill="#464353"/>
<g opacity="0.1">
<path opacity="0.1" d="M61.4626 271.586C61.4974 270.363 61.4463 269.138 61.3096 267.921C61.3096 267.684 61.2585 267.457 61.24 267.202C61.1799 267.958 61.2033 268.719 61.3096 269.471C61.3791 270.171 61.4348 270.877 61.4626 271.586Z" fill="black"/>
<path opacity="0.1" d="M73.5508 285.799C73.2976 285.957 73.0138 286.06 72.718 286.101C72.4221 286.142 72.121 286.119 71.8345 286.035C70.9608 285.907 70.134 285.559 69.4316 285.024C68.5781 284.328 68.0864 283.302 67.5762 282.328C67.0659 281.354 66.5093 280.342 65.5815 279.762C64.6538 279.182 63.2622 279.187 62.6035 280.068C62.0469 280.815 62.2046 281.855 62.0144 282.769C61.7639 283.994 60.8918 284.982 60.0522 285.905C59.6279 286.41 59.147 286.865 58.6189 287.26C57.9594 287.68 57.2331 287.985 56.4712 288.16C56.3656 288.821 56.0615 289.435 55.5991 289.919C56.4693 289.829 57.3124 289.564 58.0776 289.139C58.8428 288.715 59.5145 288.141 60.0522 287.45C60.8918 286.522 61.7639 285.539 62.0144 284.314C62.2046 283.386 62.0469 282.36 62.6035 281.613C63.2576 280.732 64.6538 280.723 65.5815 281.307C66.5093 281.892 67.0798 282.894 67.5762 283.873C68.0725 284.852 68.5688 285.878 69.4316 286.569C70.134 287.104 70.9608 287.452 71.8345 287.58C72.1209 287.666 72.4222 287.688 72.7182 287.648C73.0142 287.607 73.2981 287.503 73.5508 287.344C74.1445 286.88 74.126 285.952 73.9543 285.219C73.8751 285.445 73.7356 285.646 73.5508 285.799Z" fill="black"/>
<path opacity="0.1" d="M75.2856 265.606C74.5852 266.404 73.2539 266.445 72.7947 267.508C72.7154 267.725 72.6846 267.957 72.7047 268.187C72.7247 268.417 72.795 268.64 72.9106 268.84C73.4441 267.981 74.6362 267.912 75.2856 267.151C75.5061 266.869 75.6491 266.534 75.7004 266.18C75.7516 265.826 75.7094 265.465 75.5779 265.132C75.5093 265.306 75.4103 265.466 75.2856 265.606Z" fill="black"/>
<path opacity="0.1" d="M74.0749 277.804C74.0849 278.32 74.024 278.836 73.894 279.335C73.7873 279.679 73.6157 279.999 73.5183 280.347C73.393 280.87 73.393 281.415 73.5183 281.938V281.892C73.6157 281.549 73.7873 281.224 73.894 280.881C74.024 280.381 74.0849 279.866 74.0749 279.349C74.0981 278.319 74.1306 277.261 74.112 276.199C74.1028 276.737 74.0889 277.275 74.0749 277.804Z" fill="black"/>
</g>
<path d="M384.138 311.351C384.138 334.662 398.759 353.528 416.826 353.528L384.138 311.351Z" fill="#46455B"/>
<path d="M416.827 353.533C416.827 329.958 433.145 310.883 453.31 310.883L416.827 353.533Z" fill="#0E153A"/>
<path d="M395.985 313.467C395.985 335.613 405.309 353.533 416.826 353.533L395.985 313.467Z" fill="#0E153A"/>
<path d="M416.827 353.533C416.827 323.411 435.687 299.032 458.992 299.032L416.827 353.533Z" fill="#46455B"/>
<path opacity="0.1" d="M415.412 361.588C419.9 361.588 423.539 360.973 423.539 360.215C423.539 359.456 419.9 358.841 415.412 358.841C410.923 358.841 407.285 359.456 407.285 360.215C407.285 360.973 410.923 361.588 415.412 361.588Z" fill="#0E153A"/>
<path d="M409.952 353.83C409.952 353.83 414.591 353.686 415.982 352.693C417.374 351.7 423.112 350.508 423.46 352.104C423.808 353.7 430.418 360.043 425.19 360.085C419.962 360.126 413.028 359.268 411.636 358.419C410.244 357.57 409.952 353.83 409.952 353.83Z" fill="#A8A8A8"/>
<path opacity="0.2" d="M425.288 359.528C420.055 359.569 413.13 358.711 411.733 357.862C410.671 357.217 410.249 354.892 410.105 353.825H409.952C409.952 353.825 410.244 357.565 411.641 358.414C413.037 359.263 419.962 360.122 425.195 360.08C426.707 360.08 427.227 359.528 427.199 358.734C426.99 359.217 426.415 359.518 425.288 359.528Z" fill="black"/>
</svg>
