<svg width="478" height="390" viewBox="0 0 478 390" fill="none" xmlns="http://www.w3.org/2000/svg">
<g clip-path="url(#clip0)">
<path opacity="0.1" d="M466.377 226.08C466.377 226.376 466.377 226.672 466.377 226.964C466.325 232.073 466.022 237.169 465.468 242.252C465.47 242.283 465.47 242.314 465.468 242.345C465.424 242.767 465.375 243.185 465.327 243.607C465.244 244.321 465.156 245.03 465.059 245.744C463.925 254.434 462.049 263.012 459.452 271.382C455.972 282.694 451.052 293.512 444.814 303.572C442.894 306.648 440.85 309.625 438.681 312.503C437.524 314.028 436.342 315.519 435.121 316.986C434.265 318.012 433.393 319.022 432.505 320.016L431.95 320.628C427.276 325.753 422.238 330.535 416.874 334.936C408.121 342.182 398.696 348.486 389.12 354.333C388.575 354.668 388.026 354.999 387.476 355.305C387.438 355.332 387.397 355.357 387.355 355.377C374.341 363.235 360.845 370.326 346.941 376.003C331.72 382.234 316.002 386.766 299.875 388.747C277.398 391.506 254.647 389.262 232.306 385.406C213.725 382.217 195.369 377.837 177.352 372.293L174.385 371.365C172.848 370.876 171.313 370.378 169.78 369.869C160.517 366.81 151.358 363.41 142.302 359.671C119.56 350.316 97.8331 338.666 77.4612 324.902C74.8675 323.16 72.3111 321.379 69.792 319.56C66.271 317.028 62.7922 314.422 59.3555 311.741L57.2352 310.099C48.2414 303.066 39.815 295.338 32.034 286.987C21.5684 275.612 12.6249 262.781 6.74531 248.134C5.81805 245.832 4.96861 243.486 4.19698 241.097L4.12404 240.859C3.73498 239.644 3.3751 238.43 3.0444 237.168C2.55808 235.361 2.13174 233.532 1.76538 231.68C1.68757 231.325 1.61948 230.971 1.55626 230.611C0.393899 224.379 -0.119474 218.043 0.0243492 211.704C0.145981 206.151 0.797354 200.622 1.96963 195.192C3.16949 189.563 5.0185 184.092 7.47965 178.888C9.7038 174.209 12.5377 169.844 15.9076 165.907C18.2756 163.154 20.9387 160.669 23.8492 158.495C29.1258 154.571 34.9762 151.837 41.0407 149.676C43.8905 148.656 46.7793 147.762 49.6826 146.932C51.7397 146.339 53.8066 145.776 55.8637 145.222L61.933 143.586C65.8236 142.527 69.7141 141.439 73.5464 140.264C83.9925 137.078 94.2296 133.222 103.698 127.471C105.196 126.563 106.723 125.568 108.25 124.499C110.196 123.149 112.112 121.682 114.008 120.099C115.924 118.496 117.802 116.782 119.591 114.966C119.868 114.684 120.141 114.402 120.413 114.116C121.872 112.581 123.287 110.974 124.6 109.303C125.242 108.487 125.865 107.656 126.458 106.811C127.28 105.641 128.058 104.451 128.778 103.227C132.386 97.1079 134.614 90.3573 134.351 83.2423C134.313 82.0701 134.207 80.9009 134.035 79.7407C133.403 75.4523 132.795 71.2659 132.347 67.1718C130.47 50.2368 131.263 34.8803 143.99 20.4513C159.815 2.51584 184.651 -1.14119 207.26 0.29151C272.627 4.41962 332.133 41.6892 384.427 86.0592C388.95 89.8926 393.418 93.7779 397.83 97.715C398.942 98.7058 400.056 99.703 401.171 100.707C409.439 108.142 417.58 115.854 425.161 124.116C425.774 124.786 426.387 125.456 426.99 126.131C427.359 126.549 427.734 126.962 428.099 127.384C430.462 130.055 432.756 132.791 434.98 135.592C440.938 143.027 446.2 150.993 450.698 159.389C457.586 172.566 462.249 186.788 464.5 201.481C465.346 206.817 465.903 212.195 466.168 217.591C466.251 219.179 466.304 220.772 466.333 222.36C466.333 222.87 466.333 223.375 466.333 223.885C466.382 224.623 466.382 225.342 466.377 226.08Z" fill="#0E153A"/>
<path d="M191.601 217.935L183.82 356.246L191.601 356.348L197.923 215.992L191.601 217.935Z" fill="#3F3D56"/>
<path d="M162.908 288.011H66.6162V308.894H162.908V288.011Z" fill="#0E153A"/>
<path d="M169.23 306.462V319.575H69.7627C66.2418 317.043 62.763 314.436 59.3263 311.756V306.462H169.23Z" fill="#3F3D56"/>
<path d="M189.091 276.618C188.819 277.876 188.464 279.119 188.089 280.358C186.986 283.937 185.658 287.468 185.4 291.188C185.055 296.103 186.373 301.819 182.968 305.388C182.093 306.311 180.95 307.001 180.167 307.987C180.047 308.141 179.936 308.304 179.837 308.472C179.136 309.628 179.054 311.037 179.044 312.358C179.052 315.175 179.236 317.989 179.593 320.784C180.746 330.4 183.022 340.036 180.031 349.113C179.489 350.687 178.858 352.229 178.139 353.731C176.68 356.937 175.09 360.098 174.613 363.571C174.263 366.145 174.37 368.796 174.351 371.414C172.814 370.925 171.279 370.427 169.745 369.918C160.483 366.859 151.324 363.459 142.268 359.719C142.293 359.588 142.317 359.452 142.336 359.321C143.032 354.999 142.079 350.579 140.921 346.364C138.49 337.432 135.046 328.588 133.009 319.594C132.188 316.081 131.65 312.508 131.399 308.91C131.341 308.103 131.307 307.292 131.302 306.481C131.277 305.422 131.302 304.364 131.346 303.295C131.448 301.163 131.54 298.633 129.833 297.336C128.894 296.632 127.654 296.511 126.56 296.083C124.45 295.262 123.005 293.359 121.332 291.834C120.534 291.061 119.56 290.493 118.493 290.18C117.426 289.867 116.299 289.818 115.209 290.037C104.277 292.538 96.2429 301.799 86.0691 306.481C85.6751 306.666 85.2812 306.841 84.8824 307.006C83.5664 307.487 82.3139 308.126 81.1524 308.91C80.3362 309.475 79.7443 310.309 79.4794 311.265C79.2217 312.295 79.4454 313.373 79.5718 314.431C79.7765 316.153 79.7026 317.896 79.353 319.594C79.2211 320.252 79.0473 320.901 78.8326 321.537C78.4435 322.688 77.9232 323.814 77.4271 324.936C74.8334 323.194 72.277 321.414 69.7579 319.594C66.2369 317.062 62.7581 314.456 59.3214 311.775L57.2351 310.099C48.2413 303.066 39.815 295.338 32.0339 286.987C33.0698 284.073 34.5677 281.363 35.2874 278.376C35.6959 276.662 35.8467 274.879 36.4108 273.213C37.0614 271.486 37.9662 269.866 39.0953 268.405C43.2307 262.646 48.2804 257.6 54.0448 253.467C60.0703 249.154 67.0296 245.696 72.4521 240.8C74.6526 238.877 76.5496 236.632 78.0788 234.142C78.1712 233.991 78.2587 233.831 78.3366 233.656C78.7598 232.777 79.0531 231.842 79.2071 230.878C79.5961 228.703 79.5378 226.313 79.7323 224.225C86.3379 225.367 93.0721 225.57 99.7347 224.827C107.491 223.958 115.078 221.806 122.835 220.971C123.419 220.903 124.007 220.85 124.595 220.801C127.08 220.602 129.57 220.558 132.065 220.587C134.152 220.587 136.238 220.68 138.324 220.748L161.293 221.525C163.837 221.612 166.434 221.709 168.802 222.637C171.613 223.739 173.865 225.934 175.669 228.348C175.897 228.659 176.126 228.97 176.34 229.29C177.825 231.453 179.015 233.803 179.88 236.279C179.973 236.532 180.06 236.765 180.143 237.041C180.362 237.717 180.551 238.396 180.722 239.086C180.853 239.625 180.97 240.164 181.077 240.708C181.612 243.399 181.928 246.148 182.774 248.746C182.832 248.935 182.896 249.125 182.964 249.309C183.98 252.155 185.668 254.705 186.942 257.439C187.86 259.419 188.562 261.491 189.033 263.622C189.985 267.899 190.005 272.332 189.091 276.618Z" fill="#35323E"/>
<path d="M119.275 102.815C117.223 101.183 114.246 102.378 111.844 103.431C109.83 104.32 107.756 105.068 105.639 105.67C105.205 105.837 104.735 105.886 104.277 105.811C103.304 105.578 102.896 104.427 102.171 103.728C100.912 102.518 98.8496 102.805 97.2253 103.461C95.6009 104.116 93.9961 105.063 92.2551 104.918C90.3973 104.772 88.7827 103.402 86.9055 103.359C83.5985 103.281 80.8216 107.351 77.6946 106.273C75.7882 105.617 74.2904 103.14 72.4132 103.844C70.9542 104.398 70.8229 106.413 69.9426 107.73C68.9068 109.264 66.8886 109.697 65.1621 110.376C59.7202 112.523 56.1165 118.579 56.8266 124.378C57.2205 127.579 58.7719 130.512 59.798 133.567C62.8424 142.449 61.7968 152.469 65.6338 161.036C66.1202 160.579 66.3925 160.409 66.8642 159.958C65.651 162.47 65.417 165.344 66.2077 168.019C66.6114 169.365 67.2679 170.618 67.7639 171.934C68.2792 173.41 68.6951 174.919 69.0089 176.451L73.2399 195.09C74.8934 202.375 76.5517 209.66 76.8387 217.12C77.0173 221.97 76.6453 226.825 75.7299 231.592C83.3943 230.325 90.407 226.93 98.1736 226.974C101.023 226.974 103.849 227.459 106.674 227.848C114.912 228.999 123.222 229.562 131.54 229.533C132.834 229.607 134.129 229.425 135.353 228.999C136.423 228.542 137.298 227.731 138.31 227.144C140.289 225.978 142.687 225.687 144.967 225.687C155.37 225.497 165.393 229.3 175.727 230.641C179.807 222.088 180.051 211.841 176.919 202.9C175.99 200.243 174.74 197.654 174.37 194.862C174.222 193.145 174.183 191.421 174.254 189.699C174.237 185.292 173.442 180.922 171.905 176.791C171.302 175.173 170.577 173.527 170.64 171.803C170.703 170.079 171.555 168.471 172.391 166.946C174.088 163.838 175.795 160.701 178.193 158.078C180.649 155.368 183.722 153.304 186.762 151.279L194.266 146.247C193.24 139.773 191.917 132.955 189.169 127.001C186.421 121.046 182.312 115.573 176.753 112.091C174.879 110.965 172.918 109.991 170.888 109.177C168.048 107.982 165.091 106.928 162.013 106.749C158.511 106.549 155.063 107.487 151.606 108.07C140.722 109.9 127.912 109.677 119.275 102.815Z" fill="#0E153A"/>
<path d="M201.327 215.157L197.758 219.659L191.027 228.144L183.246 237.949L181.072 240.688H176.855L72.4472 240.81L7.06138 240.883H4.14346C3.7544 239.668 3.39452 238.454 3.06382 237.192C2.5775 235.385 2.15116 233.556 1.7848 231.704C1.70699 231.349 1.63891 230.995 1.57568 230.635L25.2984 215.147L34.2176 215.099L61.5002 214.944L76.7366 214.856H79.5183H81.2642L91.4186 214.803L168.812 214.361L172.77 214.336H174.487L179.034 214.312L195.953 214.215L199.202 212.981L199.44 213.234L201.327 215.157Z" fill="#3F3D56"/>
<path d="M199.868 212.729L199.465 213.215L196.809 216.338L191.343 222.782L179.88 236.279L78.3366 233.69L1.76538 231.748C1.68757 231.393 1.61948 231.039 1.55626 230.679C0.393898 224.447 -0.119474 218.111 0.0243492 211.772L8.51551 207.431L10.4608 206.43L25.6 198.66L38.8862 191.86L73.5415 196.358L81.2156 197.353L84.688 197.8L89.77 198.46L90.198 198.519L169.891 208.839L178.699 209.98L183.868 210.651L199.8 212.719L199.868 212.729Z" fill="#504F60"/>
<path d="M183.333 236.041L183.251 237.95L182.764 248.726L180.148 307.977L179.593 320.784L178.135 353.731L177.313 372.342L174.346 371.414C172.809 370.925 171.274 370.427 169.741 369.918L176.855 240.732L177.006 238.023L180.138 237.051L183.333 236.041Z" fill="#3F3D56"/>
<path d="M7.28509 235.899L7.06625 240.887L6.74528 248.172C5.81802 245.87 4.96858 243.524 4.19695 241.135L4.12401 240.897C3.73495 239.683 3.37507 238.469 3.04437 237.206L7.28509 235.899Z" fill="#3F3D56"/>
<path d="M134.458 162.468C146.813 162.468 156.829 148.987 156.829 132.357C156.829 115.727 146.813 102.246 134.458 102.246C122.103 102.246 112.087 115.727 112.087 132.357C112.087 148.987 122.103 162.468 134.458 162.468Z" fill="#A1616A"/>
<path opacity="0.1" d="M134.458 162.468C146.813 162.468 156.829 148.987 156.829 132.357C156.829 115.727 146.813 102.246 134.458 102.246C122.103 102.246 112.087 115.727 112.087 132.357C112.087 148.987 122.103 162.468 134.458 162.468Z" fill="black"/>
<path d="M137.619 145.227C154.809 145.227 168.744 131.311 168.744 114.145C168.744 96.9785 154.809 83.0625 137.619 83.0625C120.43 83.0625 106.495 96.9785 106.495 114.145C106.495 131.311 120.43 145.227 137.619 145.227Z" fill="#A1616A"/>
<path d="M138.237 66.2396C136.337 66.3909 134.45 66.6782 132.591 67.0992C127.669 68.2939 123.414 70.9456 119.27 73.5488C117.412 74.7192 115.501 75.9382 114.349 77.6575C112.277 80.7414 113.079 84.6655 111.917 88.0894C111.314 89.8475 110.205 91.4259 109.267 93.0626C106.684 97.5501 105.332 102.48 104.005 107.36C103.732 108.371 103.654 109.74 104.758 110.129C105.394 110.261 106.055 110.186 106.645 109.915C110.132 108.764 114.563 108.434 117.15 110.77C119.737 113.106 119.518 117.249 122.597 119.026C126.122 121.08 131.628 118.599 134.828 121.022C136.199 122.061 136.695 123.727 137.819 124.98C140.435 127.894 145.468 127.753 149.656 127.166C152.058 126.826 155.005 126.597 156.464 128.283C157.164 129.079 157.364 130.172 158.176 130.891C159.635 132.192 162.305 131.532 163.73 130.196C165.155 128.861 165.835 127.054 167.022 125.553C169.332 122.639 173.393 121.051 175.776 118.171C177.77 115.743 178.373 112.703 178.917 109.769L180.945 98.8954C181.767 94.4856 182.516 89.6678 180.031 85.7826C179.146 84.3838 177.877 83.1794 177.113 81.7321C176.603 80.7608 176.316 79.7361 175.722 78.8182C175.019 77.862 174.178 77.0143 173.228 76.3025L168.428 72.3346C166.786 70.9001 165.031 69.6007 163.18 68.4493C156.328 64.462 146.066 65.5111 138.237 66.2396Z" fill="#464353"/>
<path d="M35.7202 146.306C34.5677 147.53 33.5026 148.851 32.2674 149.997C31.1807 150.962 30.0444 151.87 28.8631 152.716C26.9567 154.141 25.0925 155.616 23.2704 157.141C21.3695 158.642 19.6494 160.358 18.1446 162.255C15.5476 165.737 14.3173 170.069 11.8857 173.668C9.73611 176.859 6.70633 179.379 4.52275 182.546C3.56481 183.877 2.85328 185.369 2.42184 186.951C2.0998 188.481 1.95458 190.044 1.98902 191.608C1.94525 194.172 1.90635 196.766 2.43157 199.277C2.9568 201.788 4.10938 204.255 6.08384 205.901C7.91727 207.431 10.2857 208.135 12.6054 208.718C13.8018 209.014 15.0954 209.291 16.2334 208.82C17.0661 208.4 17.7889 207.791 18.344 207.042L24.2625 200.243C28.2212 195.678 32.3354 191.016 37.7677 188.344C39.4698 187.514 41.2643 186.887 42.9713 186.081C50.2077 182.599 55.3238 175.47 57.308 167.699C57.7943 165.8 58.1056 163.862 58.4217 161.925L59.2776 156.611C59.3434 156.345 59.3434 156.067 59.2776 155.8C59.1436 155.501 58.9279 155.245 58.6551 155.062C54.5326 151.737 50.6728 148.1 47.1099 144.183C46.2637 143.251 45.471 141.974 44.4935 141.192C43.2679 140.22 43.3603 140.293 41.8868 141.192C39.62 142.625 37.5475 144.344 35.7202 146.306Z" fill="#A1616A"/>
<path d="M76.2065 181.662C76.1573 181.549 76.0858 181.447 75.9962 181.363C75.9066 181.278 75.8009 181.213 75.6853 181.17C75.5698 181.127 75.4468 181.108 75.3237 181.114C75.2006 181.12 75.08 181.151 74.9692 181.205C74.8583 181.259 74.7595 181.334 74.6786 181.427C74.5977 181.52 74.5365 181.628 74.4985 181.745C74.4606 181.862 74.4467 181.986 74.4577 182.108C74.4687 182.231 74.5045 182.35 74.5627 182.458L74.0764 182.696L88.5785 212.38L91.1998 211.102L76.6977 181.399L76.2065 181.662Z" fill="#3F3D56"/>
<path opacity="0.04" d="M35.7202 146.306C34.5677 147.53 33.5026 148.851 32.2674 149.997C31.1807 150.962 30.0444 151.87 28.8631 152.716C26.9567 154.141 25.0925 155.616 23.2704 157.141C21.3695 158.642 19.6494 160.358 18.1446 162.255C15.5476 165.737 14.3173 170.069 11.8857 173.668C9.73611 176.859 6.70633 179.379 4.52275 182.546C3.56481 183.877 2.85328 185.369 2.42184 186.951C2.0998 188.481 1.95458 190.044 1.98902 191.608C1.94525 194.172 1.90635 196.766 2.43157 199.277C2.9568 201.788 4.10938 204.255 6.08384 205.901C7.91727 207.431 10.2857 208.135 12.6054 208.718C13.8018 209.014 15.0954 209.291 16.2334 208.82C17.0661 208.4 17.7889 207.791 18.344 207.042L24.2625 200.243C28.2212 195.678 32.3354 191.016 37.7677 188.344C39.4698 187.514 41.2643 186.887 42.9713 186.081C50.2077 182.599 55.3238 175.47 57.308 167.699C57.7943 165.8 58.1056 163.862 58.4217 161.925L59.2776 156.611C59.3434 156.345 59.3434 156.067 59.2776 155.8C59.1436 155.501 58.9279 155.245 58.6551 155.062C54.5326 151.737 50.6728 148.1 47.1099 144.183C46.2637 143.251 45.471 141.974 44.4935 141.192C43.2679 140.22 43.3603 140.293 41.8868 141.192C39.62 142.625 37.5475 144.344 35.7202 146.306Z" fill="black"/>
<path d="M203.375 201.011C203.326 204.109 203.204 207.3 201.916 210.126C201.361 211.35 200.5 212.555 199.212 212.958C198.432 213.138 197.625 213.167 196.834 213.045C187.292 212.208 177.678 212.969 168.389 215.299C170.869 210.345 169.444 204.405 170.13 198.908C170.319 197.407 170.665 195.931 170.796 194.425C171.282 189.083 168.992 183.896 167.941 178.622C167.029 174.056 167.029 169.356 167.941 164.79C168.12 163.615 168.525 162.485 169.133 161.463C169.845 160.469 170.781 159.655 171.866 159.088C175.805 156.849 180.449 156.592 184.875 156.888C187.856 157.087 193.833 156.806 196.318 158.637C199.037 160.642 199.897 167.379 200.632 170.492C201.731 175.266 202.479 180.115 202.869 184.998C203.345 190.321 203.447 195.668 203.375 201.011Z" fill="#A1616A"/>
<path d="M29.1696 211.763L46.6771 223.419L125.461 220.505L73.4248 211.763H29.1696Z" fill="white"/>
<path d="M52.2552 119.152C49.3811 121.682 46.9446 124.664 44.2212 127.359C40.4862 131.06 36.2407 134.207 32.0145 137.34C33.5298 137.763 34.9091 138.571 36.0173 139.687C37.1256 140.802 37.9248 142.185 38.3367 143.702C38.5215 144.416 38.6139 145.159 38.823 145.858C39.3093 147.514 40.3792 148.942 41.527 150.229C46.4583 155.78 53.3592 159.889 56.2674 166.742C56.3623 167.075 56.5681 167.366 56.8509 167.567C57.0876 167.672 57.3504 167.702 57.6047 167.655C60.2357 167.378 62.2491 165.26 63.9269 163.201C67.4284 158.83 70.4679 154.003 72.1944 148.67C73.9208 143.338 74.198 137.442 72.3159 132.158C71.3773 129.525 69.9281 127.107 68.4886 124.713C67.2274 122.618 65.9695 120.526 64.7147 118.438C64.0582 117.335 63.2217 115.096 61.933 114.552C59.1512 113.358 54.04 117.369 52.2552 119.152Z" fill="#0E153A"/>
<path d="M195.496 150.54L199.635 160.253C195.129 158.681 190.314 158.202 185.587 158.857C180.86 159.511 176.356 161.28 172.449 164.017C170.091 165.702 167.927 167.82 166.862 170.51C166.336 170.61 165.793 170.56 165.294 170.364C164.796 170.169 164.363 169.838 164.046 169.408C163.423 168.536 163.062 167.505 163.005 166.436C162.621 162.706 164.036 159.049 165.437 155.562C166.088 153.93 166.759 152.264 167.917 150.938C169.074 149.612 170.611 148.738 172.148 147.912C177.051 145.205 182.185 142.939 187.491 141.142C189.728 140.419 192.072 140.433 193.327 142.522C194.781 145.013 194.358 147.888 195.496 150.54Z" fill="#0E153A"/>
<path d="M29.2717 179.685C30.3075 180.51 31.2169 181.486 32.282 182.273C33.4083 183.054 34.6069 183.726 35.8613 184.279L40.6564 186.581C42.1424 187.352 43.6973 187.983 45.3008 188.465C47.3531 189.014 49.5075 189.067 51.5695 189.577C54.1713 190.219 56.5494 191.554 59.1123 192.326C61.6752 193.098 64.6758 193.225 66.8156 191.617C68.153 190.612 69.1646 188.951 70.8229 188.703C71.8928 188.562 72.9238 189.077 73.877 189.577L86.356 196.129C88.0387 197.013 89.8186 197.994 90.6989 199.679C91.5791 201.364 90.9858 203.924 89.1329 204.361C88.4871 204.435 87.8376 204.472 87.1876 204.473C86.5457 204.55 85.8454 204.929 85.7578 205.575C85.7546 205.976 85.8605 206.371 86.0642 206.716C86.6235 207.999 86.7888 209.533 86.1372 210.777C85.4855 212.02 83.8855 212.792 82.6065 212.233C82.8253 214.113 80.7779 215.429 78.9542 215.929C74.3536 217.187 69.4758 216.415 64.7731 215.619C62.9251 215.308 61.0479 214.987 59.3652 214.162C58.5579 213.768 57.809 213.263 56.992 212.899C54.75 211.903 52.2017 212.034 49.7506 212.078C38.4145 212.277 27.1756 210.179 16.0291 208.091C13.9623 207.702 11.837 207.289 10.0717 206.148C6.66746 203.934 5.40302 199.388 5.96229 195.367C6.52156 191.345 8.56411 187.703 10.5726 184.167L13.1744 179.587C13.5146 178.886 13.9906 178.259 14.575 177.742C18.4024 174.823 25.9939 177.052 29.2717 179.685Z" fill="#A1616A"/>
<path opacity="0.04" d="M29.2717 179.685C30.3075 180.51 31.2169 181.486 32.282 182.273C33.4083 183.054 34.6069 183.726 35.8613 184.279L40.6564 186.581C42.1424 187.352 43.6973 187.983 45.3008 188.465C47.3531 189.014 49.5075 189.067 51.5695 189.577C54.1713 190.219 56.5494 191.554 59.1123 192.326C61.6752 193.098 64.6758 193.225 66.8156 191.617C68.153 190.612 69.1646 188.951 70.8229 188.703C71.8928 188.562 72.9238 189.077 73.877 189.577L86.356 196.129C88.0387 197.013 89.8186 197.994 90.6989 199.679C91.5791 201.364 90.9858 203.924 89.1329 204.361C88.4871 204.435 87.8376 204.472 87.1876 204.473C86.5457 204.55 85.8454 204.929 85.7578 205.575C85.7546 205.976 85.8605 206.371 86.0642 206.716C86.6235 207.999 86.7888 209.533 86.1372 210.777C85.4855 212.02 83.8855 212.792 82.6065 212.233C82.8253 214.113 80.7779 215.429 78.9542 215.929C74.3536 217.187 69.4758 216.415 64.7731 215.619C62.9251 215.308 61.0479 214.987 59.3652 214.162C58.5579 213.768 57.809 213.263 56.992 212.899C54.75 211.903 52.2017 212.034 49.7506 212.078C38.4145 212.277 27.1756 210.179 16.0291 208.091C13.9623 207.702 11.837 207.289 10.0717 206.148C6.66746 203.934 5.40302 199.388 5.96229 195.367C6.52156 191.345 8.56411 187.703 10.5726 184.167L13.1744 179.587C13.5146 178.886 13.9906 178.259 14.575 177.742C18.4024 174.823 25.9939 177.052 29.2717 179.685Z" fill="black"/>
<path d="M177.726 188.077C175.192 189.272 172.284 189.389 169.638 190.307C166.993 191.225 164.746 192.876 162.319 194.221C155.997 197.747 148.702 199.078 141.539 200.345C137.196 201.122 132.785 201.899 128.408 201.715C122.485 201.462 116.795 199.491 111.056 198.004C105.318 196.518 99.1949 195.518 93.5098 197.188C90.5411 198.091 87.8272 199.68 85.5881 201.826C83.349 203.971 81.6477 206.614 80.6223 209.539C79.4308 213.031 79.2655 216.795 79.494 220.476C80.6904 221.355 82.3633 220.136 83.015 218.8C83.6667 217.465 84.0217 215.828 85.2861 215.051C87.4794 215.794 88.0144 218.713 89.8235 220.155C90.9517 221.059 92.4593 221.297 93.894 221.501L101.286 222.55C103.066 222.802 105.133 222.972 106.422 221.719C107.049 221.112 107.394 220.262 107.968 219.611C109.145 218.31 111.11 218.086 112.861 218.261C118.327 218.805 123.453 222.346 128.88 221.505C130.747 221.219 132.484 220.422 134.264 219.796C144.812 216.076 156.532 218.339 167.508 216.207C171.696 215.396 175.727 213.958 179.71 212.443C181.874 211.622 184.063 210.763 185.911 209.374C187.662 208.029 189.042 206.263 189.923 204.241C190.805 202.218 191.157 200.006 190.949 197.81C190.542 194.464 188.87 191.399 186.276 189.243C185.42 188.515 184.296 187.121 183.27 186.664C181.31 185.805 179.389 187.296 177.726 188.077Z" fill="#A1616A"/>
<g opacity="0.1">
<path opacity="0.1" d="M163.516 126.033C162.704 125.315 162.504 124.222 161.804 123.425C160.345 121.74 157.398 121.968 154.995 122.308C150.808 122.896 145.755 123.032 143.158 120.123C142.035 118.87 141.539 117.209 140.167 116.165C136.967 113.736 131.462 116.223 127.936 114.169C124.858 112.377 125.057 108.219 122.49 105.912C119.922 103.606 115.472 103.907 111.985 105.058C111.395 105.328 110.734 105.403 110.098 105.271C108.994 104.883 109.072 103.513 109.344 102.503C110.672 97.6222 112.024 92.6927 114.606 88.2052C115.545 86.5686 116.654 84.9902 117.257 83.2321C118.312 80.153 117.772 76.6708 119.158 73.7568C117.67 74.7282 116.24 75.7869 115.321 77.1565C113.25 80.2404 114.052 84.1645 112.89 87.5885C112.287 89.3465 111.178 90.9249 110.239 92.5616C107.657 97.0491 106.305 101.979 104.977 106.859C104.705 107.87 104.627 109.239 105.731 109.628C106.367 109.76 107.028 109.685 107.618 109.414C111.105 108.263 115.535 107.933 118.123 110.269C120.71 112.605 120.491 116.748 123.569 118.525C127.095 120.579 132.6 118.098 135.8 120.521C137.172 121.56 137.668 123.226 138.791 124.479C141.408 127.393 146.441 127.252 150.628 126.665C153.031 126.325 155.978 126.096 157.437 127.782C158.137 128.578 158.336 129.671 159.149 130.39C160.608 131.691 163.277 131.031 164.702 129.695C165.616 128.745 166.398 127.677 167.027 126.519C165.763 126.903 164.415 126.844 163.516 126.033Z" fill="black"/>
<path opacity="0.1" d="M172.377 120.691C172.063 121.094 171.773 121.514 171.506 121.949C173.373 120.618 175.353 119.375 176.749 117.68C177.111 117.241 177.436 116.773 177.721 116.281C175.781 117.67 173.758 118.948 172.377 120.691Z" fill="black"/>
</g>
<path d="M270.628 216.862L272.087 356.247L278.895 355.276L277.436 216.862H270.628Z" fill="#3F3D56"/>
<path d="M311.479 242.116L312.938 381.501L319.746 380.529L318.287 242.116H311.479Z" fill="#3F3D56"/>
<path d="M438.666 312.527L438.637 309.851V308.258L438.379 283.742L437.976 245.414L437.908 242.106H431.099L431.133 245.292L431.347 265.821L431.44 274.709L431.517 281.906L431.644 294.349L431.722 301.687V302.464L431.824 312.11L431.911 320.613L432.466 320.002C433.357 319.008 434.23 317.997 435.082 316.971L438.666 312.527Z" fill="#3F3D56"/>
<path d="M303.941 264.699L300.05 270.508L303.941 296.971L337.011 306.01H390.506L422.603 307.947L437.893 297.496L435.248 279.546L423.576 264.699H303.941Z" fill="#0E153A"/>
<path d="M300.05 270.508L298.105 286.641C298.105 286.641 287.892 318.273 370.081 316.335C452.269 314.397 438.166 307.943 438.166 307.943L437.679 289.225C437.679 289.225 440.544 298.084 398.774 296.884C357.003 295.684 318.044 291.809 318.044 291.809C318.044 291.809 303.455 294.388 300.05 270.508Z" fill="#3F3D56"/>
<path d="M368.524 125.897C363.836 128.029 360.286 132.162 357.908 136.733C355.53 141.303 354.192 146.319 352.875 151.302C351.484 156.557 350.088 161.827 349.368 167.213C348.084 176.79 349.047 186.858 353.453 195.459C357.859 204.06 366 211 375.532 212.656C379.214 213.302 382.997 213.171 386.718 212.787C393.442 212.076 400.066 210.618 406.467 208.44C413.154 206.182 420.113 202.705 423.09 196.299C424.816 192.584 424.962 188.349 424.879 184.259C424.65 173.114 422.964 162.046 419.865 151.336C418.966 148.228 417.92 145.096 416.014 142.478C414.107 139.86 411.5 137.942 408.84 136.164C397.465 128.515 382.516 119.545 368.524 125.897Z" fill="#FBBEBE"/>
<path opacity="0.05" d="M368.524 125.897C363.836 128.029 360.286 132.162 357.908 136.733C355.53 141.303 354.192 146.319 352.875 151.302C351.484 156.557 350.088 161.827 349.368 167.213C348.084 176.79 349.047 186.858 353.453 195.459C357.859 204.06 366 211 375.532 212.656C379.214 213.302 382.997 213.171 386.718 212.787C393.442 212.076 400.066 210.618 406.467 208.44C413.154 206.182 420.113 202.705 423.09 196.299C424.816 192.584 424.962 188.349 424.879 184.259C424.65 173.114 422.964 162.046 419.865 151.336C418.966 148.228 417.92 145.096 416.014 142.478C414.107 139.86 411.5 137.942 408.84 136.164C397.465 128.515 382.516 119.545 368.524 125.897Z" fill="black"/>
<path d="M363.257 187.028C364.614 188.891 366.255 190.529 368.121 191.885C372.75 195.08 378.693 195.513 384.315 195.687C388.828 195.823 394.003 195.566 396.833 192.05C398.107 190.466 398.681 188.446 399.197 186.479C402.378 174.401 404.638 162.1 405.956 149.681L418.834 149.724C424.407 173.556 423.95 198.329 423.464 222.802L422.759 258.488L414.462 257.609C394.761 255.526 375.031 253.442 355.223 253.083C343.618 252.87 332.008 253.252 320.442 254.229L338.509 200.583C340.853 193.609 343.221 186.542 343.771 179.214C344.563 168.583 341.577 157.359 345.716 147.524C346.047 146.733 346.465 145.912 347.219 145.499C347.972 145.086 348.926 145.188 349.791 145.3C351.425 145.519 356.42 145.3 357.606 146.344C359.357 147.859 358.2 148.088 357.582 150.531C356.478 154.902 355.433 158.947 355.447 163.503C355.462 171.773 358.03 180.506 363.257 187.028Z" fill="#0E153A"/>
<path d="M438.666 312.527C440.835 309.652 442.88 306.675 444.799 303.596C443.826 301.517 442.756 299.487 441.905 297.365C440.602 294.111 439.853 290.663 439.114 287.239C438.861 286.073 438.61 284.908 438.36 283.742C435.637 271.062 433.079 258.201 432.548 245.346C432.5 244.278 432.469 243.209 432.456 242.141C432.456 241.985 432.456 241.835 432.456 241.655C432.456 240.485 432.456 239.314 432.456 238.149C432.514 235.235 432.699 232.296 433.035 229.373C433.098 228.8 433.171 228.226 433.249 227.653C433.249 227.527 433.278 227.406 433.297 227.279L466.367 226.075L469.149 225.973C471.06 225.905 473.083 225.798 474.659 224.715C477.309 222.899 477.621 219.174 477.577 215.973C477.416 207.884 476.498 199.827 474.834 191.909C473.579 185.955 471.79 179.869 467.773 175.294C464.475 171.535 459.7 168.801 457.983 164.124C457.346 162.385 457.185 160.477 456.359 158.816C455.532 157.155 454.165 155.936 452.877 154.654C448.341 150.166 444.578 144.961 441.74 139.249C439.77 135.286 437.635 130.915 435.063 128.176C434.936 128.035 434.81 127.904 434.679 127.777C432.49 125.616 429.986 124.669 427.019 126.141C426.486 126.408 425.978 126.723 425.502 127.083C424.444 127.89 423.478 128.808 422.618 129.822C419.621 133.263 416.992 137.006 414.773 140.992C413.213 143.798 411.874 146.721 410.766 149.734C409.892 152.114 409.169 154.548 408.602 157.019C408.184 158.85 407.853 160.7 407.59 162.555C406.618 169.53 406.618 176.64 406.754 183.701C406.9 190.19 407.187 196.693 407.775 203.157C407.921 204.72 408.083 206.283 408.262 207.843C408.618 210.929 409.059 214.005 409.584 217.071C409.794 218.241 410.007 219.412 410.246 220.577C410.304 220.888 410.367 221.199 410.431 221.505L410.46 221.636C411.102 224.345 411.601 227.087 411.953 229.849C411.992 230.195 412.021 230.54 412.04 230.883C412.122 232.471 412.109 234.061 412.001 235.647C411.89 237.522 411.714 239.392 411.627 241.266C411.627 241.597 411.627 241.922 411.593 242.238C411.569 243.185 411.593 244.132 411.593 245.079C411.692 247.345 411.961 249.6 412.4 251.825C413.22 255.964 414.637 259.962 416.607 263.694C416.792 264.044 416.981 264.389 417.171 264.729C419.637 269.129 422.749 273.165 425.03 277.667C426.997 281.718 428.467 285.992 429.407 290.396C429.731 291.85 430.039 293.307 430.331 294.767C430.783 297.098 431.187 299.449 431.6 301.799C431.639 302.032 431.683 302.285 431.727 302.499C432.276 305.616 432.855 308.72 433.599 311.765C434.032 313.538 434.518 315.286 435.087 317.005L438.666 312.527Z" fill="#464353"/>
<path d="M432.169 274.248C432.169 274.685 432.14 275.122 432.12 275.564C432.034 277.695 431.837 279.82 431.532 281.931C431.129 284.812 430.423 287.643 429.426 290.377C428.765 292.174 427.925 293.9 426.917 295.529C426.023 296.976 424.976 298.322 423.795 299.546C420.877 302.576 416.675 303.543 412.609 304.82C410.739 305.361 408.931 306.098 407.216 307.02C406.91 307.19 406.608 307.375 406.316 307.569L401.229 310.935C399.644 311.979 398.024 313.062 396.935 314.611C396.757 314.875 396.594 315.149 396.449 315.432C395.76 316.858 395.257 318.366 394.951 319.919C392.305 330.924 389.655 341.939 387.841 353.109C387.719 353.848 387.603 354.591 387.476 355.334L387.432 355.567C387.41 355.512 387.384 355.458 387.355 355.407C374.341 363.265 360.845 370.355 346.941 376.033L343.921 350.778C343.607 348.725 343.502 346.646 343.61 344.571C343.897 341.303 345.229 338.204 345.589 334.946C345.93 331.755 345.327 328.535 343.853 325.684C343.279 324.577 342.56 323.489 342.428 322.251C342.297 321.012 343.012 319.88 344.257 319.754C345.229 318.676 345.307 317.204 345.02 315.748C344.868 314.987 344.64 314.243 344.34 313.528C343.513 311.498 342.467 309.288 343.177 307.214C343.365 306.839 343.449 306.419 343.42 306C343.425 305.975 343.425 305.948 343.42 305.923C343.255 305.379 342.608 305.141 342.273 304.679C341.64 303.82 342.273 302.649 342.662 301.658C343.04 300.594 343.26 299.48 343.313 298.351C343.367 297.725 343.406 297.093 343.474 296.472C343.569 295.63 343.72 294.796 343.926 293.975C345.108 289.323 347.949 285.261 351.916 282.553C353.808 281.28 355.914 280.353 357.845 279.153C359.822 277.822 361.71 276.361 363.496 274.782C367.779 271.221 372.232 267.863 376.855 264.709C381.826 261.319 386.976 258.197 392.281 255.356C393.416 254.744 394.551 254.148 395.685 253.568C396.921 252.921 398.164 252.307 399.415 251.728C403.423 249.819 407.97 250.533 412.4 251.805C414.258 252.335 416.091 252.966 417.862 253.539C419.59 254.1 421.253 254.846 422.822 255.764C426.747 258.066 429.99 261.465 431.337 265.758C431.34 265.786 431.34 265.814 431.337 265.841C432.193 268.532 432.247 271.416 432.169 274.248Z" fill="#F86D70"/>
<path opacity="0.1" d="M432.169 274.248C432.169 274.685 432.14 275.122 432.12 275.564C432.034 277.695 431.837 279.82 431.532 281.931C431.129 284.812 430.423 287.643 429.426 290.377C428.765 292.174 427.925 293.9 426.917 295.529C426.023 296.976 424.976 298.322 423.795 299.546C420.877 302.576 416.675 303.543 412.609 304.82C410.739 305.361 408.931 306.098 407.216 307.02C406.91 307.19 406.608 307.375 406.316 307.569L401.229 310.935C399.644 311.979 398.024 313.062 396.935 314.611C396.757 314.875 396.594 315.149 396.449 315.432C395.76 316.858 395.257 318.366 394.951 319.919C392.305 330.924 389.655 341.939 387.841 353.109C387.719 353.848 387.603 354.591 387.476 355.334L387.432 355.567C387.41 355.512 387.384 355.458 387.355 355.407C374.341 363.265 360.845 370.355 346.941 376.033L343.921 350.778C343.607 348.725 343.502 346.646 343.61 344.571C343.897 341.303 345.229 338.204 345.589 334.946C345.93 331.755 345.327 328.535 343.853 325.684C343.279 324.577 342.56 323.489 342.428 322.251C342.297 321.012 343.012 319.88 344.257 319.754C345.229 318.676 345.307 317.204 345.02 315.748C344.868 314.987 344.64 314.243 344.34 313.528C343.513 311.498 342.467 309.288 343.177 307.214C343.365 306.839 343.449 306.419 343.42 306C343.425 305.975 343.425 305.948 343.42 305.923C343.255 305.379 342.608 305.141 342.273 304.679C341.64 303.82 342.273 302.649 342.662 301.658C343.04 300.594 343.26 299.48 343.313 298.351C343.367 297.725 343.406 297.093 343.474 296.472C343.569 295.63 343.72 294.796 343.926 293.975C345.108 289.323 347.949 285.261 351.916 282.553C353.808 281.28 355.914 280.353 357.845 279.153C359.822 277.822 361.71 276.361 363.496 274.782C367.779 271.221 372.232 267.863 376.855 264.709C381.826 261.319 386.976 258.197 392.281 255.356C393.416 254.744 394.551 254.148 395.685 253.568C396.921 252.921 398.164 252.307 399.415 251.728C403.423 249.819 407.97 250.533 412.4 251.805C414.258 252.335 416.091 252.966 417.862 253.539C419.59 254.1 421.253 254.846 422.822 255.764C426.747 258.066 429.99 261.465 431.337 265.758C431.34 265.786 431.34 265.814 431.337 265.841C432.193 268.532 432.247 271.416 432.169 274.248Z" fill="black"/>
<path d="M385.993 193.803C385.944 193.69 385.872 193.589 385.783 193.504C385.693 193.42 385.587 193.354 385.472 193.312C385.356 193.269 385.233 193.25 385.11 193.256C384.987 193.262 384.866 193.293 384.756 193.346C384.645 193.4 384.546 193.476 384.465 193.569C384.384 193.661 384.323 193.77 384.285 193.887C384.247 194.004 384.233 194.127 384.244 194.25C384.255 194.372 384.291 194.491 384.349 194.6L383.863 194.838L398.365 224.521L400.986 223.244L386.484 193.541L385.993 193.803Z" fill="#3F3D56"/>
<path d="M404.123 162.71C421.313 162.71 435.248 148.794 435.248 131.628C435.248 114.462 421.313 100.546 404.123 100.546C386.933 100.546 372.998 114.462 372.998 131.628C372.998 148.794 386.933 162.71 404.123 162.71Z" fill="#FBBEBE"/>
<path d="M445.203 112.387C445.057 109.916 444.689 107.463 444.104 105.058C442.275 97.2051 438.934 89.4734 433.181 83.8349C432.826 82.4563 432.403 81.0963 431.911 79.7602C431.902 79.7271 431.891 79.6946 431.877 79.6631C430.161 74.956 427.68 70.5634 424.534 66.6619C422.71 64.3987 420.347 62.1647 417.439 62.0773C416.622 62.0481 415.756 62.189 415.007 61.815C414.456 61.4594 413.992 60.9847 413.65 60.426C412.21 58.6086 410.3 57.2187 408.126 56.4064C405.953 55.5941 403.598 55.3903 401.317 55.8171L401.015 55.8803C400.845 55.9142 400.675 55.9531 400.529 55.9968C400.383 56.0405 400.121 56.1134 399.916 56.1765C400.14 56.5456 400.359 56.9196 400.573 57.2984C401.15 58.3247 401.685 59.3738 402.178 60.4455C402.586 61.3391 402.964 62.2473 403.311 63.17C398.331 63.7382 394.275 67.269 390.569 70.6298L381.845 78.5363C381.829 78.5496 381.814 78.5643 381.801 78.58L381.548 78.8229C381.485 78.886 381.422 78.9491 381.363 79.0171C381.34 79.0374 381.318 79.0602 381.3 79.0851C381.227 79.1628 381.159 79.2454 381.091 79.3279C380.969 79.4809 380.861 79.6433 380.765 79.8136C380.717 79.8865 380.675 79.9628 380.639 80.0419C380.625 80.0652 380.614 80.0895 380.605 80.1147C380.573 80.181 380.545 80.2491 380.522 80.3187C380.52 80.3283 380.52 80.3382 380.522 80.3478C380.508 80.3876 380.497 80.4282 380.488 80.4692C380.389 80.811 380.418 81.1772 380.571 81.4988L386.324 81.562H387C387.029 82.3293 387.053 83.1015 387.082 83.8689C386.17 84.5512 385.293 85.2807 384.456 86.0543C383.544 86.8977 382.688 87.7997 381.893 88.7546C376.704 95.0148 373.995 103.101 373.723 111.241C373.723 111.493 373.723 111.726 373.723 111.989C373.723 112.732 373.723 113.475 373.723 114.213C373.723 114.699 373.767 115.184 373.806 115.67C373.808 116.303 373.976 116.924 374.292 117.472C374.334 117.533 374.379 117.591 374.428 117.647C374.72 117.963 375.07 118.22 375.459 118.404L375.878 118.608C376.087 118.71 376.286 118.807 376.481 118.919C378.314 119.953 379.398 121.95 381.067 123.232C381.164 123.305 381.261 123.377 381.358 123.44L381.577 123.586L381.713 123.674L381.898 123.78C382.019 123.853 382.144 123.92 382.273 123.98L382.506 124.096H382.545C382.74 124.184 382.934 124.266 383.133 124.339L383.411 124.436L383.493 124.465C383.571 124.49 383.654 124.519 383.736 124.538C383.902 124.587 384.064 124.63 384.223 124.669L384.709 124.776C384.899 124.81 385.093 124.844 385.288 124.868L385.575 124.907L385.867 124.936C386.33 124.978 386.797 125.003 387.267 125.009C388.742 125 390.216 124.898 391.678 124.703L404.089 123.246C406.905 122.921 409.779 122.595 412.556 123.169C414.91 123.654 417.079 124.771 419.364 125.563C419.88 125.743 420.395 125.908 420.916 126.048C421.105 126.102 421.3 126.16 421.494 126.209L421.762 126.277L422.384 126.427C422.608 126.481 422.832 126.534 423.056 126.578C423.372 126.646 423.683 126.704 423.999 126.762C424.213 126.806 424.432 126.84 424.651 126.879H424.694L425.317 126.976H425.468L425.93 127.039C426.153 127.073 426.377 127.102 426.606 127.127C427.102 127.188 427.598 127.242 428.094 127.287C428.896 127.365 429.704 127.423 430.525 127.471L431.333 127.52L432.14 127.559L434.572 127.666H434.679H435.019C436.03 127.736 437.046 127.684 438.044 127.51C438.219 127.476 438.389 127.437 438.559 127.389C438.73 127.34 438.871 127.292 439.046 127.234C440.869 126.534 442.202 124.927 443.126 123.207C443.321 122.843 443.5 122.479 443.666 122.105C443.831 121.731 443.982 121.352 444.118 120.973C444.288 120.488 444.434 120.026 444.561 119.541C444.6 119.41 444.634 119.278 444.663 119.142C444.692 119.006 444.76 118.739 444.799 118.535C444.921 117.977 445.013 117.413 445.081 116.845C445.081 116.666 445.125 116.481 445.144 116.301C445.188 115.816 445.222 115.364 445.241 114.888C445.241 114.529 445.241 114.164 445.241 113.8C445.237 113.407 445.203 112.887 445.203 112.387ZM432.733 83.3929C432.339 83.0238 431.936 82.6693 431.527 82.3342C431.982 82.6207 432.387 82.9781 432.728 83.3929H432.733Z" fill="#464353"/>
<path d="M344.388 129.919C340.726 129.468 337.093 127.865 333.48 128.652C331.219 129.137 329.273 130.541 327.464 131.983C320.732 137.372 315.007 143.908 310.555 151.288C309.8 152.392 309.269 153.633 308.994 154.941C308.76 156.456 309.174 157.995 309.665 159.447C312.991 169.263 320.106 177.461 323.345 187.305C326.749 197.659 325.568 208.975 323.058 219.582C319.947 232.676 314.892 245.232 308.06 256.832C307.132 258.557 305.97 260.146 304.607 261.553C302.837 263.253 300.459 264.467 299.408 266.691C298.922 267.662 298.781 268.77 298.436 269.809C297.463 272.723 295.109 275.219 294.881 278.293C294.711 280.639 295.824 282.859 296.5 285.093C297.64 288.931 297.519 293.033 296.155 296.797C293.689 303.548 287.241 309.687 289.113 316.627C293.29 315.427 297.92 313.868 299.89 309.997C300.585 308.628 300.931 306.996 302.103 305.996C304.442 304.009 308.425 305.806 310.91 303.98C312.787 302.591 312.855 299.745 312.019 297.56C311.182 295.374 309.743 293.451 309.101 291.202C307.982 287.147 309.772 282.859 309.441 278.667C309.286 276.725 308.687 274.865 308.644 272.932C308.561 269.178 310.642 265.647 313.41 263.097C316.177 260.547 319.596 258.857 322.961 257.191L335.683 250.878C340.298 248.595 345.356 245.812 346.868 240.898C347.442 239.057 347.447 237.095 347.476 235.172C347.909 205.784 355.282 176.99 362.611 148.525C363.749 144.115 364.906 139.686 366.598 135.451C368.291 131.216 371.603 127.816 373.29 123.883C363.501 122.736 354.557 131.192 344.388 129.919Z" fill="#464353"/>
<path d="M414.521 314.28C415.644 321.079 416.33 328.024 416.865 334.935C408.111 342.181 398.686 348.485 389.11 354.333C388.566 354.668 388.016 354.998 387.467 355.304L387.423 355.537C387.401 355.482 387.375 355.428 387.345 355.377C386.602 353.774 385.303 352.494 383.688 351.773C380.099 344.245 376.513 336.718 372.93 329.19C370.985 325.125 369.04 321.021 368.067 316.636C368.067 316.543 368.023 316.446 368.009 316.354C367.27 312.954 367.099 309.424 366.608 305.98C366.359 304.008 365.915 302.066 365.281 300.181C364.697 298.506 363.895 296.879 363.185 295.242C362.309 293.222 361.575 291.177 361.541 288.997C361.541 288.302 361.585 287.54 361.244 286.957C360.88 286.455 360.431 286.021 359.916 285.675C359.274 285.106 358.788 284.384 358.502 283.576C358.216 282.768 358.141 281.901 358.282 281.056C355.365 281.207 353.721 284.339 352.549 286.996C351.483 289.594 350.084 292.043 348.386 294.281C347.148 295.879 345.574 297.187 343.775 298.112C343.615 298.19 343.454 298.268 343.289 298.336C339.228 300.123 334.487 299.492 330.085 298.686C326.239 297.981 322.261 297.107 319.168 294.718L318.837 294.455C317.921 293.696 317.104 292.824 316.405 291.862C313.813 288.326 312.665 283.669 312.028 279.235C311.97 278.817 311.912 278.4 311.858 277.982C311.416 274.849 311.294 271.679 311.493 268.521C311.552 267.744 311.634 266.967 311.737 266.195C311.805 265.709 311.878 265.185 311.96 264.68C311.958 264.665 311.958 264.65 311.96 264.636C312.087 263.835 312.223 263.028 312.359 262.208C312.845 259.454 313.332 256.627 314.791 254.257C315.751 252.783 316.962 251.487 318.37 250.43C318.895 250.018 319.435 249.624 319.98 249.245C320.865 248.633 321.774 248.051 322.698 247.502C325.023 246.112 327.464 244.926 329.993 243.956C330.596 243.723 331.209 243.505 331.822 243.296C334.204 242.45 336.767 242.247 339.253 242.708C341.455 243.027 343.681 243.157 345.906 243.097C351.61 242.985 357.339 241.897 363.034 241.193C370.941 240.222 379.437 240.105 386.333 244.107C386.664 244.296 386.985 244.496 387.306 244.704C390.71 246.929 393.453 250.047 395.666 253.529C396.152 254.262 396.575 255.015 396.994 255.777C397.958 257.528 398.829 259.327 399.605 261.168C400.064 262.072 400.312 263.069 400.33 264.082C400.319 264.275 400.293 264.467 400.252 264.655C400.121 265.345 399.858 266.015 399.766 266.715C399.459 269.361 401.711 271.571 402.552 274.092C403.097 275.733 403.039 277.491 403.345 279.22C403.788 281.649 404.979 283.834 406.049 286.02C407.74 289.537 409.186 293.167 410.377 296.884C411.223 299.472 411.948 302.1 412.585 304.751C412.793 305.603 412.989 306.456 413.174 307.311C413.704 309.662 414.136 311.964 414.521 314.28Z" fill="#F86D70"/>
<path d="M466.372 242.359V245.758L465.745 245.749L465.044 245.739L457.224 245.642L437.956 245.389L432.548 245.321L431.148 245.302L423.031 245.2L411.593 245.049L387.325 244.734L345.215 244.19L330.017 243.995L323.919 243.918L318.307 243.845L314.81 243.796L311.498 243.753L286.944 243.437L280.135 243.35L278.652 243.33L277.689 240.848L270.691 222.826L269.412 219.533L270.385 215.647L274.762 218.561L277.456 218.897L321.813 224.404L330.139 225.438L347.792 227.634L365.086 229.78L371.865 230.62L411.982 235.603L423.192 236.997L432.471 238.148L465.463 242.247L466.372 242.359Z" fill="#3F3D56"/>
<path d="M270.385 215.647L279.138 238.473L466.372 242.359V217.59L270.385 215.647Z" fill="#504F60"/>
<path d="M280.111 240.902L281.57 380.287L288.379 379.316L286.92 240.902H280.111Z" fill="#3F3D56"/>
<path d="M465.745 245.744H465.044C463.911 254.434 462.035 263.011 459.437 271.382L457.224 245.642L457.132 244.545L465.312 243.602L465.584 243.573L465.745 245.744Z" fill="#3F3D56"/>
<path d="M439.138 229.246L367.892 230.703L345.764 223.418L405.096 220.019L439.138 229.246Z" fill="white"/>
<path d="M349.767 200.923C349.012 201.212 348.342 201.688 347.822 202.307C347.415 202.977 347.167 203.731 347.097 204.512L345.901 211.636C345.718 212.288 345.751 212.981 345.993 213.613C346.304 214.21 347.209 214.521 347.661 214.026C347.603 215.42 347.724 216.906 348.536 218.042C349.349 219.179 351.051 219.776 352.199 218.984C352.378 219.277 352.62 219.528 352.907 219.718C353.193 219.908 353.517 220.034 353.857 220.087C354.198 220.139 354.545 220.118 354.876 220.023C355.206 219.928 355.513 219.763 355.773 219.538C355.082 219.771 355.034 220.825 355.525 221.359C356.075 221.844 356.776 222.124 357.509 222.151C366.055 223.354 374.768 222.259 382.749 218.979C383.503 218.669 381.519 209.388 381.319 208.436C380.833 206.197 380.59 203.463 378.698 201.957C374.175 198.353 366.141 197.644 360.631 198.072C356.867 198.356 353.185 199.322 349.767 200.923Z" fill="#FBBEBE"/>
<path opacity="0.1" d="M422.258 202C404.668 202.335 386.713 202.622 369.925 197.362C371.528 203.568 371.418 210.092 369.604 216.24L451.85 223.039C455.337 223.326 469.796 224.957 473.195 224.137C476.595 223.316 444.672 212.816 445.961 209.567C449.506 200.616 461.382 195.371 452.828 195.036C442.032 194.609 433.137 201.796 422.258 202Z" fill="black"/>
<path d="M422.744 202.972C405.154 203.307 387.199 203.594 370.411 198.334C372.015 204.54 371.904 211.064 370.09 217.212L452.337 224.011C455.824 224.297 470.282 225.953 473.681 225.108C477.081 224.263 476.283 220.101 477.572 216.852C481.117 207.901 461.869 196.343 453.314 196.008C442.518 195.58 433.623 202.768 422.744 202.972Z" fill="#464353"/>
<path d="M394.776 204.322C395.532 204.611 396.201 205.087 396.721 205.706C397.128 206.377 397.377 207.131 397.451 207.911L398.647 215.036C398.827 215.688 398.795 216.38 398.555 217.012C398.243 217.61 397.334 217.921 396.887 217.425C396.94 218.819 396.823 220.305 396.011 221.442C395.199 222.578 393.497 223.175 392.344 222.384C392.164 222.677 391.923 222.927 391.636 223.117C391.35 223.308 391.025 223.434 390.685 223.486C390.345 223.539 389.998 223.517 389.667 223.422C389.336 223.328 389.03 223.162 388.77 222.937C389.46 223.171 389.514 224.224 389.023 224.759C388.471 225.243 387.768 225.523 387.034 225.55C378.489 226.753 369.778 225.659 361.798 222.379C361.045 222.068 363.024 212.787 363.228 211.835C363.715 209.596 363.958 206.862 365.85 205.356C370.367 201.753 378.406 201.044 383.916 201.471C387.679 201.756 391.359 202.722 394.776 204.322Z" fill="#FBBEBE"/>
<path d="M278.545 188.854C276.931 190.932 275.311 193.055 274.27 195.478C272.281 200.102 272.573 205.337 272.904 210.359C272.996 211.816 273.113 213.302 273.877 214.511C274.537 215.425 275.407 216.166 276.415 216.672C280.627 219.062 285.558 219.776 290.373 220.31C297.745 221.126 305.144 221.623 312.568 221.801C330.961 222.248 349.636 220.747 367.552 224.909C365.334 221.544 365.339 217.09 366.579 213.253C367.819 209.417 370.207 206.075 372.546 202.787C364.347 200.194 355.554 204.244 346.966 203.841C338.149 203.428 329.988 198.339 321.162 198.344C319.265 198.344 317.334 198.582 315.491 198.125C313.648 197.668 311.863 196.279 311.693 194.39C314.047 194.92 316.279 192.909 317.251 190.704C318.224 188.499 318.399 186.008 319.343 183.788C321.692 178.266 328.038 175.707 331.987 171.161C332.61 170.442 333.198 169.592 333.179 168.641C333.086 167.834 332.746 167.076 332.206 166.47C328.923 162.099 323.977 159.67 319.868 156.271C318.438 155.086 315.554 150.618 313.949 150.205C310.973 149.442 308.449 153.736 306.514 155.829C296.742 166.432 287.419 177.441 278.545 188.854Z" fill="#464353"/>
<path opacity="0.07" d="M376.335 187.62C377.567 188.533 378.663 189.617 379.588 190.84C380.049 191.454 380.377 192.157 380.552 192.904C380.727 193.652 380.745 194.427 380.604 195.182C380.454 193.774 380.768 192.356 381.499 191.143C382.231 189.931 383.339 188.99 384.656 188.465L376.335 187.62Z" fill="black"/>
<g opacity="0.1">
<path opacity="0.1" d="M403.306 60.2612C402.734 58.7433 402.075 57.2595 401.331 55.8174C400.851 55.9096 400.377 56.0312 399.911 56.1816C400.746 57.5656 401.498 58.9976 402.163 60.47C402.538 60.3729 402.917 60.3049 403.306 60.2612Z" fill="black"/>
<path opacity="0.1" d="M431.522 79.4111C431.654 79.5182 431.781 79.6399 431.907 79.7518C431.898 79.7202 431.887 79.6893 431.873 79.6593C431.763 79.5782 431.646 79.4955 431.522 79.4111Z" fill="black"/>
<path opacity="0.1" d="M386.314 81.5475C386.567 81.3484 386.8 81.1395 387.073 80.9453L386.995 78.6384L381.801 78.585C380.96 79.3572 380.065 80.4645 380.561 81.4989L386.314 81.5475Z" fill="black"/>
<path opacity="0.1" d="M443.097 120.381C442.173 122.101 440.84 123.713 439.017 124.407C437.611 124.942 436.065 124.893 434.562 124.825C429.436 124.616 424.223 124.388 419.379 122.693C417.113 121.897 414.944 120.784 412.57 120.294C409.793 119.721 406.919 120.046 404.104 120.376L391.693 121.833C388.031 122.261 383.95 122.581 381.028 120.338C379.355 119.055 378.275 117.059 376.442 116.03C375.668 115.593 374.749 115.311 374.248 114.573C373.932 114.025 373.764 113.404 373.762 112.771C373.723 112.261 373.699 111.751 373.679 111.241C373.627 112.723 373.654 114.206 373.762 115.685C373.764 116.318 373.932 116.939 374.248 117.487C374.735 118.22 375.668 118.502 376.442 118.944C378.275 119.973 379.36 121.969 381.028 123.252C383.946 125.495 388.031 125.194 391.693 124.747L404.104 123.29C406.919 122.96 409.793 122.635 412.57 123.208C414.924 123.694 417.093 124.811 419.379 125.607C424.242 127.302 429.436 127.55 434.562 127.739C436.065 127.802 437.611 127.856 439.017 127.321C440.84 126.627 442.173 125.015 443.097 123.295C444.886 119.969 445.387 116.195 445.198 112.392C445.093 115.177 444.376 117.905 443.097 120.381Z" fill="black"/>
</g>
<path opacity="0.1" d="M403.165 63.3838L409.973 69.6974C409.973 69.6974 404.138 67.2691 403.165 63.3838Z" fill="black"/>
</g>
<defs>
<clipPath id="clip0">
<rect width="478" height="390" fill="white"/>
</clipPath>
</defs>
</svg>
