<svg width="153" height="153" viewBox="0 0 153 153" fill="none" xmlns="http://www.w3.org/2000/svg">
<g clip-path="url(#clip0)">
<path d="M153 108.157C153 122.718 150.626 134.536 147.724 134.536C130.02 131.707 112.149 130.05 94.2269 129.577L87.6848 126.464C91.3303 119.99 89.9682 111.851 84.4138 106.917C84.3347 98.1589 88.4234 90.6672 86.7616 86.9477C107.18 86.6941 127.554 84.9662 147.724 81.7773C150.626 81.7773 153 93.5953 153 108.157Z" fill="#E2F3F5"/>
<path d="M39.5697 45.0031L1.76818 31.4969C0.724919 31.1182 0.0302429 30.1271 0.0302429 29.0172C0.0302429 27.9074 0.724919 26.9162 1.76818 26.5376L75.5775 0.158249C76.1749 -0.0527497 76.8266 -0.0527497 77.424 0.158249L151.233 26.5376C152.277 26.9162 152.971 27.9074 152.971 29.0172C152.971 30.1271 152.277 31.1182 151.233 31.4969L134.351 37.5377L127.044 40.1493L113.432 45.0031H39.5697Z" fill="#0E153A"/>
<path d="M5.64516 134.457L5.27585 134.536C5.40336 134.538 5.52964 134.511 5.64516 134.457Z" fill="#F8E8AB"/>
<path d="M5.5924 81.8301C5.48601 81.8182 5.38034 81.8006 5.27585 81.7773C5.38312 81.782 5.48942 81.7997 5.5924 81.8301Z" fill="#F8E8AB"/>
<path d="M5.61877 81.8301C24.6057 84.8221 43.7759 86.5056 62.9938 86.8685C64.7348 90.7199 71.2241 98.8184 71.2241 108.157C71.2241 108.79 71.2241 109.396 71.1977 110.003C67.9397 114.949 67.7158 121.301 70.6174 126.464L64.1017 129.418C44.524 129.761 24.9927 131.444 5.64515 134.457L5.61877 81.8301Z" fill="#E2F3F5"/>
<path d="M65.9219 110C65.9483 109.393 65.9483 108.786 65.9483 108.153C66.2404 100.938 65.2398 93.7284 62.9938 86.8652C67.32 86.9971 71.8309 87.0499 76.5 87.0499C80.0085 87.0499 83.4378 87.0235 86.7616 86.9444C88.8912 93.3794 89.8734 100.139 89.6633 106.914L65.9219 110Z" fill="#5F70B5"/>
<path d="M79.138 134.535L72.1211 151.339C71.7309 152.335 70.7774 152.997 69.7075 153.014C68.6376 153.032 67.6632 152.401 67.2409 151.418L65.3152 146.986L60.8835 148.885C59.9087 149.313 58.7722 149.108 58.0081 148.367C57.244 147.626 57.0042 146.496 57.4014 145.509L64.1017 129.417L65.3416 126.463L79.138 134.535Z" fill="#5F70B5"/>
<path d="M92.9343 126.463L94.2269 129.576L100.875 145.509C101.272 146.496 101.032 147.626 100.268 148.367C99.5037 149.108 98.3672 149.313 97.3924 148.885L92.9607 146.986L91.035 151.418C90.6127 152.401 89.6383 153.032 88.5684 153.014C87.4985 152.997 86.545 152.335 86.1548 151.339L79.1379 134.535L92.9343 126.463Z" fill="#5F70B5"/>
<path d="M39.569 63.3119V34.2947C39.569 29.9157 56.1088 26.3809 76.5 26.3809C96.8912 26.3809 113.431 29.9157 113.431 34.2947V63.3119H39.569Z" fill="#383C50"/>
<path d="M131.897 39.569C130.44 39.569 129.259 38.3879 129.259 36.931V19.6262C129.259 18.1693 130.44 16.9883 131.897 16.9883C133.353 16.9883 134.534 18.1693 134.534 19.6262V36.931C134.534 38.3879 133.353 39.569 131.897 39.569Z" fill="#CBCBED"/>
<path d="M126.621 42.2075V50.1213C126.621 51.5782 127.802 52.7592 129.259 52.7592H134.535C135.991 52.7592 137.172 51.5782 137.172 50.1213V42.2075C137.172 39.2937 134.81 36.9316 131.897 36.9316C128.983 36.9316 126.621 39.2937 126.621 42.2075Z" fill="#CBCBED"/>
<path d="M76.5 71.2241C96.8965 71.2241 113.431 67.6809 113.431 63.3103C113.431 58.9396 96.8965 55.3965 76.5 55.3965C56.1036 55.3965 39.569 58.9396 39.569 63.3103C39.569 67.6809 56.1036 71.2241 76.5 71.2241Z" fill="#0E153A"/>
<path d="M10.5517 108.155C10.5517 122.084 8.38862 133.506 5.64517 134.456C5.52966 134.51 5.40337 134.537 5.27586 134.535C2.37414 134.535 0 122.717 0 108.155C0 93.594 2.37414 81.7761 5.27586 81.7761C5.30486 81.7726 5.3339 81.7823 5.355 81.8025C5.40776 81.8025 5.4869 81.8289 5.59241 81.8289H5.61879C8.36224 82.7521 10.5517 94.1744 10.5517 108.155Z" fill="#9DC9CE"/>
<path d="M94.9655 118.707C94.9655 127.448 87.8793 134.534 79.138 134.534C70.3966 134.534 63.3104 127.448 63.3104 118.707C63.3104 109.965 70.3966 102.879 79.138 102.879C83.0285 102.856 86.7854 104.297 89.6633 106.915C93.0395 109.904 94.9704 114.198 94.9655 118.707Z" fill="#9FABDB"/>
</g>
<defs>
<clipPath id="clip0">
<rect width="153" height="153" fill="white"/>
</clipPath>
</defs>
</svg>
