<svg width="273" height="273" viewBox="0 0 273 273" fill="none" xmlns="http://www.w3.org/2000/svg">
<g filter="url(#filter0_d)">
<circle cx="136.5" cy="131.5" r="131.5" fill="white"/>
<circle cx="136.5" cy="131.5" r="131" stroke="black" stroke-opacity="0.25"/>
</g>
<g clip-path="url(#clip0)">
<path d="M216 173.157C216 187.718 213.626 199.536 210.724 199.536C193.02 196.707 175.149 195.05 157.227 194.577L150.685 191.464C154.33 184.99 152.968 176.851 147.414 171.917C147.335 163.159 151.423 155.667 149.762 151.948C170.18 151.694 190.554 149.966 210.724 146.777C213.626 146.777 216 158.595 216 173.157Z" fill="#E2F3F5"/>
<path d="M102.57 110.003L64.7682 96.4969C63.7249 96.1182 63.0302 95.1271 63.0302 94.0172C63.0302 92.9074 63.7249 91.9162 64.7682 91.5376L138.577 65.1582C139.175 64.9473 139.827 64.9473 140.424 65.1582L214.233 91.5376C215.277 91.9162 215.971 92.9074 215.971 94.0172C215.971 95.1271 215.277 96.1182 214.233 96.4969L197.351 102.538L190.044 105.149L176.432 110.003H102.57Z" fill="#0E153A"/>
<path d="M68.6452 199.457L68.2758 199.536C68.4034 199.538 68.5296 199.511 68.6452 199.457Z" fill="#F8E8AB"/>
<path d="M68.5924 146.83C68.486 146.818 68.3803 146.801 68.2758 146.777C68.3831 146.782 68.4894 146.8 68.5924 146.83Z" fill="#F8E8AB"/>
<path d="M68.6188 146.83C87.6057 149.822 106.776 151.506 125.994 151.869C127.735 155.72 134.224 163.818 134.224 173.157C134.224 173.79 134.224 174.396 134.198 175.003C130.94 179.949 130.716 186.301 133.617 191.464L127.102 194.418C107.524 194.761 87.9927 196.444 68.6452 199.457L68.6188 146.83Z" fill="#E2F3F5"/>
<path d="M128.922 175C128.948 174.393 128.948 173.786 128.948 173.153C129.24 165.938 128.24 158.728 125.994 151.865C130.32 151.997 134.831 152.05 139.5 152.05C143.008 152.05 146.438 152.024 149.762 151.944C151.891 158.379 152.873 165.139 152.663 171.914L128.922 175Z" fill="#5F70B5"/>
<path d="M142.138 199.535L135.121 216.339C134.731 217.335 133.777 217.997 132.707 218.014C131.638 218.032 130.663 217.401 130.241 216.418L128.315 211.986L123.883 213.885C122.909 214.313 121.772 214.108 121.008 213.367C120.244 212.626 120.004 211.496 120.401 210.509L127.102 194.417L128.342 191.463L142.138 199.535Z" fill="#5F70B5"/>
<path d="M155.934 191.463L157.227 194.576L163.875 210.509C164.272 211.496 164.032 212.626 163.268 213.367C162.504 214.108 161.367 214.313 160.392 213.885L155.961 211.986L154.035 216.418C153.613 217.401 152.638 218.032 151.568 218.014C150.498 217.997 149.545 217.335 149.155 216.339L142.138 199.535L155.934 191.463Z" fill="#5F70B5"/>
<path d="M102.569 128.312V99.2947C102.569 94.9157 119.109 91.3809 139.5 91.3809C159.891 91.3809 176.431 94.9157 176.431 99.2947V128.312H102.569Z" fill="#383C50"/>
<path d="M194.897 104.569C193.44 104.569 192.259 103.388 192.259 101.931V84.6262C192.259 83.1693 193.44 81.9883 194.897 81.9883C196.353 81.9883 197.534 83.1693 197.534 84.6262V101.931C197.534 103.388 196.353 104.569 194.897 104.569Z" fill="#CBCBED"/>
<path d="M189.621 107.208V115.121C189.621 116.578 190.802 117.759 192.259 117.759H197.535C198.991 117.759 200.172 116.578 200.172 115.121V107.208C200.172 104.294 197.81 101.932 194.897 101.932C191.983 101.932 189.621 104.294 189.621 107.208Z" fill="#CBCBED"/>
<path d="M139.5 136.224C159.896 136.224 176.431 132.681 176.431 128.31C176.431 123.94 159.896 120.396 139.5 120.396C119.104 120.396 102.569 123.94 102.569 128.31C102.569 132.681 119.104 136.224 139.5 136.224Z" fill="#0E153A"/>
<path d="M73.5517 173.155C73.5517 187.084 71.3886 198.506 68.6452 199.456C68.5297 199.51 68.4034 199.537 68.2759 199.535C65.3741 199.535 63 187.717 63 173.155C63 158.594 65.3741 146.776 68.2759 146.776C68.3049 146.773 68.3339 146.782 68.355 146.802C68.4078 146.802 68.4869 146.829 68.5924 146.829H68.6188C71.3622 147.752 73.5517 159.174 73.5517 173.155Z" fill="#9DC9CE"/>
<path d="M157.966 183.707C157.966 192.448 150.879 199.534 142.138 199.534C133.397 199.534 126.31 192.448 126.31 183.707C126.31 174.965 133.397 167.879 142.138 167.879C146.029 167.856 149.785 169.297 152.663 171.915C156.04 174.904 157.97 179.198 157.966 183.707Z" fill="#9FABDB"/>
</g>
<defs>
<filter id="filter0_d" x="0" y="0" width="273" height="273" filterUnits="userSpaceOnUse" color-interpolation-filters="sRGB">
<feFlood flood-opacity="0" result="BackgroundImageFix"/>
<feColorMatrix in="SourceAlpha" type="matrix" values="0 0 0 0 0 0 0 0 0 0 0 0 0 0 0 0 0 0 127 0"/>
<feOffset dy="5"/>
<feGaussianBlur stdDeviation="2.5"/>
<feColorMatrix type="matrix" values="0 0 0 0 0 0 0 0 0 0 0 0 0 0 0 0 0 0 0.25 0"/>
<feBlend mode="normal" in2="BackgroundImageFix" result="effect1_dropShadow"/>
<feBlend mode="normal" in="SourceGraphic" in2="effect1_dropShadow" result="shape"/>
</filter>
<clipPath id="clip0">
<rect width="153" height="153" fill="white" transform="translate(63 65)"/>
</clipPath>
</defs>
</svg>
