<svg width="30" height="30" viewBox="0 0 30 30" fill="none" xmlns="http://www.w3.org/2000/svg">
<g clip-path="url(#clip0)">
<path d="M24.6425 15C24.0508 15 23.5711 15.4797 23.5711 16.0715V26.7856C23.5711 27.3773 23.0914 27.857 22.4996 27.857H3.21424C2.6225 27.857 2.14281 27.3773 2.14281 26.7856V5.35731C2.14281 4.76556 2.6225 4.28587 3.21424 4.28587H16.0712C16.663 4.28587 17.1427 3.80619 17.1427 3.21444C17.1427 2.62269 16.663 2.14307 16.0712 2.14307H3.21424C1.43906 2.14307 0 3.58213 0 5.35731V26.7856C0 28.5608 1.43906 29.9998 3.21424 29.9998H22.4997C24.2749 29.9998 25.7139 28.5608 25.7139 26.7856V16.0714C25.7139 15.4797 25.2343 15 24.6425 15Z" fill="white"/>
<path d="M28.7992 1.20195C28.0299 0.432545 26.9865 0.000379676 25.8984 0.000505232C24.8098 -0.00263368 23.7653 0.430285 22.9982 1.20264L8.88542 15.3142C8.76834 15.4321 8.68001 15.5755 8.62721 15.7331L6.4844 22.1616C6.29739 22.723 6.60092 23.3297 7.16235 23.5167C7.27127 23.5529 7.38533 23.5715 7.50009 23.5716C7.6151 23.5714 7.72942 23.5529 7.83866 23.517L14.2671 21.3742C14.425 21.3214 14.5685 21.2327 14.6861 21.1149L28.7987 7.00222C30.4005 5.40062 30.4007 2.80374 28.7992 1.20195ZM27.2838 5.48826L13.3554 19.4167L9.19398 20.8063L10.5793 16.6502L24.5131 2.72188C25.2791 1.95736 26.5199 1.95862 27.2844 2.72464C27.6496 3.09057 27.8554 3.58596 27.8569 4.10293C27.8583 4.62267 27.6519 5.12138 27.2838 5.48826Z" fill="white"/>
</g>
<defs>
<clipPath id="clip0">
<rect width="30" height="30" fill="white"/>
</clipPath>
</defs>
</svg>
