<svg width="505" height="348" viewBox="0 0 505 348" fill="none" xmlns="http://www.w3.org/2000/svg">
<path d="M132.099 14.979C129.053 14.983 126.132 16.3814 123.978 18.8674C121.824 21.3534 120.612 24.7241 120.609 28.2398V270.551C120.612 274.067 121.824 277.438 123.978 279.924C126.132 282.41 129.053 283.808 132.099 283.812H137.322C140.368 283.808 143.288 282.41 145.442 279.924C147.596 277.438 148.808 274.067 148.812 270.551V28.2398C148.808 24.7241 147.596 21.3534 145.442 18.8674C143.288 16.3814 140.368 14.983 137.322 14.979H132.099Z" fill="#5F70B5"/>
<path d="M132.099 20.4033C130.299 20.4057 128.573 21.2321 127.3 22.7011C126.027 24.1701 125.311 26.1618 125.309 28.2393V270.551C125.311 272.628 126.027 274.62 127.3 276.089C128.573 277.558 130.299 278.384 132.099 278.387H137.321C139.121 278.384 140.847 277.558 142.12 276.089C143.393 274.62 144.109 272.628 144.111 270.551V28.2393C144.109 26.1618 143.393 24.1701 142.12 22.7011C140.847 21.2321 139.121 20.4057 137.321 20.4033H132.099Z" fill="white"/>
<path d="M217.751 14.979C214.705 14.983 211.784 16.3814 209.63 18.8674C207.476 21.3534 206.265 24.7241 206.261 28.2398V270.551C206.265 274.067 207.476 277.438 209.63 279.924C211.784 282.41 214.705 283.808 217.751 283.812H222.974C226.02 283.808 228.941 282.41 231.095 279.924C233.249 277.438 234.46 274.067 234.464 270.551V28.2398C234.46 24.7241 233.249 21.3534 231.095 18.8674C228.941 16.3814 226.02 14.983 222.974 14.979H217.751Z" fill="#5F70B5"/>
<path d="M217.751 20.4033C215.951 20.4057 214.226 21.2321 212.953 22.7011C211.68 24.1701 210.964 26.1618 210.962 28.2393V270.551C210.964 272.628 211.68 274.62 212.953 276.089C214.226 277.558 215.951 278.384 217.751 278.387H222.974C224.774 278.384 226.5 277.558 227.773 276.089C229.046 274.62 229.762 272.628 229.764 270.551V28.2393C229.762 26.1618 229.046 24.1701 227.773 22.7011C226.5 21.2321 224.774 20.4057 222.974 20.4033H217.751Z" fill="white"/>
<path d="M303.404 14.979C300.358 14.983 297.437 16.3814 295.283 18.8674C293.129 21.3534 291.918 24.7241 291.914 28.2398V270.551C291.918 274.067 293.129 277.438 295.283 279.924C297.437 282.41 300.358 283.808 303.404 283.812H308.627C311.673 283.808 314.594 282.41 316.748 279.924C318.902 277.438 320.113 274.067 320.117 270.551V28.2398C320.113 24.7241 318.902 21.3534 316.748 18.8674C314.594 16.3814 311.673 14.983 308.627 14.979H303.404Z" fill="#5F70B5"/>
<path d="M303.404 20.4033C301.604 20.4057 299.878 21.2321 298.605 22.7011C297.332 24.1701 296.616 26.1618 296.614 28.2393V270.551C296.616 272.628 297.332 274.62 298.605 276.089C299.878 277.558 301.604 278.384 303.404 278.387H308.626C310.427 278.384 312.152 277.558 313.425 276.089C314.698 274.62 315.414 272.628 315.416 270.551V28.2393C315.414 26.1618 314.698 24.1701 313.425 22.7011C312.152 21.2321 310.427 20.4057 308.626 20.4033H303.404Z" fill="white"/>
<path d="M389.056 14.979C386.01 14.983 383.089 16.3814 380.935 18.8674C378.781 21.3534 377.569 24.7241 377.566 28.2398V270.551C377.569 274.067 378.781 277.438 380.935 279.924C383.089 282.41 386.01 283.808 389.056 283.812H394.279C397.325 283.808 400.245 282.41 402.399 279.924C404.553 277.438 405.765 274.067 405.769 270.551V28.2398C405.765 24.7241 404.553 21.3534 402.399 18.8674C400.245 16.3814 397.325 14.983 394.279 14.979H389.056Z" fill="#5F70B5"/>
<path d="M389.056 20.4033C387.256 20.4057 385.53 21.2321 384.258 22.7011C382.985 24.1701 382.269 26.1618 382.267 28.2393V270.551C382.269 272.628 382.985 274.62 384.258 276.089C385.53 277.558 387.256 278.384 389.056 278.387H394.279C396.079 278.384 397.805 277.558 399.077 276.089C400.35 274.62 401.066 272.628 401.068 270.551V28.2393C401.066 26.1618 400.35 24.1701 399.077 22.7011C397.805 21.2321 396.079 20.4057 394.279 20.4033H389.056Z" fill="white"/>
<path d="M474.708 14.979C471.662 14.983 468.741 16.3814 466.587 18.8674C464.433 21.3534 463.222 24.7241 463.218 28.2398V270.551C463.222 274.067 464.433 277.438 466.587 279.924C468.741 282.41 471.662 283.808 474.708 283.812H479.931C482.977 283.808 485.898 282.41 488.052 279.924C490.206 277.438 491.417 274.067 491.421 270.551V28.2398C491.417 24.7241 490.206 21.3534 488.052 18.8674C485.898 16.3814 482.977 14.983 479.931 14.979H474.708Z" fill="#5F70B5"/>
<path d="M474.708 20.4033C472.908 20.4057 471.183 21.2321 469.91 22.7011C468.637 24.1701 467.921 26.1618 467.919 28.2393V270.551C467.921 272.628 468.637 274.62 469.91 276.089C471.183 277.558 472.908 278.384 474.708 278.387H479.931C481.731 278.384 483.457 277.558 484.73 276.089C486.003 274.62 486.719 272.628 486.721 270.551V28.2393C486.719 26.1618 486.003 24.1701 484.73 22.7011C483.457 21.2321 481.731 20.4057 479.931 20.4033H474.708Z" fill="white"/>
<path d="M151.692 93.375H118.773C115.936 93.3714 113.217 92.0693 111.211 89.7545C109.206 87.4396 108.077 84.3011 108.074 81.0274V79.1278C108.077 75.8542 109.206 72.7156 111.211 70.4008C113.217 68.086 115.936 66.7839 118.773 66.7803H151.692C154.528 66.7839 157.248 68.086 159.253 70.4008C161.259 72.7156 162.387 75.8542 162.39 79.1278V81.0274C162.387 84.3011 161.259 87.4397 159.253 89.7545C157.248 92.0693 154.528 93.3714 151.692 93.375Z" fill="#A4A4EB"/>
<path d="M239.434 133.158H206.515C203.678 133.154 200.959 131.852 198.953 129.537C196.947 127.222 195.819 124.084 195.816 120.81V118.911C195.819 115.637 196.947 112.498 198.953 110.184C200.959 107.869 203.678 106.567 206.515 106.563H239.434C242.27 106.567 244.989 107.869 246.995 110.184C249.001 112.498 250.129 115.637 250.132 118.911V120.81C250.129 124.084 249.001 127.222 246.995 129.537C244.989 131.852 242.27 133.154 239.434 133.158Z" fill="#A4A4EB"/>
<path d="M322.997 211.517H290.078C287.241 211.513 284.522 210.211 282.516 207.896C280.51 205.581 279.382 202.443 279.379 199.169V197.269C279.382 193.996 280.51 190.857 282.516 188.542C284.522 186.228 287.241 184.926 290.078 184.922H322.997C325.833 184.925 328.552 186.228 330.558 188.542C332.564 190.857 333.692 193.996 333.695 197.269V199.169C333.692 202.443 332.564 205.581 330.558 207.896C328.552 210.211 325.833 211.513 322.997 211.517Z" fill="#A4A4EB"/>
<path d="M408.649 69.2646H375.73C372.894 69.261 370.175 67.9589 368.169 65.6441C366.163 63.3293 365.035 60.1907 365.032 56.9171V55.0175C365.035 51.7438 366.163 48.6053 368.169 46.2904C370.175 43.9756 372.894 42.6735 375.73 42.6699H408.649C411.486 42.6735 414.205 43.9756 416.211 46.2904C418.217 48.6053 419.345 51.7438 419.348 55.0175V56.9171C419.345 60.1907 418.217 63.3293 416.211 65.6441C414.205 67.959 411.486 69.261 408.649 69.2646Z" fill="#A4A4EB"/>
<path d="M494.301 163.295H461.382C458.546 163.292 455.826 161.99 453.821 159.675C451.815 157.36 450.687 154.222 450.684 150.948V149.048C450.687 145.775 451.815 142.636 453.821 140.321C455.826 138.006 458.546 136.704 461.382 136.701H494.301C497.138 136.704 499.857 138.006 501.863 140.321C503.869 142.636 504.997 145.775 505 149.048V150.948C504.997 154.222 503.869 157.36 501.863 159.675C499.857 161.99 497.138 163.292 494.301 163.295Z" fill="#A4A4EB"/>
<path d="M135.232 347.705C142.732 347.705 148.811 340.689 148.811 332.033C148.811 323.378 142.732 316.361 135.232 316.361C127.733 316.361 121.653 323.378 121.653 332.033C121.653 340.689 127.733 347.705 135.232 347.705Z" fill="#0E153A"/>
<path d="M220.885 347.705C228.384 347.705 234.464 340.689 234.464 332.033C234.464 323.378 228.384 316.361 220.885 316.361C213.385 316.361 207.306 323.378 207.306 332.033C207.306 340.689 213.385 347.705 220.885 347.705Z" fill="#0E153A"/>
<path d="M306.538 347.705C314.037 347.705 320.117 340.689 320.117 332.033C320.117 323.378 314.037 316.361 306.538 316.361C299.038 316.361 292.958 323.378 292.958 332.033C292.958 340.689 299.038 347.705 306.538 347.705Z" fill="#0E153A"/>
<path d="M392.189 347.705C399.689 347.705 405.768 340.689 405.768 332.033C405.768 323.378 399.689 316.361 392.189 316.361C384.69 316.361 378.61 323.378 378.61 332.033C378.61 340.689 384.69 347.705 392.189 347.705Z" fill="#0E153A"/>
<path d="M477.842 347.705C485.341 347.705 491.421 340.689 491.421 332.033C491.421 323.378 485.341 316.361 477.842 316.361C470.342 316.361 464.263 323.378 464.263 332.033C464.263 340.689 470.342 347.705 477.842 347.705Z" fill="#0E153A"/>
<path d="M30.079 0.254883C24.1299 0.254885 18.3145 2.29087 13.368 6.10539C8.42153 9.9199 4.56624 15.3416 2.28964 21.6849C0.0130329 28.0282 -0.582632 35.0082 0.577974 41.7422C1.73858 48.4763 4.60332 54.6618 8.80995 59.5168C13.0166 64.3717 18.3761 67.678 24.2109 69.0175C30.0456 70.357 36.0935 69.6695 41.5897 67.042C47.0859 64.4145 51.7836 59.965 55.0887 54.2562C58.3939 48.5474 60.158 41.8356 60.158 34.9697C60.158 30.4109 59.3799 25.8967 57.8683 21.6849C56.3567 17.4731 54.1411 13.6462 51.348 10.4226C48.5549 7.19904 45.2391 4.64197 41.5897 2.89739C37.9404 1.15281 34.029 0.254878 30.079 0.254883ZM30.079 64.5559C25.0088 64.5559 20.0525 62.8207 15.8368 59.5697C11.6211 56.3188 8.33538 51.698 6.39511 46.2918C4.45484 40.8857 3.94719 34.9369 4.93633 29.1977C5.92547 23.4586 8.36698 18.1868 11.9521 14.0491C15.5373 9.91139 20.1051 7.09357 25.0778 5.95198C30.0506 4.81038 35.2049 5.3963 39.8892 7.63561C44.5734 9.87492 48.5771 13.667 51.3939 18.5325C54.2108 23.3979 55.7142 29.1181 55.7142 34.9697C55.7142 38.855 55.0512 42.7023 53.7629 46.2918C52.4746 49.8814 50.5863 53.143 48.2059 55.8903C45.8254 58.6377 42.9994 60.817 39.8892 62.3038C36.779 63.7906 33.4454 64.5559 30.079 64.5559Z" fill="#E6E6E6"/>
<path d="M28.4176 46.8418C28.2092 46.8419 28.0028 46.7945 27.8103 46.7024C27.6178 46.6103 27.4428 46.4754 27.2955 46.3052L18.7255 36.4143C18.5782 36.2443 18.4613 36.0424 18.3815 35.8202C18.3018 35.598 18.2607 35.3598 18.2607 35.1193C18.2607 34.8788 18.3018 34.6406 18.3815 34.4184C18.4613 34.1962 18.5782 33.9943 18.7255 33.8243C18.8729 33.6542 19.0478 33.5193 19.2403 33.4273C19.4329 33.3352 19.6392 33.2879 19.8476 33.2879C20.056 33.2879 20.2624 33.3352 20.4549 33.4273C20.6474 33.5193 20.8223 33.6542 20.9697 33.8243L28.2316 42.2054L41.1037 21.9472C41.3526 21.5555 41.7262 21.2939 42.1422 21.22C42.5583 21.1462 42.9827 21.2661 43.3222 21.5534C43.6616 21.8407 43.8882 22.2718 43.9522 22.752C44.0162 23.2321 43.9124 23.722 43.6634 24.1137L29.6975 46.0934C29.5621 46.3063 29.3885 46.483 29.1884 46.6113C28.9884 46.7396 28.7667 46.8165 28.5385 46.8368C28.4982 46.8404 28.4576 46.8418 28.4176 46.8418Z" fill="#A4A4EB"/>
</svg>
