<svg width="374" height="382" viewBox="0 0 374 382" fill="none" xmlns="http://www.w3.org/2000/svg">
<g clip-path="url(#clip0)" filter="url(#filter0_d)">
<path d="M159.043 38.1299L16.0298 78.3818L68.912 266.545L211.925 226.293L159.043 38.1299Z" fill="url(#paint0_linear)"/>
<path d="M159.971 39.6144L15.9961 79.2197L35.783 151.256L179.758 111.65L159.971 39.6144Z" fill="url(#paint1_linear)"/>
<path d="M158.423 41.8076L18.4531 80.311L69.1582 264.907L209.128 226.403L158.423 41.8076Z" fill="#EEEEEE"/>
<path d="M158.534 41.5886L18.2422 80.1807L37.5678 150.537L177.86 111.945L158.534 41.5886Z" fill="#A4A4EB"/>
<path d="M110.583 151.802L72.5269 162.271L73.3245 165.175L111.381 154.706L110.583 151.802Z" fill="#BDBDBD"/>
<path d="M113.775 163.424L75.7188 173.893L76.5163 176.797L114.573 166.328L113.775 163.424Z" fill="#F5F5F5"/>
<path d="M173.459 140.757L74.1245 168.083L74.9221 170.986L174.256 143.661L173.459 140.757Z" fill="#69F0AE"/>
<path d="M118.509 80.8897L80.4531 91.3584L81.2507 94.2621L119.307 83.7934L118.509 80.8897Z" fill="white"/>
<path d="M143.503 80.955L82.2256 97.8115L83.0232 100.715L144.301 83.8587L143.503 80.955Z" fill="white"/>
<path opacity="0.2" d="M132.835 92.9194L97.5078 102.637C96.7541 102.845 96.311 103.624 96.5182 104.378L96.6542 104.873C96.8613 105.628 97.6403 106.071 98.394 105.864L133.721 96.1458C134.475 95.9384 134.918 95.1589 134.71 94.4047L134.574 93.9097C134.367 93.1554 133.588 92.7121 132.835 92.9194Z" fill="black"/>
<path d="M59.0379 176.92C62.7795 175.891 64.9789 172.021 63.9504 168.277C62.9219 164.533 59.055 162.332 55.3134 163.361C51.5718 164.39 49.3723 168.26 50.4008 172.004C51.4294 175.749 55.2963 177.95 59.0379 176.92Z" fill="#69F0AE"/>
<path d="M118.303 179.882L80.2466 190.351L81.0442 193.255L119.1 182.786L118.303 179.882Z" fill="#BDBDBD"/>
<path d="M121.49 191.504L83.4341 201.973L84.2317 204.877L122.288 194.408L121.49 191.504Z" fill="#F5F5F5"/>
<path d="M181.173 168.838L81.8394 196.163L82.6369 199.067L181.971 171.742L181.173 168.838Z" fill="#E0E0E0"/>
<path d="M66.7488 205.002C70.4905 203.973 72.6899 200.103 71.6614 196.359C70.6328 192.614 66.7659 190.413 63.0243 191.443C59.2827 192.472 57.0833 196.342 58.1118 200.086C59.1403 203.83 63.0072 206.031 66.7488 205.002Z" fill="#E0E0E0"/>
<path d="M126.012 207.96L87.9561 218.428L88.7536 221.332L126.81 210.863L126.012 207.96Z" fill="#BDBDBD"/>
<path d="M129.205 219.577L91.1484 230.046L91.946 232.95L130.002 222.481L129.205 219.577Z" fill="#F5F5F5"/>
<path d="M188.884 196.915L89.5503 224.24L90.3479 227.144L189.682 199.819L188.884 196.915Z" fill="#E0E0E0"/>
<path d="M74.4642 233.083C78.2058 232.053 80.4052 228.184 79.3767 224.439C78.3482 220.695 74.4812 218.494 70.7396 219.523C66.998 220.552 64.7986 224.422 65.8271 228.167C66.8556 231.911 70.7226 234.112 74.4642 233.083Z" fill="#E0E0E0"/>
<path d="M33.968 112.356C34.9507 115.765 36.8495 118.838 39.4576 121.241C42.0656 123.644 45.2827 125.285 48.7583 125.984C52.2339 126.683 55.8346 126.414 59.1679 125.206C62.5011 123.998 65.4391 121.897 67.6616 119.133C69.8841 116.369 71.3057 113.048 71.7716 109.531C72.2375 106.014 71.7298 102.437 70.3038 99.1887C68.8777 95.9407 66.5881 93.1467 63.6845 91.1114C60.7808 89.076 57.3746 87.8773 53.837 87.646L55.2111 92.445C55.6869 94.1176 55.4819 95.9107 54.6409 97.4326C53.7998 98.9544 52.3911 100.081 50.7225 100.567C49.0511 101.043 47.2593 100.838 45.7386 99.9965C44.2178 99.1548 43.0917 97.7451 42.6063 96.0752L41.2322 91.2762C38.0008 93.6146 35.5691 96.8939 34.269 100.667C32.9689 104.439 32.8638 108.521 33.968 112.356Z" fill="url(#paint2_linear)"/>
<path d="M70.7842 100.109C69.8429 96.6877 67.9811 93.591 65.4018 91.1562C62.8225 88.7214 59.6247 87.042 56.1571 86.3011C52.6895 85.5603 49.0852 85.7864 45.7372 86.9548C42.3891 88.1232 39.426 90.1891 37.1707 92.9271C34.9154 95.6652 33.4546 98.9704 32.9476 102.482C32.4405 105.994 32.9067 109.578 34.2953 112.843C35.6839 116.108 37.9416 118.929 40.8222 120.998C43.7028 123.066 47.0958 124.304 50.6311 124.576L49.3075 119.763C48.8517 118.086 49.0775 116.296 49.9357 114.785C50.7938 113.273 52.2145 112.163 53.8877 111.696C55.5639 111.24 57.3523 111.466 58.8626 112.325C60.3729 113.183 61.4824 114.605 61.9489 116.28L63.2726 121.092C66.5295 118.793 68.9985 115.544 70.3427 111.789C71.687 108.034 71.8411 103.955 70.7842 100.109Z" fill="#A4A4EB"/>
<path d="M53.3771 109.873C57.3406 108.783 59.6705 104.683 58.581 100.717C57.4915 96.7505 53.3951 94.4189 49.4316 95.5092C45.468 96.5995 43.1381 100.699 44.2276 104.665C45.3171 108.632 49.4135 110.963 53.3771 109.873Z" fill="white" stroke="white" stroke-miterlimit="10"/>
<path d="M53.8785 111.696C52.2053 112.163 50.7846 113.273 49.9265 114.785C49.0684 116.296 48.8426 118.086 49.2983 119.763L50.622 124.576C55.1128 124.918 59.5827 123.688 63.268 121.097L61.9444 116.284C61.4788 114.608 60.369 113.184 58.8576 112.325C57.3461 111.465 55.556 111.239 53.8785 111.696Z" fill="white" stroke="white" stroke-miterlimit="10"/>
<path d="M44.0632 104.271C43.182 103.316 42.5744 102.141 42.3044 100.87C42.0408 99.588 42.2891 98.2537 42.996 97.1526C43.7975 95.9746 45.1258 95.2688 46.4678 94.7829C47.8098 94.297 49.2159 93.9808 50.4892 93.3437C51.5419 92.8111 52.4784 92.0745 53.2442 91.1767C54.0101 90.2789 54.59 89.2378 54.9504 88.1138C55.3738 89.1276 55.6558 90.1949 55.7886 91.2856C55.8521 91.8315 55.8036 92.3846 55.6461 92.9111C55.4886 93.4376 55.2254 93.9263 54.8725 94.3475C55.8252 93.5407 56.0313 94.76 55.9901 95.5346C56.7092 96.0388 58.0512 95.7867 58.3535 96.6118C58.6946 97.4235 58.836 98.3054 58.7657 99.1832C58.6512 100.054 59.3795 101.328 58.555 101.622" fill="white"/>
<path d="M44.0632 104.271C43.182 103.316 42.5744 102.141 42.3044 100.87C42.0408 99.588 42.2891 98.2537 42.996 97.1526C43.7975 95.9746 45.1258 95.2688 46.4678 94.7829C47.8098 94.297 49.2159 93.9808 50.4892 93.3437C51.5419 92.8111 52.4784 92.0745 53.2442 91.1767C54.0101 90.2789 54.59 89.2378 54.9504 88.1138C55.3738 89.1276 55.6558 90.1949 55.7886 91.2856C55.8521 91.8315 55.8036 92.3846 55.6461 92.9111C55.4886 93.4376 55.2254 93.9263 54.8725 94.3475C55.8252 93.5407 56.0313 94.76 55.9901 95.5346C56.7092 96.0388 58.0512 95.7867 58.3535 96.6118C58.6946 97.4235 58.836 98.3054 58.7657 99.1832C58.6512 100.054 59.3795 101.328 58.555 101.622" stroke="white" stroke-miterlimit="10"/>
<path d="M55.2114 94.063C55.2114 94.063 60.3413 93.1234 58.8161 101.543L55.2114 94.063Z" fill="white"/>
<path d="M308.114 343.383H259.824V146.99H350L308.114 343.383Z" fill="url(#paint3_linear)"/>
<path d="M305.709 343.383H258.372V146.99H346.766L305.709 343.383Z" fill="#A3A1A1"/>
<path d="M316.998 85.928L168.855 101.641L189.498 296.552L337.641 280.84L316.998 85.928Z" fill="url(#paint4_linear)"/>
<path d="M317.15 85.7272L168.666 101.476L176.534 175.768L325.018 160.019L317.15 85.7272Z" fill="url(#paint5_linear)"/>
<path d="M315.264 87.6366L170.911 102.947L191.074 293.324L335.427 278.013L315.264 87.6366Z" fill="#F5F5F5"/>
<path d="M315.41 87.4392L170.725 102.785L178.409 175.345L323.095 159.999L315.41 87.4392Z" fill="#A4A4EB"/>
<path d="M250.261 188.428L211.013 192.59L211.33 195.585L250.578 191.422L250.261 188.428Z" fill="#BDBDBD"/>
<path d="M251.53 200.41L212.282 204.573L212.599 207.568L251.847 203.405L251.53 200.41Z" fill="#F5F5F5"/>
<path d="M314.09 187.716L211.646 198.582L211.963 201.577L314.408 190.711L314.09 187.716Z" fill="#69F0AE"/>
<path d="M269.557 119.736L230.309 123.898L230.626 126.893L269.874 122.73L269.557 119.736Z" fill="white"/>
<path d="M294.208 123.854L231.011 130.557L231.328 133.552L294.525 126.849L294.208 123.854Z" fill="white"/>
<path opacity="0.2" d="M281.741 133.923L245.308 137.787C244.531 137.87 243.967 138.567 244.05 139.345L244.104 139.855C244.186 140.633 244.883 141.197 245.66 141.115L282.093 137.25C282.871 137.168 283.434 136.471 283.352 135.693L283.298 135.182C283.215 134.404 282.518 133.841 281.741 133.923Z" fill="black"/>
<path d="M195.326 204.859C199.185 204.45 201.981 200.987 201.572 197.126C201.163 193.264 197.704 190.465 193.845 190.875C189.986 191.284 187.189 194.746 187.598 198.608C188.007 202.469 191.467 205.268 195.326 204.859Z" fill="#69F0AE"/>
<path d="M253.33 217.383L214.082 221.546L214.399 224.541L253.647 220.378L253.33 217.383Z" fill="#BDBDBD"/>
<path d="M254.599 229.366L215.351 233.529L215.668 236.523L254.916 232.361L254.599 229.366Z" fill="#F5F5F5"/>
<path d="M317.16 216.672L214.715 227.538L215.032 230.533L317.477 219.667L317.16 216.672Z" fill="#E0E0E0"/>
<path d="M198.395 233.814C202.254 233.405 205.051 229.943 204.642 226.081C204.233 222.22 200.773 219.421 196.914 219.83C193.055 220.24 190.259 223.702 190.668 227.563C191.077 231.425 194.536 234.224 198.395 233.814Z" fill="#E0E0E0"/>
<path d="M256.395 246.339L217.147 250.502L217.464 253.497L256.712 249.334L256.395 246.339Z" fill="#BDBDBD"/>
<path d="M257.664 258.322L218.416 262.484L218.733 265.479L257.981 261.316L257.664 258.322Z" fill="#F5F5F5"/>
<path d="M320.225 245.628L217.78 256.494L218.097 259.488L320.542 248.623L320.225 245.628Z" fill="#E0E0E0"/>
<path d="M201.46 262.77C205.319 262.361 208.116 258.899 207.707 255.037C207.298 251.176 203.838 248.377 199.979 248.786C196.12 249.196 193.324 252.658 193.733 256.519C194.142 260.381 197.601 263.18 201.46 262.77Z" fill="#E0E0E0"/>
<path d="M181.026 137.094C181.44 140.618 182.813 143.961 184.995 146.759C187.177 149.556 190.085 151.7 193.402 152.957C196.718 154.213 200.316 154.534 203.802 153.885C207.289 153.236 210.53 151.641 213.173 149.274C215.815 146.908 217.758 143.861 218.788 140.465C219.819 137.069 219.898 133.456 219.017 130.018C218.136 126.581 216.329 123.451 213.792 120.971C211.256 118.491 208.087 116.756 204.633 115.954L205.219 120.914C205.412 122.635 204.918 124.364 203.845 125.724C202.773 127.084 201.207 127.966 199.489 128.179C197.763 128.378 196.028 127.885 194.663 126.808C193.298 125.731 192.415 124.157 192.206 122.431L191.62 117.471C188.051 119.253 185.118 122.093 183.221 125.605C181.325 129.117 180.559 133.129 181.026 137.094Z" fill="url(#paint6_linear)"/>
<path d="M219.335 130.984C218.96 127.456 217.624 124.099 215.474 121.278C213.323 118.457 210.44 116.282 207.139 114.988C203.838 113.694 200.245 113.332 196.752 113.942C193.26 114.551 190.001 116.108 187.332 118.443C184.663 120.779 182.686 123.802 181.616 127.185C180.546 130.567 180.424 134.179 181.264 137.625C182.105 141.072 183.874 144.222 186.38 146.732C188.886 149.241 192.033 151.014 195.476 151.858L194.95 146.894C194.771 145.163 195.284 143.433 196.377 142.08C197.469 140.728 199.052 139.863 200.78 139.674C202.509 139.496 204.238 140.009 205.59 141.103C206.942 142.196 207.806 143.78 207.994 145.509L208.521 150.473C212.108 148.733 215.071 145.927 217.007 142.439C218.942 138.952 219.755 134.951 219.335 130.984Z" fill="#A4A4EB"/>
<path d="M200.594 137.779C204.682 137.346 207.645 133.678 207.211 129.587C206.778 125.497 203.113 122.532 199.025 122.965C194.938 123.399 191.975 127.067 192.408 131.157C192.842 135.248 196.507 138.213 200.594 137.779Z" fill="white" stroke="white" stroke-miterlimit="10"/>
<path d="M200.78 139.674C199.053 139.863 197.47 140.728 196.377 142.08C195.284 143.433 194.771 145.163 194.95 146.893L195.477 151.858C199.853 152.925 204.463 152.439 208.521 150.482L207.994 145.518C207.808 143.788 206.945 142.201 205.593 141.106C204.241 140.011 202.511 139.496 200.78 139.674Z" fill="white" stroke="white" stroke-miterlimit="10"/>
<path d="M192.298 130.755C191.582 129.669 191.172 128.41 191.111 127.111C191.059 125.805 191.52 124.53 192.394 123.559C193.374 122.523 194.803 122.042 196.205 121.78C197.606 121.519 199.031 121.455 200.405 120.996C201.53 120.642 202.573 120.067 203.474 119.305C204.375 118.543 205.116 117.61 205.654 116.56C205.908 117.628 206.014 118.726 205.97 119.823C205.944 120.372 205.806 120.911 205.565 121.405C205.324 121.899 204.985 122.339 204.568 122.697C205.635 122.055 205.645 123.288 205.484 124.049C206.112 124.663 207.477 124.631 207.641 125.498C207.85 126.353 207.85 127.246 207.641 128.101C207.385 128.94 207.903 130.32 207.037 130.471" fill="white"/>
<path d="M192.298 130.755C191.582 129.669 191.172 128.41 191.111 127.111C191.059 125.805 191.52 124.53 192.394 123.559C193.374 122.523 194.803 122.042 196.205 121.78C197.606 121.519 199.031 121.455 200.405 120.996C201.53 120.642 202.573 120.067 203.474 119.305C204.375 118.543 205.116 117.61 205.654 116.56C205.908 117.628 206.014 118.726 205.97 119.823C205.944 120.372 205.806 120.911 205.565 121.405C205.324 121.899 204.985 122.339 204.568 122.697C205.635 122.055 205.645 123.288 205.484 124.049C206.112 124.663 207.477 124.631 207.641 125.498C207.85 126.353 207.85 127.246 207.641 128.101C207.385 128.94 207.903 130.32 207.037 130.471" stroke="white" stroke-miterlimit="10"/>
<path d="M204.953 122.49C204.953 122.49 210.165 122.394 207.303 130.457L204.953 122.49Z" fill="white"/>
<path d="M265.875 16.1836H116.903V212.187H265.875V16.1836Z" fill="url(#paint7_linear)"/>
<path d="M266.044 16H116.729V90.7079H266.044V16Z" fill="url(#paint8_linear)"/>
<path d="M263.97 17.7007H118.808V209.144H263.97V17.7007Z" fill="#F5F5F5"/>
<path d="M264.139 17.522H118.643V90.4881H264.139V17.522Z" fill="#A4A4EB"/>
<path d="M188.712 111.073H149.244V114.084H188.712V111.073Z" fill="#BDBDBD"/>
<path d="M188.712 123.123H149.244V126.134H188.712V123.123Z" fill="#F5F5F5"/>
<path d="M252.262 117.1H149.244V120.112H252.262V117.1Z" fill="#0E153A"/>
<path d="M215.135 44.8032H175.667V47.8146H215.135V44.8032Z" fill="white"/>
<path d="M239.218 51.4951H175.667V54.5065H239.218V51.4951Z" fill="white"/>
<path opacity="0.2" d="M225.761 60.1992H189.124C188.342 60.1992 187.708 60.8333 187.708 61.6155V62.1289C187.708 62.9111 188.342 63.5452 189.124 63.5452H225.761C226.543 63.5452 227.176 62.9111 227.176 62.1289V61.6155C227.176 60.8333 226.543 60.1992 225.761 60.1992Z" fill="black"/>
<path d="M132.356 121.62C136.237 121.62 139.382 118.472 139.382 114.588C139.382 110.705 136.237 107.557 132.356 107.557C128.476 107.557 125.33 110.705 125.33 114.588C125.33 118.472 128.476 121.62 132.356 121.62Z" fill="#0E153A"/>
<path d="M188.712 140.192H149.244V143.204H188.712V140.192Z" fill="#BDBDBD"/>
<path d="M188.712 152.243H149.244V155.254H188.712V152.243Z" fill="#F5F5F5"/>
<path d="M252.262 146.22H149.244V149.231H252.262V146.22Z" fill="#E0E0E0"/>
<path d="M132.356 150.739C136.237 150.739 139.382 147.591 139.382 143.708C139.382 139.825 136.237 136.677 132.356 136.677C128.476 136.677 125.33 139.825 125.33 143.708C125.33 147.591 128.476 150.739 132.356 150.739Z" fill="#E0E0E0"/>
<path d="M188.712 169.316H149.244V172.328H188.712V169.316Z" fill="#BDBDBD"/>
<path d="M188.712 181.362H149.244V184.374H188.712V181.362Z" fill="#F5F5F5"/>
<path d="M252.262 175.339H149.244V178.351H252.262V175.339Z" fill="#E0E0E0"/>
<path d="M132.356 179.859C136.237 179.859 139.382 176.711 139.382 172.828C139.382 168.944 136.237 165.796 132.356 165.796C128.476 165.796 125.33 168.944 125.33 172.828C125.33 176.711 128.476 179.859 132.356 179.859Z" fill="#E0E0E0"/>
<path d="M125.289 52.7282C125.333 56.2756 126.35 59.7428 128.228 62.7517C130.106 65.7607 132.774 68.196 135.94 69.7922C139.106 71.3884 142.649 72.0842 146.183 71.8039C149.717 71.5235 153.106 70.2777 155.981 68.2023C158.857 66.1269 161.107 63.3015 162.488 60.034C163.869 56.7665 164.327 53.1824 163.813 49.6723C163.298 46.1621 161.831 42.8607 159.57 40.1278C157.31 37.3949 154.343 35.3354 150.993 34.1738L151.053 39.1654C151.073 40.9103 150.401 42.592 149.183 43.8409C147.965 45.0898 146.302 45.8036 144.558 45.8253C142.821 45.8413 141.147 45.1686 139.904 43.9543C138.661 42.74 137.948 41.0826 137.921 39.3441L137.862 34.3526C134.133 35.7513 130.926 38.2657 128.676 41.5537C126.426 44.8417 125.244 48.7436 125.289 52.7282Z" fill="url(#paint9_linear)"/>
<path d="M164.015 50.6886C164.013 47.1408 163.038 43.6615 161.197 40.63C159.355 37.5984 156.717 35.131 153.57 33.4966C150.424 31.8623 146.889 31.1237 143.352 31.3614C139.815 31.5992 136.41 32.8041 133.51 34.8448C130.61 36.8855 128.326 39.6838 126.906 42.9345C125.486 46.1853 124.984 49.7637 125.457 53.2799C125.929 56.7961 127.357 60.115 129.585 62.8749C131.813 65.6348 134.755 67.7297 138.091 68.9313V63.9352C138.095 62.1959 138.788 60.5292 140.017 59.2993C141.246 58.0694 142.911 57.3764 144.649 57.3715C146.387 57.3764 148.053 58.0694 149.282 59.2993C150.511 60.5292 151.204 62.1959 151.208 63.9352V68.9267C154.959 67.5744 158.201 65.0974 160.492 61.8335C162.784 58.5696 164.014 54.6778 164.015 50.6886Z" fill="#A4A4EB"/>
<path d="M144.659 55.4738C148.769 55.4738 152.102 52.1391 152.102 48.0255C152.102 43.9119 148.769 40.5771 144.659 40.5771C140.548 40.5771 137.216 43.9119 137.216 48.0255C137.216 52.1391 140.548 55.4738 144.659 55.4738Z" fill="white" stroke="white" stroke-miterlimit="10"/>
<path d="M144.645 57.3716C142.907 57.3764 141.242 58.0695 140.013 59.2994C138.784 60.5293 138.091 62.196 138.086 63.9353V68.9268C142.327 70.4479 146.964 70.4479 151.204 68.9268V63.9353C151.199 62.196 150.507 60.5293 149.278 59.2994C148.049 58.0695 146.383 57.3764 144.645 57.3716Z" fill="white" stroke="white" stroke-miterlimit="10"/>
<path d="M137.152 47.6085C136.555 46.4529 136.281 45.1575 136.359 43.8592C136.444 42.5535 137.036 41.3328 138.008 40.4581C139.094 39.5414 140.564 39.2068 141.984 39.0831C143.404 38.9593 144.842 39.0372 146.243 38.7622C147.399 38.5276 148.496 38.0656 149.472 37.4031C150.448 36.7406 151.282 35.8907 151.927 34.9028C152.067 35.9916 152.056 37.0943 151.895 38.1801C151.812 38.7233 151.619 39.2437 151.327 39.7095C151.036 40.1753 150.652 40.5766 150.201 40.889C151.332 40.3665 151.208 41.5903 150.965 42.3282C151.524 43.0066 152.889 43.1166 152.958 43.9967C153.072 44.8702 152.974 45.7584 152.674 46.5864C152.33 47.3931 152.697 48.8186 151.822 48.8782" fill="white"/>
<path d="M137.152 47.6085C136.555 46.4529 136.281 45.1575 136.359 43.8592C136.444 42.5535 137.036 41.3328 138.008 40.4581C139.094 39.5414 140.564 39.2068 141.984 39.0831C143.404 38.9593 144.842 39.0372 146.243 38.7622C147.399 38.5276 148.496 38.0656 149.472 37.4031C150.448 36.7406 151.282 35.8907 151.927 34.9028C152.067 35.9916 152.056 37.0943 151.895 38.1801C151.812 38.7233 151.619 39.2437 151.327 39.7095C151.036 40.1753 150.652 40.5766 150.201 40.889C151.332 40.3665 151.208 41.5903 150.965 42.3282C151.524 43.0066 152.889 43.1166 152.958 43.9967C153.072 44.8702 152.974 45.7584 152.674 46.5864C152.33 47.3931 152.697 48.8186 151.822 48.8782" stroke="white" stroke-miterlimit="10"/>
<path d="M150.604 40.7285C150.604 40.7285 155.798 41.1869 152.102 48.8965L150.604 40.7285Z" fill="white"/>
<path d="M103.295 155.68L70.6971 132.84H25.5635V155.68V166.869V358H307.642V155.68H103.295Z" fill="url(#paint10_linear)"/>
<path d="M27.9771 157.99V168.853V354.383H305.709V157.99H104.513" fill="white"/>
<path d="M104.513 157.991L72.4145 135.82H27.9771V157.991" fill="#A3A1A1"/>
<path d="M243.335 186.973H90.3555V325.397H243.335V186.973Z" fill="url(#paint11_linear)"/>
<path d="M241.943 187.981H92.4351V322.881H241.943V187.981Z" fill="white"/>
<path d="M197.62 288.948H138.837V293.766H197.62V288.948Z" fill="#BDBDBD"/>
<path d="M231.413 298.587H102.965V303.405H231.413V298.587Z" fill="#E0E0E0"/>
<path d="M231.413 308.227H102.965V313.044H231.413V308.227Z" fill="#E0E0E0"/>
<path d="M130.611 239.56C130.695 246.259 132.615 252.805 136.161 258.487C139.706 264.169 144.743 268.768 150.721 271.782C156.699 274.797 163.389 276.112 170.062 275.583C176.735 275.055 183.135 272.704 188.565 268.786C193.994 264.868 198.245 259.534 200.854 253.365C203.463 247.195 204.33 240.428 203.36 233.8C202.39 227.172 199.621 220.937 195.354 215.775C191.087 210.614 185.486 206.723 179.162 204.528L179.276 213.956C179.307 217.239 178.038 220.401 175.747 222.751C173.455 225.101 170.328 226.447 167.047 226.497C163.766 226.528 160.607 225.258 158.259 222.965C155.911 220.672 154.565 217.542 154.516 214.259L154.401 204.83C147.346 207.465 141.275 212.214 137.018 218.43C132.76 224.646 130.523 232.025 130.611 239.56Z" fill="url(#paint12_linear)"/>
<path d="M203.758 235.714C203.757 229.014 201.917 222.443 198.44 216.717C194.963 210.991 189.982 206.33 184.04 203.242C178.098 200.155 171.423 198.759 164.743 199.207C158.063 199.656 151.633 201.931 146.156 205.784C140.679 209.638 136.365 214.923 133.683 221.062C131.001 227.201 130.054 233.959 130.947 240.6C131.84 247.24 134.537 253.508 138.744 258.719C142.952 263.931 148.509 267.887 154.809 270.155V260.727C154.822 257.449 156.129 254.309 158.446 251.991C160.762 249.673 163.9 248.364 167.176 248.351C170.451 248.364 173.589 249.673 175.905 251.991C178.222 254.309 179.529 257.449 179.542 260.727V270.155C186.63 267.607 192.76 262.932 197.094 256.768C201.428 250.604 203.755 243.251 203.758 235.714Z" fill="#0E153A"/>
<path d="M168.421 241.884C168.421 240.669 167.437 239.684 166.222 239.684C165.008 239.684 164.024 240.669 164.024 241.884V252.999C164.024 254.214 165.008 255.199 166.222 255.199C167.437 255.199 168.421 254.214 168.421 252.999V241.884Z" fill="white" stroke="white" stroke-miterlimit="10"/>
<path d="M166.246 241.769C174.009 241.769 180.302 235.471 180.302 227.702C180.302 219.933 174.009 213.635 166.246 213.635C158.482 213.635 152.189 219.933 152.189 227.702C152.189 235.471 158.482 241.769 166.246 241.769Z" fill="white" stroke="white" stroke-miterlimit="10"/>
<path d="M166.223 245.354C162.947 245.367 159.809 246.675 157.493 248.993C155.176 251.311 153.869 254.451 153.856 257.729V267.158C161.862 270.029 170.616 270.029 178.621 267.158V257.748C178.613 254.461 177.303 251.311 174.98 248.988C172.656 246.665 169.507 245.358 166.223 245.354Z" fill="white" stroke="white" stroke-miterlimit="10"/>
<path d="M152.07 226.923C150.943 224.742 150.426 222.297 150.572 219.846C150.734 217.382 151.851 215.079 153.687 213.429C155.734 211.683 158.51 211.064 161.194 210.848C163.878 210.633 166.594 210.761 169.232 210.243C171.414 209.801 173.486 208.929 175.328 207.679C177.17 206.429 178.746 204.825 179.963 202.96C180.133 205.023 180.302 207.117 179.904 209.152C179.505 211.188 178.461 213.181 176.698 214.268C178.832 213.278 178.599 215.597 178.136 216.986C179.194 218.265 181.763 218.475 181.896 220.13C182.029 221.785 182.006 223.494 181.36 225.021C180.715 226.547 181.406 229.233 179.757 229.352" fill="white"/>
<path d="M152.07 226.923C150.943 224.742 150.426 222.297 150.572 219.846C150.734 217.382 151.851 215.079 153.687 213.429C155.734 211.683 158.51 211.064 161.194 210.848C163.878 210.633 166.594 210.761 169.232 210.243C171.414 209.801 173.486 208.929 175.328 207.679C177.17 206.429 178.746 204.825 179.963 202.96C180.133 205.023 180.302 207.117 179.904 209.152C179.505 211.188 178.461 213.181 176.698 214.268C178.832 213.278 178.599 215.597 178.136 216.986C179.194 218.265 181.763 218.475 181.896 220.13C182.029 221.785 182.006 223.494 181.36 225.021C180.715 226.547 181.406 229.233 179.757 229.352" stroke="white" stroke-miterlimit="10"/>
<path d="M177.476 213.929C177.476 213.929 187.282 214.786 180.302 229.353L177.476 213.929Z" fill="white"/>
</g>
<defs>
<filter id="filter0_d" x="0" y="0" width="374" height="382" filterUnits="userSpaceOnUse" color-interpolation-filters="sRGB">
<feFlood flood-opacity="0" result="BackgroundImageFix"/>
<feColorMatrix in="SourceAlpha" type="matrix" values="0 0 0 0 0 0 0 0 0 0 0 0 0 0 0 0 0 0 127 0"/>
<feOffset dx="4" dy="4"/>
<feGaussianBlur stdDeviation="10"/>
<feColorMatrix type="matrix" values="0 0 0 0 0 0 0 0 0 0 0 0 0 0 0 0 0 0 0.3 0"/>
<feBlend mode="normal" in2="BackgroundImageFix" result="effect1_dropShadow"/>
<feBlend mode="normal" in="SourceGraphic" in2="effect1_dropShadow" result="shape"/>
</filter>
<linearGradient id="paint0_linear" x1="140.416" y1="246.42" x2="87.4624" y2="58.2767" gradientUnits="userSpaceOnUse">
<stop stop-color="#808080" stop-opacity="0.25"/>
<stop offset="0.54" stop-color="#808080" stop-opacity="0.12"/>
<stop offset="1" stop-color="#808080" stop-opacity="0.1"/>
</linearGradient>
<linearGradient id="paint1_linear" x1="107.769" y1="131.449" x2="87.9556" y2="59.4201" gradientUnits="userSpaceOnUse">
<stop stop-color="#B3B3B3" stop-opacity="0.25"/>
<stop offset="0.54" stop-color="#B3B3B3" stop-opacity="0.1"/>
<stop offset="1" stop-color="#B3B3B3" stop-opacity="0.05"/>
</linearGradient>
<linearGradient id="paint2_linear" x1="58.5241" y1="126.86" x2="46.3975" y2="90.9763" gradientUnits="userSpaceOnUse">
<stop stop-opacity="0.12"/>
<stop offset="0.55" stop-opacity="0.09"/>
<stop offset="1" stop-opacity="0.02"/>
</linearGradient>
<linearGradient id="paint3_linear" x1="57140.8" y1="140421" x2="57140.8" y2="56272.2" gradientUnits="userSpaceOnUse">
<stop stop-color="#808080" stop-opacity="0.25"/>
<stop offset="0.54" stop-color="#808080" stop-opacity="0.12"/>
<stop offset="1" stop-color="#808080" stop-opacity="0.1"/>
</linearGradient>
<linearGradient id="paint4_linear" x1="123303" y1="119632" x2="114463" y2="36284.9" gradientUnits="userSpaceOnUse">
<stop stop-color="#808080" stop-opacity="0.25"/>
<stop offset="0.54" stop-color="#808080" stop-opacity="0.12"/>
<stop offset="1" stop-color="#808080" stop-opacity="0.1"/>
</linearGradient>
<linearGradient id="paint5_linear" x1="112869" y1="18774.5" x2="111585" y2="6666.6" gradientUnits="userSpaceOnUse">
<stop stop-color="#B3B3B3" stop-opacity="0.25"/>
<stop offset="0.54" stop-color="#B3B3B3" stop-opacity="0.1"/>
<stop offset="1" stop-color="#B3B3B3" stop-opacity="0.05"/>
</linearGradient>
<linearGradient id="paint6_linear" x1="-24818.5" y1="-9547.15" x2="-25319.3" y2="-12669" gradientUnits="userSpaceOnUse">
<stop stop-opacity="0.12"/>
<stop offset="0.55" stop-opacity="0.09"/>
<stop offset="1" stop-opacity="0.02"/>
</linearGradient>
<linearGradient id="paint7_linear" x1="57161.3" y1="83911.5" x2="57161.3" y2="94.5889" gradientUnits="userSpaceOnUse">
<stop stop-color="#808080" stop-opacity="0.25"/>
<stop offset="0.54" stop-color="#808080" stop-opacity="0.12"/>
<stop offset="1" stop-color="#808080" stop-opacity="0.1"/>
</linearGradient>
<linearGradient id="paint8_linear" x1="57292.7" y1="12192.6" x2="57292.7" y2="16" gradientUnits="userSpaceOnUse">
<stop stop-color="#B3B3B3" stop-opacity="0.25"/>
<stop offset="0.54" stop-color="#B3B3B3" stop-opacity="0.1"/>
<stop offset="1" stop-color="#B3B3B3" stop-opacity="0.05"/>
</linearGradient>
<linearGradient id="paint9_linear" x1="-28174.5" y1="-18250.2" x2="-28332.2" y2="-21361.8" gradientUnits="userSpaceOnUse">
<stop stop-opacity="0.12"/>
<stop offset="0.55" stop-opacity="0.09"/>
<stop offset="1" stop-opacity="0.02"/>
</linearGradient>
<linearGradient id="paint10_linear" x1="92775.8" y1="168133" x2="92775.8" y2="57528.3" gradientUnits="userSpaceOnUse">
<stop stop-color="#808080" stop-opacity="0.25"/>
<stop offset="0.54" stop-color="#808080" stop-opacity="0.12"/>
<stop offset="1" stop-color="#808080" stop-opacity="0.1"/>
</linearGradient>
<linearGradient id="paint11_linear" x1="50472.8" y1="93624.9" x2="50472.8" y2="51820.7" gradientUnits="userSpaceOnUse">
<stop stop-color="#808080"/>
<stop offset="0.54" stop-color="#808080"/>
<stop offset="1" stop-color="#808080" stop-opacity="0.25"/>
</linearGradient>
<linearGradient id="paint12_linear" x1="-49776.2" y1="-3194.94" x2="-50338.8" y2="-14286.8" gradientUnits="userSpaceOnUse">
<stop stop-opacity="0.12"/>
<stop offset="0.55" stop-opacity="0.09"/>
<stop offset="1" stop-opacity="0.02"/>
</linearGradient>
<clipPath id="clip0">
<rect width="334" height="342" fill="white" transform="translate(16 16)"/>
</clipPath>
</defs>
</svg>
