<svg width="545" height="405" viewBox="0 0 545 405" fill="none" xmlns="http://www.w3.org/2000/svg">
<g clip-path="url(#clip0)">
<path opacity="0.1" d="M488.08 403.071C514.439 403.071 535.808 397.875 535.808 391.464C535.808 385.054 514.439 379.857 488.08 379.857C461.72 379.857 440.352 385.054 440.352 391.464C440.352 397.875 461.72 403.071 488.08 403.071Z" fill="#0E153A"/>
<path opacity="0.1" d="M66.765 405.005C93.1245 405.005 114.493 399.808 114.493 393.398C114.493 386.988 93.1245 381.791 66.765 381.791C40.4055 381.791 19.0369 386.988 19.0369 393.398C19.0369 399.808 40.4055 405.005 66.765 405.005Z" fill="#0E153A"/>
<path d="M326.454 109.296C326.454 109.296 319.747 106.616 298.416 116.251C277.086 125.887 274.407 124.657 268.896 123.184C263.384 121.71 260.314 121.362 254.374 113.327C254.374 113.327 250.197 91.043 246.159 87.5886C242.121 84.1343 224.943 89.5552 224.943 89.5552C224.943 89.5552 204.352 94.2063 200.429 67.1159C200.429 67.1159 203.213 46.6948 199.423 40.4291C199.423 40.4291 207.051 43.6817 219.704 38.4344C232.357 33.1872 242.44 44.0665 242.44 44.0665C242.44 44.0665 245.625 52.1861 245.301 57.0251C244.977 61.864 246.984 63.6803 253.01 61.343C253.01 61.343 255.966 57.1987 251.775 50.351C247.585 43.5033 244.595 38.3969 245.768 33.0792C246.941 27.7616 250.297 20.407 261.101 16.6992C271.904 12.9914 286.579 12.2968 293.625 9.41031C300.671 6.52385 302.373 4.64648 302.373 4.64648C302.373 4.64648 298.03 8.93627 308.257 27.0576C318.483 45.1789 311.961 53.0497 311.961 53.0497C311.961 53.0497 306.526 65.7971 282.545 64.7833C282.545 64.7833 259.437 65.614 272.057 75.2637C272.057 75.2637 280.128 73.6445 292.19 69.871C304.252 66.0975 312.962 81.6749 315.122 92.5167C317.282 103.359 326.454 109.296 326.454 109.296Z" fill="#0E153A"/>
<path d="M295.384 18.403L295.513 18.3701C296.438 21.8292 286.107 35.7358 277.282 46.7794L277.177 46.6996C289.635 31.1128 296.104 21.0641 295.384 18.403Z" fill="#444053"/>
<path d="M277.363 46.4697L277.415 46.6105C270.364 55.4389 261.496 65.9709 254.398 73.7714C253.721 74.5176 253.048 75.2967 252.4 76.0946L252.2 75.9303C252.848 75.1325 253.525 74.3486 254.202 73.5836C261.296 65.8066 270.316 55.2934 277.363 46.4697Z" fill="#444053"/>
<path d="M252.371 75.7236L252.51 75.9583C239.589 91.8361 238.736 116.491 238.684 116.707L235.957 113.609C236.014 113.393 239.361 91.7094 252.371 75.7236Z" fill="#444053"/>
<path d="M311.47 100.683C311.47 100.683 296.214 92.8875 284.366 95.6847C272.519 98.482 245.749 85.8004 245.749 85.8004C245.749 85.8004 234.398 81.2572 232.119 76.085C232.119 76.085 224.333 67.9842 223.89 63.7882C223.447 59.5923 215.866 49.0509 210.922 48.6426" stroke="#444053" stroke-miterlimit="10"/>
<path d="M309.268 108.188C309.268 108.188 301.582 103.101 302.488 97.1729" stroke="#444053" stroke-miterlimit="10"/>
<path d="M297.496 114.763C297.496 114.763 286.531 110.84 285.425 95.4688" stroke="#444053" stroke-miterlimit="10"/>
<path d="M279.794 118.744C279.794 118.744 269.306 110.178 272.791 95.2158" stroke="#444053" stroke-miterlimit="10"/>
<path d="M258.521 114.557C258.521 114.557 251.537 100.143 257.749 90.7656" stroke="#444053" stroke-miterlimit="10"/>
<path d="M311.651 91.1836C311.651 91.1836 303.713 93.6617 305.415 97.7544" stroke="#444053" stroke-miterlimit="10"/>
<path d="M302.059 77.0049C302.059 77.0049 291.442 80.3231 291.189 95.1074" stroke="#444053" stroke-miterlimit="10"/>
<path d="M287.28 73.5928C287.28 73.5928 277.62 85.3263 278.331 96.0039" stroke="#444053" stroke-miterlimit="10"/>
<path d="M270.345 78.1973C270.345 78.1973 260.748 87.2274 261.973 92.2541" stroke="#444053" stroke-miterlimit="10"/>
<path d="M264.557 75.0054C264.557 75.0054 255.556 76.5964 254.297 73.6865" stroke="#444053" stroke-miterlimit="10"/>
<path d="M252.862 64.3096C252.862 64.3096 257.411 70.2374 258.583 68.9091" stroke="#444053" stroke-miterlimit="10"/>
<path d="M297.94 60.5594C297.94 60.5594 275.256 62.1692 270.116 55.4482" stroke="#444053" stroke-miterlimit="10"/>
<path d="M248.09 34.4355C248.09 34.4355 258.736 56.9311 266.464 59.78" stroke="#444053" stroke-miterlimit="10"/>
<path d="M259.256 23.7207C259.256 23.7207 265.797 44.414 273.897 50.8721" stroke="#444053" stroke-miterlimit="10"/>
<path d="M307.489 43.4849C307.489 43.4849 290.235 50.7738 279.875 43.4004" stroke="#444053" stroke-width="0.75" stroke-miterlimit="10"/>
<path d="M274.626 19.3086C274.626 19.3086 278.569 34.52 283.88 38.1949" stroke="#444053" stroke-width="0.75" stroke-miterlimit="10"/>
<path d="M304.881 26.4473C304.881 26.4473 295.189 30.0612 291.565 27.2921" stroke="#444053" stroke-width="0.75" stroke-miterlimit="10"/>
<path d="M244.557 69.2793C244.557 69.2793 244.557 82.5382 240.891 83.4816" stroke="#444053" stroke-miterlimit="10"/>
<path d="M214.583 86.4572C214.583 86.4572 229.144 87.6869 235.861 80.29" stroke="#444053" stroke-miterlimit="10"/>
<path d="M240.8 53.6172C240.8 53.6172 237.277 67.0638 227.556 70.6872" stroke="#444053" stroke-miterlimit="10"/>
<path d="M205.849 72.2926C205.849 72.2926 216.157 75.8221 225.02 66.8389" stroke="#444053" stroke-miterlimit="10"/>
<path d="M229.339 42.0576C229.339 42.0576 228.386 53.4767 222.059 58.8225" stroke="#444053" stroke-miterlimit="10"/>
<path d="M206.231 54.8897C206.231 54.8897 214.784 54.9507 216.786 52.2051" stroke="#444053" stroke-miterlimit="10"/>
<path opacity="0.1" d="M282.226 64.5158C248.185 70.1057 214.092 67.0972 181.272 62.9294C148.452 58.7617 115.709 53.4393 81.5968 54.4813C59.666 55.1571 35.2703 59.4 20.0952 72.4195C5.49687 84.9463 3.40867 102.073 3.54693 117.561C3.65182 129.21 4.76266 141.277 12.7769 150.645C18.3407 157.145 26.846 161.867 33.2775 167.879C55.6851 188.802 49.3299 221.215 35.1416 248.662C28.467 261.541 20.3097 274.18 15.833 287.383C11.3562 300.585 10.9128 314.807 19.3419 325.738C27.7042 336.575 43.6994 342.817 60.343 346.163C94.1403 352.955 131.652 349.449 167.933 344.572C248.238 333.726 327.646 316.182 406.826 298.671C436.132 292.194 465.567 285.679 493.763 276.142C509.419 270.857 525.348 264.207 535.374 253.689C548.099 240.336 548.213 221.905 535.641 210.725C514.549 191.952 467.365 195.481 450.969 174.117C441.939 162.383 445.615 146.604 452.514 132.735C467.293 102.978 496.256 73.7618 492.085 43.8601C489.224 23.3217 469.019 6.12496 442.178 1.37053C414.049 -3.60919 378.097 4.70755 362.187 25.1286C345.806 46.2115 312.28 59.5877 282.226 64.5158Z" fill="#0E153A"/>
<path d="M483.494 70.4531H42.3265C39.0378 70.4531 36.3718 73.0777 36.3718 76.3152V317.252C36.3718 320.49 39.0378 323.114 42.3265 323.114H483.494C486.782 323.114 489.448 320.49 489.448 317.252V76.3152C489.448 73.0777 486.782 70.4531 483.494 70.4531Z" fill="url(#paint0_linear)"/>
<path d="M482.826 74.0059H43.0465C39.7578 74.0059 37.0918 76.6304 37.0918 79.8679V316.412C37.0918 319.649 39.7578 322.274 43.0465 322.274H482.826C486.115 322.274 488.781 319.649 488.781 316.412V79.8679C488.781 76.6304 486.115 74.0059 482.826 74.0059Z" fill="white"/>
<path d="M482.826 74.0059H43.0465C39.7578 74.0059 37.0918 76.6304 37.0918 79.8679V316.412C37.0918 319.649 39.7578 322.274 43.0465 322.274H482.826C486.115 322.274 488.781 319.649 488.781 316.412V79.8679C488.781 76.6304 486.115 74.0059 482.826 74.0059Z" fill="white"/>
<path opacity="0.04" d="M482.826 74.0059H43.0465C39.7578 74.0059 37.0918 76.6304 37.0918 79.8679V316.412C37.0918 319.649 39.7578 322.274 43.0465 322.274H482.826C486.115 322.274 488.781 319.649 488.781 316.412V79.8679C488.781 76.6304 486.115 74.0059 482.826 74.0059Z" fill="#5A5773"/>
<path d="M486.488 71.1572H39.366C38.7578 71.1572 38.1745 71.3951 37.7444 71.8184C37.3144 72.2418 37.0728 72.816 37.0728 73.4148V82.9612H488.762V73.4335C488.764 73.1371 488.708 72.843 488.595 72.5682C488.482 72.2933 488.315 72.0431 488.104 71.8317C487.893 71.6203 487.641 71.452 487.364 71.3362C487.087 71.2205 486.789 71.1597 486.488 71.1572Z" fill="#5A5773"/>
<path d="M46.1119 80.1073C47.8233 80.1073 49.2108 78.7415 49.2108 77.0566C49.2108 75.3717 47.8233 74.0059 46.1119 74.0059C44.4004 74.0059 43.0129 75.3717 43.0129 77.0566C43.0129 78.7415 44.4004 80.1073 46.1119 80.1073Z" fill="white"/>
<path d="M54.4551 80.1073C56.1666 80.1073 57.554 78.7415 57.554 77.0566C57.554 75.3717 56.1666 74.0059 54.4551 74.0059C52.7436 74.0059 51.3562 75.3717 51.3562 77.0566C51.3562 78.7415 52.7436 80.1073 54.4551 80.1073Z" fill="white"/>
<path d="M62.7984 80.1073C64.5099 80.1073 65.8973 78.7415 65.8973 77.0566C65.8973 75.3717 64.5099 74.0059 62.7984 74.0059C61.0869 74.0059 59.6995 75.3717 59.6995 77.0566C59.6995 78.7415 61.0869 80.1073 62.7984 80.1073Z" fill="white"/>
<path d="M439.108 137.921H72.1858C69.5027 137.921 67.3276 140.062 67.3276 142.703V317.487C67.3276 320.128 69.5027 322.269 72.1858 322.269H439.108C441.791 322.269 443.966 320.128 443.966 317.487V142.703C443.966 140.062 441.791 137.921 439.108 137.921Z" fill="white"/>
<path opacity="0.2" d="M157.854 95.4873H53.1965C52.1801 95.4873 51.3562 96.2984 51.3562 97.299V104.869C51.3562 105.87 52.1801 106.681 53.1965 106.681H157.854C158.871 106.681 159.694 105.87 159.694 104.869V97.299C159.694 96.2984 158.871 95.4873 157.854 95.4873Z" fill="#5A5773"/>
<path opacity="0.2" d="M362.145 159.318H257.487C256.471 159.318 255.647 160.129 255.647 161.13V168.701C255.647 169.701 256.471 170.512 257.487 170.512H362.145C363.161 170.512 363.985 169.701 363.985 168.701V161.13C363.985 160.129 363.161 159.318 362.145 159.318Z" fill="#0E153A"/>
<path opacity="0.2" d="M422.974 190.661H257.487C256.471 190.661 255.647 191.472 255.647 192.473V200.043C255.647 201.044 256.471 201.855 257.487 201.855H422.974C423.991 201.855 424.814 201.044 424.814 200.043V192.473C424.814 191.472 423.991 190.661 422.974 190.661Z" fill="#0E153A"/>
<path opacity="0.2" d="M422.974 208.965H257.487C256.471 208.965 255.647 209.776 255.647 210.777V218.347C255.647 219.348 256.471 220.159 257.487 220.159H422.974C423.991 220.159 424.814 219.348 424.814 218.347V210.777C424.814 209.776 423.991 208.965 422.974 208.965Z" fill="#0E153A"/>
<path opacity="0.2" d="M422.974 227.27H257.487C256.471 227.27 255.647 228.081 255.647 229.081V236.652C255.647 237.652 256.471 238.463 257.487 238.463H422.974C423.991 238.463 424.814 237.652 424.814 236.652V229.081C424.814 228.081 423.991 227.27 422.974 227.27Z" fill="#0E153A"/>
<path opacity="0.2" d="M422.974 245.574H257.487C256.471 245.574 255.647 246.385 255.647 247.386V254.956C255.647 255.957 256.471 256.768 257.487 256.768H422.974C423.991 256.768 424.814 255.957 424.814 254.956V247.386C424.814 246.385 423.991 245.574 422.974 245.574Z" fill="#0E153A"/>
<path opacity="0.2" d="M422.974 265.756H89.5874C88.571 265.756 87.7471 266.567 87.7471 267.568V275.138C87.7471 276.139 88.571 276.95 89.5874 276.95H422.974C423.99 276.95 424.814 276.139 424.814 275.138V267.568C424.814 266.567 423.99 265.756 422.974 265.756Z" fill="#0E153A"/>
<path opacity="0.2" d="M422.974 284.06H89.5874C88.571 284.06 87.7471 284.871 87.7471 285.871V293.442C87.7471 294.442 88.571 295.253 89.5874 295.253H422.974C423.99 295.253 424.814 294.442 424.814 293.442V285.871C424.814 284.871 423.99 284.06 422.974 284.06Z" fill="#0E153A"/>
<path opacity="0.2" d="M422.974 302.364H89.5874C88.571 302.364 87.7471 303.175 87.7471 304.176V311.746C87.7471 312.747 88.571 313.558 89.5874 313.558H422.974C423.99 313.558 424.814 312.747 424.814 311.746V304.176C424.814 303.175 423.99 302.364 422.974 302.364Z" fill="#0E153A"/>
<path d="M347.699 309.766C347.699 309.766 350.526 313.403 346.393 318.899C342.259 324.395 338.855 329.032 340.233 332.458C340.233 332.458 346.464 322.255 351.542 322.133C356.619 322.011 353.282 315.9 347.699 309.766Z" fill="#0E153A"/>
<path opacity="0.1" d="M347.699 309.766C347.945 310.117 348.14 310.501 348.276 310.906C353.23 316.632 355.866 321.978 351.108 322.109C346.674 322.236 341.354 330.041 340.081 332.008C340.121 332.167 340.172 332.324 340.233 332.477C340.233 332.477 346.464 322.274 351.542 322.152C356.619 322.03 353.282 315.9 347.699 309.766Z" fill="black"/>
<path d="M352.953 314.403C352.953 315.684 352.81 316.721 352.629 316.721C352.447 316.721 352.304 315.684 352.304 314.403C352.304 313.121 352.486 313.727 352.667 313.727C352.848 313.727 352.953 313.121 352.953 314.403Z" fill="#FFD037"/>
<path d="M354.76 315.933C353.616 316.543 352.619 316.914 352.533 316.759C352.447 316.604 353.306 315.98 354.44 315.351C355.575 314.722 355.132 315.182 355.217 315.351C355.303 315.52 355.899 315.318 354.76 315.933Z" fill="#FFD037"/>
<path d="M332.767 309.766C332.767 309.766 329.94 313.403 334.068 318.899C338.197 324.395 341.611 329.032 340.233 332.458C340.233 332.458 333.997 322.255 328.924 322.133C323.851 322.011 327.184 315.9 332.767 309.766Z" fill="#0E153A"/>
<path opacity="0.1" d="M332.767 309.766C332.518 310.116 332.322 310.5 332.185 310.906C327.236 316.632 324.6 321.978 329.358 322.109C333.792 322.236 339.108 330.041 340.381 332.008C340.342 332.167 340.293 332.324 340.233 332.477C340.233 332.477 333.997 322.274 328.924 322.152C323.851 322.03 327.184 315.9 332.767 309.766Z" fill="black"/>
<path d="M327.508 314.403C327.508 315.684 327.656 316.721 327.837 316.721C328.018 316.721 328.161 315.684 328.161 314.403C328.161 313.121 327.98 313.736 327.804 313.736C327.627 313.736 327.508 313.121 327.508 314.403Z" fill="#FFD037"/>
<path d="M325.706 315.933C326.85 316.543 327.847 316.914 327.933 316.759C328.019 316.604 327.16 315.98 326.026 315.351C324.891 314.722 325.334 315.182 325.249 315.351C325.163 315.52 324.562 315.318 325.706 315.933Z" fill="#FFD037"/>
<path opacity="0.1" d="M340.233 360.295C356.558 360.295 369.792 358.297 369.792 355.832C369.792 353.367 356.558 351.368 340.233 351.368C323.908 351.368 310.674 353.367 310.674 355.832C310.674 358.297 323.908 360.295 340.233 360.295Z" fill="#0E153A"/>
<path d="M355.456 327.554L355.313 328.69L355.117 330.295L355.031 330.966L354.836 332.572L354.75 333.243L354.55 334.843L352.29 353.101C352.085 354.729 349.382 356.001 346.092 356.001H334.354C331.089 356.001 328.39 354.729 328.19 353.101L325.921 334.857L325.725 333.257L325.639 332.586L325.439 330.98L325.358 330.309L325.158 328.704L325.015 327.568C324.905 326.63 326.369 325.869 328.214 325.869H352.252C354.097 325.855 355.561 326.63 355.456 327.554Z" fill="#65617D"/>
<path d="M355.303 328.689L355.108 330.295H325.358L325.158 328.689H355.303Z" fill="#9D9CB5"/>
<path d="M355.022 330.961L354.827 332.566H325.639L325.439 330.961H355.022Z" fill="#9D9CB5"/>
<path d="M354.74 333.237L354.54 334.842H325.921L325.725 333.237H354.74Z" fill="#9D9CB5"/>
<path opacity="0.2" d="M227.675 153.108H91.7995C89.5614 153.108 87.7471 154.895 87.7471 157.098V253.097C87.7471 255.3 89.5614 257.086 91.7995 257.086H227.675C229.913 257.086 231.728 255.3 231.728 253.097V157.098C231.728 154.895 229.913 153.108 227.675 153.108Z" fill="#0E153A"/>
<path d="M536.375 268.75C536.556 268.28 535.212 265.596 535.212 265.464C535.212 265.333 533.825 263.845 533.825 263.014C533.825 262.184 531.989 260.386 531.989 260.386C531.989 260.386 529.524 259.382 529.257 257.19C528.99 254.998 526.306 254.96 526.301 254.96C526.301 254.96 526.301 254.763 526.301 254.458C526.356 253.593 526.244 252.725 525.973 251.9C525.656 251.295 525.109 250.838 524.452 250.628C524.452 250.628 524.18 248.92 523.646 248.394C523.348 248.087 523.134 247.711 523.024 247.301C522.914 246.89 522.911 246.459 523.017 246.048C523.288 245.222 522.659 243.119 521.362 242.809C520.065 242.499 518.583 242.021 518.583 242.021L518.225 242.082L518.049 242.021C517.734 242.08 517.415 242.119 517.095 242.138C516.821 242.146 516.553 242.06 516.337 241.894C515.889 241.425 512.261 240.486 511.57 240.486C510.878 240.486 508.971 239.608 508.971 239.608C508.971 239.608 507.627 238.604 507.064 238.163C506.502 237.721 505.524 236.121 505.377 235.877V235.844C505.212 235.471 505.077 235.087 504.971 234.694C505.627 234.019 506.187 233.26 506.635 232.437C506.683 232.352 506.726 232.268 506.769 232.179C506.867 232.179 506.965 232.164 507.06 232.136L507.179 232.089C507.404 231.974 507.605 231.816 507.768 231.624C507.932 231.433 508.056 231.211 508.132 230.972C508.166 230.877 508.195 230.78 508.218 230.681C508.218 230.648 508.218 230.616 508.218 230.583L508.261 230.386C508.259 230.348 508.259 230.311 508.261 230.273L508.29 230.076V229.963C508.29 229.879 508.29 229.799 508.323 229.714C508.352 229.399 508.398 229.086 508.461 228.776C508.728 227.588 509.458 226.584 509.968 225.49C510.039 225.336 510.111 225.176 510.173 225.021C510.235 224.866 510.297 224.669 510.349 224.491L510.392 224.326C510.425 224.195 510.454 224.064 510.483 223.932C510.511 223.801 510.483 223.815 510.516 223.754C510.545 223.575 510.568 223.392 510.588 223.205C510.672 222.157 510.509 221.105 510.111 220.13C509.777 219.309 509.277 218.568 508.938 217.746C508.423 216.502 508.285 215.09 507.66 213.902C507.151 212.939 506.31 212.185 505.288 211.776C504.267 211.367 503.13 211.328 502.082 211.668C501.129 212.025 500.261 212.715 499.274 213.025C497.949 213.442 496.538 213.128 495.164 212.945C493.791 212.762 492.304 212.738 491.179 213.621C489.911 214.635 489.567 216.54 488.375 217.652C487.899 218.122 487.255 218.417 486.726 218.849C486.354 219.143 486.068 219.528 485.896 219.966L485.868 220.055C485.855 220.094 485.846 220.133 485.839 220.173C485.828 220.216 485.821 220.26 485.815 220.304C485.813 220.334 485.813 220.364 485.815 220.393C485.806 220.471 485.806 220.55 485.815 220.628C485.822 220.702 485.833 220.776 485.849 220.849V220.91C485.849 220.971 485.882 221.032 485.906 221.093C485.93 221.154 485.906 221.116 485.906 221.126C485.906 221.135 485.958 221.262 485.987 221.327L486.03 221.426C486.03 221.454 486.03 221.482 486.068 221.506C486.238 221.832 486.377 222.173 486.483 222.524C486.538 222.747 486.523 222.981 486.44 223.195C486.327 223.439 486.165 223.658 485.963 223.838C485.071 224.75 484.382 225.836 483.942 227.025C483.888 227.163 483.84 227.299 483.799 227.433H483.861C483.989 227.469 484.119 227.496 484.252 227.513C484.326 227.518 484.401 227.518 484.476 227.513C484.782 227.531 485.09 227.509 485.391 227.448L485.62 227.391C485.931 227.311 486.235 227.203 486.526 227.067C486.526 227.157 486.526 227.246 486.526 227.335C486.526 227.424 486.526 227.433 486.526 227.485C486.529 229.422 487.08 231.319 488.119 232.965C489.157 234.61 490.641 235.937 492.404 236.797C492.404 236.891 492.428 236.985 492.442 237.078L492.471 237.318L492.352 237.205C492.352 237.205 491.546 236.811 490.783 237.947C490.224 238.692 489.464 239.269 488.59 239.613C488.59 239.613 480.437 240.88 480.123 241.931L476.309 242.152C476.309 242.152 474.964 242.326 474.831 245.085C474.697 247.845 473.982 248.103 473.982 248.103C473.982 248.103 472.414 250.821 472.552 252.219C472.569 252.646 472.464 253.069 472.25 253.44C472.036 253.812 471.721 254.117 471.341 254.322L471.165 256.819C471.165 256.819 469.687 256.598 469.258 258.307C469.087 259.211 468.705 260.065 468.142 260.799C468.142 260.799 465.677 262.817 465.544 264.521L464.018 265.46C464.018 265.46 460.48 264.671 459.675 263.272C459.675 263.272 459.579 263.179 459.427 263.042V263.01C458.898 262.54 457.777 261.489 457.949 261.728C458.054 261.948 458.079 262.197 458.02 262.432L457.758 262.146L457.053 261.376C457.053 261.376 451.331 256.101 447.994 255.683C447.951 255.599 447.732 254.744 447.16 255.284C446.686 255.713 446.307 256.232 446.047 256.811C445.787 257.391 445.651 258.016 445.648 258.649C445.645 259.282 445.775 259.909 446.029 260.491C446.284 261.072 446.657 261.596 447.126 262.029L452.485 266.952L452.623 267.051L453.772 268.506C453.577 268.975 453.415 269.407 453.296 269.81V269.853L453.21 270.106C453.2 270.134 453.192 270.162 453.186 270.191C453.157 270.275 453.134 270.355 453.11 270.435L453.067 270.575C453.067 270.604 453.067 270.632 453.067 270.66C452.938 271.101 452.857 271.439 452.819 271.627L452.519 271.533L452.809 271.66V271.702C452.809 271.763 452.809 271.796 452.809 271.796L453.086 271.913C454.654 272.584 462.483 275.968 462.883 276.48C463.284 276.991 466.287 278.714 468.976 277.31C471.665 275.907 472.242 273.767 472.242 273.767C472.242 273.767 474.84 270.219 474.931 269.693C475.021 269.167 477.033 268.557 477.033 268.557C477.033 268.557 477.215 274.419 476.185 276.569C475.155 278.718 473.229 288.213 473.229 288.213C473.355 288.196 473.484 288.196 473.61 288.213L473.496 288.762C473.653 288.733 473.815 288.733 473.973 288.762C473.83 289.842 473.019 294.864 473.019 294.864C473.019 294.864 472.752 297.14 472.304 297.929C471.856 298.717 471.827 302.833 471.827 302.833L471.107 305.809C471.107 305.809 471.203 306.015 471.379 306.32C471.862 307.333 472.565 308.229 473.439 308.944C473.381 309.412 473.259 309.87 473.076 310.305C472.798 310.971 472.676 311.689 472.719 312.408C472.719 312.408 471.961 315.778 472.047 316.74C472.132 317.702 471.57 320.068 471.57 320.068L470.764 327.685C470.764 327.685 470.23 334.293 470.497 336.091C470.625 337.501 470.564 338.921 470.316 340.315C470.316 340.315 470.855 345.525 470.721 346.093C470.588 346.66 469.915 349.115 470.316 350.471C470.716 351.828 470.497 355.55 470.497 355.55C470.497 355.55 470.764 360.454 471.079 362.031C471.247 363.225 471.216 364.438 470.988 365.622C470.988 365.622 470.673 368.992 470.54 368.992C470.407 368.992 469.243 371.31 471.613 373.587C473.982 375.863 472.514 375.511 472.514 375.511C472.514 375.511 470.607 374.572 470.855 376.478C471.064 378.266 471.36 377.801 471.389 377.75L470.94 379.191L471.255 379.233L470.998 379.538C470.728 379.879 470.424 380.194 470.092 380.477C469.743 380.812 469.535 381.264 469.51 381.744C469.51 381.744 466.197 385.292 463.107 387.085C461.482 388.024 460.08 388.826 459.47 389.493C458.917 390.084 458.993 390.563 460.151 390.938C462.569 391.727 466.826 392.121 469.868 391.112C471.69 390.518 473.331 389.48 474.635 388.094C474.635 388.094 476.542 387.127 478.449 387.479C480.356 387.831 484.094 385.423 484.094 385.423L484.023 384.804L483.827 383.011C483.701 382.861 483.608 382.686 483.554 382.499C483.5 382.312 483.486 382.115 483.513 381.922C483.536 381.392 483.483 380.861 483.355 380.345C483.322 380.171 483.288 379.998 483.255 379.838L483.598 379.773C483.598 379.773 483.155 377.543 483.961 377.102C484.766 376.661 484.538 370.93 484.538 370.93C484.538 370.93 483.513 369.616 482.974 369.4C482.435 369.184 482.926 366.462 483.021 366.115C483.117 365.767 483.827 358.976 483.827 358.976C483.827 358.976 483.555 356.836 483.913 355.916C484.271 354.996 483.465 351.448 483.465 351.448C483.39 351.285 483.372 351.103 483.413 350.93C483.453 350.756 483.55 350.6 483.689 350.486C484.166 349.96 484.004 345.276 484.004 345.276C484.004 345.276 483.961 342.929 483.961 342.296C483.961 341.662 484.495 339.451 484.99 338.71C485.486 337.968 485.167 335.645 485.167 335.645L485.195 335.471C485.195 335.406 485.195 335.321 485.234 335.223L485.272 334.988C485.49 333.705 485.783 332.436 486.149 331.186C486.731 329.351 487.403 326.113 487.403 326.113L491.565 315.421L491.613 315.294C491.613 315.294 493.52 318.796 493.52 322.039C493.52 322.039 493.996 325.934 493.882 326.986C493.768 328.037 494.192 332.979 494.192 332.979C494.192 332.979 494.774 340.071 494.774 340.376C494.774 340.681 495.493 346.154 495.942 346.989C496.39 347.824 495.493 350.359 495.222 350.622C494.95 350.885 495.312 357.319 495.312 357.319C495.312 357.319 494.64 362.397 494.507 363.449C494.373 364.5 493.834 368.527 494.282 370.104C494.731 371.681 494.549 371.897 494.549 371.897C494.549 371.897 496.166 373.521 495.222 373.652C494.879 373.726 494.557 373.871 494.275 374.077C493.994 374.284 493.761 374.546 493.591 374.849C493.422 375.151 493.32 375.485 493.292 375.829C493.264 376.173 493.31 376.519 493.429 376.844C493.99 378.446 494.649 380.013 495.403 381.537L496.147 381.382V381.903L496.199 384.513C496.199 384.513 496.514 387.005 496.333 387.578C496.204 387.991 496.023 389.953 495.937 390.98C495.903 391.356 495.884 391.605 495.884 391.605C495.884 391.605 495.884 393.923 500.857 393.224C505.83 392.525 506.721 390.596 506.721 390.596L506.759 390.356C506.831 389.915 506.993 388.976 507.126 388.451C507.303 387.751 505.696 384.597 505.696 384.597C505.696 384.597 505.429 382.452 504.981 381.974C504.793 381.69 504.669 381.37 504.619 381.035C504.58 380.857 504.542 380.674 504.514 380.495C504.626 380.508 504.737 380.527 504.847 380.552C504.847 380.552 504.576 379.022 505.61 378.538C506.645 378.055 506.368 377.05 506.235 376.614C506.101 376.177 506.635 373.723 506.635 373.723C506.559 373.478 506.553 373.218 506.616 372.97C506.679 372.722 506.809 372.495 506.993 372.315C507.622 371.7 508.113 367.41 508.113 367.41L508.204 350.861C508.204 350.861 508.518 347.928 508.161 346.745C507.803 345.562 507.446 343.286 507.937 342.671C508.428 342.056 507.98 339.217 507.98 339.217C507.98 339.217 507.98 333.218 508.652 331.707C509.324 330.196 509.1 320.804 509.1 320.804L509.276 314.633C509.276 314.633 510.74 313.271 510.397 306.184C511.956 306.086 513.734 306.029 513.982 306.245C514.459 306.64 517.653 308.653 519.536 307.381C520.314 306.855 521.06 306.287 521.772 305.677L520.981 292.536C521.458 293.268 521.772 293.751 521.772 293.751C521.772 291.916 527.059 285.96 527.059 285.96C527.059 285.96 531.984 279.699 533.057 278.958C534.13 278.216 536.237 274.264 536.237 274.264C536.549 273.514 536.908 272.783 537.315 272.077C537.81 271.331 536.199 269.228 536.375 268.75ZM524.824 273.345C523.479 273.476 520.657 276.498 520.614 277.156C520.516 277.589 520.311 277.992 520.018 278.329C520.018 278.066 519.975 277.799 519.951 277.526C519.636 273.654 519.293 268.942 519.474 268.487C519.741 267.698 519.651 264.15 519.651 264.15L519.703 264.08C520.604 266.83 523.408 270.069 523.408 270.069C523.408 270.069 523.884 271.477 524.485 271.509C525.086 271.542 524.824 273.345 524.824 273.345Z" fill="url(#paint1_linear)"/>
<path d="M453.024 272.346C453.024 272.346 454.659 263.897 459.908 263.897L463.751 271.674L461.191 273.411C461.191 273.411 455.627 273.561 453.024 272.346Z" fill="#65617D"/>
<path opacity="0.1" d="M463.751 271.65L461.191 273.387C461.191 273.387 457.277 273.509 454.478 272.833C453.979 272.724 453.492 272.567 453.024 272.364L453.053 272.228V272.2C453.292 271.141 453.623 270.104 454.044 269.102C454.206 268.722 454.387 268.332 454.588 267.943C455.355 266.488 456.438 265.056 457.925 264.352C458.47 264.081 459.065 263.921 459.675 263.883H459.908L459.994 264.056L461.291 266.685L463.751 271.65Z" fill="black"/>
<path d="M507.355 306.668C507.355 306.668 512.871 306.147 513.358 306.541C513.844 306.935 516.976 308.93 518.826 307.667C520.676 306.405 519.446 302.035 519.446 301.848C519.446 301.66 519.269 295.46 519.269 295.46L515.961 291.071L511.813 283.384L503.336 282.558L503.555 294.761L503.513 301.017L507.355 306.668Z" fill="#65617D"/>
<path opacity="0.1" d="M507.355 306.668C507.355 306.668 512.871 306.147 513.358 306.541C513.844 306.935 516.976 308.93 518.826 307.667C520.676 306.405 519.446 302.035 519.446 301.848C519.446 301.66 519.269 295.46 519.269 295.46L515.961 291.071L511.813 283.384L503.336 282.558L503.555 294.761L503.513 301.017L507.355 306.668Z" fill="black"/>
<path d="M458.807 263.658C458.807 263.658 458.364 268.957 454.993 269.046C454.993 269.046 454.039 268.483 452.762 267.539C449.815 265.366 445.134 261.194 446.431 257.312C448.285 251.751 457.286 262.006 457.286 262.006L457.982 262.771L458.807 263.658Z" fill="#FBBEBE"/>
<path opacity="0.1" d="M458.807 263.658C458.807 263.658 458.364 268.957 454.993 269.046C454.993 269.046 454.04 268.483 452.762 267.539L452.476 267.178C453.047 267.465 453.675 267.625 454.316 267.647C454.82 267.667 455.318 267.535 455.744 267.269C456.169 267.003 456.503 266.616 456.7 266.159C457.061 265.477 457.38 264.773 457.653 264.052C457.811 263.631 457.924 263.196 457.992 262.752L458.807 263.658Z" fill="black"/>
<path d="M457.348 273.26L456.595 272.322L454.054 269.102L452.762 267.455C453.331 267.742 453.958 267.902 454.597 267.924C455.102 267.946 455.6 267.814 456.027 267.548C456.453 267.282 456.786 266.894 456.981 266.436C457.335 265.755 457.646 265.053 457.911 264.334C458.33 263.16 458.321 262.56 458.173 262.353C458.025 262.147 459.127 263.141 459.632 263.63L459.875 263.855L459.966 264.033L461.296 266.568C461.299 266.604 461.299 266.64 461.296 266.676C461.391 267.474 461.82 272.538 457.348 273.26Z" fill="#E7EFFD"/>
<path d="M483.789 385.076C483.789 385.076 480.08 387.47 478.225 387.118C476.941 386.959 475.637 387.171 474.473 387.728C473.198 389.102 471.589 390.134 469.796 390.727C466.793 391.727 462.602 391.332 460.218 390.553C459.093 390.182 459.003 389.704 459.546 389.117C460.09 388.53 461.529 387.667 463.131 386.728C466.178 384.945 469.444 381.429 469.444 381.429C469.464 380.952 469.669 380.501 470.016 380.167C470.344 379.884 470.642 379.569 470.907 379.228C471.384 378.679 471.827 378.102 471.827 378.102L482.75 378.505C482.75 378.505 482.936 379.28 483.084 380.073C483.208 380.584 483.259 381.11 483.236 381.636C483.209 381.828 483.223 382.023 483.276 382.21C483.33 382.396 483.421 382.57 483.546 382.72L483.741 384.494L483.789 385.076Z" fill="#65617D"/>
<path d="M506.588 388.089C506.459 388.61 506.297 389.539 506.225 389.967C506.225 390.112 506.192 390.206 506.192 390.206C506.192 390.206 505.31 392.116 500.409 392.811C495.508 393.505 495.513 391.206 495.513 391.206L495.56 390.581C495.646 389.568 495.823 387.62 495.951 387.207C496.128 386.644 495.823 384.166 495.823 384.166L495.77 381.575L495.732 379.777L503.837 378.951C503.889 379.549 503.977 380.143 504.099 380.73C504.146 381.065 504.268 381.386 504.457 381.669C504.895 382.138 505.162 384.273 505.162 384.273C505.162 384.273 506.778 387.395 506.588 388.089Z" fill="#65617D"/>
<path opacity="0.1" d="M482.75 378.505C482.75 378.505 482.936 379.28 483.084 380.073C481.906 380.284 476.757 381.162 475.455 380.542C473.997 379.848 470.864 379.458 470.864 379.458L470.917 379.28C471.393 378.731 471.837 378.153 471.837 378.153L482.75 378.505Z" fill="black"/>
<path opacity="0.1" d="M504.128 380.745C502.073 380.402 497.558 381.214 495.784 381.589L495.746 379.792L503.851 378.966C503.908 379.564 504 380.158 504.128 380.745Z" fill="black"/>
<path d="M508.719 314.881L508.547 320.983C508.547 320.983 508.767 330.323 508.104 331.778C507.441 333.233 507.441 339.207 507.441 339.207C507.441 339.207 507.885 342.023 507.398 342.638C506.912 343.253 507.265 345.506 507.618 346.679C507.97 347.853 507.66 350.762 507.66 350.762L507.575 367.189C507.575 367.189 507.098 371.446 506.469 372.057C506.288 372.239 506.16 372.466 506.098 372.713C506.036 372.961 506.042 373.22 506.116 373.465C506.116 373.465 505.587 375.896 505.72 376.332C505.854 376.769 506.116 377.764 505.105 378.242C504.094 378.721 504.352 380.242 504.352 380.242C501.925 379.674 495.041 381.181 495.041 381.181C494.298 379.67 493.648 378.117 493.096 376.529C492.977 376.207 492.929 375.864 492.956 375.523C492.982 375.181 493.083 374.849 493.25 374.549C493.418 374.248 493.648 373.987 493.927 373.781C494.205 373.576 494.525 373.431 494.864 373.357C495.789 373.23 494.202 371.62 494.202 371.62C494.202 371.62 494.378 371.404 493.935 369.837C493.491 368.269 494.025 364.275 494.159 363.233C494.292 362.191 494.95 357.131 494.95 357.131C494.95 357.131 494.597 350.744 494.864 350.486C495.131 350.227 496.009 347.702 495.57 346.881C495.131 346.06 494.421 340.625 494.421 340.31C494.421 339.996 493.849 332.965 493.849 332.965C493.849 332.965 493.32 328.056 493.453 327.014C493.587 325.972 493.096 322.104 493.096 322.104C493.096 318.889 491.188 315.412 491.188 315.412L491.141 315.538L487.041 326.221C487.041 326.221 486.378 329.436 485.806 331.261C485.445 332.495 485.156 333.749 484.943 335.016L484.905 335.251L484.867 335.495L484.838 335.668C484.838 335.668 485.143 337.968 484.657 338.71C484.115 339.832 483.773 341.036 483.646 342.272C483.646 342.882 483.689 345.229 483.689 345.229C483.689 345.229 483.865 349.875 483.379 350.392C483.246 350.505 483.152 350.657 483.113 350.826C483.073 350.994 483.09 351.171 483.16 351.33C483.16 351.33 483.951 354.85 483.599 355.761C483.246 356.671 483.513 358.802 483.513 358.802C483.513 358.802 482.807 365.537 482.717 365.885C482.626 366.232 482.144 368.926 482.674 369.142C483.203 369.358 484.218 370.663 484.218 370.663C484.218 370.663 484.438 376.356 483.646 376.788C482.855 377.219 483.289 379.439 483.289 379.439C483.289 379.439 476.891 380.655 475.436 379.96C473.982 379.266 470.845 378.876 470.845 378.876L471.284 377.468C471.255 377.52 470.964 377.984 470.759 376.206C470.535 374.328 472.39 375.267 472.39 375.267C472.39 375.267 473.849 375.614 471.508 373.357C469.167 371.099 470.316 368.795 470.45 368.795C470.583 368.795 470.888 365.448 470.888 365.448C471.114 364.273 471.144 363.07 470.979 361.886C470.669 360.323 470.407 355.456 470.407 355.456C470.407 355.456 470.626 351.762 470.225 350.415C469.825 349.068 470.492 346.66 470.626 346.069C470.759 345.478 470.225 340.334 470.225 340.334C470.474 338.94 470.535 337.519 470.407 336.11C470.14 334.326 470.669 327.765 470.669 327.765L471.465 320.208C471.465 320.208 472.037 317.862 471.942 316.923C471.846 315.984 472.604 312.624 472.604 312.624C472.562 311.91 472.682 311.197 472.957 310.535C473.401 309.667 473.577 306.78 473.577 306.78L477.815 297.225L479.889 288.777L507.913 288.514C507.913 288.514 508.013 289.246 508.185 290.574C508.357 291.902 508.595 293.859 508.862 296.295C509.105 298.501 509.372 301.097 509.634 303.983C510.488 313.229 508.719 314.881 508.719 314.881Z" fill="#3F3D56"/>
<path d="M506.111 238.806L499.584 245.682C499.584 245.682 491.203 242.397 492.085 241.247C492.423 240.81 492.371 239.43 492.175 237.91C491.866 235.502 491.222 232.747 491.222 232.747C491.222 232.747 505.873 230.4 504.633 232.831C504.239 233.749 504.206 234.778 504.543 235.718C504.896 236.823 505.425 237.865 506.111 238.806Z" fill="#FBBEBE"/>
<path opacity="0.1" d="M504.614 232.808C504.166 233.7 503.951 233.784 504.233 234.742C502.326 236.765 499.88 238.966 496.848 238.966C495.226 238.968 493.627 238.598 492.175 237.886C491.866 235.479 491.222 232.723 491.222 232.723C491.222 232.723 505.854 230.377 504.614 232.808Z" fill="black"/>
<path d="M507.355 228.377C507.355 231.12 506.249 233.75 504.279 235.69C502.308 237.629 499.636 238.719 496.85 238.719C494.064 238.719 491.392 237.629 489.422 235.69C487.452 233.75 486.345 231.12 486.345 228.377C486.345 228.325 486.345 228.278 486.345 228.227C486.355 226.869 486.636 225.526 487.173 224.276C487.71 223.025 488.493 221.891 489.475 220.937C490.457 219.984 491.621 219.231 492.899 218.72C494.177 218.21 495.545 217.952 496.924 217.962C498.303 217.972 499.667 218.249 500.937 218.778C502.208 219.307 503.36 220.077 504.328 221.044C505.297 222.011 506.062 223.156 506.58 224.414C507.099 225.673 507.361 227.019 507.351 228.377H507.355Z" fill="#FBBEBE"/>
<path opacity="0.1" d="M508.876 296.596C507.484 296.596 502.85 296.643 497.672 296.727H497.61L495.899 296.755H495.846C489.706 296.849 483.656 295.671 481.224 295.892C476.061 296.361 483.079 291.198 483.079 291.198C486.927 292.115 490.884 292.508 494.84 292.367L496.328 292.292C501.019 292.029 505.734 291.597 508.199 290.884C508.371 292.217 508.609 294.169 508.876 296.596Z" fill="black"/>
<path d="M508.876 296.333C507.484 296.333 502.85 296.385 497.672 296.465H497.61L495.899 296.493H495.846C489.706 296.591 483.656 295.409 481.224 295.634C476.061 296.103 483.079 290.94 483.079 290.94C486.926 291.86 490.884 292.253 494.84 292.109L496.328 292.034C501.019 291.776 505.734 291.339 508.199 290.626C508.371 291.954 508.609 293.907 508.876 296.333Z" fill="#5F5D7E"/>
<path opacity="0.1" d="M494.025 241.673L485.92 245.428L479.651 293.132C479.651 293.132 483.36 291.48 485.477 292.522C487.594 293.564 494.125 292.611 494.125 292.611C494.125 292.611 498.893 292.348 499.598 292.874C500.304 293.4 508.604 290.701 508.604 290.701C508.604 290.701 510.106 287.416 508.957 286.876C507.808 286.336 509.31 281.244 509.31 281.244L508.604 246.831L507.174 242.401L503.36 240.139L499.479 243.18L497.625 243.443L494.025 241.673Z" fill="black"/>
<path d="M494.025 241.153L485.92 244.908L479.637 292.617C479.637 292.617 483.346 290.964 485.463 292.006C487.579 293.048 494.111 292.096 494.111 292.096C494.111 292.096 498.879 291.833 499.584 292.354C500.29 292.875 508.59 290.185 508.59 290.185C508.59 290.185 510.092 286.9 508.943 286.36C507.794 285.82 509.296 280.728 509.296 280.728L508.59 246.316L507.16 241.885L503.346 239.623L499.465 242.664L497.61 242.927L494.025 241.153Z" fill="#E7EFFD"/>
<path opacity="0.1" d="M493.892 243.368C493.892 243.368 496.233 246.104 496.19 246.653C496.147 247.203 496.056 248.568 496.056 248.568L494.292 252.084C494.292 252.084 493.339 256.472 493.339 257.387C493.339 258.303 491.794 266.206 491.794 266.206L489.901 278.386L487.56 294.343L489.944 298.384L492.771 296.038L496.523 267.624L497.315 262.02C497.315 262.02 498.154 251.938 498.154 250.896C498.064 249.629 497.905 248.368 497.677 247.118C497.677 247.118 498.254 244.509 500.638 243.903C503.022 243.298 500.457 243.772 500.457 243.772L499.093 242.688L497.901 243.157C497.901 243.157 494.597 242.152 493.892 243.368Z" fill="black"/>
<path d="M493.629 243.105C493.629 243.105 495.966 245.842 495.923 246.391C495.88 246.94 495.789 248.301 495.789 248.301L494.025 251.821C494.025 251.821 493.072 256.209 493.072 257.12C493.072 258.03 491.527 265.939 491.527 265.939L489.677 278.104L487.336 294.062L489.72 298.103L492.542 295.756L496.294 267.342L497.091 261.738C497.091 261.738 497.93 251.657 497.93 250.615C497.84 249.346 497.681 248.084 497.453 246.832C497.453 246.832 498.025 244.227 500.409 243.617C502.793 243.007 500.233 243.49 500.233 243.49L498.864 242.401L497.672 242.871C497.672 242.871 494.335 241.89 493.629 243.105Z" fill="#0E153A"/>
<path opacity="0.1" d="M492.085 238.543C492.085 238.543 491.732 238.806 491.641 240.542C491.551 242.279 490.316 246.174 490.316 246.174C490.316 246.174 494.907 243.049 497.2 243.396L492.085 238.543Z" fill="black"/>
<path d="M492.085 238.022C492.085 238.022 491.732 238.285 491.641 240.022C491.551 241.758 490.316 245.654 490.316 245.654C490.316 245.654 494.907 242.528 497.2 242.875L492.085 238.022Z" fill="#E7EFFD"/>
<path opacity="0.1" d="M504.619 237.154L497.382 243.411C497.382 243.411 503.47 246.973 504.266 247.841C505.062 248.709 505.854 239.327 505.854 239.327L504.619 237.154Z" fill="black"/>
<path d="M504.881 236.633L497.644 242.889C497.644 242.889 503.737 246.451 504.528 247.32C505.319 248.188 506.116 238.806 506.116 238.806L504.881 236.633Z" fill="#E7EFFD"/>
<path opacity="0.1" d="M492.347 238.543C492.347 238.543 491.555 238.154 490.802 239.285C490.252 240.021 489.504 240.592 488.642 240.932C488.642 240.932 480.609 242.195 480.299 243.237L476.547 243.453C476.547 243.453 475.222 243.626 475.117 246.367C475.012 249.108 474.278 249.362 474.278 249.362C474.278 249.362 472.733 252.056 472.848 253.445C472.865 253.868 472.762 254.287 472.552 254.655C472.341 255.024 472.031 255.328 471.656 255.534L477.172 269.651C477.172 269.651 477.348 275.476 476.333 277.602C475.317 279.728 473.42 289.162 473.42 289.162C473.42 289.162 474.216 288.988 474.168 289.509C474.12 290.03 473.215 295.723 473.215 295.723C473.215 295.723 472.948 297.981 472.509 298.765C472.07 299.548 472.032 303.627 472.032 303.627L471.327 306.584C471.327 306.584 473 310.278 475.56 309.757C478.12 309.236 482.75 299.37 482.75 299.37L485.706 288.725L488.004 278.212L488.666 271.088L489.725 255.313L491.269 244.889C491.269 244.889 492.967 239.285 492.347 238.543Z" fill="black"/>
<path d="M492.085 238.022C492.085 238.022 491.289 237.632 490.54 238.763C489.988 239.5 489.238 240.07 488.376 240.411C488.376 240.411 480.342 241.673 480.032 242.715L476.285 242.931C476.285 242.931 474.96 243.105 474.826 245.841C474.693 248.577 473.987 248.84 473.987 248.84C473.987 248.84 472.442 251.534 472.557 252.923C472.575 253.346 472.473 253.766 472.263 254.135C472.052 254.504 471.741 254.807 471.365 255.012L476.9 269.149C476.9 269.149 477.076 274.973 476.061 277.099C475.045 279.225 473.148 288.659 473.148 288.659C473.148 288.659 473.944 288.485 473.901 289.006C473.858 289.527 472.948 295.216 472.948 295.216C472.948 295.216 472.686 297.478 472.242 298.257C471.799 299.036 471.765 303.124 471.765 303.124L471.06 306.081C471.06 306.081 472.738 309.775 475.298 309.249C477.858 308.724 482.492 298.867 482.492 298.867L485.448 288.223L487.742 277.709L488.376 270.557L489.434 254.782L490.979 244.358C490.979 244.358 492.7 238.763 492.085 238.022Z" fill="#65617D"/>
<path opacity="0.1" d="M463.751 271.65L461.191 273.387C461.191 273.387 457.277 273.509 454.478 272.833L453.048 272.208L452.762 272.086L453.058 272.18C454.194 272.579 455.428 272.622 456.59 272.302C460.214 271.101 459.813 265.215 459.67 263.882C459.67 263.746 459.646 263.662 459.642 263.629V263.662C459.692 263.742 459.748 263.818 459.808 263.892L459.97 264.061L461.296 266.567C461.299 266.603 461.299 266.639 461.296 266.675L463.751 271.65Z" fill="black"/>
<path d="M472.619 254.665L471.384 255.012L471.207 257.486C471.207 257.486 469.777 257.27 469.353 258.964C469.183 259.862 468.807 260.71 468.252 261.442C468.252 261.442 465.825 263.442 465.691 265.136L464.19 266.047C464.19 266.047 460.704 265.263 459.899 263.874C459.899 263.874 461.491 275.081 453.014 272.322C453.014 272.322 462.502 276.405 462.945 276.973C463.389 277.541 466.283 279.188 468.948 277.799C471.613 276.41 472.171 274.279 472.171 274.279C472.171 274.279 474.731 270.759 474.816 270.238C474.902 269.717 476.89 269.107 476.89 269.107L480.704 260.072L472.619 254.665Z" fill="#65617D"/>
<path opacity="0.1" d="M503.603 242.368L504.881 236.633C504.881 236.633 505.458 238.51 506.03 238.937L507.937 240.345C507.937 240.345 509.844 241.214 510.497 241.214C511.15 241.214 514.735 242.152 515.174 242.622C515.613 243.091 517.381 242.753 517.381 242.753C517.381 242.753 518.836 243.222 520.118 243.537C521.4 243.851 522.025 245.926 521.749 246.752C521.642 247.163 521.643 247.593 521.752 248.004C521.86 248.414 522.072 248.791 522.368 249.099C522.897 249.62 523.164 251.314 523.164 251.314C523.813 251.522 524.351 251.974 524.662 252.572C525.105 253.51 524.971 255.613 524.971 255.613L518.397 264.737C518.397 264.737 518.483 268.257 518.221 269.041C517.958 269.825 519.145 283.121 519.145 283.121L520.514 305.973C519.812 306.58 519.075 307.146 518.306 307.668C517.911 307.841 517.515 299.586 517.515 299.285C517.515 298.985 507.317 284.266 507.317 284.266C507.317 284.266 505.949 282.093 505.949 281.615C505.949 281.136 504.671 276.747 504.671 276.747L502.731 268.299L503.603 242.368Z" fill="black"/>
<path d="M525.51 255.12C525.51 255.421 525.51 255.618 525.51 255.618L518.94 264.733C518.94 264.733 519.031 268.253 518.764 269.036C518.611 269.506 518.945 274.166 519.241 278.006C519.465 280.775 519.67 283.112 519.67 283.112L520.252 292.804L521.038 305.945C520.336 306.552 519.599 307.118 518.831 307.64C518.435 307.813 518.039 299.558 518.039 299.253C518.039 298.948 507.842 284.234 507.842 284.234C507.842 284.234 506.473 282.061 506.473 281.582C506.473 281.103 505.196 276.715 505.196 276.715L503.255 268.267L504.137 242.373L504.886 236.638C504.886 236.638 505.992 238.515 506.564 238.937L508.471 240.374C508.471 240.374 510.378 241.242 511.031 241.242C511.684 241.242 515.269 242.181 515.708 242.65C516.147 243.119 517.915 242.781 517.915 242.781C517.915 242.781 519.374 243.251 520.652 243.565C521.93 243.88 522.559 245.954 522.283 246.78C522.177 247.191 522.178 247.622 522.286 248.032C522.395 248.442 522.606 248.819 522.902 249.127C523.431 249.648 523.698 251.342 523.698 251.342C524.346 251.551 524.885 252.003 525.195 252.6C525.455 253.414 525.561 254.268 525.51 255.12Z" fill="#65617D"/>
<path opacity="0.1" d="M471.56 370.884C471.78 370.884 481.048 371.231 480.871 372.71C480.695 374.188 471.56 370.884 471.56 370.884Z" fill="black"/>
<path opacity="0.1" d="M473.634 373.343C473.634 373.343 479.856 374.342 478.225 375.253C476.595 376.163 473.634 373.343 473.634 373.343Z" fill="black"/>
<path opacity="0.1" d="M496.762 369.931C496.762 369.931 507.088 370.799 505.544 371.925C503.999 373.052 500.337 373.23 500.161 373.272C499.985 373.315 496.762 369.931 496.762 369.931Z" fill="black"/>
<path opacity="0.1" d="M495.527 374.403C495.527 374.403 501.248 375.342 501.439 376.445C501.629 377.548 495.527 374.403 495.527 374.403Z" fill="black"/>
<path opacity="0.1" d="M498.702 348.247C498.702 348.247 503.946 349.463 504.266 350.289L498.702 348.247Z" fill="black"/>
<path opacity="0.1" d="M478.459 351.983C478.459 351.983 475.722 352.767 478.373 354.33C481.024 355.893 478.459 351.983 478.459 351.983Z" fill="black"/>
<path opacity="0.1" d="M490.583 310.231C490.893 310.231 495.703 308.668 497.381 309.363C498.581 309.804 499.849 310.039 501.129 310.057L490.583 310.231Z" fill="black"/>
<path opacity="0.1" d="M491.203 315.182L491.155 315.613L487.041 326.22C487.041 326.22 486.378 329.436 485.806 331.261C485.444 332.495 485.156 333.749 484.943 335.016L488.585 312.783L491.203 315.182Z" fill="black"/>
<path d="M497.611 296.465L495.899 296.493H495.847L494.841 292.114L496.328 292.034L497.611 296.465Z" fill="#3F3D56"/>
<path d="M518.43 291.161L517.334 292.052L513.663 295.023C513.663 295.023 503.737 300.238 501 295.286C498.588 290.921 509.844 287.805 512.557 287.124L513.134 286.988L518.43 291.161Z" fill="#FBBEBE"/>
<path opacity="0.1" d="M476.018 248.451C476.018 248.451 477.958 249.319 478.402 250.535C478.845 251.751 476.018 248.451 476.018 248.451Z" fill="black"/>
<path opacity="0.1" d="M470.016 261.484C470.016 261.484 467.193 264.873 468.337 266.178C469.482 267.483 470.016 261.484 470.016 261.484Z" fill="black"/>
<path opacity="0.1" d="M520.504 250.375C520.504 250.375 517.858 250.638 517.768 252.895L520.504 250.375Z" fill="black"/>
<path opacity="0.1" d="M495.965 285.989C496.232 285.726 502.321 276.865 503.737 277.649L495.965 285.989Z" fill="black"/>
<path opacity="0.1" d="M507.355 228.377C507.356 230.08 506.928 231.757 506.111 233.258H506.034C505.367 233.117 505.019 232.357 504.514 231.878C504.201 231.585 503.803 231.395 503.375 231.336C502.948 231.278 502.512 231.352 502.13 231.55C501.743 231.777 501.428 232.106 501.221 232.5C501.014 232.894 500.922 233.337 500.957 233.779C500.623 232.371 500.728 230.907 500.399 229.513C500.07 228.119 499.083 226.697 497.729 226.697C497.148 226.697 496.466 226.908 496.046 226.476C495.794 226.218 495.741 225.81 495.57 225.495C494.616 223.951 491.66 224.73 490.459 225.523C489.257 226.316 487.86 227.574 486.368 228.25C486.388 225.508 487.514 222.886 489.498 220.961C491.482 219.036 494.162 217.966 496.947 217.986C499.733 218.006 502.396 219.114 504.352 221.067C506.307 223.02 507.394 225.658 507.374 228.4L507.355 228.377Z" fill="black"/>
<path d="M495.551 225.209C495.741 225.523 495.794 225.931 496.027 226.194C496.447 226.621 497.129 226.401 497.71 226.41C499.064 226.434 500.056 227.846 500.38 229.226C500.704 230.606 500.604 232.099 500.943 233.488C500.904 233.046 500.993 232.603 501.2 232.209C501.407 231.816 501.722 231.487 502.111 231.263C502.493 231.066 502.928 230.992 503.355 231.05C503.782 231.108 504.181 231.296 504.494 231.587C505 232.056 505.348 232.831 506.015 232.967C506.683 233.103 507.322 232.474 507.56 231.784C507.732 231.071 507.859 230.349 507.941 229.62C508.242 228.269 509.143 227.156 509.639 225.866C510.23 224.298 510.215 222.57 509.596 221.013C509.262 220.196 508.771 219.464 508.437 218.666C507.927 217.432 507.794 216.033 507.174 214.855C506.676 213.901 505.85 213.152 504.842 212.745C503.834 212.337 502.712 212.296 501.677 212.63C500.723 212.987 499.884 213.672 498.912 213.982C497.605 214.395 496.213 214.085 494.864 213.897C493.515 213.71 492.003 213.696 490.936 214.569C489.686 215.578 489.343 217.469 488.17 218.572C487.694 219.041 487.064 219.332 486.545 219.76C486.264 219.964 486.035 220.229 485.877 220.536C485.719 220.842 485.636 221.181 485.634 221.524C485.715 222.425 486.588 223.242 486.278 224.077C486.163 224.318 486.001 224.533 485.801 224.711C484.818 225.727 484.087 226.952 483.665 228.292C486.049 229.015 488.585 226.452 490.43 225.241C491.641 224.448 494.583 223.669 495.551 225.209Z" fill="#7C5C5C"/>
<path opacity="0.1" d="M518.43 291.161L517.334 292.052C516.38 290.461 512.385 287.289 512.385 287.289L512.557 287.124L513.133 286.988L518.43 291.161Z" fill="black"/>
<path d="M519.489 289.551C519.489 289.551 519.098 290.518 518.688 291.354C518.278 292.189 517.834 292.949 517.815 292.335C517.768 291.114 512.652 287.031 512.652 287.031L513.343 286.364L514.149 285.595L519.489 289.551Z" fill="#E7EFFD"/>
<path opacity="0.1" d="M519.665 283.121L520.247 292.813C518.874 290.715 515.112 285.336 512.695 285.51L518.564 278.864C518.808 278.597 519.032 278.313 519.236 278.015C519.46 280.784 519.665 283.121 519.665 283.121Z" fill="black"/>
<path opacity="0.1" d="M519.489 289.551C519.489 289.551 519.098 290.518 518.688 291.354C517.148 289.279 515.036 286.824 513.343 286.364L514.149 285.595L519.489 289.551Z" fill="black"/>
<path d="M523.904 254.402L525.491 255.618C525.491 255.618 528.142 255.665 528.404 257.833C528.666 260.002 531.098 261.006 531.098 261.006C531.098 261.006 532.905 262.789 532.905 263.616C532.905 264.442 534.273 265.915 534.273 266.047C534.273 266.178 535.598 268.825 535.422 269.304C535.246 269.783 536.852 271.867 536.347 272.65C535.95 273.353 535.597 274.079 535.288 274.823C535.288 274.823 533.215 278.733 532.156 279.47C531.098 280.207 526.244 286.426 526.244 286.426C526.244 286.426 521.034 292.33 521.034 294.156C521.034 294.156 515.961 285.815 512.957 286.031L518.826 279.385C518.826 279.385 519.842 278.297 519.889 277.649C519.937 277.001 522.712 273.997 524.037 273.866C524.037 273.866 524.256 272.087 523.684 272.04C523.112 271.993 522.626 270.632 522.626 270.632C522.626 270.632 518.74 266.112 518.697 263.245C518.655 260.377 523.904 254.402 523.904 254.402Z" fill="#65617D"/>
<path opacity="0.1" d="M526.244 258.527C526.244 258.527 522.535 261.221 523.331 262.094C524.127 262.967 526.244 258.527 526.244 258.527Z" fill="black"/>
<path opacity="0.1" d="M526.421 269.651C526.421 269.651 533.305 267.478 534.011 269.651H526.421Z" fill="black"/>
<path opacity="0.1" d="M483.789 385.077C483.789 385.077 480.08 387.47 478.225 387.118C476.941 386.959 475.637 387.171 474.473 387.729C473.198 389.103 471.589 390.135 469.796 390.728C466.793 391.727 462.602 391.333 460.218 390.554C459.093 390.183 459.003 389.704 459.546 389.118C462.135 389.625 467.927 390.634 469.486 389.902C471.205 389.004 472.857 387.987 474.43 386.86C474.43 386.86 478.245 386.339 478.755 386.339C479.131 386.339 482.063 385.147 483.718 384.462L483.789 385.077Z" fill="black"/>
<path opacity="0.1" d="M506.24 389.981C506.24 390.127 506.206 390.221 506.206 390.221C506.206 390.221 505.324 392.131 500.423 392.826C495.522 393.52 495.527 391.221 495.527 391.221L495.575 390.596C497.124 391.178 500.509 391.821 506.24 389.981Z" fill="black"/>
<path opacity="0.1" d="M477.849 258.007C477.849 258.007 477.849 267.915 476.991 268.891C476.133 269.867 477.849 258.007 477.849 258.007Z" fill="black"/>
<path opacity="0.1" d="M517.634 261.203L518.916 264.742C518.916 264.742 519.422 261.269 517.634 261.203Z" fill="black"/>
<g opacity="0.1">
<path opacity="0.1" d="M486.43 223.224C486.754 222.412 485.906 221.609 485.796 220.736C485.682 220.982 485.633 221.251 485.653 221.52C485.71 222.182 486.206 222.797 486.335 223.398C486.372 223.343 486.404 223.285 486.43 223.224Z" fill="black"/>
<path opacity="0.1" d="M501.076 232.583C500.762 231.212 500.857 229.767 500.533 228.392C500.209 227.016 499.217 225.576 497.863 225.576C497.281 225.576 496.6 225.782 496.18 225.355C495.923 225.097 495.875 224.688 495.703 224.369C494.75 222.83 491.794 223.614 490.588 224.402C488.785 225.58 486.297 228.054 483.989 227.49C483.88 227.753 483.775 228.021 483.689 228.298C486.073 229.021 488.609 226.458 490.454 225.247C491.66 224.458 494.602 223.679 495.57 225.219C495.76 225.533 495.813 225.942 496.047 226.204C496.466 226.632 497.148 226.411 497.729 226.42C499.083 226.444 500.075 227.857 500.399 229.236C500.724 230.616 500.623 232.109 500.962 233.498C500.938 233.189 500.977 232.877 501.076 232.583Z" fill="black"/>
<path opacity="0.1" d="M507.713 230.954C507.474 231.644 506.845 232.277 506.163 232.136C505.482 231.996 505.153 231.235 504.647 230.757C504.334 230.465 503.936 230.277 503.509 230.218C503.081 230.159 502.646 230.233 502.263 230.428C501.895 230.645 501.592 230.954 501.386 231.325C501.18 231.695 501.078 232.113 501.091 232.535C501.268 232.004 501.638 231.556 502.13 231.277C502.512 231.081 502.947 231.006 503.374 231.064C503.802 231.122 504.2 231.31 504.514 231.601C505.019 232.071 505.367 232.845 506.035 232.981C506.702 233.117 507.341 232.488 507.579 231.798C507.709 231.393 507.79 230.974 507.822 230.55C507.795 230.687 507.759 230.822 507.713 230.954Z" fill="black"/>
<path opacity="0.1" d="M509.791 225.031C509.315 226.317 508.394 227.43 508.094 228.786C508.037 229.058 507.999 229.34 507.965 229.621C508.27 228.27 509.162 227.162 509.658 225.867C509.879 225.288 510.016 224.681 510.063 224.064C509.998 224.393 509.907 224.716 509.791 225.031Z" fill="black"/>
</g>
<path d="M446.011 256.491C446.072 256.491 446.121 256.442 446.121 256.383C446.121 256.323 446.072 256.274 446.011 256.274C445.95 256.274 445.901 256.323 445.901 256.383C445.901 256.442 445.95 256.491 446.011 256.491Z" fill="#E6E8EC"/>
<path d="M488.051 258.805H407.975C406.235 258.805 404.824 260.194 404.824 261.907V353.429C404.824 355.142 406.235 356.531 407.975 356.531H488.051C489.792 356.531 491.203 355.142 491.203 353.429V261.907C491.203 260.194 489.792 258.805 488.051 258.805Z" fill="white"/>
<path opacity="0.1" d="M488.051 258.805H407.975C406.235 258.805 404.824 260.194 404.824 261.907V353.429C404.824 355.142 406.235 356.531 407.975 356.531H488.051C489.792 356.531 491.203 355.142 491.203 353.429V261.907C491.203 260.194 489.792 258.805 488.051 258.805Z" fill="#5A5773"/>
<path d="M483.646 263.789H412.381C410.64 263.789 409.229 265.178 409.229 266.891V348.444C409.229 350.158 410.64 351.547 412.381 351.547H483.646C485.387 351.547 486.798 350.158 486.798 348.444V266.891C486.798 265.178 485.387 263.789 483.646 263.789Z" fill="white"/>
<path d="M470.855 281.39H423.389C421.801 281.39 420.514 282.657 420.514 284.22V296.639C420.514 298.202 421.801 299.469 423.389 299.469H470.855C472.442 299.469 473.729 298.202 473.729 296.639V284.22C473.729 282.657 472.442 281.39 470.855 281.39Z" fill="#0E153A"/>
<path d="M471.78 306.082H422.469V309.771H471.78V306.082Z" fill="#0E153A"/>
<path d="M481.939 313.868H414.087V317.557H481.939V313.868Z" fill="#0E153A"/>
<path d="M481.939 322.062H414.087V325.752H481.939V322.062Z" fill="#0E153A"/>
<path d="M481.939 330.257H414.087V333.946H481.939V330.257Z" fill="#0E153A"/>
<path d="M200.238 226.5H3.15136C1.41091 226.5 0 227.889 0 229.602V321.124C0 322.837 1.41091 324.226 3.15136 324.226H200.238C201.978 324.226 203.389 322.837 203.389 321.124V229.602C203.389 227.889 201.978 226.5 200.238 226.5Z" fill="white"/>
<path opacity="0.1" d="M200.238 226.5H3.15136C1.41091 226.5 0 227.889 0 229.602V321.124C0 322.837 1.41091 324.226 3.15136 324.226H200.238C201.978 324.226 203.389 322.837 203.389 321.124V229.602C203.389 227.889 201.978 226.5 200.238 226.5Z" fill="#5A5773"/>
<path d="M189.859 231.484H13.5256C11.7852 231.484 10.3743 232.873 10.3743 234.587V316.14C10.3743 317.853 11.7852 319.242 13.5256 319.242H189.859C191.599 319.242 193.01 317.853 193.01 316.14V234.587C193.01 232.873 191.599 231.484 189.859 231.484Z" fill="white"/>
<path d="M159.375 249.09H39.8285C38.2407 249.09 36.9536 250.357 36.9536 251.92V264.339C36.9536 265.902 38.2407 267.169 39.8285 267.169H159.375C160.963 267.169 162.25 265.902 162.25 264.339V251.92C162.25 250.357 160.963 249.09 159.375 249.09Z" fill="#0E153A"/>
<path d="M157.654 273.776H41.5493V277.465H157.654V273.776Z" fill="#0E153A"/>
<path d="M181.573 281.562H21.8115V285.252H181.573V281.562Z" fill="#0E153A"/>
<path d="M181.573 289.758H21.8115V293.447H181.573V289.758Z" fill="#0E153A"/>
<path d="M181.573 297.952H21.8115V301.641H181.573V297.952Z" fill="#0E153A"/>
<path d="M49.7116 394.548C50.2789 392.511 50.6651 390.718 50.6651 390.718C50.6757 389.356 51.04 388.02 51.7235 386.836V386.273L51.8856 382.138C51.6335 381.377 51.3145 380.639 50.9321 379.932C50.2265 378.604 51.1704 373.868 51.1704 373.868C51.1704 373.868 54.236 367.265 53.7211 362.98C53.2062 358.695 60.2145 344.286 60.2145 344.286C60.2332 342.866 60.086 341.449 59.7759 340.062C59.7196 339.773 59.7035 339.477 59.7282 339.184C59.7259 339.148 59.7259 339.112 59.7282 339.076V339.109C59.9332 336.293 62.3933 331.13 62.3933 331.13L62.4839 321.086C62.4839 321.086 61.2729 315.116 63.9142 307.264C64.8438 304.523 65.4541 302.327 65.8546 300.628C65.9022 300.435 65.9451 300.252 65.9833 300.074C61.1776 299.163 57.5065 298.422 57.5065 298.422C57.5065 298.422 60.7628 286.979 62.7509 285.031C64.7389 283.084 66.4839 276.785 66.4839 276.785C66.4839 276.785 67.7902 268.665 66.2932 266.225C64.7962 263.784 64.7294 259.654 64.7294 259.654C64.7294 259.654 61.1919 256.918 60.7819 255.749C60.3718 254.581 59.7187 251.948 59.7711 250.586C59.8236 249.225 60.3289 248.005 60.205 247.278C60.081 246.55 61.4016 243.856 60.8438 242.532C60.7051 242.126 60.6405 241.699 60.6531 241.27C60.6531 241.27 60.6531 241.27 60.6531 241.232C60.6928 240.096 60.8445 238.966 61.1061 237.858C62.1899 237.024 63.4411 236.425 64.7771 236.103L64.8677 235.793L65.1061 234.99C65.2233 234.918 65.3442 234.852 65.4684 234.793L65.4922 234.497L65.5685 233.329L65.1108 230.663C64.1573 226.035 70.4124 225.589 70.4124 225.589C70.815 224.9 71.4619 224.382 72.2288 224.134C73.497 223.749 72.1716 231.038 71.5661 231.484C71.0893 231.817 69.6591 234.066 68.9678 235.169L68.8534 235.352C68.9537 235.446 69.0462 235.548 69.1299 235.657L68.8295 237.238L68.7818 237.478C69.1754 237.997 69.4887 238.571 69.7115 239.181C69.7115 239.181 68.5244 240.364 68.7008 241.744C68.7522 242.817 68.5903 243.89 68.224 244.903C68.2908 244.832 69.1251 244.011 69.9165 244.246C70.7079 244.48 72.9106 245.227 72.9106 245.227C72.9106 245.227 74.5649 245.579 74.398 245.935C74.2312 246.292 75.4612 247.925 75.4612 247.925L80.1001 243.922C80.1525 243.795 80.2002 243.673 80.2479 243.546C80.4616 242.956 80.6211 242.348 80.7246 241.73C80.2356 241.599 79.7574 241.431 79.2943 241.228C78.8294 241.052 78.4141 240.768 78.0834 240.402C77.6543 239.857 77.6066 239.134 77.4398 238.473C77.1346 237.177 76.4195 236.004 75.9189 234.76C75.0792 232.673 74.8576 230.395 75.28 228.189C75.3819 227.514 75.6431 226.871 76.0429 226.312C76.8152 225.35 78.1549 224.998 79.1513 224.247C80.1477 223.496 80.8152 222.309 81.9594 221.759C82.9987 221.262 84.2335 221.375 85.373 221.6C87.5857 222.044 89.6954 222.889 91.5947 224.092C92.2335 224.5 92.9344 224.97 93.6924 224.862C94.3215 224.697 94.8758 224.328 95.2657 223.815C95.2636 223.793 95.2636 223.771 95.2657 223.749L95.3181 223.698C95.7512 224.751 95.9433 225.886 95.8807 227.021C95.8807 227.194 95.8807 227.373 95.8426 227.546C95.8426 227.607 95.8426 227.668 95.8426 227.729C95.8378 227.781 95.8378 227.833 95.8426 227.884C95.8403 227.962 95.85 228.039 95.8712 228.114C95.9549 228.346 96.0901 228.556 96.2669 228.729C96.3964 228.886 96.5113 229.054 96.6102 229.231C96.6102 229.17 96.5768 229.109 96.5577 229.048C96.8276 229.47 96.9699 229.958 96.9677 230.456C96.9787 230.819 96.8433 231.172 96.5911 231.437C96.3607 231.648 96.1081 231.833 95.8378 231.991C96.0792 233.696 95.7846 235.432 94.9937 236.967C94.2027 238.501 92.9533 239.761 91.4135 240.575C91.3563 240.697 91.2991 240.824 91.2466 240.951C90.537 242.442 90.194 244.078 90.2454 245.724C90.2454 245.841 90.2454 245.959 90.2836 246.076C90.3217 246.193 90.3932 246.203 90.4409 246.268C90.4409 246.268 97.8307 246.62 99.6328 245.133C101.435 243.645 103.876 249.089 103.876 249.089C103.876 249.089 106.508 249.695 107.056 249.211C107.604 248.728 110.698 249.277 110.698 249.277C112.01 248.212 113.684 247.68 115.38 247.789C116.446 247.054 117.613 246.472 118.846 246.062L118.932 246.034C119.471 245.861 120.044 245.811 120.605 245.888C120.605 245.888 124.357 243.072 125.478 241.519C126.598 239.965 131.857 234.272 131.857 234.244L131.89 233.962L131.981 233.108C132.128 233.138 132.278 233.157 132.429 233.164L132.543 232.869C132.866 232.044 133.256 231.246 133.711 230.484C133.711 230.484 133.754 229.4 133.444 229.119C133.134 228.837 133.745 224.895 133.745 224.895C133.745 224.895 137.316 217.479 140.028 223.219C140.028 223.219 145.435 227.072 140.61 231.137C140.61 231.137 138.703 231.954 138.431 232.643C138.241 233.113 137.559 234.342 137.101 235.173L136.896 235.544L136.949 235.591L136.853 236.295L136.815 236.572C137.668 237.093 138.245 237.6 138.088 237.98C137.804 238.595 137.601 239.243 137.483 239.909C137.483 239.909 130.741 247.559 129.778 250.934C129.778 250.934 112.11 260.386 106.417 260.893L107.204 265.981C107.297 267.354 107.319 268.731 107.27 270.106C107.151 271.186 107.719 276.119 107.719 276.119C107.719 276.119 108.419 283.375 109.216 284.417C110.012 285.459 109.692 289.786 109.692 289.786C109.812 291.866 110.112 293.932 110.589 295.962C111.313 298.736 110.589 302.106 110.589 302.106C110.589 302.106 113.216 308.71 106.493 304.044C106.493 304.044 103.118 303.711 99.2275 303.434C99.2275 303.556 99.2275 303.688 99.2275 303.814C99.2275 304.312 99.2037 304.847 99.1894 305.41C99.0941 309.132 98.9177 314.257 98.5935 318.129C98.0214 324.977 95.3706 338.466 95.3706 338.466L95.1036 345.281C95.217 345.927 95.2585 346.583 95.2276 347.238C95.1826 349.643 94.4435 351.985 93.0965 353.992L92.3861 358.521C92.3861 358.521 91.0273 361.468 90.932 363.257C90.9294 363.403 90.9422 363.549 90.9701 363.693C91.0051 363.925 91.0163 364.159 91.0035 364.392C91.0035 366.458 89.5351 371.348 89.5351 371.348C89.5351 371.348 89.2633 376.328 88.4958 376.586C87.8378 376.811 89.249 379.491 89.6686 380.261C89.6842 380.215 89.6954 380.168 89.7019 380.12L89.7925 380.27C89.9328 380.68 89.9959 381.111 89.9785 381.542C90.0069 381.884 89.9364 382.227 89.7753 382.531C89.6141 382.835 89.3689 383.088 89.0679 383.26C87.5947 384.072 86.7937 384.762 88.0047 385.1C88.4518 385.186 88.8941 385.294 89.3301 385.424L89.4016 385.259C89.5726 385.332 89.7131 385.46 89.7999 385.622C89.8866 385.785 89.9143 385.971 89.8783 386.151C89.8452 386.741 89.6669 387.315 89.3587 387.822C88.7715 389.103 88.0356 390.312 87.1656 391.427L86.584 391.342C86.6626 391.562 86.7683 391.772 86.8986 391.966C87.1072 392.289 87.3917 392.558 87.7282 392.75C88.0374 392.947 88.3849 393.078 88.7484 393.135C89.1592 393.165 89.559 393.279 89.922 393.471C90.2851 393.662 90.6031 393.927 90.8557 394.247C91.5708 395.238 91.9951 396.566 90.4552 397.659L84.9677 399.293C84.9677 399.293 75.6042 400.133 76.1763 398.096C76.7485 396.059 77.1299 394.266 77.1299 394.266C77.1399 393.006 77.4467 391.766 78.0262 390.643C78.132 390.46 78.2499 390.285 78.379 390.117L78.05 390.07C78.05 390.07 77.5065 385.494 76.6102 384.607C76.41 384.396 76.367 384.241 76.4195 384.138C76.3384 383.889 76.5768 383.753 76.8962 383.668C76.8962 383.725 76.9392 383.786 76.9582 383.847C77.2574 383.797 77.5608 383.777 77.8641 383.786C77.8641 383.786 78.2598 381.416 77.311 380.5C77.2343 380.399 77.1802 380.284 77.1523 380.161C77.1244 380.038 77.1232 379.91 77.1489 379.787C77.1509 379.46 77.1974 379.135 77.2872 378.82C77.2965 378.84 77.3077 378.859 77.3206 378.876C77.9022 376.736 79.7043 373.366 79.7043 373.366C79.7043 373.366 79.8617 371.203 79.2896 370.311C78.7175 369.419 79.8283 358.549 79.8283 358.549C79.8283 358.549 79.8045 353.274 80.5816 350.847C81.3587 348.421 79.957 345.473 79.957 345.473C79.957 345.473 79.957 345.417 79.9809 345.318C79.9824 345.304 79.9824 345.29 79.9809 345.276C79.9809 345.276 80.0285 344.952 80.1048 344.45V344.502C80.3146 343.094 80.7008 340.602 80.9582 339.438C81.3253 337.79 81.2586 329.835 81.2586 329.835L80.0238 326.409L77.3682 332.163L74.5077 339.86C74.5077 339.86 73.168 341.456 73.0774 343.145C73.0774 343.23 73.0774 343.31 73.0774 343.394C73.0892 343.568 73.0892 343.742 73.0774 343.915C73.0814 344.901 72.7675 345.862 72.1811 346.661C72.1811 346.661 71.3563 350.317 70.2741 351.213C69.1919 352.11 69.106 353.917 69.106 353.917C69.106 353.917 67.609 359.211 66.9654 360.126C66.4267 360.896 66.3122 363.069 66.2932 363.735C66.2932 363.857 66.2932 363.928 66.2932 363.928C66.2932 363.928 66.0405 365.833 65.9833 367.438C65.9833 367.636 65.9833 367.828 65.9833 368.006C65.981 367.994 65.981 367.981 65.9833 367.969C65.9652 368.405 66.0004 368.841 66.0882 369.269C66.0882 369.269 66.0882 369.321 66.0882 369.349V369.076C66.3147 370.176 66.4027 371.298 66.3504 372.418C66.3075 374.338 65.9213 376.6 64.6865 377.891C62.5506 380.125 61.2777 379.768 61.2777 379.768C61.2777 379.768 62.1502 382.692 63.3373 383.316C63.383 383.34 63.4261 383.368 63.466 383.401C63.466 383.344 63.466 383.288 63.4994 383.237C63.6255 383.387 63.7186 383.561 63.7728 383.749C63.8269 383.936 63.841 384.132 63.814 384.325C63.8522 385.597 62.9559 387.611 62.1454 388.55C61.8503 388.818 61.4912 389.008 61.1013 389.103C61.1606 389.148 61.2227 389.189 61.2872 389.225C61.4195 389.302 61.5564 389.371 61.6972 389.432C61.8896 389.524 62.0955 389.586 62.3075 389.615C62.7189 389.642 63.1197 389.755 63.483 389.947C63.8464 390.139 64.1641 390.405 64.4147 390.727C65.1299 391.713 65.5542 393.041 64.0143 394.135L58.5268 395.768C58.5268 395.768 49.1347 396.585 49.7116 394.548Z" fill="url(#paint2_linear)"/>
<path d="M85.1585 399.303L90.4743 397.665C91.9666 396.566 91.5566 395.238 90.8653 394.248C90.6267 393.931 90.3212 393.668 89.9699 393.477C89.6185 393.287 89.2295 393.174 88.8295 393.145C88.4742 393.087 88.1359 392.954 87.8379 392.755C87.5133 392.562 87.2403 392.295 87.0417 391.976C86.6834 391.363 86.5036 390.665 86.522 389.958C86.522 389.958 80.8295 388.081 79.1895 389.681C78.8996 389.972 78.6539 390.302 78.4601 390.662C77.8975 391.791 77.5978 393.028 77.5828 394.285C77.5828 394.285 77.2205 396.074 76.6627 398.115C76.1049 400.157 85.1585 399.303 85.1585 399.303Z" fill="#2D293D"/>
<path d="M59.5993 395.786L64.9151 394.148C66.4073 393.05 65.9973 391.722 65.306 390.736C65.0674 390.417 64.7614 390.153 64.4091 389.962C64.0569 389.771 63.6667 389.657 63.2655 389.629C63.0598 389.602 62.86 389.541 62.6743 389.45C62.5383 389.388 62.4061 389.317 62.2786 389.239C60.8484 388.389 60.958 386.423 60.958 386.423C60.958 386.423 55.2655 384.546 53.6255 386.146C53.4055 386.362 53.2104 386.601 53.0438 386.859C52.3775 388.052 52.0236 389.389 52.014 390.75C52.014 390.75 51.6469 392.543 51.0939 394.58C50.5409 396.617 59.5993 395.786 59.5993 395.786Z" fill="#2D293D"/>
<path opacity="0.1" d="M79.1846 389.68C78.8964 389.971 78.6523 390.302 78.46 390.661L87.0416 391.971C86.6833 391.358 86.5035 390.659 86.5219 389.952C86.5219 389.952 80.8438 388.08 79.1846 389.68Z" fill="black"/>
<path opacity="0.1" d="M53.0442 386.878L52.9822 388.469C54.2408 390.699 60.7485 390.469 62.6746 389.45C62.5386 389.388 62.4064 389.317 62.2789 389.239C60.8487 388.389 60.9583 386.423 60.9583 386.423C60.9583 386.423 55.2658 384.546 53.6258 386.146C53.4047 386.368 53.2096 386.613 53.0442 386.878Z" fill="black"/>
<path d="M52.286 379.989C52.6648 380.697 52.9837 381.435 53.2395 382.195L53.0059 387.892C54.3789 390.333 62.0356 389.826 63.1131 388.568C64.1906 387.31 65.4206 383.955 64.2716 383.335C63.1226 382.716 62.2788 379.787 62.2788 379.787C62.2788 379.787 63.5136 380.125 65.5875 377.91C67.6614 375.694 67.2704 370.527 66.9462 369.288C66.622 368.049 67.1608 363.947 67.1608 363.947C67.1608 363.947 67.1989 361.055 67.8235 360.14C68.448 359.225 69.9021 353.931 69.9021 353.931C69.9021 353.931 69.9689 352.124 71.032 351.227C72.0952 350.331 72.9009 346.67 72.9009 346.67C73.5387 345.774 73.8404 344.687 73.7543 343.596C73.6065 341.784 75.1465 339.888 75.1465 339.888L77.945 332.191L80.5195 326.432L81.7066 329.872C81.7066 329.872 81.7638 337.828 81.4063 339.475C81.0487 341.122 80.4527 345.511 80.4527 345.511C80.4527 345.511 81.8067 348.454 81.0535 350.885C80.3002 353.316 80.3097 358.587 80.3097 358.587C80.3097 358.587 79.2227 369.461 79.7758 370.348C80.3288 371.235 80.1715 373.399 80.1715 373.399C80.1715 373.399 76.92 379.637 77.8354 380.543C78.7507 381.448 78.3693 383.828 78.3693 383.828C78.3693 383.828 76.3193 383.748 77.1631 384.649C78.007 385.55 78.4599 390.089 78.4599 390.089L87.2847 391.436C88.1303 390.316 88.8437 389.105 89.411 387.827C90.6887 385.203 89.2871 385.438 88.119 385.105C86.9509 384.771 87.7233 384.077 89.1488 383.265C90.5743 382.453 89.8449 380.472 89.8449 380.472C89.8449 380.472 87.8568 376.853 88.6053 376.595C89.3538 376.337 89.616 371.357 89.616 371.357C89.616 371.357 91.3133 365.491 91.0082 363.89C90.703 362.29 92.3955 358.521 92.3955 358.521L93.082 353.997C94.7535 351.478 95.4459 348.45 95.032 345.469L95.3085 338.466C95.3085 338.466 97.9021 325.001 98.4837 318.129C98.846 313.746 99.0272 307.752 99.1082 304.012C99.1559 301.909 99.175 300.52 99.175 300.52L67.628 296.07C67.5183 297.626 67.2645 299.169 66.8699 300.679C66.4838 302.383 65.8878 304.58 64.9629 307.32C62.3789 315.173 63.5327 321.143 63.5327 321.143L63.4325 331.186C63.4325 331.186 60.3813 337.795 60.8819 340.127C61.1809 341.516 61.3216 342.933 61.3014 344.352C61.3014 344.352 54.5124 358.751 55.0082 363.017C55.5041 367.284 52.5243 373.911 52.5243 373.911C52.5243 373.911 51.6042 378.66 52.286 379.989Z" fill="#575988"/>
<path opacity="0.05" d="M71.8663 343.07L62.2739 341.428C62.2739 341.428 67.523 347.135 71.8663 343.07Z" fill="black"/>
<path opacity="0.1" d="M64.0285 332.224C64.0285 332.224 63.5517 335.565 65.6065 336.917C65.5875 336.908 61.8926 336.19 64.0285 332.224Z" fill="black"/>
<path opacity="0.1" d="M65.0393 321.561C65.0393 321.561 72.8438 328.399 75.7949 327.972C78.7461 327.545 65.0393 321.561 65.0393 321.561Z" fill="black"/>
<path opacity="0.1" d="M83.7043 346.591C83.7043 346.591 89.7735 348.196 89.864 350.618C89.9546 353.04 83.7043 346.591 83.7043 346.591Z" fill="black"/>
<path opacity="0.05" d="M81.1727 376.628C81.1727 376.628 89.7543 378.543 87.2657 379.533C84.777 380.523 80.7007 381.237 80.7007 381.237C80.7007 381.237 77.9069 381.284 81.1727 376.628Z" fill="black"/>
<g opacity="0.05">
<path opacity="0.05" d="M88.9489 381.322C89.171 381.196 89.3617 381.022 89.5069 380.815C89.6521 380.607 89.7481 380.369 89.788 380.12L89.869 380.275C89.869 380.275 90.6033 382.251 89.173 383.091C89.0109 383.18 88.8583 383.274 88.6962 383.363C88.4436 383.307 88.167 383.26 87.9048 383.185C86.7415 382.833 87.5186 382.138 88.9489 381.322Z" fill="black"/>
<path opacity="0.05" d="M77.8212 380.327C77.5924 380.101 77.6258 379.548 77.8212 378.839C78.1496 379.493 78.2913 380.223 78.2312 380.951C78.1448 380.715 78.0046 380.501 77.8212 380.327Z" fill="black"/>
<path opacity="0.05" d="M80.5578 344.469C80.8423 345.336 81.0028 346.238 81.0346 347.149C80.8943 346.515 80.6931 345.896 80.4338 345.3C80.4338 345.3 80.4863 344.976 80.5578 344.469Z" fill="black"/>
<path opacity="0.05" d="M60.9012 339.931C60.8527 339.669 60.8351 339.403 60.8487 339.138C60.9393 339.682 60.9965 340.184 61.0299 340.625C60.9917 340.4 60.9488 340.17 60.9012 339.931Z" fill="black"/>
<path opacity="0.05" d="M79.7616 370.137C79.6183 369.613 79.5667 369.069 79.6091 368.527C79.8547 369.178 79.9713 369.87 79.9523 370.564C79.906 370.415 79.842 370.272 79.7616 370.137Z" fill="black"/>
<path opacity="0.05" d="M77.416 383.668C77.8153 385.135 78.0943 386.63 78.2503 388.141L87.0751 389.488C87.9238 388.369 88.6388 387.158 89.2062 385.879C89.3206 385.649 89.4064 385.442 89.4827 385.254C90.0023 385.512 90.193 386.066 89.4302 387.625C88.8623 388.901 88.149 390.111 87.3039 391.229L78.4601 389.891C78.4601 389.891 77.9833 385.32 77.1299 384.424C76.7342 383.978 77.0298 383.776 77.416 383.668Z" fill="black"/>
<path opacity="0.05" d="M89.6352 371.16C89.6352 371.16 89.3682 376.14 88.6245 376.398C88.286 375.558 88.0667 374.77 88.4004 374.652C89.1441 374.39 89.4159 369.415 89.4159 369.415C89.4159 369.415 91.1131 363.552 90.808 361.947C90.5029 360.342 92.1906 356.583 92.1906 356.583L92.8819 352.054C94.5534 349.535 95.2457 346.507 94.8318 343.526L95.1036 336.523C95.1036 336.523 97.6876 323.034 98.2502 316.186C98.6078 311.803 98.7889 305.809 98.8747 302.069C98.8747 301.393 98.9033 300.792 98.9129 300.285L99.1656 300.323C99.1656 300.323 99.1656 301.731 99.0988 303.81C99.0178 307.565 98.8366 313.549 98.4743 317.932C97.9117 324.775 95.3324 338.269 95.3324 338.269L95.0559 345.267C95.4699 348.247 94.7793 351.275 93.1107 353.795L92.4147 358.324C92.4147 358.324 90.7222 362.079 91.0273 363.693C91.3324 365.308 89.6352 371.16 89.6352 371.16Z" fill="black"/>
<path opacity="0.05" d="M62.8939 386.63C63.6525 385.631 64.1768 384.479 64.4291 383.256C65.3015 384.091 64.143 387.175 63.118 388.372C62.093 389.569 54.3838 390.136 53.0107 387.701L53.0632 386.325C54.9702 388.334 61.8737 387.823 62.8939 386.63Z" fill="black"/>
<path opacity="0.05" d="M52.0668 378.037C52.4456 378.745 52.7645 379.483 53.0203 380.243L52.9774 381.252C52.7775 380.749 52.5515 380.258 52.3004 379.778C52.0904 379.203 52.0059 378.59 52.0525 377.98L52.0668 378.037Z" fill="black"/>
<path opacity="0.05" d="M62.727 379.595C62.4691 379.029 62.2493 378.448 62.0691 377.854C62.0691 377.854 63.3039 378.187 65.373 375.953C66.8796 374.324 67.0846 371.156 66.9606 369.072C67.2848 370.316 67.671 375.46 65.6019 377.694C64.2383 379.158 63.2419 379.52 62.727 379.595Z" fill="black"/>
<path opacity="0.05" d="M67.1656 363.73C66.9804 365.149 66.8753 366.576 66.851 368.006C66.8226 367.779 66.7812 367.553 66.727 367.33C66.4076 366.087 66.9368 361.989 66.9368 361.989C66.9368 361.989 66.9797 359.098 67.5995 358.183C68.2193 357.268 69.6781 351.973 69.6781 351.973C69.6781 351.973 69.7497 350.171 70.8128 349.27C71.876 348.369 72.6817 344.713 72.6817 344.713C73.3173 343.815 73.6188 342.729 73.5351 341.638C73.3873 339.827 74.9272 337.931 74.9272 337.931L77.7258 330.233L80.3003 324.475L81.4874 327.92C81.4874 327.92 81.4874 328.342 81.4874 329.018L80.5339 326.202L77.9594 331.956L75.1609 339.658C75.1609 339.658 73.6209 341.535 73.7687 343.366C73.8548 344.457 73.5531 345.543 72.9153 346.44C72.9153 346.44 72.1096 350.096 71.0464 350.992C69.9833 351.889 69.9165 353.696 69.9165 353.696C69.9165 353.696 68.4576 358.99 67.8379 359.91C67.2181 360.83 67.1656 363.73 67.1656 363.73Z" fill="black"/>
</g>
<path d="M66.1977 230.71L66.6458 233.367L66.5695 234.54L66.5123 235.404L69.5588 235.831L69.9259 235.221C70.6029 234.118 72.0046 231.87 72.448 231.532C73.0296 231.086 74.3264 223.797 73.0963 224.182C72.3463 224.436 71.7181 224.954 71.3323 225.637C71.3323 225.637 65.2966 226.087 66.1977 230.71Z" fill="#FFCDD3"/>
<path opacity="0.1" d="M66.5125 235.403L69.5589 235.831L69.926 235.22C69.533 234.748 68.9868 234.423 68.3792 234.3C67.7715 234.177 67.1393 234.263 66.5887 234.545L66.5125 235.403Z" fill="black"/>
<path d="M65.6829 236.802L69.6829 237.876L69.7877 237.285L70.0786 235.703C69.8691 235.407 69.6021 235.154 69.293 234.96C68.9839 234.766 68.6389 234.634 68.2777 234.571C67.9165 234.509 67.5464 234.518 67.1886 234.597C66.8308 234.676 66.4924 234.824 66.193 235.032L65.9641 235.835L65.6829 236.802Z" fill="#DCE6F2"/>
<path d="M131.256 233.479L135.47 235.92C135.47 235.92 135.647 235.587 135.895 235.131C136.338 234.301 136.996 233.052 137.182 232.602C137.463 231.912 139.294 231.09 139.294 231.09C143.971 227.021 138.741 223.177 138.741 223.177C136.119 217.437 132.658 224.857 132.658 224.857C132.658 224.857 132.062 228.814 132.362 229.081C132.662 229.349 132.619 230.447 132.619 230.447C132.175 231.21 131.796 232.007 131.485 232.832C131.337 233.221 131.256 233.479 131.256 233.479Z" fill="#FFCDD3"/>
<path opacity="0.1" d="M131.256 233.479L135.47 235.92C135.47 235.92 135.647 235.587 135.895 235.131C135.304 234.61 133.215 232.785 132.505 232.86C132.166 232.893 131.824 232.893 131.485 232.86C131.337 233.221 131.256 233.479 131.256 233.479Z" fill="black"/>
<path d="M130.765 234.732L135.533 237.262L135.666 236.238L135.762 235.534C135.762 235.534 133.054 233.066 132.224 233.122C131.801 233.164 131.374 233.146 130.956 233.07L130.87 233.925L130.765 234.732Z" fill="#DCE6F2"/>
<path d="M77.2441 248.658C77.2441 248.658 98.2548 251.802 94.3597 250.394C91.647 249.409 90.6219 247.649 90.4694 245.734C90.4171 244.091 90.7431 242.457 91.4229 240.956C91.9748 239.665 92.6568 238.433 93.4586 237.276C93.4586 237.276 77.6685 227.932 80.5862 235.995C81.0371 237.215 81.2959 238.495 81.3538 239.792C81.3996 241.079 81.209 242.364 80.7912 243.584C80.1061 245.565 78.8786 247.321 77.2441 248.658Z" fill="#FFCDD3"/>
<path opacity="0.1" d="M80.6053 235.995C81.0562 237.215 81.3151 238.495 81.3729 239.792C82.8413 241.101 84.51 241.083 86.6506 241.162C88.2954 241.228 90.0975 241.688 91.4182 240.956C91.9701 239.665 92.6521 238.433 93.4539 237.276C93.4539 237.276 77.6876 227.932 80.6053 235.995Z" fill="black"/>
<path d="M87.2511 241.73C92.0723 241.73 95.9806 237.883 95.9806 233.137C95.9806 228.39 92.0723 224.543 87.2511 224.543C82.43 224.543 78.5217 228.39 78.5217 233.137C78.5217 237.883 82.43 241.73 87.2511 241.73Z" fill="#FFCDD3"/>
<path opacity="0.1" d="M77.2441 248.657C77.2441 248.657 98.2548 251.802 94.3597 250.394C91.647 249.408 90.6219 247.648 90.4694 245.733C89.4634 244.574 87.3848 243.687 86.0451 243.203C84.8253 242.751 83.4938 242.679 82.231 242.997C81.7274 243.121 81.2454 243.319 80.8007 243.583C80.113 245.565 78.8821 247.321 77.2441 248.657Z" fill="black"/>
<path opacity="0.1" d="M65.6829 236.802L69.6829 237.877L69.7877 237.286C69.3803 236.687 68.7956 236.227 68.1132 235.968C67.4308 235.708 66.6838 235.662 65.9737 235.835L65.6829 236.802Z" fill="black"/>
<path opacity="0.1" d="M130.765 234.732L135.533 237.262L135.666 236.239C134.121 235.359 132.511 234.593 130.851 233.948L130.765 234.732Z" fill="black"/>
<path opacity="0.1" d="M66.8508 300.679C74.9557 302.261 86.5409 304.354 88.405 303.871C89.9545 303.472 94.8412 303.707 99.0891 304.012C99.1368 301.909 99.1559 300.52 99.1559 300.52L67.6089 296.07C67.4992 297.626 67.2454 299.169 66.8508 300.679Z" fill="black"/>
<path d="M58.7793 298.483C58.7793 298.483 85.5063 304.049 88.4288 303.293C91.3513 302.538 106.14 304.035 106.14 304.035C112.639 308.691 110.107 302.092 110.107 302.092C110.107 302.092 110.827 298.722 110.107 295.948C109.646 293.916 109.357 291.85 109.244 289.772C109.244 289.772 109.563 285.444 108.796 284.407C108.028 283.37 107.366 276.109 107.366 276.109C107.366 276.109 106.827 271.176 106.941 270.097C107.056 269.017 106.884 265.971 106.884 265.971L106.126 260.884C111.652 260.372 128.762 250.901 128.762 250.901C129.716 247.54 136.243 239.834 136.243 239.834C136.36 239.169 136.558 238.522 136.834 237.905C137.311 236.769 130.813 234.211 130.813 234.211C130.813 234.211 125.659 239.942 124.591 241.49C123.523 243.039 119.866 245.865 119.866 245.865C119.322 245.79 118.767 245.84 118.245 246.01H118.159C116.968 246.426 115.844 247.009 114.822 247.742C113.171 247.641 111.543 248.174 110.283 249.23C110.283 249.23 107.294 248.685 106.765 249.169C106.236 249.652 103.685 249.052 103.685 249.052C103.685 249.052 101.301 243.617 99.5802 245.104C97.8591 246.592 90.6791 246.25 90.6791 246.25C89.778 244.964 87.4896 243.983 86.0593 243.466C84.8401 243.012 83.5078 242.94 82.2453 243.26C81.6974 243.393 81.1766 243.616 80.7054 243.922L76.2048 247.939C76.2048 247.939 75.0176 246.306 75.1797 245.949C75.3418 245.592 73.7495 245.245 73.7495 245.245C73.7495 245.245 71.647 244.513 70.8508 244.269C70.0546 244.025 69.2775 244.851 69.2107 244.926C69.5747 243.913 69.7366 242.841 69.6875 241.767C69.5206 240.387 70.6648 239.2 70.6648 239.2C68.343 232.897 62.3502 237.876 62.3502 237.876C62.3502 237.876 61.554 241.242 62.0928 242.57C62.6315 243.898 61.349 246.587 61.4634 247.315C61.5779 248.042 61.0963 249.253 61.0439 250.624C60.9914 251.994 61.6208 254.623 61.9974 255.787C62.374 256.951 65.8115 259.692 65.8115 259.692C65.8115 259.692 65.8734 263.812 67.318 266.262C68.7626 268.712 67.4944 276.822 67.4944 276.822C67.4944 276.822 65.7781 283.116 63.8663 285.069C61.9545 287.021 58.7793 298.483 58.7793 298.483Z" fill="#656691"/>
<path opacity="0.1" d="M99.8567 252.478C99.8567 252.478 100.758 250.131 101.497 249.939C102.237 249.702 102.961 249.415 103.661 249.08L103.223 248.174C103.223 248.174 100.438 248.817 99.9711 249.582C99.5039 250.347 99.8567 252.478 99.8567 252.478Z" fill="black"/>
<path opacity="0.1" d="M114.798 247.771C114.918 248.498 121.416 249.395 121.416 249.395L118.245 246.011H118.164C116.961 246.433 115.827 247.026 114.798 247.771Z" fill="black"/>
<path d="M134.064 239.154C134.388 239.154 134.65 238.895 134.65 238.576C134.65 238.257 134.388 237.999 134.064 237.999C133.74 237.999 133.478 238.257 133.478 238.576C133.478 238.895 133.74 239.154 134.064 239.154Z" fill="#575988"/>
<path d="M133.268 240.28C133.592 240.28 133.854 240.021 133.854 239.702C133.854 239.383 133.592 239.125 133.268 239.125C132.944 239.125 132.682 239.383 132.682 239.702C132.682 240.021 132.944 240.28 133.268 240.28Z" fill="#575988"/>
<path d="M132.491 241.317C132.815 241.317 133.077 241.058 133.077 240.739C133.077 240.421 132.815 240.162 132.491 240.162C132.167 240.162 131.904 240.421 131.904 240.739C131.904 241.058 132.167 241.317 132.491 241.317Z" fill="#575988"/>
<path d="M131.68 242.444C132.004 242.444 132.267 242.185 132.267 241.866C132.267 241.548 132.004 241.289 131.68 241.289C131.356 241.289 131.094 241.548 131.094 241.866C131.094 242.185 131.356 242.444 131.68 242.444Z" fill="#575988"/>
<path d="M62.5744 239.655C62.8377 239.655 63.0512 239.445 63.0512 239.186C63.0512 238.927 62.8377 238.717 62.5744 238.717C62.3111 238.717 62.0977 238.927 62.0977 239.186C62.0977 239.445 62.3111 239.655 62.5744 239.655Z" fill="#575988"/>
<path d="M62.4602 240.716C62.7235 240.716 62.9369 240.506 62.9369 240.247C62.9369 239.987 62.7235 239.777 62.4602 239.777C62.1968 239.777 61.9834 239.987 61.9834 240.247C61.9834 240.506 62.1968 240.716 62.4602 240.716Z" fill="#575988"/>
<path d="M62.3503 241.777C62.6136 241.777 62.827 241.566 62.827 241.307C62.827 241.048 62.6136 240.838 62.3503 240.838C62.087 240.838 61.8735 241.048 61.8735 241.307C61.8735 241.566 62.087 241.777 62.3503 241.777Z" fill="#575988"/>
<path opacity="0.1" d="M99.0559 272.035C99.1274 271.956 81.7973 291.875 69.4302 279.517C69.4302 279.517 89.597 282.99 99.0559 272.035Z" fill="black"/>
<path opacity="0.1" d="M108.133 283.079C108.133 283.079 98.2311 282.971 97.0868 285.731L96.9724 288.645C97.2482 288.809 97.5616 288.901 97.8833 288.914C98.2051 288.926 98.5249 288.858 98.8127 288.716C99.833 288.223 105.926 285.458 107.981 286.979L108.133 283.079Z" fill="black"/>
<path d="M107.947 283.07C107.947 283.07 98.4838 282.967 97.3872 285.6L97.2776 288.378C97.541 288.535 97.8407 288.624 98.1485 288.636C98.4564 288.647 98.7621 288.581 99.0368 288.444C99.9903 287.975 105.84 285.342 107.804 286.787L107.947 283.07Z" fill="#656691"/>
<path opacity="0.1" d="M103.561 261.733C102.459 263.996 101.088 266.121 99.4755 268.065C97.7137 270.214 95.6073 272.066 93.2395 273.547C93.2395 273.547 103.342 263.048 103.561 261.733Z" fill="black"/>
<path opacity="0.1" d="M107.237 250.544C107.237 250.544 105.33 257.495 100.968 259.715L107.237 250.544Z" fill="black"/>
<path opacity="0.1" d="M109.74 251.347C109.788 251.22 110.989 256.951 103.919 259.828C103.919 259.828 106.908 258.95 109.74 251.347Z" fill="black"/>
<path opacity="0.1" d="M66.7412 245.011C66.8509 245.011 63.2275 247.1 62.2263 248.09C62.2502 248.09 64.6578 244.786 66.7412 245.011Z" fill="black"/>
<path d="M89.3062 241.012C89.2168 241.467 88.9563 241.873 88.5768 242.148C88.3159 242.26 88.0315 242.31 87.7472 242.293C85.0821 242.359 82.3074 242.368 79.8903 241.265C79.438 241.089 79.0368 240.805 78.7222 240.439C78.3027 239.895 78.2455 239.177 78.0977 238.51C77.8021 237.215 77.1108 236.046 76.6293 234.803C75.8184 232.709 75.6089 230.435 76.0238 228.232C76.1193 227.558 76.3723 226.916 76.7627 226.354C77.5065 225.392 78.808 225.04 79.7711 224.285C80.7341 223.529 81.3825 222.346 82.4981 221.792C83.4993 221.295 84.696 221.403 85.7973 221.633C87.9592 222.079 90.0144 222.928 91.8521 224.134C92.4671 224.543 93.1441 225.007 93.8783 224.899C94.5077 224.727 95.057 224.346 95.4325 223.82C95.9047 225.013 96.078 226.301 95.9379 227.575C95.9045 227.761 95.9045 227.952 95.9379 228.138C96.0193 228.367 96.1493 228.577 96.3193 228.753C96.9439 229.527 97.311 230.729 96.634 231.461C96.3384 231.78 95.895 231.93 95.6089 232.273C95.094 232.855 95.2228 233.728 95.2037 234.502C95.221 234.771 95.1436 235.038 94.9844 235.258C94.8364 235.381 94.6589 235.465 94.4687 235.502C94.2785 235.539 94.0819 235.528 93.8974 235.469C93.5297 235.346 93.1409 235.295 92.7532 235.319C92.3395 235.436 91.9782 235.687 91.7281 236.032C90.4361 237.506 89.9022 239.182 89.3062 241.012Z" fill="#2D293D"/>
<g opacity="0.1">
<path opacity="0.1" d="M78.46 239.763C78.7729 240.132 79.1744 240.417 79.628 240.594C82.0452 241.697 84.8199 241.683 87.485 241.622C87.7698 241.639 88.0547 241.588 88.3145 241.472C88.6948 241.199 88.9557 240.795 89.044 240.34C89.6304 238.505 90.1739 236.834 91.4659 235.342C91.7152 234.995 92.0766 234.742 92.4909 234.624C92.8785 234.602 93.2669 234.653 93.6351 234.774C93.8194 234.834 94.0164 234.846 94.2069 234.809C94.3974 234.772 94.5749 234.687 94.7221 234.563C94.8817 234.345 94.9592 234.08 94.9414 233.812C94.9414 233.037 94.8318 232.164 95.3467 231.578C95.6327 231.254 96.0761 231.108 96.3717 230.771C96.5637 230.531 96.6866 230.245 96.7277 229.943C96.7688 229.641 96.7266 229.333 96.6053 229.053C97.0439 229.799 97.2108 230.742 96.6387 231.357C96.3431 231.676 95.9045 231.827 95.6137 232.169C95.0988 232.751 95.2323 233.624 95.2132 234.399C95.2311 234.669 95.1518 234.936 94.9891 235.154C94.8414 235.278 94.6639 235.362 94.4736 235.399C94.2833 235.436 94.0865 235.425 93.9021 235.365C93.536 235.242 93.1488 235.191 92.7627 235.215C92.3466 235.333 91.9834 235.586 91.7329 235.933C90.4456 237.421 89.9021 239.097 89.3109 240.927C89.3026 241.115 89.2548 241.299 89.1704 241.467C89.0861 241.636 88.9671 241.785 88.8209 241.906C88.6748 242.027 88.5048 242.117 88.3216 242.17C88.1384 242.223 87.946 242.237 87.7567 242.213C85.0916 242.274 82.3169 242.283 79.895 241.181C79.4431 241.003 79.0421 240.719 78.7269 240.355C78.5696 240.14 78.4518 239.9 78.3789 239.646C78.4026 239.687 78.4297 239.726 78.46 239.763Z" fill="black"/>
<path opacity="0.1" d="M95.919 227.894C95.8007 227.758 95.7159 227.597 95.6711 227.424C95.6376 227.238 95.6376 227.047 95.6711 226.861C95.7862 225.811 95.689 224.748 95.385 223.735L95.4327 223.684C95.9088 224.876 96.0839 226.165 95.9428 227.438C95.9211 227.589 95.9131 227.741 95.919 227.894Z" fill="black"/>
</g>
<path opacity="0.1" d="M90.6554 246.278C90.6554 246.278 79.69 247.287 78.7842 245.635L90.6554 246.278Z" fill="black"/>
<path opacity="0.1" d="M69.6447 241.036C69.6447 241.036 63.5852 240.815 62.1692 242.997L69.6447 241.036Z" fill="black"/>
</g>
<defs>
<linearGradient id="paint0_linear" x1="262.912" y1="323.114" x2="262.912" y2="70.4531" gradientUnits="userSpaceOnUse">
<stop stop-color="#808080" stop-opacity="0.25"/>
<stop offset="0.54" stop-color="#808080" stop-opacity="0.12"/>
<stop offset="1" stop-color="#808080" stop-opacity="0.1"/>
</linearGradient>
<linearGradient id="paint1_linear" x1="97663.3" y1="156045" x2="97663.3" y2="85519.5" gradientUnits="userSpaceOnUse">
<stop stop-color="#808080" stop-opacity="0.25"/>
<stop offset="0.54" stop-color="#808080" stop-opacity="0.12"/>
<stop offset="1" stop-color="#808080" stop-opacity="0.1"/>
</linearGradient>
<linearGradient id="paint2_linear" x1="-81676.7" y1="154500" x2="-78974.8" y2="85885" gradientUnits="userSpaceOnUse">
<stop stop-color="#808080" stop-opacity="0.25"/>
<stop offset="0.54" stop-color="#808080" stop-opacity="0.12"/>
<stop offset="1" stop-color="#808080" stop-opacity="0.1"/>
</linearGradient>
<clipPath id="clip0">
<rect width="545" height="405" fill="white"/>
</clipPath>
</defs>
</svg>
