<svg width="256" height="227" viewBox="0 0 256 227" fill="none" xmlns="http://www.w3.org/2000/svg">
<path d="M239.816 227L92.9636 215.163L109.148 18.3604L256 30.1968L239.816 227Z" fill="url(#paint0_linear)"/>
<path d="M238.055 224.19L95.1591 212.669L110.908 21.1699L253.805 32.688L238.055 224.19Z" fill="#E2F3F5"/>
<path d="M246.501 193.908L101.809 221.425L64.1852 27.5171L208.878 0L246.501 193.908Z" fill="url(#paint1_linear)"/>
<path d="M244.045 191.668L103.251 218.445L66.6416 29.7576L207.435 2.9834L244.045 191.668Z" fill="#E0E0E0"/>
<path d="M229.012 14.646H81.6742V212.101H229.012V14.646Z" fill="url(#paint2_linear)"/>
<path d="M227.03 17.3052H83.6598V209.439H227.03V17.3052Z" fill="white"/>
<path d="M131.973 50.4558C132.129 63.3122 142.785 73.6098 155.772 73.4506C168.759 73.2914 179.167 62.7462 179.005 49.8868C178.954 45.1076 177.409 40.4595 174.578 36.5731C171.748 32.6868 167.77 29.7504 163.183 28.1626L163.255 34.1589C163.287 36.2439 162.478 38.2564 161.003 39.7556C159.528 41.2547 157.509 42.1182 155.388 42.157C153.27 42.1688 151.234 41.3562 149.724 39.8968C148.214 38.4373 147.353 36.4497 147.329 34.3682L147.257 28.3719C142.712 30.0674 138.808 33.0957 136.074 37.0462C133.34 40.9967 131.908 45.6782 131.973 50.4558Z" fill="url(#paint3_linear)"/>
<path d="M179.014 48.0059C179.014 35.1465 168.486 24.7163 155.496 24.7163C142.506 24.7163 131.979 35.1406 131.979 48.0059C131.97 52.7859 133.458 57.4527 136.241 61.3729C139.023 65.293 142.966 68.2767 147.533 69.9188V63.9224C147.531 61.8409 148.368 59.8434 149.86 58.3663C151.352 56.8892 153.378 56.0526 155.496 56.0394C157.614 56.0526 159.64 56.8892 161.132 58.3663C162.624 59.8434 163.461 61.8409 163.459 63.9224V69.9217C168.027 68.2794 171.97 65.2953 174.752 61.3746C177.535 57.4539 179.023 52.7864 179.014 48.0059Z" fill="#0E153A"/>
<path d="M155.511 53.7546C160.504 53.7546 164.551 49.7474 164.551 44.8043C164.551 39.8612 160.504 35.854 155.511 35.854C150.518 35.854 146.471 39.8612 146.471 44.8043C146.471 49.7474 150.518 53.7546 155.511 53.7546Z" fill="white" stroke="white" stroke-miterlimit="10"/>
<path d="M155.496 56.0396C153.378 56.0528 151.352 56.8894 149.86 58.3665C148.368 59.8436 147.531 61.8411 147.533 63.9226V69.9219C152.679 71.7485 158.313 71.7485 163.459 69.9219V63.9226C163.461 61.8411 162.624 59.8436 161.132 58.3665C159.64 56.8894 157.614 56.0528 155.496 56.0396Z" fill="white" stroke="white" stroke-miterlimit="10"/>
<path d="M146.393 44.3094C145.667 42.9177 145.335 41.36 145.431 39.7988C145.533 38.2337 146.252 36.7694 147.434 35.7158C148.751 34.6044 150.535 34.2123 152.26 34.0767C153.985 33.9411 155.733 34.0236 157.431 33.6905C158.836 33.4072 160.17 32.8515 161.355 32.0558C162.539 31.2601 163.55 30.2403 164.329 29.0562C164.437 30.368 164.545 31.7094 164.29 32.9947C164.035 34.2801 163.363 35.5596 162.23 36.2376C163.603 35.6097 163.453 37.0837 163.156 37.9652C163.837 38.7788 165.49 38.9144 165.574 39.9669C165.658 41.0193 165.643 42.1072 165.229 43.0771C164.815 44.047 165.259 45.7598 164.197 45.8335" fill="white"/>
<path d="M146.393 44.3094C145.667 42.9177 145.335 41.36 145.431 39.7988C145.533 38.2337 146.252 36.7694 147.434 35.7158C148.751 34.6044 150.535 34.2123 152.26 34.0767C153.985 33.9411 155.733 34.0236 157.431 33.6905C158.836 33.4072 160.17 32.8515 161.355 32.0558C162.539 31.2601 163.55 30.2403 164.329 29.0562C164.437 30.368 164.545 31.7094 164.29 32.9947C164.035 34.2801 163.363 35.5596 162.23 36.2376C163.603 35.6097 163.453 37.0837 163.156 37.9652C163.837 38.7788 165.49 38.9144 165.574 39.9669C165.658 41.0193 165.643 42.1072 165.229 43.0771C164.815 44.047 165.259 45.7598 164.197 45.8335" stroke="white" stroke-miterlimit="10"/>
<path d="M162.734 36.043C162.734 36.043 169.032 36.5884 164.551 45.857L162.734 36.043Z" fill="white"/>
<path d="M116.565 169.218H97.0906V188.499H116.565V169.218Z" fill="#5F70B5"/>
<path d="M114.882 170.881H98.7672V186.836H114.882V170.881Z" fill="#5F70B5"/>
<path d="M179.014 89.438H132.009V92.7634H179.014V89.438Z" fill="#0E153A"/>
<path d="M211.247 94.0928H132.009V97.4182H211.247V94.0928Z" fill="#5F70B5"/>
<path d="M211.247 98.7451H132.009V102.071H211.247V98.7451Z" fill="#5F70B5"/>
<path d="M179.014 130.991H132.009V134.316H179.014V130.991Z" fill="#0E153A"/>
<path d="M211.247 135.643H132.009V138.968H211.247V135.643Z" fill="#5F70B5"/>
<path d="M211.247 140.298H132.009V143.623H211.247V140.298Z" fill="#5F70B5"/>
<path d="M179.014 172.541H132.009V175.866H179.014V172.541Z" fill="#0E153A"/>
<path d="M211.247 177.196H132.009V180.521H211.247V177.196Z" fill="#5F70B5"/>
<path d="M211.247 181.851H132.009V185.176H211.247V181.851Z" fill="#5F70B5"/>
<defs>
<linearGradient id="paint0_linear" x1="166.351" y1="221.102" x2="182.094" y2="24.1796" gradientUnits="userSpaceOnUse">
<stop stop-color="#808080" stop-opacity="0.25"/>
<stop offset="0.54" stop-color="#808080" stop-opacity="0.12"/>
<stop offset="1" stop-color="#808080" stop-opacity="0.1"/>
</linearGradient>
<linearGradient id="paint1_linear" x1="156677" y1="150175" x2="129134" y2="4249.2" gradientUnits="userSpaceOnUse">
<stop stop-color="#808080" stop-opacity="0.25"/>
<stop offset="0.54" stop-color="#808080" stop-opacity="0.12"/>
<stop offset="1" stop-color="#808080" stop-opacity="0.1"/>
</linearGradient>
<linearGradient id="paint2_linear" x1="76392.5" y1="142075" x2="76392.5" y2="9824.19" gradientUnits="userSpaceOnUse">
<stop stop-color="#808080" stop-opacity="0.25"/>
<stop offset="0.54" stop-color="#808080" stop-opacity="0.12"/>
<stop offset="1" stop-color="#808080" stop-opacity="0.1"/>
</linearGradient>
<linearGradient id="paint3_linear" x1="156.987" y1="73.0746" x2="154.671" y2="27.6247" gradientUnits="userSpaceOnUse">
<stop stop-opacity="0.12"/>
<stop offset="0.55" stop-opacity="0.09"/>
<stop offset="1" stop-opacity="0.02"/>
</linearGradient>
</defs>
</svg>
