<svg width="257" height="269" viewBox="0 0 257 269" fill="none" xmlns="http://www.w3.org/2000/svg">
<g clip-path="url(#clip0)">
<path d="M243.551 250.662C243.551 260.789 189.031 269 121.776 269C54.5201 269 0 260.789 0 250.662C0 243.493 27.3288 237.281 67.1572 234.268C83.5812 233.022 102.138 232.324 121.776 232.324C129.848 232.324 137.736 232.443 145.365 232.667C201.33 234.324 243.551 241.749 243.551 250.662Z" fill="#3F3D56"/>
<path opacity="0.1" d="M106.063 254.409C131.88 254.409 152.809 251.849 152.809 248.69C152.809 245.532 131.88 242.972 106.063 242.972C80.2454 242.972 59.3165 245.532 59.3165 248.69C59.3165 251.849 80.2454 254.409 106.063 254.409Z" fill="black"/>
<path d="M105.866 252.831C130.273 252.831 150.059 231.644 150.059 205.508C150.059 179.372 130.273 158.184 105.866 158.184C81.4592 158.184 61.6734 179.372 61.6734 205.508C61.6734 231.644 81.4592 252.831 105.866 252.831Z" fill="#3F3D56"/>
<path d="M119.811 233.507H92.3137V258.747H119.811V233.507Z" fill="#0E153A"/>
<path d="M155.755 239.62L154.184 248.296L164.397 249.874L171.075 245.93L170.682 239.62H155.755Z" fill="#575A89"/>
<path d="M104.295 76.748C104.295 76.748 103.509 85.8183 101.545 86.2127C99.581 86.607 105.866 102.382 105.866 102.382H115.294L122.758 100.41L119.222 91.7337C119.222 91.7337 114.508 85.4239 118.044 80.2972C121.579 75.1705 104.295 76.748 104.295 76.748Z" fill="#A0616A"/>
<path opacity="0.1" d="M104.295 76.748C104.295 76.748 103.509 85.8183 101.545 86.2127C99.581 86.607 105.866 102.382 105.866 102.382H115.294L122.758 100.41L119.222 91.7337C119.222 91.7337 114.508 85.4239 118.044 80.2972C121.579 75.1705 104.295 76.748 104.295 76.748Z" fill="black"/>
<path d="M84.6536 146.156C84.6536 146.156 74.4402 165.874 82.6895 169.818C90.9388 173.761 92.9029 173.367 92.9029 174.55C92.9029 175.733 91.3316 175.339 92.1173 177.311C92.9029 179.283 90.546 187.17 92.9029 191.902C95.2599 196.634 94.4742 200.184 94.4742 200.184C94.4742 200.184 94.4742 200.578 95.2599 202.156C96.0455 203.733 96.4383 204.916 96.0455 205.705C95.6527 206.494 93.2957 211.62 95.6527 212.803C98.0096 213.986 110.187 214.775 111.366 212.803C112.544 210.832 110.187 209.648 111.366 208.465C112.544 207.282 113.33 206.888 112.544 206.099C111.758 205.31 110.973 195.451 110.973 195.451C110.973 195.451 112.937 184.015 112.151 182.437C111.366 180.86 110.187 179.283 110.973 178.099C111.758 176.916 112.544 177.311 112.937 175.733C113.33 174.156 114.115 170.607 114.115 170.607L118.436 170.212L128.65 172.184C128.65 172.184 140.042 184.804 152.612 188.747C152.612 188.747 156.148 192.296 157.326 192.296C158.505 192.296 158.505 192.296 158.112 193.085C157.719 193.874 156.54 193.874 157.326 194.663C158.112 195.451 159.29 194.268 158.505 195.451C157.719 196.634 156.933 196.634 157.719 197.423C158.505 198.212 157.326 202.55 157.326 202.944C157.326 203.339 153.791 240.409 154.969 241.197C156.148 241.986 172.646 244.352 173.825 241.197C175.003 238.043 173.039 234.099 173.039 234.099C173.039 234.099 178.931 186.775 177.36 183.62C175.789 180.466 170.289 166.269 140.827 157.198C140.827 157.198 132.578 155.621 132.578 154.438C132.578 153.255 131.793 145.762 130.221 145.367C128.65 144.973 119.615 144.579 119.615 144.579L108.223 148.128L92.5101 145.367L84.6536 146.156Z" fill="#2F2E41"/>
<path d="M98.4025 212.409L96.4384 219.508C96.4384 219.508 94.8671 230.944 96.8312 233.705C98.374 235.873 101.129 238.528 106.237 238.994C107.669 239.126 109.103 238.763 110.301 237.966C111.5 237.169 112.391 235.985 112.828 234.61C112.887 234.445 112.923 234.273 112.937 234.099C112.937 233.31 111.759 223.846 111.759 223.846L109.794 213.987L109.402 211.226L98.4025 212.409Z" fill="#2F2E41"/>
<path d="M155.755 246.324C155.755 246.324 153.791 244.352 153.398 246.324C153.005 248.296 151.434 256.577 154.184 256.972C156.933 257.366 183.253 261.31 186.002 259.732C188.752 258.155 193.859 255.789 190.716 254.606C187.574 253.423 178.539 249.873 178.539 249.873C178.539 249.873 173.432 243.169 172.646 242.775C171.861 242.38 167.54 243.169 165.575 244.747C163.611 246.324 155.755 246.324 155.755 246.324Z" fill="#2F2E41"/>
<path d="M113.723 85.0301C120.448 85.0301 125.9 79.5566 125.9 72.8048C125.9 66.053 120.448 60.5796 113.723 60.5796C106.997 60.5796 101.545 66.053 101.545 72.8048C101.545 79.5566 106.997 85.0301 113.723 85.0301Z" fill="#A0616A"/>
<path d="M112.544 100.41L107.83 95.2832L102.605 85.0297C102.605 85.0297 98.7953 83.8466 98.0096 85.8185C97.224 87.7903 83.0823 94.1001 83.0823 94.1001C83.0823 94.1001 86.6177 127.227 85.0464 130.381C83.4751 133.536 80.7254 146.156 83.0823 147.339C85.4393 148.522 96.4383 147.339 99.9738 148.916C103.509 150.494 113.723 150.494 116.472 148.522C119.222 146.55 120.008 144.973 122.758 146.156C125.099 147.163 130.571 112.729 132.147 102.468C132.279 101.606 132.169 100.724 131.829 99.9221C131.488 99.1199 130.93 98.4295 130.219 97.929C126.694 95.447 120.346 91.1698 119.222 91.7339C117.651 92.5226 112.544 100.41 112.544 100.41Z" fill="#575A89"/>
<path d="M129.436 98.8325C130.358 99.064 131.188 99.5734 131.814 100.292C132.439 101.011 132.831 101.905 132.936 102.853L136.114 131.565C136.114 131.565 128.257 148.522 124.329 137.086C120.401 125.649 129.436 98.8325 129.436 98.8325Z" fill="#575A89"/>
<path d="M128.65 134.325L137.292 131.959C137.292 131.959 138.863 143.001 140.435 143.001C142.006 143.001 134.935 149.311 131.4 148.522C127.864 147.733 122.758 144.973 122.365 143.001C121.972 141.029 125.9 132.748 125.9 132.748L128.65 134.325Z" fill="#575A89"/>
<path d="M104.53 78.0786C105.358 76.2456 105.214 74.1075 105.899 72.2158C106.265 71.2028 106.86 70.2887 107.637 69.5448C108.414 68.8008 109.351 68.2472 110.376 67.9273C111.401 67.6073 112.486 67.5295 113.546 67.7001C114.606 67.8708 115.612 68.2851 116.487 68.9107C117.367 69.5411 118.25 70.4267 119.325 70.3064C120.482 70.1768 121.515 68.8804 122.579 69.3555C123.759 69.8821 123.44 72.0043 124.635 72.4945C125.264 72.7525 126.008 72.3553 126.37 71.7785C126.688 71.1724 126.861 70.5006 126.875 69.8161C127.04 68.1341 127.189 66.3539 126.463 64.8294C126.157 64.3126 125.891 63.7734 125.666 63.2165C125.539 62.6963 125.488 62.1603 125.515 61.6254C125.508 59.6485 125.364 57.5863 124.373 55.8779C123.273 53.9822 121.241 52.77 119.12 52.241C116.999 51.7121 114.777 51.7932 112.6 51.9782C109 52.2842 105.246 52.9399 102.41 55.1864C102.025 55.4691 101.693 55.819 101.431 56.2194C101.182 56.6951 101.006 57.2059 100.909 57.7344C100.296 60.241 99.3767 62.6619 98.1721 64.9422C97.5926 65.9089 97.1191 66.9356 96.7597 68.0046C96.459 69.0908 96.4793 70.3287 97.1088 71.2623C97.6213 72.0225 98.4407 72.4275 99.0845 73.049C99.7224 73.6648 100.021 74.849 100.727 75.3153C101.344 75.7223 102.083 75.435 102.712 75.8664C103.52 76.4203 103.578 77.6348 104.53 78.0786Z" fill="#2F2E41"/>
<path d="M114.508 106.326L115.687 103.959C115.687 103.959 132.971 109.086 136.506 113.819C136.506 113.819 145.149 108.297 149.862 109.086L154.576 109.875L140.042 122.889L121.579 121.311L114.508 106.326Z" fill="#F2F2F2"/>
<path d="M113.723 103.959L97.6168 126.438L120.793 137.875C120.793 137.875 122.96 139.058 124.627 137.875L140.042 130.776L154.576 109.875L140.042 117.368C140.042 117.368 138.471 114.213 135.328 115.79L113.723 103.959Z" fill="#0E153A"/>
<path d="M138.471 143.79L141.613 135.508C141.613 135.508 148.684 126.438 144.756 122.1C140.828 117.762 136.506 134.72 136.506 134.72L138.471 143.79Z" fill="#A0616A"/>
<path d="M102.212 142.468L109.069 136.887C109.069 136.887 119.719 132.602 118.489 126.871C117.258 121.14 105.046 133.633 105.046 133.633L102.212 142.468Z" fill="#A0616A"/>
<path opacity="0.1" d="M85.2429 102.579H84.85C84.85 102.579 78.7613 95.2835 77.5828 105.143C76.4043 115.002 72.4761 147.734 82.6895 148.917C92.9029 150.1 100.17 143.987 100.17 143.987C100.17 143.987 107.634 132.551 104.884 132.551C103.554 132.551 99.9351 131.951 96.6348 132.156C93.114 132.376 89.9504 133.371 90.1532 132.354C90.546 130.382 96.2419 105.34 85.2429 102.579Z" fill="black"/>
<path d="M84.6536 94.8888L83.0823 94.1001C83.0823 94.1001 76.7972 95.2832 75.6187 105.142C74.4402 115.001 70.512 147.733 80.7254 148.916C90.9388 150.1 104.688 147.339 104.688 147.339C104.688 147.339 107.437 132.353 104.688 132.353C101.938 132.353 87.7962 134.325 88.1891 132.353C88.5819 130.381 95.6527 97.6494 84.6536 94.8888Z" fill="#575A89"/>
<path d="M132.775 139.255L137.106 132.59L139.845 143.593L132.775 146.748V139.255Z" fill="#575A89"/>
<path d="M43.7894 44.2135C49.647 44.2135 54.3956 39.4464 54.3956 33.5658C54.3956 27.6851 49.647 22.918 43.7894 22.918C37.9317 22.918 33.1831 27.6851 33.1831 33.5658C33.1831 39.4464 37.9317 44.2135 43.7894 44.2135Z" fill="#F2F2F2"/>
<path d="M56.3597 112.833H31.219V138.072H56.3597V112.833Z" fill="#F2F2F2"/>
<path d="M146.131 0L152.494 11.0646L158.857 22.1293H146.131H133.404L139.767 11.0646L146.131 0Z" fill="#F2F2F2"/>
<path d="M257 66.3432C256.848 71.0638 255.703 74.8475 253.565 77.6943C251.426 80.5414 248.886 81.9651 245.943 81.9653C243.547 81.9653 241.446 80.5721 239.641 77.7857C237.836 74.9992 236.934 70.7131 236.934 64.9271C236.934 63.6481 236.964 62.43 237.025 61.2728C237.086 60.1158 237.161 59.0195 237.253 57.9839L238.845 42.9556H228.334C226.515 61.958 225.021 73.2635 223.853 76.8721C222.685 80.4807 220.705 82.285 217.915 82.2851C216.655 82.254 215.453 81.7486 214.548 80.8691C214.023 80.402 213.607 79.8237 213.332 79.1759C213.057 78.5282 212.928 77.8271 212.955 77.1233C212.955 75.7231 214.055 73.7665 216.254 71.2536C218.453 68.7412 219.674 66.4497 219.917 64.379L222.647 42.9555H218.233C216.989 42.963 215.765 43.2683 214.662 43.8462C213.646 44.3144 212.763 45.0286 212.091 45.9246L210.134 48.8481H208.542C210.028 44.2195 211.855 40.7403 214.025 38.4105C216.193 36.0808 218.688 34.916 221.509 34.916H256.272V42.9555H244.533C244.169 46.6099 243.888 50.2641 243.691 53.9184C243.493 57.5727 243.395 61.2423 243.395 64.9271C243.395 67.4244 243.972 69.4495 245.124 71.0024C246.277 72.5555 247.718 73.332 249.447 73.332C250.508 73.332 251.623 72.898 252.791 72.0301C253.346 71.6395 253.81 71.1332 254.152 70.5458C254.493 69.9585 254.704 69.304 254.771 68.6271C254.862 67.9576 254.93 67.4322 254.975 67.0511C255.021 66.6707 255.044 66.4347 255.044 66.3431L257 66.3432Z" fill="#0E153A"/>
<path opacity="0.1" d="M257 66.3432C256.848 71.0638 255.703 74.8475 253.565 77.6943C251.426 80.5414 248.886 81.9651 245.943 81.9653C243.547 81.9653 241.446 80.5721 239.641 77.7857C237.836 74.9992 236.934 70.7131 236.934 64.9271C236.934 63.6481 236.964 62.43 237.025 61.2728C237.086 60.1158 237.161 59.0195 237.253 57.9839L238.845 42.9556H228.334C226.515 61.958 225.021 73.2635 223.853 76.8721C222.685 80.4807 220.705 82.285 217.915 82.2851C216.655 82.254 215.453 81.7486 214.548 80.8691C214.023 80.402 213.607 79.8237 213.332 79.1759C213.057 78.5282 212.928 77.8271 212.955 77.1233C212.955 75.7231 214.055 73.7665 216.254 71.2536C218.453 68.7412 219.674 66.4497 219.917 64.379L222.647 42.9555H218.233C216.989 42.963 215.765 43.2683 214.662 43.8462C213.646 44.3144 212.763 45.0286 212.091 45.9246L210.134 48.8481H208.542C210.028 44.2195 211.855 40.7403 214.025 38.4105C216.193 36.0808 218.688 34.916 221.509 34.916H256.272V42.9555H244.533C244.169 46.6099 243.888 50.2641 243.691 53.9184C243.493 57.5727 243.395 61.2423 243.395 64.9271C243.395 67.4244 243.972 69.4495 245.124 71.0024C246.277 72.5555 247.718 73.332 249.447 73.332C250.508 73.332 251.623 72.898 252.791 72.0301C253.346 71.6395 253.81 71.1332 254.152 70.5458C254.493 69.9585 254.704 69.304 254.771 68.6271C254.862 67.9576 254.93 67.4322 254.975 67.0511C255.021 66.6707 255.044 66.4347 255.044 66.3431L257 66.3432Z" fill="black"/>
<path d="M257 64.9159C256.848 69.6365 255.703 73.4202 253.565 76.267C251.426 79.1142 248.886 80.5379 245.943 80.5381C243.547 80.5381 241.446 79.1449 239.641 76.3584C237.836 73.572 236.934 69.2858 236.934 63.4999C236.934 62.2209 236.964 61.0027 237.025 59.8455C237.086 58.6886 237.161 57.5923 237.253 56.5567L238.845 41.5283H228.334C226.515 60.5307 225.021 71.8363 223.853 75.4449C222.685 79.0535 220.705 80.8578 217.915 80.8579C216.655 80.8268 215.453 80.3213 214.548 79.4419C214.023 78.9748 213.607 78.3965 213.332 77.7487C213.057 77.1009 212.928 76.3999 212.955 75.6961C212.955 74.2958 214.055 72.3393 216.254 69.8264C218.453 67.314 219.674 65.0225 219.917 62.9517L222.647 41.5283H218.233C216.989 41.5357 215.765 41.8411 214.662 42.419C213.646 42.8871 212.763 43.6013 212.091 44.4974L210.134 47.4208H208.542C210.028 42.7923 211.855 39.3131 214.025 36.9832C216.193 34.6536 218.688 33.4888 221.509 33.4888H256.272V41.5283H244.533C244.169 45.1826 243.888 48.8369 243.691 52.4912C243.493 56.1455 243.395 59.8151 243.395 63.4999C243.395 65.9972 243.972 68.0223 245.124 69.5752C246.277 71.1283 247.718 71.9048 249.447 71.9048C250.508 71.9048 251.623 71.4708 252.791 70.6029C253.346 70.2123 253.81 69.706 254.152 69.1186C254.493 68.5313 254.704 67.8767 254.771 67.1999C254.862 66.5303 254.93 66.005 254.975 65.6239C255.021 65.2435 255.044 65.0075 255.044 64.9159H257Z" fill="#FF6584"/>
</g>
<defs>
<clipPath id="clip0">
<rect width="257" height="269" fill="white"/>
</clipPath>
</defs>
</svg>
