<svg width="743" height="272" viewBox="0 0 743 272" fill="none" xmlns="http://www.w3.org/2000/svg">
<g clip-path="url(#clip0)">
<path d="M94.2729 268.091L92.9979 267.86C107.215 217.062 142.943 170.933 193.601 137.97C231.9 113.087 277.451 96.446 325.965 89.6123C374.478 82.7787 424.359 85.9778 470.909 98.9083C517.459 111.839 559.147 134.075 592.049 163.524C624.95 192.973 647.982 228.665 658.976 267.24L657.702 267.473C627.607 161.305 511.798 87.1565 376.074 87.1565C242.129 87.1565 123.615 163.25 94.2729 268.091Z" fill="#3F3D56"/>
<path d="M587.887 143.975C607.49 143.975 623.381 131.207 623.381 115.458C623.381 99.7077 607.49 86.9399 587.887 86.9399C568.285 86.9399 552.394 99.7077 552.394 115.458C552.394 131.207 568.285 143.975 587.887 143.975Z" fill="#FF6584"/>
<path d="M574.404 229.472H573.097V270.95H574.404V229.472Z" fill="#3F3D56"/>
<path d="M586.465 234.758C586.549 249.262 573.848 261.067 573.848 261.067C573.848 261.067 561.013 249.356 560.93 234.852C560.846 220.348 573.547 208.543 573.547 208.543C573.547 208.543 586.382 220.254 586.465 234.758Z" fill="#0E153A"/>
<path opacity="0.1" d="M586.465 234.758C586.549 249.262 573.848 261.067 573.848 261.067C573.848 261.067 561.013 249.356 560.93 234.852C560.846 220.348 573.547 208.543 573.547 208.543C573.547 208.543 586.382 220.254 586.465 234.758Z" fill="black"/>
<path opacity="0.4" d="M327.405 147.006C338.682 147.006 347.824 139.66 347.824 130.599C347.824 121.538 338.682 114.193 327.405 114.193C316.127 114.193 306.985 121.538 306.985 130.599C306.985 139.66 316.127 147.006 327.405 147.006Z" fill="#0E153A"/>
<path opacity="0.4" d="M289.613 149.944C297.524 149.944 303.937 144.791 303.937 138.435C303.937 132.079 297.524 126.926 289.613 126.926C281.702 126.926 275.289 132.079 275.289 138.435C275.289 144.791 281.702 149.944 289.613 149.944Z" fill="#0E153A"/>
<path opacity="0.4" d="M136.047 183.022C143.958 183.022 150.371 177.869 150.371 171.513C150.371 165.157 143.958 160.004 136.047 160.004C128.135 160.004 121.722 165.157 121.722 171.513C121.722 177.869 128.135 183.022 136.047 183.022Z" fill="#0E153A"/>
<path opacity="0.4" d="M559.578 145.656C570.855 145.656 579.997 138.311 579.997 129.25C579.997 120.189 570.855 112.843 559.578 112.843C548.3 112.843 539.158 120.189 539.158 129.25C539.158 138.311 548.3 145.656 559.578 145.656Z" fill="#0E153A"/>
<path d="M37.0066 266.338C38.1136 269.626 41.9052 271.662 41.9052 271.662C41.9052 271.662 43.902 268.367 42.795 265.08C41.6881 261.792 37.8965 259.756 37.8965 259.756C37.8965 259.756 35.8997 263.05 37.0066 266.338Z" fill="#3F3D56"/>
<path d="M38.6332 265.631C41.6707 268.007 42.0417 271.659 42.0417 271.659C42.0417 271.659 37.488 271.459 34.4505 269.083C31.413 266.708 31.042 263.056 31.042 263.056C31.042 263.056 35.5957 263.255 38.6332 265.631Z" fill="#0E153A"/>
<path d="M436.933 266.338C438.04 269.626 441.831 271.662 441.831 271.662C441.831 271.662 443.828 268.367 442.721 265.08C441.614 261.792 437.823 259.756 437.823 259.756C437.823 259.756 435.826 263.05 436.933 266.338Z" fill="#3F3D56"/>
<path d="M438.559 265.631C441.597 268.007 441.968 271.659 441.968 271.659C441.968 271.659 437.414 271.459 434.377 269.083C431.339 266.708 430.968 263.056 430.968 263.056C430.968 263.056 435.522 263.255 438.559 265.631Z" fill="#0E153A"/>
<path d="M44.5257 241.625L41.8223 238.005L67.0556 220.627H131.942V225.695L108.511 245.97L81.4745 250.314L44.5257 241.625Z" fill="#3F3D56"/>
<path d="M143.111 230.824V219.496H134.616V223.068L131.942 220.627L110.313 238.004L106.708 240.9L102.202 255.382L110.313 271.311H151.767V238.728L143.111 230.824Z" fill="#CCCCCC"/>
<path d="M110.313 238.004H41.8223V271.312H110.313V238.004Z" fill="#F2F2F2"/>
<path d="M100.85 248.503H86.4313V258.64H100.85V248.503Z" fill="#3F3D56"/>
<path d="M80.5735 248.141H67.9568V271.311H80.5735V248.141Z" fill="#CCCCCC"/>
<path d="M53.5378 251.761V248.141H48.131V251.761H53.0869H53.5378Z" fill="#3F3D56"/>
<path d="M53.0869 254.658H48.131V258.278H53.5378V254.658H53.0869Z" fill="#3F3D56"/>
<path d="M62.5497 248.141H57.1426V251.761H62.5497V248.141Z" fill="#3F3D56"/>
<path d="M62.5497 254.658H57.1426V258.278H62.5497V254.658Z" fill="#3F3D56"/>
<path d="M129.688 252.124V248.503H124.281V252.124H129.238H129.688Z" fill="#3F3D56"/>
<path d="M129.238 255.02H124.281V258.64H129.688V255.02H129.238Z" fill="#3F3D56"/>
<path d="M138.7 248.503H133.293V252.124H138.7V248.503Z" fill="#3F3D56"/>
<path d="M138.7 255.02H133.293V258.64H138.7V255.02Z" fill="#3F3D56"/>
<path d="M305.262 241.625L302.558 238.005L327.792 220.627H392.678V225.695L369.247 245.97L342.211 250.314L305.262 241.625Z" fill="#3F3D56"/>
<path d="M403.847 230.824V219.496H395.352V223.068L392.678 220.627L371.049 238.004L367.444 240.9L362.938 255.382L371.049 271.311H412.504V238.728L403.847 230.824Z" fill="#CCCCCC"/>
<path d="M371.049 238.004H302.558V271.312H371.049V238.004Z" fill="#F2F2F2"/>
<path d="M361.586 248.503H347.167V258.64H361.586V248.503Z" fill="#3F3D56"/>
<path d="M341.31 248.141H328.693V271.311H341.31V248.141Z" fill="#CCCCCC"/>
<path d="M314.274 251.761V248.141H308.867V251.761H313.823H314.274Z" fill="#3F3D56"/>
<path d="M313.823 254.658H308.867V258.278H314.274V254.658H313.823Z" fill="#3F3D56"/>
<path d="M323.286 248.141H317.879V251.761H323.286V248.141Z" fill="#3F3D56"/>
<path d="M323.286 254.658H317.879V258.278H323.286V254.658Z" fill="#3F3D56"/>
<path d="M390.425 252.124V248.503H385.017V252.124H389.974H390.425Z" fill="#3F3D56"/>
<path d="M389.974 255.02H385.017V258.64H390.425V255.02H389.974Z" fill="#3F3D56"/>
<path d="M399.436 248.503H394.029V252.124H399.436V248.503Z" fill="#3F3D56"/>
<path d="M399.436 255.02H394.029V258.64H399.436V255.02Z" fill="#3F3D56"/>
<path d="M183.309 180.803L178.804 177.906L204.037 159.805H268.021V175.734L226.567 198.181L183.309 180.803Z" fill="#3F3D56"/>
<path d="M279.687 169.959V160.166H271.192V162.565L268.021 159.805L247.294 177.906L239.183 182.251L226.607 256.073L245.573 271.311H289.65V178.63L279.687 169.959Z" fill="#CCCCCC"/>
<path d="M247.294 177.907H178.803V271.312H247.294V177.907Z" fill="#F2F2F2"/>
<path d="M218.005 248.503H205.388V271.312H218.005V248.503Z" fill="#CCCCCC"/>
<path d="M191.87 255.02V251.4H186.464V255.02H191.42H191.87Z" fill="#3F3D56"/>
<path d="M191.42 257.916H186.464V261.537H191.87V257.916H191.42Z" fill="#3F3D56"/>
<path d="M200.882 251.399H195.475V255.02H200.882V251.399Z" fill="#3F3D56"/>
<path d="M200.882 257.916H195.475V261.536H200.882V257.916Z" fill="#3F3D56"/>
<path d="M228.819 255.02V251.4H223.412V255.02H228.369H228.819Z" fill="#3F3D56"/>
<path d="M228.369 257.916H223.412V261.537H228.819V257.916H228.369Z" fill="#3F3D56"/>
<path d="M237.831 251.399H232.424V255.02H237.831V251.399Z" fill="#3F3D56"/>
<path d="M237.831 257.916H232.424V261.536H237.831V257.916Z" fill="#3F3D56"/>
<path d="M266.669 182.613V178.993H261.262V182.613H266.219H266.669Z" fill="#3F3D56"/>
<path d="M266.219 185.509H261.262V189.129H266.669V185.509H266.219Z" fill="#3F3D56"/>
<path d="M275.681 178.993H270.274V182.613H275.681V178.993Z" fill="#3F3D56"/>
<path d="M275.681 185.509H270.274V189.13H275.681V185.509Z" fill="#3F3D56"/>
<path d="M266.669 202.887V199.267H261.262V202.887H266.219H266.669Z" fill="#3F3D56"/>
<path d="M266.219 205.783H261.262V209.403H266.669V205.783H266.219Z" fill="#3F3D56"/>
<path d="M275.681 199.267H270.274V202.887H275.681V199.267Z" fill="#3F3D56"/>
<path d="M275.681 205.783H270.274V209.404H275.681V205.783Z" fill="#3F3D56"/>
<path d="M266.669 223.161V219.54H261.262V223.161H266.219H266.669Z" fill="#3F3D56"/>
<path d="M266.219 226.057H261.262V229.677H266.669V226.057H266.219Z" fill="#3F3D56"/>
<path d="M275.681 219.541H270.274V223.161H275.681V219.541Z" fill="#3F3D56"/>
<path d="M275.681 226.057H270.274V229.678H275.681V226.057Z" fill="#3F3D56"/>
<path d="M266.669 243.435V239.814H261.262V243.435H266.219H266.669Z" fill="#3F3D56"/>
<path d="M266.219 246.331H261.262V249.951H266.669V246.331H266.219Z" fill="#3F3D56"/>
<path d="M275.681 239.814H270.274V243.435H275.681V239.814Z" fill="#3F3D56"/>
<path d="M275.681 246.331H270.274V249.951H275.681V246.331Z" fill="#3F3D56"/>
<path d="M238.732 182.613H186.463V191.302H238.732V182.613Z" fill="#3F3D56"/>
<path d="M238.732 199.991H186.463V208.68H238.732V199.991Z" fill="#3F3D56"/>
<path d="M238.732 217.368H186.463V226.057H238.732V217.368Z" fill="#3F3D56"/>
<path d="M238.732 234.746H186.463V243.435H238.732V234.746Z" fill="#3F3D56"/>
<path d="M446.659 180.803L442.154 177.906L467.387 159.805H531.371V175.734L489.917 198.181L446.659 180.803Z" fill="#3F3D56"/>
<path d="M543.037 169.959V160.166H534.542V162.565L531.371 159.805L510.644 177.906L502.533 182.251L489.957 256.073L508.923 271.311H553V178.63L543.037 169.959Z" fill="#CCCCCC"/>
<path d="M510.644 177.907H442.153V271.312H510.644V177.907Z" fill="#F2F2F2"/>
<path d="M481.355 248.503H468.738V271.312H481.355V248.503Z" fill="#CCCCCC"/>
<path d="M455.22 255.02V251.4H449.814V255.02H454.77H455.22Z" fill="#3F3D56"/>
<path d="M454.77 257.916H449.814V261.537H455.22V257.916H454.77Z" fill="#3F3D56"/>
<path d="M464.232 251.399H458.825V255.02H464.232V251.399Z" fill="#3F3D56"/>
<path d="M464.232 257.916H458.825V261.536H464.232V257.916Z" fill="#3F3D56"/>
<path d="M492.169 255.02V251.4H486.762V255.02H491.719H492.169Z" fill="#3F3D56"/>
<path d="M491.719 257.916H486.762V261.537H492.169V257.916H491.719Z" fill="#3F3D56"/>
<path d="M501.181 251.399H495.774V255.02H501.181V251.399Z" fill="#3F3D56"/>
<path d="M501.181 257.916H495.774V261.536H501.181V257.916Z" fill="#3F3D56"/>
<path d="M530.019 182.613V178.993H524.612V182.613H529.569H530.019Z" fill="#3F3D56"/>
<path d="M529.569 185.509H524.612V189.129H530.019V185.509H529.569Z" fill="#3F3D56"/>
<path d="M539.031 178.993H533.624V182.613H539.031V178.993Z" fill="#3F3D56"/>
<path d="M539.031 185.509H533.624V189.13H539.031V185.509Z" fill="#3F3D56"/>
<path d="M530.019 202.887V199.267H524.612V202.887H529.569H530.019Z" fill="#3F3D56"/>
<path d="M529.569 205.783H524.612V209.403H530.019V205.783H529.569Z" fill="#3F3D56"/>
<path d="M539.031 199.267H533.624V202.887H539.031V199.267Z" fill="#3F3D56"/>
<path d="M539.031 205.783H533.624V209.404H539.031V205.783Z" fill="#3F3D56"/>
<path d="M530.019 223.161V219.54H524.612V223.161H529.569H530.019Z" fill="#3F3D56"/>
<path d="M529.569 226.057H524.612V229.677H530.019V226.057H529.569Z" fill="#3F3D56"/>
<path d="M539.031 219.541H533.624V223.161H539.031V219.541Z" fill="#3F3D56"/>
<path d="M539.031 226.057H533.624V229.678H539.031V226.057Z" fill="#3F3D56"/>
<path d="M530.019 243.435V239.814H524.612V243.435H529.569H530.019Z" fill="#3F3D56"/>
<path d="M529.569 246.331H524.612V249.951H530.019V246.331H529.569Z" fill="#3F3D56"/>
<path d="M539.031 239.814H533.624V243.435H539.031V239.814Z" fill="#3F3D56"/>
<path d="M539.031 246.331H533.624V249.951H539.031V246.331Z" fill="#3F3D56"/>
<path d="M502.083 182.613H449.813V191.302H502.083V182.613Z" fill="#3F3D56"/>
<path d="M502.083 199.991H449.813V208.68H502.083V199.991Z" fill="#3F3D56"/>
<path d="M502.083 217.368H449.813V226.057H502.083V217.368Z" fill="#3F3D56"/>
<path d="M502.083 234.746H449.813V243.435H502.083V234.746Z" fill="#3F3D56"/>
<path d="M591.077 180.803L586.571 177.906L611.805 159.805H675.789V175.734L634.334 198.181L591.077 180.803Z" fill="#3F3D56"/>
<path d="M687.455 169.959V160.166H678.959V162.565L675.789 159.805L655.061 177.906L646.951 182.251L634.375 256.073L653.341 271.311H697.417V178.63L687.455 169.959Z" fill="#CCCCCC"/>
<path d="M655.062 177.907H586.571V271.312H655.062V177.907Z" fill="#F2F2F2"/>
<path d="M625.773 248.503H613.156V271.312H625.773V248.503Z" fill="#CCCCCC"/>
<path d="M599.638 255.02V251.4H594.231V255.02H599.188H599.638Z" fill="#3F3D56"/>
<path d="M599.188 257.916H594.231V261.537H599.638V257.916H599.188Z" fill="#3F3D56"/>
<path d="M608.65 251.399H603.243V255.02H608.65V251.399Z" fill="#3F3D56"/>
<path d="M608.65 257.916H603.243V261.536H608.65V257.916Z" fill="#3F3D56"/>
<path d="M636.587 255.02V251.4H631.18V255.02H636.137H636.587Z" fill="#3F3D56"/>
<path d="M636.137 257.916H631.18V261.537H636.587V257.916H636.137Z" fill="#3F3D56"/>
<path d="M645.599 251.399H640.192V255.02H645.599V251.399Z" fill="#3F3D56"/>
<path d="M645.599 257.916H640.192V261.536H645.599V257.916Z" fill="#3F3D56"/>
<path d="M674.437 182.613V178.993H669.03V182.613H673.987H674.437Z" fill="#3F3D56"/>
<path d="M673.987 185.509H669.03V189.129H674.437V185.509H673.987Z" fill="#3F3D56"/>
<path d="M683.449 178.993H678.042V182.613H683.449V178.993Z" fill="#3F3D56"/>
<path d="M683.449 185.509H678.042V189.13H683.449V185.509Z" fill="#3F3D56"/>
<path d="M674.437 202.887V199.267H669.03V202.887H673.987H674.437Z" fill="#3F3D56"/>
<path d="M673.987 205.783H669.03V209.403H674.437V205.783H673.987Z" fill="#3F3D56"/>
<path d="M683.449 199.267H678.042V202.887H683.449V199.267Z" fill="#3F3D56"/>
<path d="M683.449 205.783H678.042V209.404H683.449V205.783Z" fill="#3F3D56"/>
<path d="M674.437 223.161V219.54H669.03V223.161H673.987H674.437Z" fill="#3F3D56"/>
<path d="M673.987 226.057H669.03V229.677H674.437V226.057H673.987Z" fill="#3F3D56"/>
<path d="M683.449 219.541H678.042V223.161H683.449V219.541Z" fill="#3F3D56"/>
<path d="M683.449 226.057H678.042V229.678H683.449V226.057Z" fill="#3F3D56"/>
<path d="M674.437 243.435V239.814H669.03V243.435H673.987H674.437Z" fill="#3F3D56"/>
<path d="M673.987 246.331H669.03V249.951H674.437V246.331H673.987Z" fill="#3F3D56"/>
<path d="M683.449 239.814H678.042V243.435H683.449V239.814Z" fill="#3F3D56"/>
<path d="M683.449 246.331H678.042V249.951H683.449V246.331Z" fill="#3F3D56"/>
<path d="M646.5 182.613H594.231V191.302H646.5V182.613Z" fill="#3F3D56"/>
<path d="M646.5 199.991H594.231V208.68H646.5V199.991Z" fill="#3F3D56"/>
<path d="M646.5 217.368H594.231V226.057H646.5V217.368Z" fill="#3F3D56"/>
<path d="M646.5 234.746H594.231V243.435H646.5V234.746Z" fill="#3F3D56"/>
<path d="M743 270.95H0V272H743V270.95Z" fill="#3F3D56"/>
<path d="M165.982 229.472H164.675V270.95H165.982V229.472Z" fill="#3F3D56"/>
<path d="M178.044 234.758C178.127 249.262 165.427 261.067 165.427 261.067C165.427 261.067 152.592 249.356 152.508 234.852C152.425 220.348 165.126 208.543 165.126 208.543C165.126 208.543 177.961 220.254 178.044 234.758Z" fill="#0E153A"/>
<path d="M296.677 229.472H295.37V270.95H296.677V229.472Z" fill="#3F3D56"/>
<path d="M308.739 234.758C308.822 249.262 296.122 261.067 296.122 261.067C296.122 261.067 283.286 249.356 283.203 234.852C283.12 220.348 295.82 208.543 295.82 208.543C295.82 208.543 308.656 220.254 308.739 234.758Z" fill="#0E153A"/>
<path d="M557.413 229.472H556.106V270.95H557.413V229.472Z" fill="#3F3D56"/>
<path d="M569.475 234.758C569.558 249.262 556.858 261.067 556.858 261.067C556.858 261.067 544.023 249.356 543.939 234.852C543.856 220.348 556.557 208.543 556.557 208.543C556.557 208.543 569.392 220.254 569.475 234.758Z" fill="#0E153A"/>
<path d="M383.916 90.3332C397.63 90.3332 408.748 88.3233 408.748 85.8441C408.748 83.3648 397.63 81.355 383.916 81.355C370.202 81.355 359.084 83.3648 359.084 85.8441C359.084 88.3233 370.202 90.3332 383.916 90.3332Z" fill="#0E153A"/>
<path d="M412.015 23.1017C412.015 35.8605 383.263 71.9304 383.263 71.9304C383.263 71.9304 354.51 35.8605 354.51 23.1017C354.51 16.9748 357.539 11.0987 362.931 6.76634C368.323 2.43392 375.637 0 383.263 0C390.888 0 398.202 2.43392 403.594 6.76634C408.986 11.0987 412.015 16.9748 412.015 23.1017Z" fill="#0E153A"/>
<path d="M383.262 36.2275C392.285 36.2275 399.599 30.3508 399.599 23.1016C399.599 15.8523 392.285 9.97559 383.262 9.97559C374.24 9.97559 366.926 15.8523 366.926 23.1016C366.926 30.3508 374.24 36.2275 383.262 36.2275Z" fill="#F2F2F2"/>
</g>
<defs>
<clipPath id="clip0">
<rect width="743" height="272" fill="white"/>
</clipPath>
</defs>
</svg>
