<svg width="375" height="258" viewBox="0 0 375 258" fill="none" xmlns="http://www.w3.org/2000/svg">
<g clip-path="url(#clip0)">
<path opacity="0.2" d="M309.849 227.301H282.955V213.69H309.849V227.301ZM284.091 226.28H308.712V214.711H284.091V226.28Z" fill="#E2F3F5"/>
<path opacity="0.2" d="M336.743 226.62H309.849V213.009H336.743V226.62ZM310.985 225.599H335.606V214.03H310.985V225.599Z" fill="#E2F3F5"/>
<path opacity="0.2" d="M363.636 226.62H336.742V213.009H363.636V226.62ZM337.879 225.599H362.5V214.03H337.879V225.599Z" fill="#E2F3F5"/>
<path opacity="0.2" d="M363.636 213.009H336.742V199.398H363.636V213.009ZM337.879 211.988H362.5V200.419H337.879V211.988Z" fill="#E2F3F5"/>
<path opacity="0.2" d="M336.743 213.009H309.849V199.398H336.743V213.009ZM310.985 211.988H335.606V200.419H310.985V211.988Z" fill="#E2F3F5"/>
<path opacity="0.2" d="M33.7121 226.62H6.81812V213.009H33.7121V226.62ZM7.95448 225.599H32.5757V214.03H7.95448V225.599Z" fill="#E2F3F5"/>
<path opacity="0.2" d="M60.6061 226.62H33.7122V213.009H60.6061V226.62ZM34.8485 225.599H59.4697V214.03H34.8485V225.599Z" fill="#E2F3F5"/>
<path opacity="0.2" d="M87.5001 226.62H60.6062V213.009H87.5001V226.62ZM61.7426 225.599H86.3638V214.03H61.7426V225.599Z" fill="#E2F3F5"/>
<path opacity="0.2" d="M114.394 227.301H87.5V213.69H114.394V227.301ZM88.6364 226.28H113.258V214.711H88.6364V226.28Z" fill="#E2F3F5"/>
<path opacity="0.2" d="M87.5001 213.009H60.6062V199.398H87.5001V213.009ZM61.7426 211.988H86.3638V200.419H61.7426V211.988Z" fill="#E2F3F5"/>
<path opacity="0.2" d="M60.6061 213.009H33.7122V199.398H60.6061V213.009ZM34.8485 211.988H59.4697V200.419H34.8485V211.988Z" fill="#E2F3F5"/>
<path d="M337.227 184.549C337.227 184.549 332.25 169.363 338.159 158.185C340.672 153.511 341.43 148.232 340.318 143.138C339.77 140.723 338.976 138.359 337.947 136.074" stroke="#535461" stroke-width="2" stroke-miterlimit="10"/>
<path d="M341.629 129C341.629 130.861 337.879 136.258 337.879 136.258C337.879 136.258 334.129 130.861 334.129 129C334.129 128.106 334.524 127.249 335.228 126.617C335.931 125.984 336.885 125.629 337.881 125.629C338.876 125.629 339.83 125.984 340.534 126.617C341.237 127.249 341.632 128.106 341.632 129H341.629Z" fill="#E2F3F5"/>
<path d="M347.829 139.32C346.693 140.882 340.288 143.58 340.288 143.58C340.288 143.58 340.405 137.217 341.53 135.655C341.798 135.284 342.144 134.963 342.55 134.712C342.955 134.461 343.412 134.284 343.894 134.191C344.375 134.098 344.873 134.092 345.357 134.172C345.842 134.252 346.304 134.416 346.718 134.657C347.131 134.897 347.488 135.208 347.768 135.573C348.048 135.937 348.245 136.347 348.348 136.78C348.451 137.213 348.459 137.659 348.37 138.095C348.281 138.53 348.097 138.945 347.829 139.317V139.32Z" fill="#E2F3F5"/>
<path d="M347.557 156.939C345.708 157.776 338.655 157.198 338.655 157.198C338.655 157.198 342.33 151.754 344.182 150.92C345.07 150.518 346.101 150.449 347.046 150.728C347.991 151.008 348.774 151.614 349.222 152.412C349.67 153.21 349.746 154.136 349.435 154.985C349.123 155.834 348.449 156.537 347.561 156.939H347.557Z" fill="#E2F3F5"/>
<path d="M344.011 170.227C342.345 171.333 335.299 171.833 335.299 171.833C335.299 171.833 337.898 165.916 339.564 164.806C339.96 164.543 340.41 164.353 340.888 164.246C341.366 164.139 341.863 164.117 342.35 164.183C342.837 164.248 343.305 164.399 343.727 164.627C344.15 164.855 344.518 165.155 344.811 165.511C345.104 165.866 345.316 166.27 345.435 166.7C345.554 167.129 345.578 167.575 345.505 168.013C345.432 168.451 345.264 168.871 345.011 169.25C344.757 169.63 344.423 169.96 344.027 170.223L344.011 170.227Z" fill="#E2F3F5"/>
<path d="M332.413 143.945C333.898 145.241 340.822 146.585 340.822 146.585C340.822 146.585 339.125 140.406 337.64 139.099C337.287 138.791 336.869 138.548 336.411 138.385C335.953 138.222 335.464 138.141 334.972 138.147C334.479 138.154 333.993 138.247 333.54 138.423C333.088 138.598 332.678 138.852 332.335 139.169C331.992 139.487 331.722 139.862 331.54 140.273C331.358 140.684 331.268 141.124 331.275 141.566C331.283 142.009 331.387 142.446 331.582 142.852C331.777 143.259 332.059 143.626 332.413 143.935V143.945Z" fill="#E2F3F5"/>
<path d="M328.485 159.529C330.333 160.366 337.386 159.788 337.386 159.788C337.386 159.788 333.712 154.344 331.86 153.51C330.971 153.107 329.941 153.038 328.996 153.318C328.051 153.598 327.268 154.204 326.82 155.002C326.372 155.8 326.295 156.726 326.607 157.575C326.918 158.424 327.592 159.127 328.481 159.529H328.485Z" fill="#E2F3F5"/>
<path d="M326.981 175.151C328.648 176.257 335.693 176.757 335.693 176.757C335.693 176.757 333.11 170.853 331.439 169.734C331.043 169.47 330.594 169.28 330.116 169.173C329.638 169.066 329.141 169.044 328.654 169.11C328.167 169.175 327.699 169.326 327.277 169.554C326.854 169.782 326.486 170.082 326.193 170.438C325.9 170.794 325.688 171.198 325.569 171.627C325.45 172.056 325.426 172.503 325.499 172.94C325.572 173.378 325.74 173.798 325.993 174.178C326.247 174.557 326.581 174.888 326.977 175.151H326.981Z" fill="#E2F3F5"/>
<path opacity="0.25" d="M341.629 129C341.629 130.861 337.879 136.258 337.879 136.258C337.879 136.258 334.129 130.861 334.129 129C334.129 128.106 334.524 127.249 335.228 126.617C335.931 125.984 336.885 125.629 337.881 125.629C338.876 125.629 339.83 125.984 340.534 126.617C341.237 127.249 341.632 128.106 341.632 129H341.629Z" fill="black"/>
<path opacity="0.25" d="M347.829 139.32C346.693 140.882 340.288 143.58 340.288 143.58C340.288 143.58 340.405 137.217 341.53 135.655C341.798 135.284 342.144 134.963 342.55 134.712C342.955 134.461 343.412 134.284 343.894 134.191C344.375 134.098 344.873 134.092 345.357 134.172C345.842 134.252 346.304 134.416 346.718 134.657C347.131 134.897 347.488 135.208 347.768 135.573C348.048 135.937 348.245 136.347 348.348 136.78C348.451 137.213 348.459 137.659 348.37 138.095C348.281 138.53 348.097 138.945 347.829 139.317V139.32Z" fill="black"/>
<path opacity="0.25" d="M347.557 156.939C345.708 157.776 338.655 157.198 338.655 157.198C338.655 157.198 342.33 151.754 344.182 150.92C345.07 150.518 346.101 150.449 347.046 150.728C347.991 151.008 348.774 151.614 349.222 152.412C349.67 153.21 349.746 154.136 349.435 154.985C349.123 155.834 348.449 156.537 347.561 156.939H347.557Z" fill="black"/>
<path opacity="0.25" d="M344.011 170.227C342.345 171.333 335.299 171.833 335.299 171.833C335.299 171.833 337.898 165.916 339.564 164.806C339.96 164.543 340.41 164.353 340.888 164.246C341.366 164.139 341.863 164.117 342.35 164.183C342.837 164.248 343.305 164.399 343.727 164.627C344.15 164.855 344.518 165.155 344.811 165.511C345.104 165.866 345.316 166.27 345.435 166.7C345.554 167.129 345.578 167.575 345.505 168.013C345.432 168.451 345.264 168.871 345.011 169.25C344.757 169.63 344.423 169.96 344.027 170.223L344.011 170.227Z" fill="black"/>
<path opacity="0.25" d="M332.413 143.945C333.898 145.241 340.822 146.585 340.822 146.585C340.822 146.585 339.125 140.406 337.64 139.099C337.287 138.791 336.869 138.548 336.411 138.385C335.953 138.222 335.464 138.141 334.972 138.147C334.479 138.154 333.993 138.247 333.54 138.423C333.088 138.598 332.678 138.852 332.335 139.169C331.992 139.487 331.722 139.862 331.54 140.273C331.358 140.684 331.268 141.124 331.275 141.566C331.283 142.009 331.387 142.446 331.582 142.852C331.777 143.259 332.059 143.626 332.413 143.935V143.945Z" fill="black"/>
<path opacity="0.25" d="M328.485 159.529C330.333 160.366 337.386 159.788 337.386 159.788C337.386 159.788 333.712 154.344 331.86 153.51C330.971 153.107 329.941 153.038 328.996 153.318C328.051 153.598 327.268 154.204 326.82 155.002C326.372 155.8 326.295 156.726 326.607 157.575C326.918 158.424 327.592 159.127 328.481 159.529H328.485Z" fill="black"/>
<path opacity="0.25" d="M326.981 175.151C328.648 176.257 335.693 176.757 335.693 176.757C335.693 176.757 333.11 170.853 331.439 169.734C331.043 169.47 330.594 169.28 330.116 169.173C329.638 169.066 329.141 169.044 328.654 169.11C328.167 169.175 327.699 169.326 327.277 169.554C326.854 169.782 326.486 170.082 326.193 170.438C325.9 170.794 325.688 171.198 325.569 171.627C325.45 172.056 325.426 172.503 325.499 172.94C325.572 173.378 325.74 173.798 325.993 174.178C326.247 174.557 326.581 174.888 326.977 175.151H326.981Z" fill="black"/>
<path d="M63.9394 184.665C63.9394 184.665 58.8864 169.254 64.8864 157.923C67.4376 153.18 68.2072 147.821 67.0796 142.652C66.5232 140.195 65.7168 137.79 64.6705 135.465" stroke="#535461" stroke-width="2" stroke-miterlimit="10"/>
<path d="M68.4053 128.32C68.4053 130.208 64.5984 135.686 64.5984 135.686C64.5984 135.686 60.7878 130.191 60.7878 128.32C60.7878 127.413 61.1889 126.543 61.9028 125.902C62.6167 125.26 63.585 124.9 64.5947 124.9C65.6043 124.9 66.5726 125.26 67.2865 125.902C68.0004 126.543 68.4015 127.413 68.4015 128.32H68.4053Z" fill="#E2F3F5"/>
<path d="M74.6969 138.766C73.5606 140.351 67.0454 143.09 67.0454 143.09C67.0454 143.09 67.1628 136.625 68.3068 135.05C68.5733 134.663 68.923 134.328 69.3355 134.064C69.748 133.8 70.215 133.613 70.7091 133.513C71.2032 133.413 71.7145 133.403 72.213 133.483C72.7116 133.563 73.1873 133.731 73.6125 133.979C74.0376 134.226 74.4036 134.547 74.6889 134.923C74.9742 135.298 75.1732 135.722 75.2742 136.167C75.3752 136.613 75.3762 137.073 75.277 137.519C75.1779 137.965 74.9807 138.389 74.6969 138.766Z" fill="#E2F3F5"/>
<path d="M74.4203 156.643C72.5264 157.494 65.3862 156.906 65.3862 156.906C65.3862 156.906 69.1173 151.386 70.9923 150.536C71.8939 150.127 72.9392 150.057 73.8982 150.341C74.8572 150.625 75.6514 151.24 76.1059 152.05C76.5605 152.86 76.6383 153.799 76.3222 154.66C76.0061 155.522 75.322 156.235 74.4203 156.643Z" fill="#E2F3F5"/>
<path d="M70.8334 170.128C69.144 171.251 61.9773 171.758 61.9773 171.758C61.9773 171.758 64.6288 165.753 66.3068 164.613C66.7088 164.345 67.1655 164.15 67.6511 164.041C68.1366 163.931 68.6414 163.909 69.1367 163.974C69.6319 164.04 70.1079 164.193 70.5375 164.424C70.967 164.655 71.3417 164.959 71.6402 165.32C71.9386 165.681 72.155 166.092 72.2769 166.528C72.3989 166.964 72.424 167.418 72.3508 167.862C72.2776 168.307 72.1077 168.735 71.8505 169.121C71.5934 169.507 71.2542 169.843 70.8523 170.111L70.8334 170.128Z" fill="#E2F3F5"/>
<path d="M59.0492 143.455C60.5644 144.771 67.5833 146.133 67.5833 146.133C67.5833 146.133 65.8636 139.865 64.356 138.548C63.999 138.228 63.5748 137.975 63.1081 137.804C62.6413 137.632 62.1413 137.546 61.6371 137.549C61.1329 137.553 60.6345 137.647 60.1708 137.825C59.7072 138.003 59.2876 138.262 58.9363 138.587C58.5851 138.912 58.3092 139.296 58.1248 139.718C57.9403 140.14 57.8509 140.59 57.8617 141.043C57.8726 141.496 57.9835 141.942 58.188 142.356C58.3925 142.77 58.6865 143.143 59.053 143.455H59.0492Z" fill="#E2F3F5"/>
<path d="M55.0644 159.284C56.9584 160.135 64.0985 159.546 64.0985 159.546C64.0985 159.546 60.3675 154.027 58.4925 153.176C57.5908 152.768 56.5455 152.698 55.5866 152.982C54.6276 153.266 53.8334 153.881 53.3788 154.69C52.9243 155.5 52.8465 156.439 53.1626 157.301C53.4787 158.162 54.1628 158.876 55.0644 159.284Z" fill="#E2F3F5"/>
<path d="M53.5379 175.127C55.2273 176.25 62.394 176.757 62.394 176.757C62.394 176.757 59.7424 170.752 58.0644 169.612C57.2527 169.07 56.2348 168.841 55.2346 168.973C54.2344 169.106 53.3338 169.59 52.7311 170.319C52.1283 171.049 51.8727 171.963 52.0204 172.862C52.1682 173.76 52.7072 174.569 53.5189 175.11L53.5379 175.127Z" fill="#E2F3F5"/>
<path opacity="0.5" d="M68.4053 128.32C68.4053 130.208 64.5984 135.686 64.5984 135.686C64.5984 135.686 60.7878 130.191 60.7878 128.32C60.7878 127.413 61.1889 126.543 61.9028 125.902C62.6167 125.26 63.585 124.9 64.5947 124.9C65.6043 124.9 66.5726 125.26 67.2865 125.902C68.0004 126.543 68.4015 127.413 68.4015 128.32H68.4053Z" fill="white"/>
<path opacity="0.5" d="M74.6969 138.766C73.5606 140.351 67.0454 143.09 67.0454 143.09C67.0454 143.09 67.1628 136.625 68.3068 135.05C68.5733 134.663 68.923 134.328 69.3355 134.064C69.748 133.8 70.215 133.613 70.7091 133.513C71.2032 133.413 71.7145 133.403 72.213 133.483C72.7116 133.563 73.1873 133.731 73.6125 133.979C74.0376 134.226 74.4036 134.547 74.6889 134.923C74.9742 135.298 75.1732 135.722 75.2742 136.167C75.3752 136.613 75.3762 137.073 75.277 137.519C75.1779 137.965 74.9807 138.389 74.6969 138.766Z" fill="white"/>
<path opacity="0.5" d="M74.4203 156.643C72.5264 157.494 65.3862 156.906 65.3862 156.906C65.3862 156.906 69.1173 151.386 70.9923 150.536C71.8939 150.127 72.9392 150.057 73.8982 150.341C74.8572 150.625 75.6514 151.24 76.1059 152.05C76.5605 152.86 76.6383 153.799 76.3222 154.66C76.0061 155.522 75.322 156.235 74.4203 156.643Z" fill="white"/>
<path opacity="0.5" d="M70.8334 170.128C69.144 171.251 61.9773 171.758 61.9773 171.758C61.9773 171.758 64.6288 165.753 66.3068 164.613C66.7088 164.345 67.1655 164.15 67.6511 164.041C68.1366 163.931 68.6414 163.909 69.1367 163.974C69.6319 164.04 70.1079 164.193 70.5375 164.424C70.967 164.655 71.3417 164.959 71.6402 165.32C71.9386 165.681 72.155 166.092 72.2769 166.528C72.3989 166.964 72.424 167.418 72.3508 167.862C72.2776 168.307 72.1077 168.735 71.8505 169.121C71.5934 169.507 71.2542 169.843 70.8523 170.111L70.8334 170.128Z" fill="white"/>
<path opacity="0.5" d="M59.0492 143.455C60.5644 144.771 67.5833 146.133 67.5833 146.133C67.5833 146.133 65.8636 139.865 64.356 138.548C63.999 138.228 63.5748 137.975 63.1081 137.804C62.6413 137.632 62.1413 137.546 61.6371 137.549C61.1329 137.553 60.6345 137.647 60.1708 137.825C59.7072 138.003 59.2876 138.262 58.9363 138.587C58.5851 138.912 58.3092 139.296 58.1248 139.718C57.9403 140.14 57.8509 140.59 57.8617 141.043C57.8726 141.496 57.9835 141.942 58.188 142.356C58.3925 142.77 58.6865 143.143 59.053 143.455H59.0492Z" fill="white"/>
<path opacity="0.5" d="M55.0644 159.284C56.9584 160.135 64.0985 159.546 64.0985 159.546C64.0985 159.546 60.3675 154.027 58.4925 153.176C57.5908 152.768 56.5455 152.698 55.5866 152.982C54.6276 153.266 53.8334 153.881 53.3788 154.69C52.9243 155.5 52.8465 156.439 53.1626 157.301C53.4787 158.162 54.1628 158.876 55.0644 159.284Z" fill="white"/>
<path opacity="0.5" d="M53.5379 175.127C55.2273 176.25 62.394 176.757 62.394 176.757C62.394 176.757 59.7424 170.752 58.0644 169.612C57.2527 169.07 56.2348 168.841 55.2346 168.973C54.2344 169.106 53.3338 169.59 52.7311 170.319C52.1283 171.049 51.8727 171.963 52.0204 172.862C52.1682 173.76 52.7072 174.569 53.5189 175.11L53.5379 175.127Z" fill="white"/>
<path d="M35.1099 184.284C35.1099 184.284 31.2614 172.554 35.8334 163.894C37.7771 160.28 38.3632 156.197 37.5038 152.257C37.0796 150.39 36.466 148.562 35.6705 146.796" stroke="#535461" stroke-width="2" stroke-miterlimit="10"/>
<path d="M38.5152 141.332C38.5152 142.771 35.6137 146.946 35.6137 146.946C35.6137 146.946 32.7122 142.771 32.7122 141.332C32.7122 140.64 33.0179 139.977 33.562 139.489C34.1061 139 34.8441 138.725 35.6137 138.725C36.3832 138.725 37.1212 139 37.6654 139.489C38.2095 139.977 38.5152 140.64 38.5152 141.332Z" fill="#E2F3F5"/>
<path d="M43.3106 149.304C42.4394 150.512 37.4773 152.601 37.4773 152.601C37.4773 152.601 37.5682 147.681 38.4394 146.476C38.6466 146.189 38.9147 145.941 39.2286 145.747C39.5424 145.553 39.8957 145.416 40.2684 145.344C40.641 145.273 41.0257 145.268 41.4005 145.33C41.7753 145.392 42.1328 145.519 42.4527 145.706C42.7725 145.892 43.0484 146.133 43.2647 146.414C43.4809 146.696 43.6332 147.014 43.7128 147.348C43.7925 147.683 43.798 148.029 43.729 148.366C43.66 148.702 43.5178 149.023 43.3106 149.311V149.304Z" fill="#E2F3F5"/>
<path d="M43.1022 162.928C41.6704 163.575 36.2158 163.129 36.2158 163.129C36.2158 163.129 39.0567 158.923 40.4885 158.273C41.1757 157.962 41.9724 157.909 42.7034 158.125C43.4343 158.341 44.0397 158.81 44.3863 159.427C44.7329 160.044 44.7923 160.76 44.5515 161.417C44.3107 162.073 43.7893 162.617 43.1022 162.928Z" fill="#E2F3F5"/>
<path d="M40.3599 173.208C39.072 174.066 33.6099 174.45 33.6099 174.45C33.6099 174.45 35.6212 169.874 36.9091 169.006C37.5279 168.595 38.3032 168.421 39.0644 168.524C39.8255 168.626 40.5102 168.996 40.9678 169.552C41.4254 170.108 41.6184 170.804 41.5044 171.488C41.3904 172.172 40.9787 172.787 40.3599 173.198V173.208Z" fill="#E2F3F5"/>
<path d="M31.3862 152.88C32.5226 153.884 37.89 154.922 37.89 154.922C37.89 154.922 36.5794 150.158 35.4279 149.137C35.1543 148.899 34.8311 148.711 34.4768 148.585C34.1225 148.459 33.744 148.396 33.3629 148.402C32.9818 148.407 32.6055 148.479 32.2556 148.615C31.9058 148.751 31.5891 148.948 31.3237 149.193C31.0583 149.439 30.8495 149.729 30.709 150.048C30.5685 150.366 30.4992 150.706 30.505 151.048C30.5108 151.391 30.5916 151.729 30.7428 152.043C30.894 152.357 31.1126 152.642 31.3862 152.88Z" fill="#E2F3F5"/>
<path d="M28.3484 164.936C29.7802 165.583 35.2348 165.137 35.2348 165.137C35.2348 165.137 32.3939 160.931 30.9621 160.281C30.2749 159.97 29.4782 159.917 28.7473 160.133C28.0163 160.349 27.4109 160.817 27.0643 161.435C26.7177 162.052 26.6583 162.768 26.8991 163.424C27.1399 164.081 27.6613 164.625 28.3484 164.936Z" fill="#E2F3F5"/>
<path d="M27.1856 177.016C28.4735 177.873 33.9356 178.258 33.9356 178.258C33.9356 178.258 31.9243 173.681 30.6364 172.814C30.33 172.61 29.9819 172.463 29.6121 172.38C29.2423 172.297 28.858 172.281 28.4811 172.331C28.1042 172.382 27.7421 172.499 27.4155 172.676C27.089 172.852 26.8042 173.084 26.5777 173.36C26.3511 173.635 26.1871 173.948 26.095 174.28C26.0029 174.612 25.9846 174.957 26.0411 175.296C26.0975 175.634 26.2276 175.96 26.424 176.253C26.6204 176.546 26.8792 176.802 27.1856 177.006V177.016Z" fill="#E2F3F5"/>
<path opacity="0.25" d="M38.5152 141.332C38.5152 142.771 35.6137 146.946 35.6137 146.946C35.6137 146.946 32.7122 142.771 32.7122 141.332C32.7122 140.64 33.0179 139.977 33.562 139.489C34.1061 139 34.8441 138.725 35.6137 138.725C36.3832 138.725 37.1212 139 37.6654 139.489C38.2095 139.977 38.5152 140.64 38.5152 141.332Z" fill="black"/>
<path opacity="0.25" d="M43.3106 149.304C42.4394 150.512 37.4773 152.601 37.4773 152.601C37.4773 152.601 37.5682 147.681 38.4394 146.476C38.6466 146.189 38.9147 145.941 39.2286 145.747C39.5424 145.553 39.8957 145.416 40.2684 145.344C40.641 145.273 41.0257 145.268 41.4005 145.33C41.7753 145.392 42.1328 145.519 42.4527 145.706C42.7725 145.892 43.0484 146.133 43.2647 146.414C43.4809 146.696 43.6332 147.014 43.7128 147.348C43.7925 147.683 43.798 148.029 43.729 148.366C43.66 148.702 43.5178 149.023 43.3106 149.311V149.304Z" fill="black"/>
<path opacity="0.25" d="M43.1022 162.928C41.6704 163.575 36.2158 163.129 36.2158 163.129C36.2158 163.129 39.0567 158.923 40.4885 158.273C41.1757 157.962 41.9724 157.909 42.7034 158.125C43.4343 158.341 44.0397 158.81 44.3863 159.427C44.7329 160.044 44.7923 160.76 44.5515 161.417C44.3107 162.073 43.7893 162.617 43.1022 162.928Z" fill="black"/>
<path opacity="0.25" d="M40.3599 173.208C39.072 174.066 33.6099 174.45 33.6099 174.45C33.6099 174.45 35.6212 169.874 36.9091 169.006C37.5279 168.595 38.3032 168.421 39.0644 168.524C39.8255 168.626 40.5102 168.996 40.9678 169.552C41.4254 170.108 41.6184 170.804 41.5044 171.488C41.3904 172.172 40.9787 172.787 40.3599 173.198V173.208Z" fill="black"/>
<path opacity="0.25" d="M31.3862 152.88C32.5226 153.884 37.89 154.922 37.89 154.922C37.89 154.922 36.5794 150.158 35.4279 149.137C35.1543 148.899 34.8311 148.711 34.4768 148.585C34.1225 148.459 33.744 148.396 33.3629 148.402C32.9818 148.407 32.6055 148.479 32.2556 148.615C31.9058 148.751 31.5891 148.948 31.3237 149.193C31.0583 149.439 30.8495 149.729 30.709 150.048C30.5685 150.366 30.4992 150.706 30.505 151.048C30.5108 151.391 30.5916 151.729 30.7428 152.043C30.894 152.357 31.1126 152.642 31.3862 152.88Z" fill="black"/>
<path opacity="0.25" d="M28.3484 164.936C29.7802 165.583 35.2348 165.137 35.2348 165.137C35.2348 165.137 32.3939 160.931 30.9621 160.281C30.2749 159.97 29.4782 159.917 28.7473 160.133C28.0163 160.349 27.4109 160.817 27.0643 161.435C26.7177 162.052 26.6583 162.768 26.8991 163.424C27.1399 164.081 27.6613 164.625 28.3484 164.936Z" fill="black"/>
<path opacity="0.25" d="M27.1856 177.016C28.4735 177.873 33.9356 178.258 33.9356 178.258C33.9356 178.258 31.9243 173.681 30.6364 172.814C30.33 172.61 29.9819 172.463 29.6121 172.38C29.2423 172.297 28.858 172.281 28.4811 172.331C28.1042 172.382 27.7421 172.499 27.4155 172.676C27.089 172.852 26.8042 173.084 26.5777 173.36C26.3511 173.635 26.1871 173.948 26.095 174.28C26.0029 174.612 25.9846 174.957 26.0411 175.296C26.0975 175.634 26.2276 175.96 26.424 176.253C26.6204 176.546 26.8792 176.802 27.1856 177.006V177.016Z" fill="black"/>
<g opacity="0.7">
<path opacity="0.6" d="M375 27.2217H0V199.058H375V27.2217Z" fill="#E2F3F5"/>
<path opacity="0.25" d="M0 27.2217V199.399H375V27.2217H0ZM16.6667 42.1936H179.167V105.824H16.6667V42.1936ZM16.6667 120.796H179.167V184.427H16.6667V120.796ZM358.333 184.427H195.833V120.796H358.333V184.427ZM358.333 105.824H195.833V42.1936H358.333V105.824Z" fill="black"/>
</g>
<g opacity="0.7">
<path opacity="0.7" d="M137.542 206.503C137.542 206.503 104.724 195.723 100.231 210.896L112.818 239.639L114.167 258.013H141.587V242.432C141.587 242.432 137.542 226.862 147.883 217.283L137.542 206.503Z" fill="url(#paint0_linear)"/>
<g opacity="0.1">
<path opacity="0.1" d="M143.038 120.966C141.644 120.551 139.966 120.18 138.83 121.007C138.17 121.487 137.886 122.259 137.375 122.865C135.674 124.869 132.246 124.495 129.538 125.213C125.557 126.267 123.098 129.81 121.689 133.28C115.455 148.592 122.405 166.106 116.977 181.657C115.379 186.233 112.765 191.313 115.348 195.523C116.208 196.928 117.621 198.098 118.038 199.65C118.621 201.756 117.496 204.519 119.462 205.802C120.076 206.2 120.852 206.326 121.587 206.483C126.011 207.531 129.364 210.624 132.735 213.373C136.106 216.123 140.159 218.784 144.731 218.603C146.209 218.494 147.668 218.233 149.08 217.827L171.769 212.152C174.042 211.583 176.511 210.896 177.83 209.154C178.636 208.089 178.89 206.772 179.095 205.506C179.878 200.669 180.249 195.786 180.205 190.898C180.205 189.285 180.121 187.635 179.447 186.135C178.689 184.403 177.174 183.018 176.072 181.435C173.943 178.373 173.371 174.695 172.845 171.132C172.008 165.46 171.17 159.675 172.33 154.047C172.826 151.631 173.682 149.283 174.25 146.884C175.171 142.976 175.317 138.953 174.682 134.999C174.151 131.715 173.015 128.384 170.515 125.913C168.879 124.267 166.656 123.185 164.227 122.851C161.159 122.511 159.633 124.096 156.898 124.688C152.852 125.597 146.928 122.119 143.038 120.966Z" fill="url(#paint1_linear)"/>
</g>
<path opacity="0.7" d="M143.038 120.153C141.644 119.738 139.966 119.367 138.83 120.194C138.17 120.674 137.886 121.446 137.375 122.052C135.674 124.056 132.246 123.682 129.538 124.4C125.557 125.454 123.098 128.997 121.689 132.467C115.455 147.78 122.405 165.293 116.977 180.844C115.379 185.42 112.765 190.5 115.348 194.71C116.208 196.115 117.621 197.285 118.038 198.837C118.621 200.943 117.496 203.706 119.462 204.989C120.076 205.387 120.852 205.513 121.587 205.67C126.011 206.718 129.364 209.811 132.735 212.56C136.106 215.31 140.151 218.001 144.731 217.811C146.209 217.701 147.668 217.441 149.08 217.035L171.769 211.359C174.042 210.791 176.511 210.103 177.83 208.361C178.636 207.296 178.89 205.979 179.095 204.714C179.878 199.877 180.249 194.993 180.205 190.106C180.205 188.493 180.121 186.843 179.447 185.342C178.689 183.61 177.174 182.225 176.072 180.643C173.943 177.58 173.371 173.902 172.845 170.339C172.008 164.667 171.17 158.883 172.33 153.254C172.826 150.839 173.682 148.491 174.25 146.092C175.171 142.184 175.317 138.16 174.682 134.206C174.151 130.923 173.015 127.591 170.515 125.121C168.879 123.475 166.656 122.392 164.227 122.058C161.159 121.718 159.633 123.304 156.898 123.896C152.852 124.781 146.928 121.323 143.038 120.153Z" fill="url(#paint2_linear)"/>
<path opacity="0.7" d="M136.644 89.9334C136.644 89.9334 137.095 105.103 131.701 104.705C126.307 104.306 146.97 129.854 146.97 129.854L164.5 121.47C164.5 121.47 154.167 106.702 161.364 97.518C168.56 88.3341 136.644 89.9334 136.644 89.9334Z" fill="url(#paint3_linear)"/>
<g opacity="0.1">
<path opacity="0.1" d="M106.523 218.879C106.523 218.879 102.928 240.836 93.9357 234.848C84.9433 228.859 86.2918 218.879 86.2918 218.879C86.2918 218.879 103.826 176.563 102.928 170.172C102.03 163.782 132.852 114.13 132.852 114.13L144.269 195.723C144.269 195.723 110.118 206.901 106.523 218.879Z" fill="url(#paint4_linear)"/>
</g>
<path opacity="0.7" d="M105.625 218.879C105.625 218.879 102.03 240.836 93.038 234.848C84.0456 228.859 85.394 218.879 85.394 218.879C85.394 218.879 102.928 176.563 102.027 170.172C101.125 163.782 131.951 114.13 131.951 114.13L143.368 195.723C143.368 195.723 109.22 206.901 105.625 218.879Z" fill="url(#paint5_linear)"/>
<path opacity="0.7" d="M137.542 99.5156C137.542 99.5156 120.008 110.285 113.258 109.894L108.019 111.173C102.839 112.421 98.1507 114.946 94.4839 118.462C90.8172 121.977 88.3181 126.344 87.269 131.069L87.1856 131.45C84.4962 144.227 83.5947 179.36 83.5947 179.36C83.5947 179.36 84.0455 188.547 88.5379 190.929L117.326 208.494C117.326 208.494 116.428 189.333 127.216 187.336C138.004 185.339 124.519 186.536 124.519 186.536L104.739 176.158C104.739 176.158 105.189 160.587 110.583 155.402C115.977 150.216 134.86 123.076 134.86 123.076L129.466 106.311L137.542 99.5156Z" fill="url(#paint6_linear)"/>
<g opacity="0.1">
<path opacity="0.1" d="M156.871 109.894C156.871 109.894 167.913 112.49 175.644 113.759C176.848 113.952 177.985 114.398 178.962 115.061C179.939 115.723 180.728 116.582 181.265 117.57C183.598 121.895 187.155 129.718 186.542 136.241L193.284 159.794L212.602 180.551L195.076 187.741L175.303 168.179L191.485 205.305L161.364 206.503C161.364 206.503 152.371 146.616 154.621 136.642L156.871 109.894Z" fill="url(#paint7_linear)"/>
</g>
<path opacity="0.7" d="M157.769 109.894C157.769 109.894 168.811 112.49 176.542 113.759C177.746 113.952 178.883 114.398 179.86 115.061C180.836 115.723 181.626 116.582 182.163 117.57C184.496 121.895 188.053 129.718 187.439 136.241L194.182 159.794L213.5 180.551L195.97 187.737L176.189 168.175L192.386 205.305L162.265 206.503C162.265 206.503 153.273 146.616 155.523 136.642L157.769 109.894Z" fill="url(#paint8_linear)"/>
<path opacity="0.7" d="M136.064 98.2427L142.261 125.264L132.148 129.854L126.606 105.514L136.064 98.2427Z" fill="url(#paint9_linear)"/>
<path opacity="0.7" d="M153.049 127.261L157.769 109.894L163.841 120.074L160.693 128.459L153.049 127.261Z" fill="url(#paint10_linear)"/>
<path opacity="0.1" d="M170.133 132.45C170.133 132.45 170.133 159.597 174.178 161.591L170.133 132.45Z" fill="url(#paint11_linear)"/>
<path opacity="0.1" d="M112.14 139.235C112.14 139.235 102.811 165.97 105.451 168.771L112.14 139.235Z" fill="url(#paint12_linear)"/>
<path opacity="0.1" d="M110.345 175.958C110.345 175.958 128.33 186.4 130.799 186.567L110.345 175.958Z" fill="url(#paint13_linear)"/>
<g opacity="0.1">
<path opacity="0.1" d="M137.091 91.5293C137.091 91.5293 137.159 93.867 136.917 96.681C138.52 100.023 141.18 102.868 144.567 104.864C147.954 106.86 151.919 107.919 155.97 107.91C157.08 107.909 158.188 107.83 159.284 107.672C159.167 104.684 159.807 101.686 161.814 99.1276C169.008 89.9334 137.091 91.5293 137.091 91.5293Z" fill="url(#paint14_linear)"/>
</g>
<path opacity="0.7" d="M155.523 106.304C166.943 106.304 176.201 98.082 176.201 87.9396C176.201 77.7972 166.943 69.5752 155.523 69.5752C144.103 69.5752 134.845 77.7972 134.845 87.9396C134.845 98.082 144.103 106.304 155.523 106.304Z" fill="url(#paint15_linear)"/>
<g opacity="0.1">
<path opacity="0.1" d="M168.644 80.2186C171.148 80.5181 174.326 79.7763 174.822 77.5713C175.432 74.7879 171.239 72.9777 170.591 70.1976C170.348 69.1564 170.636 68.0675 170.496 67.0093C170.216 64.8792 168.277 63.2391 166.303 62.0005C160.037 58.1034 152.446 56.3066 144.856 56.9237C143.917 57.0019 142.928 57.1381 142.205 57.6723C141.379 58.2746 141.068 59.2545 140.496 60.0542C138.557 62.8376 134.201 63.1642 131.076 64.8996C127.42 66.9412 125.61 70.9122 125.447 74.7369C125.284 78.5615 126.511 82.3147 127.72 85.9896C128.754 89.1133 129.837 92.322 132.106 94.8809C134.375 97.4397 138.14 99.2261 141.705 98.4571C140.072 97.4125 141.258 94.9864 143.027 94.1357C144.795 93.285 146.992 93.1387 148.504 91.9648C150.015 90.7908 150.47 88.8683 150.962 87.1193C151.583 84.9144 152.477 82.6754 154.295 81.0659C157.86 77.915 164.28 79.698 168.644 80.2186Z" fill="url(#paint16_linear)"/>
</g>
<path opacity="0.7" d="M168.182 79.8206C170.686 80.1201 173.864 79.3783 174.36 77.1733C174.97 74.3899 170.776 72.5797 170.129 69.7996C169.886 68.7584 170.174 67.6696 170.034 66.6113C169.754 64.4812 167.814 62.8411 165.841 61.6025C159.579 57.7073 151.995 55.9094 144.409 56.5223C143.47 56.6006 142.481 56.7367 141.758 57.2709C140.932 57.8732 140.621 58.8531 140.049 59.6528C138.11 62.4362 133.754 62.7629 130.629 64.4982C126.973 66.5399 125.163 70.5108 125 74.3355C124.837 78.1601 126.064 81.9133 127.273 85.5882C128.307 88.7119 129.39 91.9206 131.659 94.4795C133.928 97.0383 137.693 98.8247 141.258 98.0557C139.625 97.0111 140.811 94.5849 142.58 93.7343C144.348 92.8836 146.545 92.7373 148.057 91.5634C149.568 90.3894 150.023 88.4669 150.515 86.7179C151.136 84.5129 152.03 82.274 153.848 80.6645C157.409 77.517 163.83 79.2966 168.182 79.8206Z" fill="url(#paint17_linear)"/>
<g opacity="0.1">
<path opacity="0.1" d="M151.947 90.4168C151.644 92.3155 150.97 95.6025 149.701 97.6782C148.023 100.379 146.588 103.197 145.409 106.103C145.409 106.103 153.689 111.796 157.909 115.685C159.208 116.907 160.87 117.768 162.698 118.165C164.526 118.563 166.443 118.48 168.22 117.928C170.413 117.22 172.333 115.852 172.845 113.286C173.648 109.241 172.693 106.188 171.792 104.382C171.357 103.528 171.13 102.601 171.125 101.662C171.119 100.724 171.336 99.7947 171.761 98.9372C172.072 98.3247 172.436 97.8449 172.841 97.7258C172.841 97.7258 164.75 96.13 164.299 98.1239C163.849 100.118 157.557 102.115 156.208 98.522L155.83 90.6005C155.806 90.1516 155.591 89.7282 155.228 89.4187C154.865 89.1093 154.383 88.9378 153.883 88.94C153.416 88.936 152.964 89.083 152.608 89.3542C152.253 89.6255 152.018 90.0027 151.947 90.4168Z" fill="url(#paint18_linear)"/>
</g>
<path opacity="0.7" d="M151.947 90.8182C151.644 92.7169 150.97 96.0039 149.701 98.0795C148.023 100.781 146.588 103.598 145.409 106.505C145.409 106.505 153.689 112.197 157.909 116.087C159.208 117.308 160.87 118.169 162.698 118.566C164.526 118.964 166.443 118.882 168.22 118.329C170.413 117.621 172.333 116.253 172.845 113.688C173.648 109.642 172.693 106.59 171.792 104.783C171.357 103.929 171.13 103.002 171.125 102.064C171.119 101.125 171.336 100.196 171.761 99.3385C172.072 98.726 172.436 98.2463 172.841 98.1272C172.841 98.1272 164.75 96.5313 164.299 98.5253C163.849 100.519 157.557 102.517 156.208 98.9234L155.83 91.0019C155.806 90.553 155.591 90.1295 155.228 89.8201C154.865 89.5106 154.383 89.3391 153.883 89.3414C153.416 89.3373 152.964 89.4844 152.608 89.7556C152.253 90.0268 152.018 90.4041 151.947 90.8182Z" fill="url(#paint19_linear)"/>
</g>
<path d="M137.981 206.241C137.981 206.241 106.477 195.775 102.163 210.505L114.246 238.407L115.53 256.261H141.856V241.136C141.856 241.136 137.973 226.018 147.917 216.711L137.981 206.241Z" fill="#535461"/>
<path opacity="0.1" d="M143.258 123.178C141.92 122.777 140.307 122.416 139.22 123.219C138.587 123.685 138.314 124.434 137.822 125.022C136.189 126.969 132.898 126.605 130.299 127.302C126.477 128.323 124.121 131.767 122.765 135.129C116.78 149.995 123.451 167.008 118.242 182.106C116.727 186.55 114.201 191.484 116.678 195.571C117.504 196.932 118.848 198.072 119.261 199.579C119.822 201.621 118.742 204.309 120.629 205.554C121.216 205.942 121.962 206.061 122.667 206.235C126.913 207.256 130.133 210.257 133.367 212.928C136.602 215.599 140.496 218.182 144.882 218.008C146.299 217.902 147.697 217.649 149.049 217.256L170.829 211.744C173.015 211.189 175.375 210.522 176.651 208.831C177.409 207.81 177.67 206.524 177.867 205.289C178.619 200.591 178.974 195.849 178.932 191.103C178.932 189.538 178.852 187.935 178.212 186.479C177.454 184.798 176.03 183.454 174.97 181.912C172.928 178.945 172.375 175.366 171.871 171.905C171.068 166.396 170.265 160.778 171.375 155.313C171.852 152.969 172.674 150.689 173.22 148.358C174.104 144.562 174.245 140.656 173.636 136.816C173.129 133.628 172.034 130.392 169.64 127.993C168.076 126.398 165.94 125.346 163.602 125.019C160.655 124.679 159.189 126.23 156.564 126.805C152.682 127.66 146.992 124.301 143.258 123.178Z" fill="black"/>
<path d="M143.258 122.402C141.92 122.001 140.307 121.64 139.22 122.443C138.587 122.909 138.314 123.658 137.822 124.247C136.189 126.193 132.898 125.829 130.299 126.526C126.477 127.547 124.121 130.991 122.765 134.353C116.78 149.219 123.451 166.233 118.242 181.33C116.727 185.774 114.201 190.708 116.678 194.795C117.504 196.156 118.848 197.296 119.261 198.803C119.822 200.845 118.742 203.533 120.629 204.778C121.216 205.166 121.962 205.285 122.667 205.459C126.913 206.48 130.133 209.481 133.367 212.152C136.602 214.823 140.496 217.406 144.883 217.232C146.299 217.126 147.697 216.874 149.049 216.48L170.833 210.971C173.019 210.417 175.379 209.75 176.655 208.059C177.413 207.038 177.674 205.752 177.871 204.516C178.622 199.819 178.978 195.076 178.936 190.331C178.936 188.765 178.856 187.163 178.216 185.706C177.458 184.025 176.034 182.681 174.973 181.14C172.932 178.173 172.379 174.593 171.875 171.132C171.072 165.624 170.269 160.006 171.379 154.541C171.856 152.196 172.678 149.917 173.223 147.586C174.108 143.789 174.249 139.884 173.64 136.044C173.133 132.855 172.038 129.619 169.644 127.221C168.085 125.624 165.953 124.568 163.617 124.236C160.67 123.896 159.204 125.448 156.579 126.023C152.682 126.887 146.992 123.525 143.258 122.402Z" fill="#E0E0E0"/>
<path d="M137.121 93.0434C137.121 93.0434 137.553 107.774 132.375 107.386C127.197 106.998 147.049 131.81 147.049 131.81L163.879 123.668C163.879 123.668 153.955 109.325 160.849 100.407C167.742 91.4884 137.121 93.0434 137.121 93.0434Z" fill="#FDA57D"/>
<path opacity="0.1" d="M108.205 218.263C108.205 218.263 104.754 239.584 96.1212 233.769C87.4887 227.954 88.7841 218.263 88.7841 218.263C88.7841 218.263 105.614 177.168 104.75 170.965C103.886 164.762 133.492 116.539 133.492 116.539L144.451 195.774C144.451 195.774 111.655 206.633 108.205 218.263Z" fill="black"/>
<path d="M107.341 218.263C107.341 218.263 103.89 239.584 95.2575 233.769C86.6249 227.954 87.9204 218.263 87.9204 218.263C87.9204 218.263 104.75 177.168 103.886 170.965C103.023 164.762 132.629 116.539 132.629 116.539L143.587 195.774C143.587 195.774 110.792 206.633 107.341 218.263Z" fill="#0E153A"/>
<path d="M137.981 102.347C137.981 102.347 121.152 112.813 114.678 112.425L109.648 113.667C104.653 114.901 100.141 117.363 96.6216 120.777C93.1018 124.191 90.7139 128.42 89.7273 132.988L89.6478 133.359C87.0569 145.765 86.197 179.881 86.197 179.881C86.197 179.881 86.6288 188.796 90.9432 191.11L118.561 208.185C118.561 208.185 117.697 189.575 128.057 187.639C138.417 185.703 125.466 186.863 125.466 186.863L106.477 176.781C106.477 176.781 106.909 161.663 112.087 156.623C117.265 151.584 135.39 125.223 135.39 125.223L130.212 108.924L137.981 102.347Z" fill="#0E153A"/>
<path opacity="0.1" d="M156.538 112.429C156.538 112.429 167.144 114.95 174.561 116.172C175.721 116.363 176.815 116.798 177.752 117.441C178.69 118.085 179.444 118.918 179.955 119.874C182.193 124.076 185.606 131.668 185.019 138.003L191.492 160.876L210.053 181.034L193.22 188.023L174.242 169.029L189.773 205.098L160.856 206.241C160.856 206.241 152.223 148.089 154.383 138.398L156.538 112.429Z" fill="#0E153A"/>
<path d="M157.401 112.429C157.401 112.429 168.008 114.95 175.424 116.172C176.585 116.363 177.678 116.798 178.616 117.441C179.553 118.085 180.308 118.918 180.818 119.874C183.057 124.076 186.47 131.668 185.883 138.003L192.356 160.876L210.917 181.034L194.087 188.013L175.098 169.016L190.629 205.084L161.716 206.241C161.716 206.241 153.083 148.089 155.242 138.398L157.401 112.429Z" fill="#0E153A"/>
<path d="M136.564 101.115L142.515 127.353L132.803 131.811L127.485 108.175L136.564 101.115Z" fill="#E0E0E0"/>
<path d="M152.871 129.293L157.401 112.429L163.227 122.314L160.208 130.456L152.871 129.293Z" fill="#E0E0E0"/>
<path opacity="0.1" d="M169.269 134.332C169.269 134.332 169.269 160.693 173.151 162.632L169.269 134.332Z" fill="black"/>
<path opacity="0.1" d="M113.598 140.91C113.598 140.91 104.64 166.872 107.159 169.591L113.598 140.91Z" fill="black"/>
<path opacity="0.1" d="M111.871 176.587C111.871 176.587 129.136 186.727 131.507 186.89L111.871 176.587Z" fill="black"/>
<path opacity="0.1" d="M137.549 94.5952C137.549 94.5952 137.617 96.8647 137.383 99.5971C139.115 103.278 142.173 106.33 146.067 108.263C149.961 110.196 154.465 110.899 158.856 110.258C158.742 107.355 159.36 104.446 161.284 101.959C168.182 93.0435 137.549 94.5952 137.549 94.5952Z" fill="black"/>
<path d="M155.242 108.941C166.207 108.941 175.095 100.957 175.095 91.1075C175.095 81.2583 166.207 73.2739 155.242 73.2739C144.278 73.2739 135.39 81.2583 135.39 91.1075C135.39 100.957 144.278 108.941 155.242 108.941Z" fill="#FDA57D"/>
<path opacity="0.1" d="M167.837 83.6112C170.243 83.9004 173.307 83.179 173.769 81.0421C174.356 78.337 170.33 76.5812 169.708 73.8964C169.474 72.8756 169.754 71.8276 169.618 70.8034C169.349 68.7345 167.485 67.1421 165.591 65.9409C159.594 62.1623 152.299 60.4164 145.004 61.0138C144.102 61.0921 143.152 61.2214 142.455 61.7386C141.663 62.3238 141.356 63.2732 140.814 64.0592C138.951 66.761 134.754 67.0808 131.773 68.7652C128.261 70.7353 126.527 74.6042 126.367 78.32C126.208 82.0357 127.39 85.68 128.557 89.246C129.549 92.2813 130.591 95.3947 132.769 97.8787C134.947 100.363 138.564 102.098 141.981 101.349C140.413 100.329 141.553 97.9774 143.25 97.1539C144.947 96.3305 147.038 96.1875 148.511 95.0442C149.985 93.9009 150.405 92.0363 150.871 90.3383C151.47 88.1946 152.333 86.0237 154.072 84.4584C157.489 81.362 163.636 83.1041 167.837 83.6112Z" fill="black"/>
<path d="M167.424 83.2236C169.83 83.5129 172.894 82.7915 173.356 80.6546C173.943 77.9494 169.917 76.1936 169.296 73.5089C169.061 72.4881 169.341 71.4401 169.205 70.4158C168.917 68.33 167.046 66.7307 165.152 65.5364C159.158 61.7589 151.868 60.0119 144.576 60.6058C143.674 60.6841 142.724 60.8134 142.027 61.3306C141.235 61.9159 140.928 62.8652 140.386 63.6513C138.523 66.353 134.326 66.6729 131.345 68.3572C127.833 70.3274 126.099 74.1962 125.94 77.912C125.78 81.6278 126.962 85.2721 128.129 88.8381C129.121 91.8733 130.163 94.9868 132.341 97.4708C134.519 99.9547 138.136 101.69 141.553 100.942C139.985 99.9207 141.125 97.5694 142.822 96.746C144.519 95.9225 146.61 95.7796 148.083 94.6363C149.557 93.493 149.977 91.6283 150.443 89.9304C151.042 87.7867 151.905 85.6157 153.644 84.0505C157.057 80.9846 163.22 82.7234 167.424 83.2236Z" fill="#72351C"/>
<path opacity="0.1" d="M151.811 93.5131C151.519 95.3574 150.871 98.5491 149.651 100.564C148.04 103.184 146.662 105.914 145.53 108.73C145.53 108.73 153.485 114.259 157.519 118.036C158.757 119.221 160.352 120.057 162.108 120.443C163.865 120.83 165.709 120.75 167.417 120.214C169.523 119.534 171.367 118.196 171.856 115.709C172.614 111.779 171.712 108.815 170.848 107.059C170.434 106.229 170.219 105.33 170.216 104.42C170.214 103.511 170.424 102.61 170.833 101.778C171.133 101.183 171.481 100.72 171.871 100.601C171.871 100.601 164.102 99.0493 163.67 100.989C163.239 102.928 157.197 104.865 155.901 101.377L155.545 93.6832C155.526 93.2493 155.32 92.8391 154.971 92.5384C154.622 92.2377 154.158 92.07 153.674 92.0704C153.222 92.0672 152.783 92.2117 152.441 92.4771C152.098 92.7425 151.874 93.1106 151.811 93.5131Z" fill="black"/>
<path d="M151.811 93.9013C151.519 95.7456 150.871 98.9373 149.651 100.952C148.04 103.572 146.662 106.303 145.53 109.118C145.53 109.118 153.485 114.648 157.519 118.425C158.757 119.609 160.352 120.445 162.108 120.831C163.865 121.218 165.709 121.138 167.417 120.602C169.523 119.922 171.367 118.585 171.856 116.097C172.614 112.167 171.712 109.203 170.848 107.447C170.43 106.616 170.212 105.715 170.207 104.803C170.203 103.89 170.412 102.988 170.822 102.153C171.121 101.557 171.47 101.095 171.86 100.976C171.86 100.976 164.091 99.4239 163.659 101.363C163.227 103.303 157.197 105.256 155.89 101.779L155.534 94.0851C155.514 93.6512 155.309 93.2409 154.96 92.9402C154.611 92.6395 154.146 92.4718 153.663 92.4722C153.215 92.471 152.781 92.6147 152.441 92.8771C152.101 93.1395 151.877 93.503 151.811 93.9013Z" fill="#72351C"/>
<path d="M306.061 204.2C306.061 204.2 298.261 197.187 295.394 187.867H296.064L295.742 187.057H296.064L295.049 184.464C297.924 181.925 300.049 179.465 300.394 178.067C300.977 175.712 301.557 162.972 301.909 154.119L302.22 154.187C302.977 153.023 303.136 151.556 303.083 150.226C303.112 148.731 302.898 147.241 302.447 145.802L301.042 133.161C300.906 131.998 300.509 130.872 299.874 129.851C299.239 128.831 298.38 127.937 297.348 127.224L283.106 117.298C283.856 116.39 284.808 115.632 285.901 115.073C286.716 114.685 287.663 114.419 288.212 113.756C289.204 112.555 288.36 110.765 289.038 109.397C289.545 108.376 290.795 107.804 291.526 106.889C293.023 105.014 291.939 102.425 290.822 100.349L284.329 88.2932C282.53 84.9552 280.716 81.5899 278.201 78.65C270.5 69.6396 255.682 65.1582 243.602 69.0645C240.159 70.1772 236.989 72.3141 235.519 75.3221C235.007 76.3701 234.701 77.5135 233.958 78.4424C232.303 80.5146 229.072 80.9059 226.761 82.3963C223.811 84.3121 222.716 87.9189 223.129 91.1685C223.542 94.4181 225.201 97.4193 226.837 100.356C228.557 103.418 230.333 106.573 233.155 108.893C234.473 109.979 236.087 110.986 236.507 112.548C236.867 113.888 236.231 115.27 236.364 116.658C236.419 117.236 236.607 117.796 236.917 118.305C230.542 119.023 226.019 123.78 223.992 130.858C223.867 131.297 223.818 131.538 223.818 131.538L222.92 138.868C222.901 139.184 222.92 139.49 222.92 139.793C222.839 141.442 223.23 143.083 224.057 144.557V170.292L196.784 185.801C192.693 187.434 193.602 200.497 201.784 202.944C209.966 205.391 217.242 189.908 217.242 189.908C222.223 189.609 230.602 183.64 235.106 179.02C235.715 179.902 236.524 180.659 237.481 181.242C234.231 187.822 227.803 201.437 228.829 204.2C229.447 205.867 245.409 206.02 262.663 205.693C263.104 205.914 263.567 206.097 264.045 206.241C265.886 206.792 267.682 206.432 269.348 205.544C288.015 205.064 306.061 204.2 306.061 204.2ZM283.026 154.299C283.405 153.356 284.648 152.843 286.311 152.598V162.523L283.026 154.299ZM281.439 119.421L281.492 119.35L281.439 119.421Z" fill="url(#paint20_linear)"/>
<path d="M240.477 141.893C240.477 141.893 239.614 169.417 238.75 172.908C237.886 176.399 225.379 186.846 218.898 187.251C218.898 187.251 211.992 201.981 204.224 199.657C196.455 197.333 195.591 184.927 199.477 183.375L225.379 168.641V139.177L240.477 141.893Z" fill="#FDB797"/>
<path d="M239.83 175.617C239.83 175.617 228.61 197.326 229.905 200.818C231.201 204.309 303.269 200.818 303.269 200.818C303.269 200.818 289.89 188.799 292.481 175.617H239.83Z" fill="#FBFFFE"/>
<path d="M248.462 111.265C248.462 111.265 250.189 126.383 247.167 129.874C244.144 133.366 259.25 135.319 260.546 135.319C261.841 135.319 275.652 131.055 278.239 129.874C280.826 128.694 282.985 120.184 282.985 120.184C282.985 120.184 270.038 122.511 266.155 108.955L248.462 111.265Z" fill="#FDB797"/>
<path d="M243.939 72.4812C240.67 73.5395 237.655 75.5675 236.261 78.4258C235.776 79.4193 235.485 80.5048 234.78 81.3895C233.208 83.3563 230.14 83.7272 227.962 85.1325C225.159 86.9529 224.121 90.3761 224.511 93.4657C224.901 96.5554 226.477 99.4034 228.03 102.18C229.663 105.096 231.352 108.084 234.03 110.289C235.28 111.31 236.814 112.276 237.212 113.759C237.553 115.032 236.951 116.363 237.076 117.666C237.386 120.888 241.674 122.389 245.254 122.746C246.81 122.903 248.591 122.909 249.689 121.906C250.25 121.388 250.534 120.687 250.886 120.041C251.701 118.56 252.956 117.311 254.513 116.432C256.07 115.553 257.867 115.079 259.705 115.062C261.544 115.045 263.352 115.486 264.928 116.336C266.505 117.186 267.788 118.412 268.636 119.878C269.477 121.327 269.966 123.09 271.492 123.961C273.829 125.322 276.958 123.726 278.689 121.759C280.42 119.792 281.663 117.336 284.121 116.155C284.879 115.784 285.795 115.536 286.318 114.903C287.261 113.763 286.458 112.062 287.102 110.765C287.587 109.789 288.773 109.254 289.466 108.383C290.886 106.604 289.845 104.143 288.795 102.173L282.629 90.7231C280.92 87.5518 279.197 84.3567 276.81 81.5631C269.481 73.0291 255.409 68.7723 243.939 72.4812Z" fill="#020202"/>
<path opacity="0.1" d="M259.682 132.586C259.682 132.586 276.511 132.586 280.83 118.635L294.996 128.503C295.974 129.184 296.788 130.037 297.387 131.01C297.986 131.983 298.358 133.055 298.481 134.162L299.818 146.167C299.818 146.167 301.333 150.624 299.602 153.339C299.602 153.339 281.693 149.256 281.261 153.921L293.761 185.321C293.761 185.321 274.341 185.709 269.163 182.599C269.163 182.599 248.015 186.475 242.837 182.211C237.659 177.948 232.481 178.336 236.776 168.641C236.776 168.641 228.144 160.887 232.03 150.032C235.917 139.177 232.246 150.226 232.246 150.226C232.246 150.226 223.864 146.544 224.295 139.548L225.159 132.569C225.159 132.569 225.205 132.338 225.326 131.923C227.958 122.736 235.026 117.631 244.966 120.884C247.871 121.83 250.841 120.745 250.841 120.745C250.841 120.745 247.598 133.362 259.682 132.586Z" fill="black"/>
<path d="M259.682 131.81C259.682 131.81 276.511 131.81 280.83 117.859L294.996 127.727C295.974 128.408 296.788 129.261 297.387 130.234C297.986 131.207 298.358 132.28 298.481 133.386L299.818 145.391C299.818 145.391 301.333 149.848 299.602 152.564C299.602 152.564 281.693 148.48 281.261 153.145L293.761 184.546C293.761 184.546 274.341 184.934 269.163 181.823C269.163 181.823 248.015 185.699 242.837 181.436C237.659 177.172 232.481 177.56 236.776 167.866C236.776 167.866 228.144 160.111 232.03 149.256C235.917 138.402 232.246 149.45 232.246 149.45C232.246 149.45 223.864 145.768 224.295 138.789L225.159 131.81C225.159 131.81 225.205 131.579 225.326 131.164C227.958 121.977 235.026 116.873 244.966 120.126C247.871 121.072 250.841 119.986 250.841 119.986C250.841 119.986 247.598 132.586 259.682 131.81Z" fill="#252A62"/>
<path d="M299.602 144.993C299.602 144.993 298.739 172.517 297.875 176.008C297.011 179.5 284.496 189.959 278.023 190.351C278.023 190.351 271.117 205.081 263.349 202.757C255.58 200.433 254.716 188.027 258.602 186.475L284.496 171.745V142.271L299.602 144.993Z" fill="#FDB797"/>
<path opacity="0.1" d="M281.061 145.963C281.061 145.963 290.985 152.013 299.621 151.509C299.621 151.509 300.485 141.117 297.894 140.535C295.303 139.954 284.064 140.535 281.061 145.963Z" fill="black"/>
<path d="M281.061 145.575C281.061 145.575 290.985 151.625 299.621 151.121C299.621 151.121 300.485 140.729 297.894 140.147C295.303 139.565 284.064 140.147 281.061 145.575Z" fill="#252A62"/>
<path opacity="0.1" d="M267.019 109.713L249.326 112.041C249.326 112.041 249.723 115.539 249.803 119.557C253.243 120.861 257.022 121.266 260.707 120.728C264.392 120.19 267.833 118.73 270.636 116.515C269.144 114.879 267.867 112.667 267.019 109.713Z" fill="black"/>
<path d="M256.663 120.184C267.627 120.184 276.515 112.199 276.515 102.35C276.515 92.501 267.627 84.5166 256.663 84.5166C245.699 84.5166 236.811 92.501 236.811 102.35C236.811 112.199 245.699 120.184 256.663 120.184Z" fill="#FDB797"/>
<path opacity="0.1" d="M261.894 98.9201C261.048 99.2057 260.143 99.3218 259.242 99.2604C255.732 99.24 252.223 99.1265 248.716 98.9201C246.064 98.7602 243.223 98.4778 241.174 96.9499C238.417 94.9083 237.981 91.0394 239.405 88.0859C240.83 85.1323 243.735 82.9546 246.803 81.2805C248.536 80.2986 250.413 79.5381 252.379 79.0211C258.061 77.6328 264.364 79.3375 268.883 82.7402C273.401 86.1429 276.284 91.0565 277.811 96.1741C278.337 97.9435 279.015 100.053 280.966 100.598C279.667 102.537 276.496 102.847 274.223 101.874C270.867 100.441 269.148 94.956 266.136 94.0917C262.777 93.1219 264.731 97.7496 261.894 98.9201Z" fill="black"/>
<path d="M261.894 98.5319C261.048 98.8175 260.143 98.9337 259.242 98.8722C255.732 98.8518 252.223 98.7384 248.716 98.5319C246.064 98.372 243.223 98.0896 241.174 96.5618C238.417 94.5202 237.981 90.6513 239.405 87.6977C240.83 84.7442 243.735 82.5664 246.803 80.8923C248.535 79.9131 250.41 79.1549 252.375 78.6397C258.057 77.2514 264.36 78.9562 268.879 82.3589C273.398 85.7616 276.28 90.6751 277.807 95.7928C278.333 97.5622 279.011 99.6719 280.962 100.216C279.663 102.156 276.492 102.465 274.22 101.492C270.864 100.06 269.144 94.5746 266.133 93.7103C262.776 92.7337 264.731 97.3546 261.894 98.5319Z" fill="black"/>
<path opacity="0.1" d="M236.595 167.672C243.068 166.118 249.74 165.336 256.439 165.344L236.595 167.672Z" fill="black"/>
<path opacity="0.1" d="M281.061 146.738C281.061 146.738 274.587 151.002 276.314 153.329L281.061 146.738Z" fill="black"/>
<g opacity="0.7">
<path opacity="0.7" d="M325.496 188.993H113.599V205.639H125.932V208.885V258H313.602V208.885V205.639H325.496V188.993Z" fill="url(#paint21_linear)"/>
</g>
<path d="M311.686 198.688H127.841V258.003H311.686V198.688Z" fill="#E0E0E0"/>
<path opacity="0.1" d="M311.686 201.787H127.841V211.09H311.686V201.787Z" fill="black"/>
<path d="M323.337 192.096H115.758V207.99H323.337V192.096Z" fill="#E0E0E0"/>
<path d="M182.75 188.183H147.97C146.61 188.183 145.508 189.173 145.508 190.395V191.011C145.508 192.232 146.61 193.223 147.97 193.223H182.75C184.11 193.223 185.212 192.232 185.212 191.011V190.395C185.212 189.173 184.11 188.183 182.75 188.183Z" fill="#535461"/>
<g opacity="0.7">
<path opacity="0.7" d="M257.667 131.994H180.364C174.46 131.994 169.674 136.293 169.674 141.597V183.685C169.674 188.988 174.46 193.287 180.364 193.287H257.667C263.57 193.287 268.356 188.988 268.356 183.685V141.597C268.356 136.293 263.57 131.994 257.667 131.994Z" fill="url(#paint22_linear)"/>
</g>
<path d="M254.746 133.124H181.599C175.984 133.124 171.432 137.213 171.432 142.257V184.151C171.432 189.195 175.984 193.284 181.599 193.284H254.746C260.361 193.284 264.913 189.195 264.913 184.151V142.257C264.913 137.213 260.361 133.124 254.746 133.124Z" fill="#3E3F49"/>
<path d="M256.042 133.124H182.894C177.279 133.124 172.727 137.213 172.727 142.257V184.151C172.727 189.195 177.279 193.284 182.894 193.284H256.042C261.657 193.284 266.208 189.195 266.208 184.151V142.257C266.208 137.213 261.657 133.124 256.042 133.124Z" fill="#535461"/>
<path d="M223.833 165.508C225.503 165.508 226.856 164.292 226.856 162.793C226.856 161.293 225.503 160.077 223.833 160.077C222.164 160.077 220.811 161.293 220.811 162.793C220.811 164.292 222.164 165.508 223.833 165.508Z" fill="#E0E0E0"/>
<path opacity="0.1" d="M100.22 199.848C100.22 199.848 102.773 203.213 110.345 204.244L100.22 199.848Z" fill="black"/>
<path opacity="0.2" d="M167.803 27.2217H140.909V13.6108H167.803V27.2217ZM142.046 26.2009H166.667V14.6317H142.046V26.2009Z" fill="#E2F3F5"/>
<path opacity="0.2" d="M194.697 27.2217H167.803V13.6108H194.697V27.2217ZM168.939 26.2009H193.561V14.6317H168.939V26.2009Z" fill="#E2F3F5"/>
<path opacity="0.2" d="M221.591 27.2217H194.697V13.6108H221.591V27.2217ZM195.833 26.2009H220.455V14.6317H195.833V26.2009Z" fill="#E2F3F5"/>
<path opacity="0.2" d="M248.485 27.2217H221.591V13.6108H248.485V27.2217ZM222.727 26.2009H247.348V14.6317H222.727V26.2009Z" fill="#E2F3F5"/>
<path opacity="0.2" d="M221.591 13.6108H194.697V0H221.591V13.6108ZM195.833 12.59H220.455V1.02081H195.833V12.59Z" fill="#E2F3F5"/>
<path opacity="0.2" d="M194.697 13.6108H167.803V0H194.697V13.6108ZM168.939 12.59H193.561V1.02081H168.939V12.59Z" fill="#E2F3F5"/>
<path opacity="0.2" d="M68.1818 27.2217H41.2878V13.6108H68.1818V27.2217ZM42.4242 26.2009H67.0454V14.6317H42.4242V26.2009Z" fill="#E2F3F5"/>
<path opacity="0.2" d="M95.0758 27.2217H68.1819V13.6108H95.0758V27.2217ZM69.3182 26.2009H93.9395V14.6317H69.3182V26.2009Z" fill="#E2F3F5"/>
<path opacity="0.2" d="M95.0758 13.6108H68.1819V0H95.0758V13.6108ZM69.3182 12.59H93.9395V1.02081H69.3182V12.59Z" fill="#E2F3F5"/>
<path opacity="0.2" d="M303.03 27.2217H276.136V13.6108H303.03V27.2217ZM277.273 26.2009H301.894V14.6317H277.273V26.2009Z" fill="#E2F3F5"/>
<path opacity="0.2" d="M329.924 27.2217H303.03V13.6108H329.924V27.2217ZM304.167 26.2009H328.788V14.6317H304.167V26.2009Z" fill="#E2F3F5"/>
<path opacity="0.2" d="M329.924 13.6108H303.03V0H329.924V13.6108ZM304.167 12.59H328.788V1.02081H304.167V12.59Z" fill="#E2F3F5"/>
</g>
<defs>
<linearGradient id="paint0_linear" x1="100.227" y1="230.394" x2="147.883" y2="230.394" gradientUnits="userSpaceOnUse">
<stop stop-color="#808080" stop-opacity="0.25"/>
<stop offset="0.54" stop-color="#808080" stop-opacity="0.12"/>
<stop offset="1" stop-color="#808080" stop-opacity="0.1"/>
</linearGradient>
<linearGradient id="paint1_linear" x1="26932.5" y1="55961.5" x2="38415.6" y2="55961.5" gradientUnits="userSpaceOnUse">
<stop stop-color="#808080" stop-opacity="0.25"/>
<stop offset="0.54" stop-color="#808080" stop-opacity="0.12"/>
<stop offset="1" stop-color="#808080" stop-opacity="0.1"/>
</linearGradient>
<linearGradient id="paint2_linear" x1="26932.5" y1="55742.2" x2="38415.6" y2="55742.2" gradientUnits="userSpaceOnUse">
<stop stop-color="#808080" stop-opacity="0.25"/>
<stop offset="0.54" stop-color="#808080" stop-opacity="0.12"/>
<stop offset="1" stop-color="#808080" stop-opacity="0.1"/>
</linearGradient>
<linearGradient id="paint3_linear" x1="15305.1" y1="15848.2" x2="18304.5" y2="15848.2" gradientUnits="userSpaceOnUse">
<stop stop-color="#808080" stop-opacity="0.25"/>
<stop offset="0.54" stop-color="#808080" stop-opacity="0.12"/>
<stop offset="1" stop-color="#808080" stop-opacity="0.1"/>
</linearGradient>
<linearGradient id="paint4_linear" x1="19394.5" y1="71363.8" x2="28292.8" y2="71363.8" gradientUnits="userSpaceOnUse">
<stop stop-color="#808080" stop-opacity="0.25"/>
<stop offset="0.54" stop-color="#808080" stop-opacity="0.12"/>
<stop offset="1" stop-color="#808080" stop-opacity="0.1"/>
</linearGradient>
<linearGradient id="paint5_linear" x1="19254.8" y1="71363.8" x2="28152.5" y2="71363.8" gradientUnits="userSpaceOnUse">
<stop stop-color="#808080" stop-opacity="0.25"/>
<stop offset="0.54" stop-color="#808080" stop-opacity="0.12"/>
<stop offset="1" stop-color="#808080" stop-opacity="0.1"/>
</linearGradient>
<linearGradient id="paint6_linear" x1="17653.6" y1="57148.7" x2="25336.7" y2="57148.7" gradientUnits="userSpaceOnUse">
<stop stop-color="#808080" stop-opacity="0.25"/>
<stop offset="0.54" stop-color="#808080" stop-opacity="0.12"/>
<stop offset="1" stop-color="#808080" stop-opacity="0.1"/>
</linearGradient>
<linearGradient id="paint7_linear" x1="30040.2" y1="51874.3" x2="39027.8" y2="51874.3" gradientUnits="userSpaceOnUse">
<stop stop-color="#808080" stop-opacity="0.25"/>
<stop offset="0.54" stop-color="#808080" stop-opacity="0.12"/>
<stop offset="1" stop-color="#808080" stop-opacity="0.1"/>
</linearGradient>
<linearGradient id="paint8_linear" x1="30178" y1="51874.3" x2="39165.1" y2="51874.3" gradientUnits="userSpaceOnUse">
<stop stop-color="#808080" stop-opacity="0.25"/>
<stop offset="0.54" stop-color="#808080" stop-opacity="0.12"/>
<stop offset="1" stop-color="#808080" stop-opacity="0.1"/>
</linearGradient>
<linearGradient id="paint9_linear" x1="5359.23" y1="10693.4" x2="6006.26" y2="10693.4" gradientUnits="userSpaceOnUse">
<stop stop-color="#808080" stop-opacity="0.25"/>
<stop offset="0.54" stop-color="#808080" stop-opacity="0.12"/>
<stop offset="1" stop-color="#808080" stop-opacity="0.1"/>
</linearGradient>
<linearGradient id="paint10_linear" x1="4513.42" y1="6612.15" x2="4820.87" y2="6612.15" gradientUnits="userSpaceOnUse">
<stop stop-color="#808080" stop-opacity="0.25"/>
<stop offset="0.54" stop-color="#808080" stop-opacity="0.12"/>
<stop offset="1" stop-color="#808080" stop-opacity="0.1"/>
</linearGradient>
<linearGradient id="paint11_linear" x1="2411.92" y1="14789.1" x2="2455.13" y2="14789.1" gradientUnits="userSpaceOnUse">
<stop stop-color="#808080" stop-opacity="0.25"/>
<stop offset="0.54" stop-color="#808080" stop-opacity="0.12"/>
<stop offset="1" stop-color="#808080" stop-opacity="0.1"/>
</linearGradient>
<linearGradient id="paint12_linear" x1="2841.17" y1="15600.5" x2="2976.49" y2="15600.5" gradientUnits="userSpaceOnUse">
<stop stop-color="#808080" stop-opacity="0.25"/>
<stop offset="0.54" stop-color="#808080" stop-opacity="0.12"/>
<stop offset="1" stop-color="#808080" stop-opacity="0.1"/>
</linearGradient>
<linearGradient id="paint13_linear" x1="8216.69" y1="6580.03" x2="9321.24" y2="6580.03" gradientUnits="userSpaceOnUse">
<stop stop-color="#808080" stop-opacity="0.25"/>
<stop offset="0.54" stop-color="#808080" stop-opacity="0.12"/>
<stop offset="1" stop-color="#808080" stop-opacity="0.1"/>
</linearGradient>
<linearGradient id="paint14_linear" x1="12243.5" y1="6088.94" x2="14021.6" y2="6088.94" gradientUnits="userSpaceOnUse">
<stop stop-color="#808080" stop-opacity="0.25"/>
<stop offset="0.54" stop-color="#808080" stop-opacity="0.12"/>
<stop offset="1" stop-color="#808080" stop-opacity="0.1"/>
</linearGradient>
<linearGradient id="paint15_linear" x1="14857.2" y1="9561.77" x2="19372.4" y2="9561.77" gradientUnits="userSpaceOnUse">
<stop stop-color="#808080" stop-opacity="0.25"/>
<stop offset="0.54" stop-color="#808080" stop-opacity="0.12"/>
<stop offset="1" stop-color="#808080" stop-opacity="0.1"/>
</linearGradient>
<linearGradient id="paint16_linear" x1="21692.1" y1="12578.1" x2="28148.3" y2="12578.1" gradientUnits="userSpaceOnUse">
<stop stop-color="#808080" stop-opacity="0.25"/>
<stop offset="0.54" stop-color="#808080" stop-opacity="0.12"/>
<stop offset="1" stop-color="#808080" stop-opacity="0.1"/>
</linearGradient>
<linearGradient id="paint17_linear" x1="21626.2" y1="12527.9" x2="28080.4" y2="12527.9" gradientUnits="userSpaceOnUse">
<stop stop-color="#808080" stop-opacity="0.25"/>
<stop offset="0.54" stop-color="#808080" stop-opacity="0.12"/>
<stop offset="1" stop-color="#808080" stop-opacity="0.1"/>
</linearGradient>
<linearGradient id="paint18_linear" x1="13705.7" y1="11158.6" x2="15735.8" y2="11158.6" gradientUnits="userSpaceOnUse">
<stop stop-color="#808080" stop-opacity="0.25"/>
<stop offset="0.54" stop-color="#808080" stop-opacity="0.12"/>
<stop offset="1" stop-color="#808080" stop-opacity="0.1"/>
</linearGradient>
<linearGradient id="paint19_linear" x1="13705.7" y1="11193.5" x2="15735.8" y2="11193.5" gradientUnits="userSpaceOnUse">
<stop stop-color="#808080" stop-opacity="0.25"/>
<stop offset="0.54" stop-color="#808080" stop-opacity="0.12"/>
<stop offset="1" stop-color="#808080" stop-opacity="0.1"/>
</linearGradient>
<linearGradient id="paint20_linear" x1="85679" y1="94175.9" x2="85679" y2="37515.7" gradientUnits="userSpaceOnUse">
<stop stop-color="#808080" stop-opacity="0.25"/>
<stop offset="0.54" stop-color="#808080" stop-opacity="0.12"/>
<stop offset="1" stop-color="#808080" stop-opacity="0.1"/>
</linearGradient>
<linearGradient id="paint21_linear" x1="122930" y1="52511.4" x2="122930" y2="38516.8" gradientUnits="userSpaceOnUse">
<stop stop-color="#808080" stop-opacity="0.25"/>
<stop offset="0.54" stop-color="#808080" stop-opacity="0.12"/>
<stop offset="1" stop-color="#808080" stop-opacity="0.1"/>
</linearGradient>
<linearGradient id="paint22_linear" x1="57227.5" y1="34948.8" x2="57227.5" y2="23908.1" gradientUnits="userSpaceOnUse">
<stop stop-color="#808080" stop-opacity="0.25"/>
<stop offset="0.54" stop-color="#808080" stop-opacity="0.12"/>
<stop offset="1" stop-color="#808080" stop-opacity="0.1"/>
</linearGradient>
<clipPath id="clip0">
<rect width="375" height="258" fill="white"/>
</clipPath>
</defs>
</svg>
